<svg version="1.1" viewBox="0.0 0.0 651.0 428.0" fill="none" stroke="none" stroke-linecap="square" stroke-miterlimit="10" width="651" height="428" xmlns:xlink="http://www.w3.org/1999/xlink" xmlns="http://www.w3.org/2000/svg"><path fill="#ffffff" d="M0 0L651.0 0L651.0 428.0L0 428.0L0 0Z" fill-rule="nonzero"/><path stroke="#333333" stroke-width="1.0" stroke-linecap="butt" d="M106.5 379.5L468.5 379.5" fill-rule="nonzero"/><path stroke="#cccccc" stroke-width="1.0" stroke-linecap="butt" d="M106.5 319.5L468.5 319.5" fill-rule="nonzero"/><path stroke="#cccccc" stroke-width="1.0" stroke-linecap="butt" d="M106.5 259.5L468.5 259.5" fill-rule="nonzero"/><path stroke="#cccccc" stroke-width="1.0" stroke-linecap="butt" d="M106.5 199.5L468.5 199.5" fill-rule="nonzero"/><path stroke="#cccccc" stroke-width="1.0" stroke-linecap="butt" d="M106.5 139.5L468.5 139.5" fill-rule="nonzero"/><path stroke="#cccccc" stroke-width="1.0" stroke-linecap="butt" d="M106.5 79.5L468.5 79.5" fill-rule="nonzero"/><path stroke="#e6e6e6" stroke-width="1.0" stroke-linecap="butt" d="M106.5 359.5L468.5 359.5" fill-rule="nonzero"/><path stroke="#e6e6e6" stroke-width="1.0" stroke-linecap="butt" d="M106.5 339.5L468.5 339.5" fill-rule="nonzero"/><path stroke="#e6e6e6" stroke-width="1.0" stroke-linecap="butt" d="M106.5 299.5L468.5 299.5" fill-rule="nonzero"/><path stroke="#e6e6e6" stroke-width="1.0" stroke-linecap="butt" d="M106.5 279.5L468.5 279.5" fill-rule="nonzero"/><path stroke="#e6e6e6" stroke-width="1.0" stroke-linecap="butt" d="M106.5 239.5L468.5 239.5" fill-rule="nonzero"/><path stroke="#e6e6e6" stroke-width="1.0" stroke-linecap="butt" d="M106.5 219.5L468.5 219.5" fill-rule="nonzero"/><path stroke="#e6e6e6" stroke-width="1.0" stroke-linecap="butt" d="M106.5 179.5L468.5 179.5" fill-rule="nonzero"/><path stroke="#e6e6e6" stroke-width="1.0" stroke-linecap="butt" d="M106.5 159.5L468.5 159.5" fill-rule="nonzero"/><path stroke="#e6e6e6" stroke-width="1.0" stroke-linecap="butt" d="M106.5 119.5L468.5 119.5" fill-rule="nonzero"/><path stroke="#e6e6e6" stroke-width="1.0" stroke-linecap="butt" d="M106.5 99.5L468.5 99.5" fill-rule="nonzero"/><path stroke="#000000" stroke-width="1.0" stroke-linecap="butt" d="M106.5 379.5L106.5 79.5" fill-rule="nonzero"/><clipPath id="id_0"><path d="M106.35313 79.5L468.5 79.5L468.5 379.6L106.35313 379.6L106.35313 79.5Z" clip-rule="nonzero"/></clipPath><path stroke="#000000" stroke-width="2.0" stroke-linecap="butt" stroke-opacity="0.0" clip-path="url(#id_0)" d="M209.0 380.0L161.0 380.0L161.0 292.0C161.0 290.89542 161.89543 290.0 163.0 290.0L207.0 290.0C208.10457 290.0 209.0 290.89542 209.0 292.0Z" fill-rule="nonzero"/><path fill="#3d85c6" clip-path="url(#id_0)" d="M209.0 380.0L161.0 380.0L161.0 292.0C161.0 290.89542 161.89543 290.0 163.0 290.0L207.0 290.0C208.10457 290.0 209.0 290.89542 209.0 292.0Z" fill-rule="nonzero"/><path stroke="#000000" stroke-width="2.0" stroke-linecap="butt" stroke-opacity="0.0" clip-path="url(#id_0)" d="M363.0 380.0L315.0 380.0L315.0 119.0C315.0 117.89543 315.89542 117.0 317.0 117.0L361.0 117.0C362.10458 117.0 363.0 117.89543 363.0 119.0Z" fill-rule="nonzero"/><path fill="#3d85c6" clip-path="url(#id_0)" d="M363.0 380.0L315.0 380.0L315.0 119.0C315.0 117.89543 315.89542 117.0 317.0 117.0L361.0 117.0C362.10458 117.0 363.0 117.89543 363.0 119.0Z" fill-rule="nonzero"/><path stroke="#000000" stroke-width="2.0" stroke-linecap="butt" stroke-opacity="0.0" clip-path="url(#id_0)" d="M259.0 380.0L211.0 380.0L211.0 367.0C211.0 365.89542 211.89543 365.0 213.0 365.0L257.0 365.0C258.10458 365.0 259.0 365.89542 259.0 367.0Z" fill-rule="nonzero"/><path fill="#bf9000" clip-path="url(#id_0)" d="M259.0 380.0L211.0 380.0L211.0 367.0C211.0 365.89542 211.89543 365.0 213.0 365.0L257.0 365.0C258.10458 365.0 259.0 365.89542 259.0 367.0Z" fill-rule="nonzero"/><path stroke="#000000" stroke-width="2.0" stroke-linecap="butt" stroke-opacity="0.0" clip-path="url(#id_0)" d="M413.0 380.0L365.0 380.0L365.0 354.0C365.0 352.89542 365.89542 352.0 367.0 352.0L411.0 352.0C412.10458 352.0 413.0 352.89542 413.0 354.0Z" fill-rule="nonzero"/><path fill="#bf9000" clip-path="url(#id_0)" d="M413.0 380.0L365.0 380.0L365.0 354.0C365.0 352.89542 365.89542 352.0 367.0 352.0L411.0 352.0C412.10458 352.0 413.0 352.89542 413.0 354.0Z" fill-rule="nonzero"/><path stroke="#000000" stroke-width="1.0" stroke-linecap="butt" d="M103.5 359.5L109.5 359.5" fill-rule="nonzero"/><path stroke="#000000" stroke-width="1.0" stroke-linecap="butt" d="M103.5 339.5L109.5 339.5" fill-rule="nonzero"/><path stroke="#000000" stroke-width="1.0" stroke-linecap="butt" d="M103.5 299.5L109.5 299.5" fill-rule="nonzero"/><path stroke="#000000" stroke-width="1.0" stroke-linecap="butt" d="M103.5 279.5L109.5 279.5" fill-rule="nonzero"/><path stroke="#000000" stroke-width="1.0" stroke-linecap="butt" d="M103.5 239.5L109.5 239.5" fill-rule="nonzero"/><path stroke="#000000" stroke-width="1.0" stroke-linecap="butt" d="M103.5 219.5L109.5 219.5" fill-rule="nonzero"/><path stroke="#000000" stroke-width="1.0" stroke-linecap="butt" d="M103.5 179.5L109.5 179.5" fill-rule="nonzero"/><path stroke="#000000" stroke-width="1.0" stroke-linecap="butt" d="M103.5 159.5L109.5 159.5" fill-rule="nonzero"/><path stroke="#000000" stroke-width="1.0" stroke-linecap="butt" d="M103.5 119.5L109.5 119.5" fill-rule="nonzero"/><path stroke="#000000" stroke-width="1.0" stroke-linecap="butt" d="M103.5 99.5L109.5 99.5" fill-rule="nonzero"/><path stroke="#000000" stroke-width="1.0" stroke-linecap="butt" d="M100.5 379.5L112.5 379.5" fill-rule="nonzero"/><path stroke="#000000" stroke-width="1.0" stroke-linecap="butt" d="M100.5 319.5L112.5 319.5" fill-rule="nonzero"/><path stroke="#000000" stroke-width="1.0" stroke-linecap="butt" d="M100.5 259.5L112.5 259.5" fill-rule="nonzero"/><path stroke="#000000" stroke-width="1.0" stroke-linecap="butt" d="M100.5 199.5L112.5 199.5" fill-rule="nonzero"/><path stroke="#000000" stroke-width="1.0" stroke-linecap="butt" d="M100.5 139.5L112.5 139.5" fill-rule="nonzero"/><path stroke="#000000" stroke-width="1.0" stroke-linecap="butt" d="M100.5 79.5L112.5 79.5" fill-rule="nonzero"/><path stroke="#ffffff" stroke-width="3.0" stroke-linejoin="round" stroke-linecap="round" d="M177.79688 259.0075L173.07812 269.57L171.5625 269.57L176.26562 259.3825L170.10938 259.3825L170.10938 258.195L177.79688 258.195L177.79688 259.0075ZM179.625 268.80438Q179.625 268.42938 179.84375 268.17938Q180.07812 267.92938 180.51562 267.92938Q180.96875 267.92938 181.1875 268.17938Q181.42188 268.42938 181.42188 268.80438Q181.42188 269.16376 181.1875 269.41376Q180.96875 269.66376 180.51562 269.66376Q180.07812 269.66376 179.84375 269.41376Q179.625 269.16376 179.625 268.80438ZM184.10938 263.86688L184.6875 258.195L190.51562 258.195L190.51562 259.52313L185.92188 259.52313L185.57812 262.6325Q186.40625 262.1325 187.46875 262.1325Q189.03125 262.1325 189.9375 263.16376Q190.85938 264.195 190.85938 265.945Q190.85938 267.695 189.90625 268.71063Q188.95312 269.72626 187.25 269.72626Q185.75 269.72626 184.79688 268.89813Q183.84375 268.05438 183.70312 266.57L185.07812 266.57Q185.20312 267.55438 185.76562 268.05438Q186.32812 268.53876 187.25 268.53876Q188.26562 268.53876 188.82812 267.85126Q189.40625 267.16376 189.40625 265.96063Q189.40625 264.82 188.78125 264.1325Q188.17188 263.42938 187.14062 263.42938Q186.1875 263.42938 185.65625 263.85126L185.26562 264.16376L184.10938 263.86688ZM199.57812 264.71063Q199.57812 267.2575 198.70312 268.49188Q197.84375 269.72626 196.0 269.72626Q194.1875 269.72626 193.3125 268.52313Q192.4375 267.30438 192.40625 264.91376L192.40625 262.97626Q192.40625 260.47626 193.26562 259.2575Q194.14062 258.03876 195.98438 258.03876Q197.82812 258.03876 198.6875 259.21063Q199.5625 260.3825 199.57812 262.83563L199.57812 264.71063ZM198.14062 262.74188Q198.14062 260.89813 197.625 260.07Q197.10938 259.22626 195.98438 259.22626Q194.875 259.22626 194.35938 260.07Q193.85938 260.89813 193.84375 262.6325L193.84375 264.945Q193.84375 266.78876 194.375 267.66376Q194.92188 268.53876 196.0 268.53876Q197.07812 268.53876 197.59375 267.71063Q198.10938 266.8825 198.14062 265.10126L198.14062 262.74188Z" fill-rule="nonzero"/><path fill="#3d85c6" d="M177.79688 259.0075L173.07812 269.57L171.5625 269.57L176.26562 259.3825L170.10938 259.3825L170.10938 258.195L177.79688 258.195L177.79688 259.0075ZM179.625 268.80438Q179.625 268.42938 179.84375 268.17938Q180.07812 267.92938 180.51562 267.92938Q180.96875 267.92938 181.1875 268.17938Q181.42188 268.42938 181.42188 268.80438Q181.42188 269.16376 181.1875 269.41376Q180.96875 269.66376 180.51562 269.66376Q180.07812 269.66376 179.84375 269.41376Q179.625 269.16376 179.625 268.80438ZM184.10938 263.86688L184.6875 258.195L190.51562 258.195L190.51562 259.52313L185.92188 259.52313L185.57812 262.6325Q186.40625 262.1325 187.46875 262.1325Q189.03125 262.1325 189.9375 263.16376Q190.85938 264.195 190.85938 265.945Q190.85938 267.695 189.90625 268.71063Q188.95312 269.72626 187.25 269.72626Q185.75 269.72626 184.79688 268.89813Q183.84375 268.05438 183.70312 266.57L185.07812 266.57Q185.20312 267.55438 185.76562 268.05438Q186.32812 268.53876 187.25 268.53876Q188.26562 268.53876 188.82812 267.85126Q189.40625 267.16376 189.40625 265.96063Q189.40625 264.82 188.78125 264.1325Q188.17188 263.42938 187.14062 263.42938Q186.1875 263.42938 185.65625 263.85126L185.26562 264.16376L184.10938 263.86688ZM199.57812 264.71063Q199.57812 267.2575 198.70312 268.49188Q197.84375 269.72626 196.0 269.72626Q194.1875 269.72626 193.3125 268.52313Q192.4375 267.30438 192.40625 264.91376L192.40625 262.97626Q192.40625 260.47626 193.26562 259.2575Q194.14062 258.03876 195.98438 258.03876Q197.82812 258.03876 198.6875 259.21063Q199.5625 260.3825 199.57812 262.83563L199.57812 264.71063ZM198.14062 262.74188Q198.14062 260.89813 197.625 260.07Q197.10938 259.22626 195.98438 259.22626Q194.875 259.22626 194.35938 260.07Q193.85938 260.89813 193.84375 262.6325L193.84375 264.945Q193.84375 266.78876 194.375 267.66376Q194.92188 268.53876 196.0 268.53876Q197.07812 268.53876 197.59375 267.71063Q198.10938 266.8825 198.14062 265.10126L198.14062 262.74188Z" fill-rule="nonzero"/><path stroke="#ffffff" stroke-width="3.0" stroke-linejoin="round" stroke-linecap="round" d="M327.40625 97.43264L319.95312 97.43264L319.95312 96.385765L323.89062 92.010765Q324.76562 91.02639 325.09375 90.40139Q325.42188 89.77639 325.42188 89.12014Q325.42188 88.229515 324.875 87.667015Q324.34375 87.08889 323.45312 87.08889Q322.375 87.08889 321.76562 87.698265Q321.17188 88.30764 321.17188 89.40139L319.73438 89.40139Q319.73438 87.83889 320.73438 86.87014Q321.75 85.90139 323.45312 85.90139Q325.03125 85.90139 325.95312 86.729515Q326.875 87.55764 326.875 88.948265Q326.875 90.62014 324.73438 92.948265L321.6875 96.24514L327.40625 96.24514L327.40625 97.43264ZM333.70312 97.43264L332.25 97.43264L332.25 87.792015L329.32812 88.87014L329.32812 87.55764L333.46875 85.99514L333.70312 85.99514L333.70312 97.43264ZM338.125 96.667015Q338.125 96.292015 338.34375 96.042015Q338.57812 95.792015 339.01562 95.792015Q339.46875 95.792015 339.6875 96.042015Q339.92188 96.292015 339.92188 96.667015Q339.92188 97.02639 339.6875 97.27639Q339.46875 97.52639 339.01562 97.52639Q338.57812 97.52639 338.34375 97.27639Q338.125 97.02639 338.125 96.667015ZM348.84375 89.02639Q348.84375 89.87014 348.39062 90.542015Q347.95312 91.198265 347.1875 91.573265Q348.07812 91.96389 348.59375 92.698265Q349.10938 93.43264 349.10938 94.354515Q349.10938 95.83889 348.10938 96.71389Q347.125 97.58889 345.5 97.58889Q343.85938 97.58889 342.85938 96.71389Q341.875 95.823265 341.875 94.354515Q341.875 93.43264 342.375 92.698265Q342.89062 91.948265 343.78125 91.573265Q343.01562 91.198265 342.57812 90.542015Q342.14062 89.87014 342.14062 89.02639Q342.14062 87.58889 343.0625 86.74514Q343.98438 85.90139 345.5 85.90139Q347.0 85.90139 347.92188 86.74514Q348.84375 87.58889 348.84375 89.02639ZM347.67188 94.323265Q347.67188 93.37014 347.0625 92.77639Q346.45312 92.167015 345.46875 92.167015Q344.5 92.167015 343.90625 92.760765Q343.32812 93.354515 343.32812 94.323265Q343.32812 95.292015 343.89062 95.854515Q344.46875 96.40139 345.5 96.40139Q346.51562 96.40139 347.09375 95.854515Q347.67188 95.292015 347.67188 94.323265ZM345.5 87.08889Q344.64062 87.08889 344.10938 87.62014Q343.59375 88.135765 343.59375 89.042015Q343.59375 89.917015 344.10938 90.448265Q344.625 90.979515 345.48438 90.979515Q346.35938 90.979515 346.875 90.448265Q347.40625 89.917015 347.40625 89.05764Q347.40625 88.18264 346.85938 87.635765Q346.32812 87.08889 345.5 87.08889ZM357.04688 93.604515L358.625 93.604515L358.625 94.792015L357.04688 94.792015L357.04688 97.43264L355.59375 97.43264L355.59375 94.792015L350.42188 94.792015L350.42188 93.93264L355.51562 86.05764L357.04688 86.05764L357.04688 93.604515ZM352.0625 93.604515L355.59375 93.604515L355.59375 88.02639L355.42188 88.33889L352.0625 93.604515Z" fill-rule="nonzero"/><path fill="#3d85c6" d="M327.40625 97.43264L319.95312 97.43264L319.95312 96.385765L323.89062 92.010765Q324.76562 91.02639 325.09375 90.40139Q325.42188 89.77639 325.42188 89.12014Q325.42188 88.229515 324.875 87.667015Q324.34375 87.08889 323.45312 87.08889Q322.375 87.08889 321.76562 87.698265Q321.17188 88.30764 321.17188 89.40139L319.73438 89.40139Q319.73438 87.83889 320.73438 86.87014Q321.75 85.90139 323.45312 85.90139Q325.03125 85.90139 325.95312 86.729515Q326.875 87.55764 326.875 88.948265Q326.875 90.62014 324.73438 92.948265L321.6875 96.24514L327.40625 96.24514L327.40625 97.43264ZM333.70312 97.43264L332.25 97.43264L332.25 87.792015L329.32812 88.87014L329.32812 87.55764L333.46875 85.99514L333.70312 85.99514L333.70312 97.43264ZM338.125 96.667015Q338.125 96.292015 338.34375 96.042015Q338.57812 95.792015 339.01562 95.792015Q339.46875 95.792015 339.6875 96.042015Q339.92188 96.292015 339.92188 96.667015Q339.92188 97.02639 339.6875 97.27639Q339.46875 97.52639 339.01562 97.52639Q338.57812 97.52639 338.34375 97.27639Q338.125 97.02639 338.125 96.667015ZM348.84375 89.02639Q348.84375 89.87014 348.39062 90.542015Q347.95312 91.198265 347.1875 91.573265Q348.07812 91.96389 348.59375 92.698265Q349.10938 93.43264 349.10938 94.354515Q349.10938 95.83889 348.10938 96.71389Q347.125 97.58889 345.5 97.58889Q343.85938 97.58889 342.85938 96.71389Q341.875 95.823265 341.875 94.354515Q341.875 93.43264 342.375 92.698265Q342.89062 91.948265 343.78125 91.573265Q343.01562 91.198265 342.57812 90.542015Q342.14062 89.87014 342.14062 89.02639Q342.14062 87.58889 343.0625 86.74514Q343.98438 85.90139 345.5 85.90139Q347.0 85.90139 347.92188 86.74514Q348.84375 87.58889 348.84375 89.02639ZM347.67188 94.323265Q347.67188 93.37014 347.0625 92.77639Q346.45312 92.167015 345.46875 92.167015Q344.5 92.167015 343.90625 92.760765Q343.32812 93.354515 343.32812 94.323265Q343.32812 95.292015 343.89062 95.854515Q344.46875 96.40139 345.5 96.40139Q346.51562 96.40139 347.09375 95.854515Q347.67188 95.292015 347.67188 94.323265ZM345.5 87.08889Q344.64062 87.08889 344.10938 87.62014Q343.59375 88.135765 343.59375 89.042015Q343.59375 89.917015 344.10938 90.448265Q344.625 90.979515 345.48438 90.979515Q346.35938 90.979515 346.875 90.448265Q347.40625 89.917015 347.40625 89.05764Q347.40625 88.18264 346.85938 87.635765Q346.32812 87.08889 345.5 87.08889ZM357.04688 93.604515L358.625 93.604515L358.625 94.792015L357.04688 94.792015L357.04688 97.43264L355.59375 97.43264L355.59375 94.792015L350.42188 94.792015L350.42188 93.93264L355.51562 86.05764L357.04688 86.05764L357.04688 93.604515ZM352.0625 93.604515L355.59375 93.604515L355.59375 88.02639L355.42188 88.33889L352.0625 93.604515Z" fill-rule="nonzero"/><path stroke="#ffffff" stroke-width="3.0" stroke-linejoin="round" stroke-linecap="round" d="M225.20312 345.1952L223.75 345.1952L223.75 335.55457L220.82812 336.6327L220.82812 335.3202L224.96875 333.7577L225.20312 333.7577L225.20312 345.1952ZM229.625 344.42957Q229.625 344.05457 229.84375 343.80457Q230.07812 343.55457 230.51562 343.55457Q230.96875 343.55457 231.1875 343.80457Q231.42188 344.05457 231.42188 344.42957Q231.42188 344.78894 231.1875 345.03894Q230.96875 345.28894 230.51562 345.28894Q230.07812 345.28894 229.84375 345.03894Q229.625 344.78894 229.625 344.42957ZM240.90625 345.1952L233.45312 345.1952L233.45312 344.14832L237.39062 339.77332Q238.26562 338.78894 238.59375 338.16394Q238.92188 337.53894 238.92188 336.8827Q238.92188 335.99207 238.375 335.42957Q237.84375 334.85144 236.95312 334.85144Q235.875 334.85144 235.26562 335.46082Q234.67188 336.0702 234.67188 337.16394L233.23438 337.16394Q233.23438 335.60144 234.23438 334.6327Q235.25 333.66394 236.95312 333.66394Q238.53125 333.66394 239.45312 334.49207Q240.375 335.3202 240.375 336.71082Q240.375 338.3827 238.23438 340.71082L235.1875 344.0077L240.90625 344.0077L240.90625 345.1952ZM249.57812 340.33582Q249.57812 342.8827 248.70312 344.11707Q247.84375 345.35144 246.0 345.35144Q244.1875 345.35144 243.3125 344.14832Q242.4375 342.92957 242.40625 340.53894L242.40625 338.60144Q242.40625 336.10144 243.26562 334.8827Q244.14062 333.66394 245.98438 333.66394Q247.82812 333.66394 248.6875 334.83582Q249.5625 336.0077 249.57812 338.46082L249.57812 340.33582ZM248.14062 338.36707Q248.14062 336.52332 247.625 335.6952Q247.10938 334.85144 245.98438 334.85144Q244.875 334.85144 244.35938 335.6952Q243.85938 336.52332 243.84375 338.2577L243.84375 340.5702Q243.84375 342.41394 244.375 343.28894Q244.92188 344.16394 246.0 344.16394Q247.07812 344.16394 247.59375 343.33582Q248.10938 342.5077 248.14062 340.72644L248.14062 338.36707Z" fill-rule="nonzero"/><path fill="#bf9000" d="M225.20312 345.1952L223.75 345.1952L223.75 335.55457L220.82812 336.6327L220.82812 335.3202L224.96875 333.7577L225.20312 333.7577L225.20312 345.1952ZM229.625 344.42957Q229.625 344.05457 229.84375 343.80457Q230.07812 343.55457 230.51562 343.55457Q230.96875 343.55457 231.1875 343.80457Q231.42188 344.05457 231.42188 344.42957Q231.42188 344.78894 231.1875 345.03894Q230.96875 345.28894 230.51562 345.28894Q230.07812 345.28894 229.84375 345.03894Q229.625 344.78894 229.625 344.42957ZM240.90625 345.1952L233.45312 345.1952L233.45312 344.14832L237.39062 339.77332Q238.26562 338.78894 238.59375 338.16394Q238.92188 337.53894 238.92188 336.8827Q238.92188 335.99207 238.375 335.42957Q237.84375 334.85144 236.95312 334.85144Q235.875 334.85144 235.26562 335.46082Q234.67188 336.0702 234.67188 337.16394L233.23438 337.16394Q233.23438 335.60144 234.23438 334.6327Q235.25 333.66394 236.95312 333.66394Q238.53125 333.66394 239.45312 334.49207Q240.375 335.3202 240.375 336.71082Q240.375 338.3827 238.23438 340.71082L235.1875 344.0077L240.90625 344.0077L240.90625 345.1952ZM249.57812 340.33582Q249.57812 342.8827 248.70312 344.11707Q247.84375 345.35144 246.0 345.35144Q244.1875 345.35144 243.3125 344.14832Q242.4375 342.92957 242.40625 340.53894L242.40625 338.60144Q242.40625 336.10144 243.26562 334.8827Q244.14062 333.66394 245.98438 333.66394Q247.82812 333.66394 248.6875 334.83582Q249.5625 336.0077 249.57812 338.46082L249.57812 340.33582ZM248.14062 338.36707Q248.14062 336.52332 247.625 335.6952Q247.10938 334.85144 245.98438 334.85144Q244.875 334.85144 244.35938 335.6952Q243.85938 336.52332 243.84375 338.2577L243.84375 340.5702Q243.84375 342.41394 244.375 343.28894Q244.92188 344.16394 246.0 344.16394Q247.07812 344.16394 247.59375 343.33582Q248.10938 342.5077 248.14062 340.72644L248.14062 338.36707Z" fill-rule="nonzero"/><path stroke="#ffffff" stroke-width="3.0" stroke-linejoin="round" stroke-linecap="round" d="M381.90625 331.87076L374.45312 331.87076L374.45312 330.82388L378.39062 326.44888Q379.26562 325.4645 379.59375 324.8395Q379.92188 324.2145 379.92188 323.55826Q379.92188 322.66763 379.375 322.10513Q378.84375 321.527 377.95312 321.527Q376.875 321.527 376.26562 322.13638Q375.67188 322.74576 375.67188 323.8395L374.23438 323.8395Q374.23438 322.277 375.23438 321.30826Q376.25 320.3395 377.95312 320.3395Q379.53125 320.3395 380.45312 321.16763Q381.375 321.99576 381.375 323.38638Q381.375 325.05826 379.23438 327.38638L376.1875 330.68326L381.90625 330.68326L381.90625 331.87076ZM383.625 331.10513Q383.625 330.73013 383.84375 330.48013Q384.07812 330.23013 384.51562 330.23013Q384.96875 330.23013 385.1875 330.48013Q385.42188 330.73013 385.42188 331.10513Q385.42188 331.4645 385.1875 331.7145Q384.96875 331.9645 384.51562 331.9645Q384.07812 331.9645 383.84375 331.7145Q383.625 331.4645 383.625 331.10513ZM389.54688 325.48013L390.64062 325.48013Q391.65625 325.4645 392.23438 324.94888Q392.82812 324.41763 392.82812 323.527Q392.82812 321.527 390.84375 321.527Q389.90625 321.527 389.34375 322.05826Q388.78125 322.5895 388.78125 323.48013L387.34375 323.48013Q387.34375 322.12076 388.32812 321.23013Q389.3125 320.3395 390.84375 320.3395Q392.45312 320.3395 393.35938 321.19888Q394.28125 322.04263 394.28125 323.55826Q394.28125 324.29263 393.79688 324.99576Q393.3125 325.68326 392.48438 326.027Q393.42188 326.32388 393.9375 327.01138Q394.45312 327.69888 394.45312 328.69888Q394.45312 330.23013 393.45312 331.13638Q392.45312 332.027 390.84375 332.027Q389.25 332.027 388.23438 331.16763Q387.23438 330.29263 387.23438 328.87076L388.6875 328.87076Q388.6875 329.76138 389.26562 330.30826Q389.85938 330.8395 390.84375 330.8395Q391.89062 330.8395 392.4375 330.29263Q393.0 329.74576 393.0 328.73013Q393.0 327.73013 392.39062 327.19888Q391.78125 326.66763 390.64062 326.652L389.54688 326.652L389.54688 325.48013ZM401.20312 331.87076L399.75 331.87076L399.75 322.23013L396.82812 323.30826L396.82812 321.99576L400.96875 320.43326L401.20312 320.43326L401.20312 331.87076Z" fill-rule="nonzero"/><path fill="#bf9000" d="M381.90625 331.87076L374.45312 331.87076L374.45312 330.82388L378.39062 326.44888Q379.26562 325.4645 379.59375 324.8395Q379.92188 324.2145 379.92188 323.55826Q379.92188 322.66763 379.375 322.10513Q378.84375 321.527 377.95312 321.527Q376.875 321.527 376.26562 322.13638Q375.67188 322.74576 375.67188 323.8395L374.23438 323.8395Q374.23438 322.277 375.23438 321.30826Q376.25 320.3395 377.95312 320.3395Q379.53125 320.3395 380.45312 321.16763Q381.375 321.99576 381.375 323.38638Q381.375 325.05826 379.23438 327.38638L376.1875 330.68326L381.90625 330.68326L381.90625 331.87076ZM383.625 331.10513Q383.625 330.73013 383.84375 330.48013Q384.07812 330.23013 384.51562 330.23013Q384.96875 330.23013 385.1875 330.48013Q385.42188 330.73013 385.42188 331.10513Q385.42188 331.4645 385.1875 331.7145Q384.96875 331.9645 384.51562 331.9645Q384.07812 331.9645 383.84375 331.7145Q383.625 331.4645 383.625 331.10513ZM389.54688 325.48013L390.64062 325.48013Q391.65625 325.4645 392.23438 324.94888Q392.82812 324.41763 392.82812 323.527Q392.82812 321.527 390.84375 321.527Q389.90625 321.527 389.34375 322.05826Q388.78125 322.5895 388.78125 323.48013L387.34375 323.48013Q387.34375 322.12076 388.32812 321.23013Q389.3125 320.3395 390.84375 320.3395Q392.45312 320.3395 393.35938 321.19888Q394.28125 322.04263 394.28125 323.55826Q394.28125 324.29263 393.79688 324.99576Q393.3125 325.68326 392.48438 326.027Q393.42188 326.32388 393.9375 327.01138Q394.45312 327.69888 394.45312 328.69888Q394.45312 330.23013 393.45312 331.13638Q392.45312 332.027 390.84375 332.027Q389.25 332.027 388.23438 331.16763Q387.23438 330.29263 387.23438 328.87076L388.6875 328.87076Q388.6875 329.76138 389.26562 330.30826Q389.85938 330.8395 390.84375 330.8395Q391.89062 330.8395 392.4375 330.29263Q393.0 329.74576 393.0 328.73013Q393.0 327.73013 392.39062 327.19888Q391.78125 326.66763 390.64062 326.652L389.54688 326.652L389.54688 325.48013ZM401.20312 331.87076L399.75 331.87076L399.75 322.23013L396.82812 323.30826L396.82812 321.99576L400.96875 320.43326L401.20312 320.43326L401.20312 331.87076Z" fill-rule="nonzero"/><path fill="#000000" d="M37.903297 322.59637L23.5908 322.59637L23.5908 312.237L25.2783 312.237L25.2783 320.69012L29.6533 320.69012L29.6533 312.78387L31.3408 312.78387L31.3408 320.69012L36.215797 320.69012L36.215797 311.90887L37.903297 311.90887L37.903297 322.59637ZM37.903297 311.03387L32.512672 307.237L27.5283 310.737L27.5283 308.5495L29.9658 306.95575Q30.6533 306.50262 31.12205 306.237Q30.481424 305.7995 29.981424 305.44012L27.5283 303.69012L27.5283 301.59637L32.418922 305.1745L37.903297 301.31512L37.903297 303.47137L34.684547 305.612L33.809547 306.1745L37.903297 308.89325L37.903297 311.03387ZM34.559547 292.75262L34.793922 290.94012Q36.372047 291.362 37.262672 292.53387Q38.137672 293.69012 38.137672 295.50262Q38.137672 297.76825 36.747047 299.112Q35.340797 300.44012 32.809547 300.44012Q30.18455 300.44012 28.74705 299.09637Q27.293924 297.75262 27.293924 295.59637Q27.293924 293.51825 28.7158 292.20575Q30.12205 290.87762 32.700172 290.87762Q32.856422 290.87762 33.168922 290.89325L33.168922 298.62762Q34.872047 298.53387 35.778297 297.65887Q36.684547 296.78387 36.684547 295.487Q36.684547 294.51825 36.184547 293.84637Q35.668922 293.15887 34.559547 292.75262ZM31.7158 298.53387L31.7158 292.737Q30.418924 292.84637 29.762674 293.39325Q28.74705 294.237 28.74705 295.58075Q28.74705 296.78387 29.55955 297.612Q30.356424 298.44012 31.7158 298.53387ZM34.106422 282.08075L34.325172 280.362Q36.122047 280.64325 37.137672 281.81512Q38.137672 282.97137 38.137672 284.6745Q38.137672 286.7995 36.747047 288.09637Q35.356422 289.39325 32.762672 289.39325Q31.075174 289.39325 29.825174 288.84637Q28.55955 288.28387 27.93455 287.14325Q27.293924 286.00262 27.293924 284.65887Q27.293924 282.97137 28.1533 281.90887Q29.012674 280.83075 30.575174 280.51825L30.8408 282.237Q29.793924 282.47137 29.2783 283.09637Q28.74705 283.72137 28.74705 284.59637Q28.74705 285.9245 29.700174 286.75262Q30.6533 287.58075 32.700172 287.58075Q34.793922 287.58075 35.747047 286.78387Q36.684547 285.987 36.684547 284.69012Q36.684547 283.65887 36.059547 282.97137Q35.418922 282.26825 34.106422 282.08075ZM37.903297 272.06512L36.372047 272.06512Q38.137672 273.26825 38.137672 275.34637Q38.137672 276.26825 37.793922 277.06512Q37.434547 277.862 36.903297 278.25262Q36.372047 278.62762 35.590797 278.78387Q35.075172 278.89325 33.950172 278.89325L27.5283 278.89325L27.5283 277.14325L33.278297 277.14325Q34.653297 277.14325 35.137672 277.03387Q35.825172 276.862 36.231422 276.33075Q36.622047 275.78387 36.622047 275.00262Q36.622047 274.20575 36.215797 273.51825Q35.809547 272.81512 35.122047 272.53387Q34.418922 272.237 33.090797 272.237L27.5283 272.237L27.5283 270.487L37.903297 270.487L37.903297 272.06512ZM36.325172 264.01825L37.887672 263.76825Q38.043922 264.50262 38.043922 265.09637Q38.043922 266.0495 37.747047 266.58075Q37.434547 267.09637 36.950172 267.31512Q36.450172 267.53387 34.872047 267.53387L28.9033 267.53387L28.9033 268.81512L27.5283 268.81512L27.5283 267.53387L24.9658 267.53387L23.9033 265.78387L27.5283 265.78387L27.5283 264.01825L28.9033 264.01825L28.9033 265.78387L34.965797 265.78387Q35.715797 265.78387 35.934547 265.69012Q36.137672 265.59637 36.278297 265.39325Q36.403297 265.1745 36.403297 264.78387Q36.403297 264.50262 36.325172 264.01825ZM25.606424 261.84637L23.5908 261.84637L23.5908 260.08075L25.606424 260.08075L25.606424 261.84637ZM37.903297 261.84637L27.5283 261.84637L27.5283 260.08075L37.903297 260.08075L37.903297 261.84637ZM32.715797 258.50262Q29.8408 258.50262 28.450174 256.90887Q27.293924 255.56512 27.293924 253.64325Q27.293924 251.50262 28.700174 250.15887Q30.106424 248.7995 32.575172 248.7995Q34.575172 248.7995 35.731422 249.39325Q36.872047 249.987 37.512672 251.14325Q38.137672 252.28387 38.137672 253.64325Q38.137672 255.83075 36.747047 257.1745Q35.340797 258.50262 32.715797 258.50262ZM32.715797 256.70575Q34.715797 256.70575 35.700172 255.84637Q36.684547 254.97137 36.684547 253.64325Q36.684547 252.33075 35.700172 251.47137Q34.700172 250.59637 32.653297 250.59637Q30.731424 250.59637 29.74705 251.47137Q28.74705 252.34637 28.74705 253.64325Q28.74705 254.97137 29.74705 255.84637Q30.731424 256.70575 32.715797 256.70575ZM37.903297 246.862L27.5283 246.862L27.5283 245.26825L29.012674 245.26825Q27.293924 244.12762 27.293924 241.97137Q27.293924 241.03387 27.637674 240.25262Q27.9658 239.45575 28.512674 239.06512Q29.05955 238.6745 29.80955 238.51825Q30.30955 238.4245 31.5283 238.4245L37.903297 238.4245L37.903297 240.19012L31.5908 240.19012Q30.512674 240.19012 29.981424 240.39325Q29.450174 240.59637 29.137674 241.12762Q28.825174 241.64325 28.825174 242.34637Q28.825174 243.47137 29.543924 244.28387Q30.24705 245.09637 32.231422 245.09637L37.903297 245.09637L37.903297 246.862ZM36.325172 226.01825L37.887672 225.76825Q38.043922 226.50262 38.043922 227.09637Q38.043922 228.0495 37.747047 228.58075Q37.434547 229.09637 36.950172 229.31512Q36.450172 229.53387 34.872047 229.53387L28.9033 229.53387L28.9033 230.81512L27.5283 230.81512L27.5283 229.53387L24.9658 229.53387L23.9033 227.78387L27.5283 227.78387L27.5283 226.01825L28.9033 226.01825L28.9033 227.78387L34.965797 227.78387Q35.715797 227.78387 35.934547 227.69012Q36.137672 227.59637 36.278297 227.39325Q36.403297 227.1745 36.403297 226.78387Q36.403297 226.50262 36.325172 226.01825ZM25.606424 223.84637L23.5908 223.84637L23.5908 222.08075L25.606424 222.08075L25.606424 223.84637ZM37.903297 223.84637L27.5283 223.84637L27.5283 222.08075L37.903297 222.08075L37.903297 223.84637ZM37.903297 219.862L27.5283 219.862L27.5283 218.28387L28.981424 218.28387Q28.231424 217.7995 27.762674 216.987Q27.293924 216.1745 27.293924 215.14325Q27.293924 213.987 27.7783 213.25262Q28.24705 212.51825 29.106424 212.20575Q27.293924 210.97137 27.293924 209.00262Q27.293924 207.45575 28.1533 206.62762Q29.012674 205.7995 30.7783 205.7995L37.903297 205.7995L37.903297 207.5495L31.37205 207.5495Q30.30955 207.5495 29.856424 207.72137Q29.387674 207.89325 29.106424 208.34637Q28.825174 208.78387 28.825174 209.39325Q28.825174 210.487 29.55955 211.22137Q30.2783 211.94012 31.87205 211.94012L37.903297 211.94012L37.903297 213.69012L31.168924 213.69012Q29.99705 213.69012 29.418924 214.12762Q28.825174 214.5495 28.825174 215.53387Q28.825174 216.26825 29.2158 216.90887Q29.606424 217.53387 30.356424 217.81512Q31.106424 218.09637 32.528297 218.09637L37.903297 218.09637L37.903297 219.862ZM34.559547 195.75262L34.793922 193.94012Q36.372047 194.362 37.262672 195.53387Q38.137672 196.69012 38.137672 198.50262Q38.137672 200.76825 36.747047 202.112Q35.340797 203.44012 32.809547 203.44012Q30.18455 203.44012 28.74705 202.09637Q27.293924 200.75262 27.293924 198.59637Q27.293924 196.51825 28.7158 195.20575Q30.12205 193.87762 32.700172 193.87762Q32.856422 193.87762 33.168922 193.89325L33.168922 201.62762Q34.872047 201.53387 35.778297 200.65887Q36.684547 199.78387 36.684547 198.487Q36.684547 197.51825 36.184547 196.84637Q35.668922 196.15887 34.559547 195.75262ZM31.7158 201.53387L31.7158 195.737Q30.418924 195.84637 29.762674 196.39325Q28.74705 197.237 28.74705 198.58075Q28.74705 199.78387 29.55955 200.612Q30.356424 201.44012 31.7158 201.53387ZM42.106422 182.50262Q40.278297 183.95575 37.825172 184.95575Q35.356422 185.95575 32.715797 185.95575Q30.387674 185.95575 28.262674 185.20575Q25.793924 184.33075 23.3408 182.50262L23.3408 181.237Q25.37205 182.4245 26.24705 182.7995Q27.5908 183.39325 29.05955 183.737Q30.887674 184.15887 32.731422 184.15887Q37.418922 184.15887 42.106422 181.237L42.106422 182.50262ZM34.809547 179.56512L34.528297 177.81512Q35.575172 177.6745 36.137672 177.00262Q36.684547 176.33075 36.684547 175.12762Q36.684547 173.9245 36.200172 173.34637Q35.700172 172.75262 35.043922 172.75262Q34.450172 172.75262 34.106422 173.26825Q33.872047 173.62762 33.512672 175.06512Q33.012672 177.00262 32.668922 177.75262Q32.309547 178.487 31.68455 178.87762Q31.043924 179.26825 30.2783 179.26825Q29.5908 179.26825 28.99705 178.95575Q28.4033 178.62762 28.012674 178.08075Q27.7158 177.6745 27.512674 176.97137Q27.293924 176.25262 27.293924 175.44012Q27.293924 174.22137 27.6533 173.2995Q27.99705 172.37762 28.606424 171.94012Q29.200174 171.50262 30.200174 171.33075L30.43455 173.0495Q29.637674 173.1745 29.200174 173.737Q28.74705 174.2995 28.74705 175.31512Q28.74705 176.53387 29.1533 177.0495Q29.543924 177.56512 30.075174 177.56512Q30.418924 177.56512 30.700174 177.34637Q30.981424 177.14325 31.168924 176.6745Q31.262674 176.40887 31.606424 175.12762Q32.106422 173.25262 32.434547 172.51825Q32.747047 171.78387 33.356422 171.362Q33.950172 170.94012 34.856422 170.94012Q35.731422 170.94012 36.512672 171.45575Q37.293922 171.97137 37.715797 172.94012Q38.137672 173.90887 38.137672 175.12762Q38.137672 177.14325 37.293922 178.20575Q36.450172 179.26825 34.809547 179.56512ZM42.106422 167.70575L42.106422 168.95575Q37.418922 166.0495 32.731422 166.0495Q30.887674 166.0495 29.0908 166.45575Q27.62205 166.7995 26.2783 167.39325Q25.387674 167.76825 23.3408 168.95575L23.3408 167.70575Q25.793924 165.862 28.262674 164.987Q30.387674 164.237 32.715797 164.237Q35.356422 164.237 37.825172 165.25262Q40.278297 166.25262 42.106422 167.70575Z" fill-rule="nonzero"/><path fill="#000000" d="M78.43125 380.24063Q78.43125 382.7875 77.55625 384.02188Q76.69688 385.25626 74.85313 385.25626Q73.04063 385.25626 72.16563 384.05313Q71.29063 382.83438 71.25938 380.44376L71.25938 378.50626Q71.25938 376.00626 72.11875 374.7875Q72.99375 373.56876 74.8375 373.56876Q76.68125 373.56876 77.54063 374.74063Q78.41563 375.9125 78.43125 378.36563L78.43125 380.24063ZM76.99375 378.27188Q76.99375 376.42813 76.47813 375.6Q75.9625 374.75626 74.8375 374.75626Q73.72813 374.75626 73.2125 375.6Q72.7125 376.42813 72.69688 378.1625L72.69688 380.475Q72.69688 382.31876 73.22813 383.19376Q73.775 384.06876 74.85313 384.06876Q75.93125 384.06876 76.44688 383.24063Q76.9625 382.4125 76.99375 380.63126L76.99375 378.27188ZM80.47813 384.33438Q80.47813 383.95938 80.69688 383.70938Q80.93125 383.45938 81.36875 383.45938Q81.82188 383.45938 82.04063 383.70938Q82.275 383.95938 82.275 384.33438Q82.275 384.69376 82.04063 384.94376Q81.82188 385.19376 81.36875 385.19376Q80.93125 385.19376 80.69688 384.94376Q80.47813 384.69376 80.47813 384.33438ZM91.43125 380.24063Q91.43125 382.7875 90.55625 384.02188Q89.69688 385.25626 87.85313 385.25626Q86.04063 385.25626 85.16563 384.05313Q84.29063 382.83438 84.25938 380.44376L84.25938 378.50626Q84.25938 376.00626 85.11875 374.7875Q85.99375 373.56876 87.8375 373.56876Q89.68125 373.56876 90.54063 374.74063Q91.41563 375.9125 91.43125 378.36563L91.43125 380.24063ZM89.99375 378.27188Q89.99375 376.42813 89.47813 375.6Q88.9625 374.75626 87.8375 374.75626Q86.72813 374.75626 86.2125 375.6Q85.7125 376.42813 85.69688 378.1625L85.69688 380.475Q85.69688 382.31876 86.22813 383.19376Q86.775 384.06876 87.85313 384.06876Q88.93125 384.06876 89.44688 383.24063Q89.9625 382.4125 89.99375 380.63126L89.99375 378.27188Z" fill-rule="nonzero"/><path fill="#000000" d="M71.9625 319.37686L72.54063 313.705L78.36875 313.705L78.36875 315.0331L73.775 315.0331L73.43125 318.1425Q74.25938 317.6425 75.32188 317.6425Q76.88438 317.6425 77.79063 318.67374Q78.7125 319.705 78.7125 321.455Q78.7125 323.205 77.75938 324.2206Q76.80625 325.23624 75.10313 325.23624Q73.60313 325.23624 72.65 324.4081Q71.69688 323.56436 71.55625 322.08L72.93125 322.08Q73.05625 323.06436 73.61875 323.56436Q74.18125 324.04874 75.10313 324.04874Q76.11875 324.04874 76.68125 323.36124Q77.25938 322.67374 77.25938 321.4706Q77.25938 320.33 76.63438 319.6425Q76.025 318.93936 74.99375 318.93936Q74.04063 318.93936 73.50938 319.36124L73.11875 319.67374L71.9625 319.37686ZM80.47813 324.31436Q80.47813 323.93936 80.69688 323.68936Q80.93125 323.43936 81.36875 323.43936Q81.82188 323.43936 82.04063 323.68936Q82.275 323.93936 82.275 324.31436Q82.275 324.67374 82.04063 324.92374Q81.82188 325.17374 81.36875 325.17374Q80.93125 325.17374 80.69688 324.92374Q80.47813 324.67374 80.47813 324.31436ZM91.43125 320.2206Q91.43125 322.7675 90.55625 324.00186Q89.69688 325.23624 87.85313 325.23624Q86.04063 325.23624 85.16563 324.0331Q84.29063 322.81436 84.25938 320.42374L84.25938 318.48624Q84.25938 315.98624 85.11875 314.7675Q85.99375 313.54874 87.8375 313.54874Q89.68125 313.54874 90.54063 314.7206Q91.41563 315.8925 91.43125 318.3456L91.43125 320.2206ZM89.99375 318.25186Q89.99375 316.4081 89.47813 315.58Q88.9625 314.73624 87.8375 314.73624Q86.72813 314.73624 86.2125 315.58Q85.7125 316.4081 85.69688 318.1425L85.69688 320.455Q85.69688 322.29874 86.22813 323.17374Q86.775 324.04874 87.85313 324.04874Q88.93125 324.04874 89.44688 323.2206Q89.9625 322.3925 89.99375 320.61124L89.99375 318.25186Z" fill-rule="nonzero"/><path fill="#000000" d="M67.05625 265.06L65.60313 265.06L65.60313 255.41937L62.68125 256.4975L62.68125 255.185L66.82188 253.6225L67.05625 253.6225L67.05625 265.06ZM78.43125 260.20062Q78.43125 262.7475 77.55625 263.98187Q76.69688 265.21625 74.85313 265.21625Q73.04063 265.21625 72.16563 264.01312Q71.29063 262.79437 71.25938 260.40375L71.25938 258.46625Q71.25938 255.96625 72.11875 254.7475Q72.99375 253.52875 74.8375 253.52875Q76.68125 253.52875 77.54063 254.70062Q78.41563 255.8725 78.43125 258.32562L78.43125 260.20062ZM76.99375 258.23187Q76.99375 256.38812 76.47813 255.56Q75.9625 254.71625 74.8375 254.71625Q73.72813 254.71625 73.2125 255.56Q72.7125 256.38812 72.69688 258.1225L72.69688 260.435Q72.69688 262.27875 73.22813 263.15375Q73.775 264.02875 74.85313 264.02875Q75.93125 264.02875 76.44688 263.20062Q76.9625 262.3725 76.99375 260.59125L76.99375 258.23187ZM80.47813 264.29437Q80.47813 263.91937 80.69688 263.66937Q80.93125 263.41937 81.36875 263.41937Q81.82188 263.41937 82.04063 263.66937Q82.275 263.91937 82.275 264.29437Q82.275 264.65375 82.04063 264.90375Q81.82188 265.15375 81.36875 265.15375Q80.93125 265.15375 80.69688 264.90375Q80.47813 264.65375 80.47813 264.29437ZM91.43125 260.20062Q91.43125 262.7475 90.55625 263.98187Q89.69688 265.21625 87.85313 265.21625Q86.04063 265.21625 85.16563 264.01312Q84.29063 262.79437 84.25938 260.40375L84.25938 258.46625Q84.25938 255.96625 85.11875 254.7475Q85.99375 253.52875 87.8375 253.52875Q89.68125 253.52875 90.54063 254.70062Q91.41563 255.8725 91.43125 258.32562L91.43125 260.20062ZM89.99375 258.23187Q89.99375 256.38812 89.47813 255.56Q88.9625 254.71625 87.8375 254.71625Q86.72813 254.71625 86.2125 255.56Q85.7125 256.38812 85.69688 258.1225L85.69688 260.435Q85.69688 262.27875 86.22813 263.15375Q86.775 264.02875 87.85313 264.02875Q88.93125 264.02875 89.44688 263.20062Q89.9625 262.3725 89.99375 260.59125L89.99375 258.23187Z" fill-rule="nonzero"/><path fill="#000000" d="M67.05625 205.04L65.60313 205.04L65.60313 195.39937L62.68125 196.4775L62.68125 195.165L66.82188 193.6025L67.05625 193.6025L67.05625 205.04ZM71.9625 199.33687L72.54063 193.665L78.36875 193.665L78.36875 194.99312L73.775 194.99312L73.43125 198.1025Q74.25938 197.6025 75.32188 197.6025Q76.88438 197.6025 77.79063 198.63374Q78.7125 199.665 78.7125 201.415Q78.7125 203.165 77.75938 204.18062Q76.80625 205.19624 75.10313 205.19624Q73.60313 205.19624 72.65 204.36812Q71.69688 203.52437 71.55625 202.04L72.93125 202.04Q73.05625 203.02437 73.61875 203.52437Q74.18125 204.00874 75.10313 204.00874Q76.11875 204.00874 76.68125 203.32124Q77.25938 202.63374 77.25938 201.43062Q77.25938 200.29 76.63438 199.6025Q76.025 198.89937 74.99375 198.89937Q74.04063 198.89937 73.50938 199.32124L73.11875 199.63374L71.9625 199.33687ZM80.47813 204.27437Q80.47813 203.89937 80.69688 203.64937Q80.93125 203.39937 81.36875 203.39937Q81.82188 203.39937 82.04063 203.64937Q82.275 203.89937 82.275 204.27437Q82.275 204.63374 82.04063 204.88374Q81.82188 205.13374 81.36875 205.13374Q80.93125 205.13374 80.69688 204.88374Q80.47813 204.63374 80.47813 204.27437ZM91.43125 200.18062Q91.43125 202.7275 90.55625 203.96187Q89.69688 205.19624 87.85313 205.19624Q86.04063 205.19624 85.16563 203.99312Q84.29063 202.77437 84.25938 200.38374L84.25938 198.44624Q84.25938 195.94624 85.11875 194.7275Q85.99375 193.50874 87.8375 193.50874Q89.68125 193.50874 90.54063 194.68062Q91.41563 195.8525 91.43125 198.30562L91.43125 200.18062ZM89.99375 198.21187Q89.99375 196.36812 89.47813 195.54Q88.9625 194.69624 87.8375 194.69624Q86.72813 194.69624 86.2125 195.54Q85.7125 196.36812 85.69688 198.1025L85.69688 200.415Q85.69688 202.25874 86.22813 203.13374Q86.775 204.00874 87.85313 204.00874Q88.93125 204.00874 89.44688 203.18062Q89.9625 202.3525 89.99375 200.57124L89.99375 198.21187Z" fill-rule="nonzero"/><path fill="#000000" d="M69.75938 145.02L62.30625 145.02L62.30625 143.97313L66.24375 139.59813Q67.11875 138.61375 67.44688 137.98875Q67.775 137.36375 67.775 136.7075Q67.775 135.81688 67.22813 135.25438Q66.69688 134.67625 65.80625 134.67625Q64.72813 134.67625 64.11875 135.28563Q63.525 135.895 63.525 136.98875L62.0875 136.98875Q62.0875 135.42625 63.0875 134.4575Q64.10313 133.48875 65.80625 133.48875Q67.38438 133.48875 68.30625 134.31688Q69.22813 135.145 69.22813 136.53563Q69.22813 138.2075 67.0875 140.53563L64.04063 143.8325L69.75938 143.8325L69.75938 145.02ZM78.43125 140.16063Q78.43125 142.7075 77.55625 143.94188Q76.69688 145.17625 74.85313 145.17625Q73.04063 145.17625 72.16563 143.97313Q71.29063 142.75438 71.25938 140.36375L71.25938 138.42625Q71.25938 135.92625 72.11875 134.7075Q72.99375 133.48875 74.8375 133.48875Q76.68125 133.48875 77.54063 134.66063Q78.41563 135.8325 78.43125 138.28563L78.43125 140.16063ZM76.99375 138.19188Q76.99375 136.34813 76.47813 135.52Q75.9625 134.67625 74.8375 134.67625Q73.72813 134.67625 73.2125 135.52Q72.7125 136.34813 72.69688 138.0825L72.69688 140.395Q72.69688 142.23875 73.22813 143.11375Q73.775 143.98875 74.85313 143.98875Q75.93125 143.98875 76.44688 143.16063Q76.9625 142.3325 76.99375 140.55125L76.99375 138.19188ZM80.47813 144.25438Q80.47813 143.87938 80.69688 143.62938Q80.93125 143.37938 81.36875 143.37938Q81.82188 143.37938 82.04063 143.62938Q82.275 143.87938 82.275 144.25438Q82.275 144.61375 82.04063 144.86375Q81.82188 145.11375 81.36875 145.11375Q80.93125 145.11375 80.69688 144.86375Q80.47813 144.61375 80.47813 144.25438ZM91.43125 140.16063Q91.43125 142.7075 90.55625 143.94188Q89.69688 145.17625 87.85313 145.17625Q86.04063 145.17625 85.16563 143.97313Q84.29063 142.75438 84.25938 140.36375L84.25938 138.42625Q84.25938 135.92625 85.11875 134.7075Q85.99375 133.48875 87.8375 133.48875Q89.68125 133.48875 90.54063 134.66063Q91.41563 135.8325 91.43125 138.28563L91.43125 140.16063ZM89.99375 138.19188Q89.99375 136.34813 89.47813 135.52Q88.9625 134.67625 87.8375 134.67625Q86.72813 134.67625 86.2125 135.52Q85.7125 136.34813 85.69688 138.0825L85.69688 140.395Q85.69688 142.23875 86.22813 143.11375Q86.775 143.98875 87.85313 143.98875Q88.93125 143.98875 89.44688 143.16063Q89.9625 142.3325 89.99375 140.55125L89.99375 138.19188Z" fill-rule="nonzero"/><path fill="#000000" d="M69.75938 85.0L62.30625 85.0L62.30625 83.953125L66.24375 79.578125Q67.11875 78.59375 67.44688 77.96875Q67.775 77.34375 67.775 76.6875Q67.775 75.796875 67.22813 75.234375Q66.69688 74.65625 65.80625 74.65625Q64.72813 74.65625 64.11875 75.265625Q63.525 75.875 63.525 76.96875L62.0875 76.96875Q62.0875 75.40625 63.0875 74.4375Q64.10313 73.46875 65.80625 73.46875Q67.38438 73.46875 68.30625 74.296875Q69.22813 75.125 69.22813 76.515625Q69.22813 78.1875 67.0875 80.515625L64.04063 83.8125L69.75938 83.8125L69.75938 85.0ZM71.9625 79.296875L72.54063 73.625L78.36875 73.625L78.36875 74.953125L73.775 74.953125L73.43125 78.0625Q74.25938 77.5625 75.32188 77.5625Q76.88438 77.5625 77.79063 78.59375Q78.7125 79.625 78.7125 81.375Q78.7125 83.125 77.75938 84.140625Q76.80625 85.15625 75.10313 85.15625Q73.60313 85.15625 72.65 84.328125Q71.69688 83.484375 71.55625 82.0L72.93125 82.0Q73.05625 82.984375 73.61875 83.484375Q74.18125 83.96875 75.10313 83.96875Q76.11875 83.96875 76.68125 83.28125Q77.25938 82.59375 77.25938 81.390625Q77.25938 80.25 76.63438 79.5625Q76.025 78.859375 74.99375 78.859375Q74.04063 78.859375 73.50938 79.28125L73.11875 79.59375L71.9625 79.296875ZM80.47813 84.234375Q80.47813 83.859375 80.69688 83.609375Q80.93125 83.359375 81.36875 83.359375Q81.82188 83.359375 82.04063 83.609375Q82.275 83.859375 82.275 84.234375Q82.275 84.59375 82.04063 84.84375Q81.82188 85.09375 81.36875 85.09375Q80.93125 85.09375 80.69688 84.84375Q80.47813 84.59375 80.47813 84.234375ZM91.43125 80.140625Q91.43125 82.6875 90.55625 83.921875Q89.69688 85.15625 87.85313 85.15625Q86.04063 85.15625 85.16563 83.953125Q84.29063 82.734375 84.25938 80.34375L84.25938 78.40625Q84.25938 75.90625 85.11875 74.6875Q85.99375 73.46875 87.8375 73.46875Q89.68125 73.46875 90.54063 74.640625Q91.41563 75.8125 91.43125 78.265625L91.43125 80.140625ZM89.99375 78.171875Q89.99375 76.328125 89.47813 75.5Q88.9625 74.65625 87.8375 74.65625Q86.72813 74.65625 86.2125 75.5Q85.7125 76.328125 85.69688 78.0625L85.69688 80.375Q85.69688 82.21875 86.22813 83.09375Q86.775 83.96875 87.85313 83.96875Q88.93125 83.96875 89.44688 83.140625Q89.9625 82.3125 89.99375 80.53125L89.99375 78.171875Z" fill-rule="nonzero"/><path fill="#000000" d="M181.57716 405.6L179.99904 405.6L179.99904 395.52188Q179.42091 396.06876 178.49904 396.61563Q177.57716 397.14688 176.82716 397.42813L176.82716 395.89688Q178.15529 395.27188 179.15529 394.38126Q180.15529 393.49063 180.56154 392.6625L181.57716 392.6625L181.57716 405.6ZM191.06154 409.17813L191.06154 396.27188L192.49904 396.27188L192.49904 397.475Q193.01466 396.77188 193.65529 396.4125Q194.29591 396.05313 195.20216 396.05313Q196.40529 396.05313 197.31154 396.67813Q198.23341 397.2875 198.70216 398.4125Q199.17091 399.52188 199.17091 400.86563Q199.17091 402.2875 198.65529 403.44376Q198.13966 404.58438 197.15529 405.20938Q196.17091 405.81876 195.09279 405.81876Q194.31154 405.81876 193.67091 405.49063Q193.04591 405.14688 192.63966 404.63126L192.63966 409.17813L191.06154 409.17813ZM192.49904 400.99063Q192.49904 402.7875 193.21779 403.64688Q193.95216 404.50626 194.98341 404.50626Q196.04591 404.50626 196.79591 403.61563Q197.54591 402.725 197.54591 400.85Q197.54591 399.06876 196.81154 398.17813Q196.07716 397.2875 195.06154 397.2875Q194.04591 397.2875 193.26466 398.24063Q192.49904 399.17813 192.49904 400.99063ZM201.04591 405.6L201.04591 396.27188L202.46779 396.27188L202.46779 397.67813Q203.01466 396.69376 203.46779 396.38126Q203.93654 396.05313 204.48341 396.05313Q205.29591 396.05313 206.10841 396.56876L205.57716 398.0375Q204.98341 397.69376 204.40529 397.69376Q203.88966 397.69376 203.46779 398.00626Q203.06154 398.31876 202.88966 398.86563Q202.62404 399.70938 202.62404 400.70938L202.62404 405.6L201.04591 405.6ZM206.46779 400.92813Q206.46779 398.33438 207.92091 397.08438Q209.12404 396.05313 210.84279 396.05313Q212.78029 396.05313 213.99904 397.31876Q215.21779 398.58438 215.21779 400.80313Q215.21779 402.6 214.67091 403.63126Q214.13966 404.6625 213.10841 405.24063Q212.07716 405.81876 210.84279 405.81876Q208.88966 405.81876 207.67091 404.56876Q206.46779 403.30313 206.46779 400.92813ZM208.09279 400.92813Q208.09279 402.725 208.87404 403.61563Q209.65529 404.50626 210.84279 404.50626Q212.03029 404.50626 212.81154 403.61563Q213.59279 402.70938 213.59279 400.88126Q213.59279 399.14688 212.79591 398.25626Q212.01466 397.36563 210.84279 397.36563Q209.65529 397.36563 208.87404 398.25626Q208.09279 399.14688 208.09279 400.92813ZM217.06154 405.6L217.06154 396.27188L218.48341 396.27188L218.48341 397.56876Q218.92091 396.89688 219.63966 396.475Q220.37404 396.05313 221.31154 396.05313Q222.34279 396.05313 222.99904 396.49063Q223.67091 396.9125 223.93654 397.69376Q225.04591 396.05313 226.82716 396.05313Q228.21779 396.05313 228.95216 396.83438Q229.70216 397.6 229.70216 399.19376L229.70216 405.6L228.13966 405.6L228.13966 399.725Q228.13966 398.77188 227.98341 398.35Q227.82716 397.92813 227.42091 397.67813Q227.01466 397.42813 226.46779 397.42813Q225.48341 397.42813 224.82716 398.08438Q224.18654 398.74063 224.18654 400.17813L224.18654 405.6L222.60841 405.6L222.60841 399.5375Q222.60841 398.475 222.21779 397.95938Q221.82716 397.42813 220.95216 397.42813Q220.28029 397.42813 219.71779 397.7875Q219.15529 398.13126 218.88966 398.80313Q218.63966 399.475 218.63966 400.75626L218.63966 405.6L217.06154 405.6ZM232.06154 409.17813L232.06154 396.27188L233.49904 396.27188L233.49904 397.475Q234.01466 396.77188 234.65529 396.4125Q235.29591 396.05313 236.20216 396.05313Q237.40529 396.05313 238.31154 396.67813Q239.23341 397.2875 239.70216 398.4125Q240.17091 399.52188 240.17091 400.86563Q240.17091 402.2875 239.65529 403.44376Q239.13966 404.58438 238.15529 405.20938Q237.17091 405.81876 236.09279 405.81876Q235.31154 405.81876 234.67091 405.49063Q234.04591 405.14688 233.63966 404.63126L233.63966 409.17813L232.06154 409.17813ZM233.49904 400.99063Q233.49904 402.7875 234.21779 403.64688Q234.95216 404.50626 235.98341 404.50626Q237.04591 404.50626 237.79591 403.61563Q238.54591 402.725 238.54591 400.85Q238.54591 399.06876 237.81154 398.17813Q237.07716 397.2875 236.06154 397.2875Q235.04591 397.2875 234.26466 398.24063Q233.49904 399.17813 233.49904 400.99063ZM245.51466 404.17813L245.74904 405.58438Q245.07716 405.725 244.54591 405.725Q243.68654 405.725 243.20216 405.45938Q242.73341 405.17813 242.54591 404.74063Q242.35841 404.2875 242.35841 402.86563L242.35841 397.49063L241.18654 397.49063L241.18654 396.27188L242.35841 396.27188L242.35841 393.95938L243.92091 393.00626L243.92091 396.27188L245.51466 396.27188L245.51466 397.49063L243.92091 397.49063L243.92091 402.95938Q243.92091 403.63126 243.99904 403.83438Q244.09279 404.02188 244.28029 404.13126Q244.46779 404.24063 244.82716 404.24063Q245.07716 404.24063 245.51466 404.17813Z" fill-rule="nonzero"/><path fill="#000000" d="M329.7291 402.19376L331.32285 401.99063Q331.58847 403.33438 332.24472 403.92813Q332.90097 404.52188 333.83847 404.52188Q334.96347 404.52188 335.7291 403.75626Q336.49472 402.975 336.49472 401.83438Q336.49472 400.74063 335.77597 400.0375Q335.07285 399.31876 333.9791 399.31876Q333.52597 399.31876 332.8541 399.50626L333.02597 398.11563Q333.18222 398.13126 333.2916 398.13126Q334.2916 398.13126 335.1041 397.6Q335.9166 397.06876 335.9166 395.975Q335.9166 395.1 335.32285 394.5375Q334.7291 393.95938 333.80722 393.95938Q332.88535 393.95938 332.26035 394.5375Q331.65097 395.11563 331.4791 396.2875L329.90097 396.00626Q330.18222 394.4125 331.21347 393.5375Q332.24472 392.6625 333.77597 392.6625Q334.82285 392.6625 335.71347 393.11563Q336.6041 393.56876 337.07285 394.35Q337.5416 395.13126 337.5416 396.00626Q337.5416 396.85 337.08847 397.5375Q336.65097 398.20938 335.76035 398.61563Q336.90097 398.88126 337.52597 399.725Q338.1666 400.55313 338.1666 401.7875Q338.1666 403.475 336.93222 404.6625Q335.71347 405.83438 333.83847 405.83438Q332.13535 405.83438 331.01035 404.81876Q329.90097 403.80313 329.7291 402.19376ZM345.1666 409.17813L345.1666 396.27188L346.6041 396.27188L346.6041 397.475Q347.11972 396.77188 347.76035 396.4125Q348.40097 396.05313 349.30722 396.05313Q350.51035 396.05313 351.4166 396.67813Q352.33847 397.2875 352.80722 398.4125Q353.27597 399.52188 353.27597 400.86563Q353.27597 402.2875 352.76035 403.44376Q352.24472 404.58438 351.26035 405.20938Q350.27597 405.81876 349.19785 405.81876Q348.4166 405.81876 347.77597 405.49063Q347.15097 405.14688 346.74472 404.63126L346.74472 409.17813L345.1666 409.17813ZM346.6041 400.99063Q346.6041 402.7875 347.32285 403.64688Q348.05722 404.50626 349.08847 404.50626Q350.15097 404.50626 350.90097 403.61563Q351.65097 402.725 351.65097 400.85Q351.65097 399.06876 350.9166 398.17813Q350.18222 397.2875 349.1666 397.2875Q348.15097 397.2875 347.36972 398.24063Q346.6041 399.17813 346.6041 400.99063ZM355.15097 405.6L355.15097 396.27188L356.57285 396.27188L356.57285 397.67813Q357.11972 396.69376 357.57285 396.38126Q358.0416 396.05313 358.58847 396.05313Q359.40097 396.05313 360.21347 396.56876L359.68222 398.0375Q359.08847 397.69376 358.51035 397.69376Q357.99472 397.69376 357.57285 398.00626Q357.1666 398.31876 356.99472 398.86563Q356.7291 399.70938 356.7291 400.70938L356.7291 405.6L355.15097 405.6ZM360.57285 400.92813Q360.57285 398.33438 362.02597 397.08438Q363.2291 396.05313 364.94785 396.05313Q366.88535 396.05313 368.1041 397.31876Q369.32285 398.58438 369.32285 400.80313Q369.32285 402.6 368.77597 403.63126Q368.24472 404.6625 367.21347 405.24063Q366.18222 405.81876 364.94785 405.81876Q362.99472 405.81876 361.77597 404.56876Q360.57285 403.30313 360.57285 400.92813ZM362.19785 400.92813Q362.19785 402.725 362.9791 403.61563Q363.76035 404.50626 364.94785 404.50626Q366.13535 404.50626 366.9166 403.61563Q367.69785 402.70938 367.69785 400.88126Q367.69785 399.14688 366.90097 398.25626Q366.11972 397.36563 364.94785 397.36563Q363.76035 397.36563 362.9791 398.25626Q362.19785 399.14688 362.19785 400.92813ZM371.1666 405.6L371.1666 396.27188L372.58847 396.27188L372.58847 397.56876Q373.02597 396.89688 373.74472 396.475Q374.4791 396.05313 375.4166 396.05313Q376.44785 396.05313 377.1041 396.49063Q377.77597 396.9125 378.0416 397.69376Q379.15097 396.05313 380.93222 396.05313Q382.32285 396.05313 383.05722 396.83438Q383.80722 397.6 383.80722 399.19376L383.80722 405.6L382.24472 405.6L382.24472 399.725Q382.24472 398.77188 382.08847 398.35Q381.93222 397.92813 381.52597 397.67813Q381.11972 397.42813 380.57285 397.42813Q379.58847 397.42813 378.93222 398.08438Q378.2916 398.74063 378.2916 400.17813L378.2916 405.6L376.71347 405.6L376.71347 399.5375Q376.71347 398.475 376.32285 397.95938Q375.93222 397.42813 375.05722 397.42813Q374.38535 397.42813 373.82285 397.7875Q373.26035 398.13126 372.99472 398.80313Q372.74472 399.475 372.74472 400.75626L372.74472 405.6L371.1666 405.6ZM386.1666 409.17813L386.1666 396.27188L387.6041 396.27188L387.6041 397.475Q388.11972 396.77188 388.76035 396.4125Q389.40097 396.05313 390.30722 396.05313Q391.51035 396.05313 392.4166 396.67813Q393.33847 397.2875 393.80722 398.4125Q394.27597 399.52188 394.27597 400.86563Q394.27597 402.2875 393.76035 403.44376Q393.24472 404.58438 392.26035 405.20938Q391.27597 405.81876 390.19785 405.81876Q389.4166 405.81876 388.77597 405.49063Q388.15097 405.14688 387.74472 404.63126L387.74472 409.17813L386.1666 409.17813ZM387.6041 400.99063Q387.6041 402.7875 388.32285 403.64688Q389.05722 404.50626 390.08847 404.50626Q391.15097 404.50626 391.90097 403.61563Q392.65097 402.725 392.65097 400.85Q392.65097 399.06876 391.9166 398.17813Q391.18222 397.2875 390.1666 397.2875Q389.15097 397.2875 388.36972 398.24063Q387.6041 399.17813 387.6041 400.99063ZM399.61972 404.17813L399.8541 405.58438Q399.18222 405.725 398.65097 405.725Q397.7916 405.725 397.30722 405.45938Q396.83847 405.17813 396.65097 404.74063Q396.46347 404.2875 396.46347 402.86563L396.46347 397.49063L395.2916 397.49063L395.2916 396.27188L396.46347 396.27188L396.46347 393.95938L398.02597 393.00626L398.02597 396.27188L399.61972 396.27188L399.61972 397.49063L398.02597 397.49063L398.02597 402.95938Q398.02597 403.63126 398.1041 403.83438Q398.19785 404.02188 398.38535 404.13126Q398.57285 404.24063 398.93222 404.24063Q399.18222 404.24063 399.61972 404.17813Z" fill-rule="nonzero"/><path fill="#3d85c6" d="M517.9261 84.0C517.9261 83.447716 518.3738 83.0 518.9261 83.0L528.9261 83.0C529.4784 83.0 529.9261 83.447716 529.9261 84.0L529.9261 94.0C529.9261 94.552284 529.4784 95.0 528.9261 95.0L518.9261 95.0C518.3738 95.0 517.9261 94.552284 517.9261 94.0Z" fill-rule="nonzero"/><path fill="#1a1a1a" d="M539.16046 94.5L539.16046 83.046875L543.4886 83.046875Q544.6292 83.046875 545.22296 83.15625Q546.0667 83.296875 546.6292 83.6875Q547.20734 84.078125 547.5511 84.796875Q547.91046 85.5 547.91046 86.359375Q547.91046 87.8125 546.97296 88.828125Q546.0511 89.84375 543.6136 89.84375L540.6761 89.84375L540.6761 94.5L539.16046 94.5ZM540.6761 88.484375L543.64484 88.484375Q545.1136 88.484375 545.72296 87.9375Q546.34796 87.390625 546.34796 86.40625Q546.34796 85.6875 545.97296 85.171875Q545.6136 84.65625 545.01984 84.5Q544.64484 84.390625 543.6136 84.390625L540.6761 84.390625L540.6761 88.484375ZM549.9261 97.703125L549.76984 96.375Q550.22296 96.5 550.5667 96.5Q551.03546 96.5 551.3167 96.34375Q551.59796 96.1875 551.78546 95.90625Q551.91046 95.703125 552.20734 94.859375Q552.2542 94.75 552.33234 94.515625L549.1917 86.203125L550.70734 86.203125L552.4261 91.0Q552.76984 91.921875 553.03546 92.921875Q553.26984 91.953125 553.6136 91.03125L555.3792 86.203125L556.78546 86.203125L553.6292 94.640625Q553.1292 96.015625 552.84796 96.53125Q552.47296 97.21875 551.9886 97.546875Q551.5042 97.875 550.83234 97.875Q550.4261 97.875 549.9261 97.703125ZM561.0511 93.234375L561.2542 94.484375Q560.66046 94.609375 560.1917 94.609375Q559.4261 94.609375 559.0042 94.375Q558.58234 94.125 558.41046 93.734375Q558.2386 93.328125 558.2386 92.0625L558.2386 87.296875L557.20734 87.296875L557.20734 86.203125L558.2386 86.203125L558.2386 84.140625L559.64484 83.296875L559.64484 86.203125L561.0511 86.203125L561.0511 87.296875L559.64484 87.296875L559.64484 92.140625Q559.64484 92.75 559.70734 92.921875Q559.78546 93.09375 559.95734 93.203125Q560.1292 93.296875 560.4417 93.296875Q560.6761 93.296875 561.0511 93.234375ZM561.9886 94.5L561.9886 83.046875L563.39484 83.046875L563.39484 87.15625Q564.3792 86.015625 565.8792 86.015625Q566.8011 86.015625 567.47296 86.375Q568.16046 86.734375 568.4417 87.375Q568.7386 88.015625 568.7386 89.234375L568.7386 94.5L567.33234 94.5L567.33234 89.234375Q567.33234 88.1875 566.8792 87.703125Q566.4261 87.21875 565.58234 87.21875Q564.95734 87.21875 564.41046 87.546875Q563.8636 87.875 563.6292 88.4375Q563.39484 88.984375 563.39484 89.953125L563.39484 94.5L561.9886 94.5ZM570.45734 90.34375Q570.45734 88.046875 571.7386 86.9375Q572.8167 86.015625 574.34796 86.015625Q576.0667 86.015625 577.14484 87.140625Q578.2386 88.25 578.2386 90.234375Q578.2386 91.828125 577.7542 92.75Q577.26984 93.671875 576.34796 94.1875Q575.4417 94.6875 574.34796 94.6875Q572.6136 94.6875 571.53546 93.578125Q570.45734 92.453125 570.45734 90.34375ZM571.91046 90.34375Q571.91046 91.9375 572.59796 92.734375Q573.3011 93.53125 574.34796 93.53125Q575.39484 93.53125 576.08234 92.734375Q576.78546 91.9375 576.78546 90.296875Q576.78546 88.765625 576.08234 87.96875Q575.39484 87.171875 574.34796 87.171875Q573.3011 87.171875 572.59796 87.96875Q571.91046 88.75 571.91046 90.34375ZM579.9886 94.5L579.9886 86.203125L581.2542 86.203125L581.2542 87.375Q582.16046 86.015625 583.89484 86.015625Q584.64484 86.015625 585.26984 86.28125Q585.89484 86.546875 586.20734 86.984375Q586.51984 87.421875 586.64484 88.03125Q586.72296 88.421875 586.72296 89.390625L586.72296 94.5L585.3167 94.5L585.3167 89.453125Q585.3167 88.59375 585.14484 88.171875Q584.9886 87.734375 584.5667 87.484375Q584.16046 87.234375 583.59796 87.234375Q582.6917 87.234375 582.03546 87.8125Q581.39484 88.375 581.39484 89.96875L581.39484 94.5L579.9886 94.5Z" fill-rule="nonzero"/><path fill="#bf9000" d="M517.9261 113.0C517.9261 112.447716 518.3738 112.0 518.9261 112.0L528.9261 112.0C529.4784 112.0 529.9261 112.447716 529.9261 113.0L529.9261 123.0C529.9261 123.552284 529.4784 124.0 528.9261 124.0L518.9261 124.0C518.3738 124.0 517.9261 123.552284 517.9261 123.0Z" fill-rule="nonzero"/><path fill="#1a1a1a" d="M539.1917 123.5L539.1917 112.046875L544.26984 112.046875Q545.8011 112.046875 546.59796 112.359375Q547.39484 112.65625 547.8636 113.4375Q548.34796 114.21875 548.34796 115.171875Q548.34796 116.390625 547.5511 117.234375Q546.76984 118.0625 545.1136 118.28125Q545.72296 118.578125 546.03546 118.859375Q546.6917 119.46875 547.28546 120.375L549.28546 123.5L547.3792 123.5L545.8636 121.109375Q545.1917 120.078125 544.7542 119.53125Q544.33234 118.984375 543.9886 118.765625Q543.66046 118.546875 543.3011 118.46875Q543.0511 118.40625 542.45734 118.40625L540.70734 118.40625L540.70734 123.5L539.1917 123.5ZM540.70734 117.09375L543.95734 117.09375Q545.0042 117.09375 545.58234 116.890625Q546.1761 116.671875 546.47296 116.203125Q546.78546 115.71875 546.78546 115.171875Q546.78546 114.359375 546.1917 113.84375Q545.59796 113.3125 544.33234 113.3125L540.70734 113.3125L540.70734 117.09375ZM556.4261 123.5L556.4261 122.28125Q555.45734 123.6875 553.78546 123.6875Q553.0511 123.6875 552.41046 123.40625Q551.78546 123.125 551.47296 122.703125Q551.16046 122.265625 551.03546 121.65625Q550.95734 121.234375 550.95734 120.34375L550.95734 115.203125L552.3636 115.203125L552.3636 119.796875Q552.3636 120.90625 552.4417 121.28125Q552.58234 121.84375 553.0042 122.15625Q553.4417 122.46875 554.0667 122.46875Q554.70734 122.46875 555.2542 122.15625Q555.8167 121.828125 556.03546 121.265625Q556.26984 120.703125 556.26984 119.640625L556.26984 115.203125L557.6761 115.203125L557.6761 123.5L556.4261 123.5ZM559.4261 121.015625L560.8167 120.796875Q560.9261 121.640625 561.45734 122.09375Q562.0042 122.53125 562.95734 122.53125Q563.9261 122.53125 564.39484 122.140625Q564.8636 121.734375 564.8636 121.203125Q564.8636 120.734375 564.45734 120.453125Q564.16046 120.265625 563.01984 119.984375Q561.47296 119.59375 560.8636 119.3125Q560.26984 119.015625 559.95734 118.515625Q559.66046 118.015625 559.66046 117.40625Q559.66046 116.84375 559.91046 116.375Q560.16046 115.90625 560.59796 115.59375Q560.9261 115.34375 561.4886 115.1875Q562.0667 115.015625 562.70734 115.015625Q563.6917 115.015625 564.4261 115.296875Q565.16046 115.578125 565.5042 116.0625Q565.8636 116.53125 566.0042 117.34375L564.6292 117.53125Q564.53546 116.890625 564.08234 116.53125Q563.6292 116.171875 562.8167 116.171875Q561.84796 116.171875 561.4261 116.5Q561.01984 116.8125 561.01984 117.234375Q561.01984 117.515625 561.1917 117.734375Q561.3636 117.953125 561.72296 118.109375Q561.9417 118.1875 562.97296 118.46875Q564.45734 118.859375 565.0511 119.125Q565.64484 119.375 565.97296 119.859375Q566.3167 120.34375 566.3167 121.0625Q566.3167 121.765625 565.89484 122.390625Q565.4886 123.0 564.70734 123.34375Q563.9417 123.6875 562.97296 123.6875Q561.34796 123.6875 560.5042 123.015625Q559.66046 122.34375 559.4261 121.015625ZM571.0511 122.234375L571.2542 123.484375Q570.66046 123.609375 570.1917 123.609375Q569.4261 123.609375 569.0042 123.375Q568.58234 123.125 568.41046 122.734375Q568.2386 122.328125 568.2386 121.0625L568.2386 116.296875L567.20734 116.296875L567.20734 115.203125L568.2386 115.203125L568.2386 113.140625L569.64484 112.296875L569.64484 115.203125L571.0511 115.203125L571.0511 116.296875L569.64484 116.296875L569.64484 121.140625Q569.64484 121.75 569.70734 121.921875Q569.78546 122.09375 569.95734 122.203125Q570.1292 122.296875 570.4417 122.296875Q570.6761 122.296875 571.0511 122.234375Z" fill-rule="nonzero"/><path fill="#757575" d="M28.38767 35.946877L28.38767 34.009377L35.356422 33.99375L35.356422 40.103127Q33.747047 41.384377 32.043922 42.040627Q30.340796 42.68125 28.54392 42.68125Q26.10642 42.68125 24.122046 41.65Q22.153296 40.603127 21.13767 38.634377Q20.122046 36.665627 20.122046 34.24375Q20.122046 31.837502 21.122046 29.759377Q22.13767 27.681252 24.028296 26.665627Q25.91892 25.650002 28.372046 25.650002Q30.153296 25.650002 31.590796 26.228127Q33.043922 26.806252 33.856422 27.853127Q34.684547 28.884377 35.106422 30.540627L33.137672 31.071877Q32.778297 29.821877 32.215797 29.103127Q31.66892 28.384377 30.63767 27.962502Q29.622046 27.525002 28.38767 27.525002Q26.88767 27.525002 25.79392 27.978127Q24.715796 28.431252 24.04392 29.181252Q23.372046 29.915627 22.997046 30.806252Q22.372046 32.321877 22.372046 34.11875Q22.372046 36.30625 23.122046 37.790627Q23.88767 39.275 25.340796 39.99375Q26.79392 40.7125 28.41892 40.7125Q29.82517 40.7125 31.16892 40.165627Q32.528297 39.61875 33.215797 39.009377L33.215797 35.946877L28.38767 35.946877ZM46.590797 38.55625L48.668922 38.821877Q48.184547 40.65 46.840797 41.665627Q45.512672 42.665627 43.434547 42.665627Q40.809547 42.665627 39.278297 41.05625Q37.747047 39.446877 37.747047 36.540627Q37.747047 33.525 39.293922 31.868752Q40.840797 30.196877 43.309547 30.196877Q45.715797 30.196877 47.231422 31.837502Q48.747047 33.4625 48.747047 36.415627Q48.747047 36.5875 48.731422 36.946877L39.840797 36.946877Q39.950172 38.915627 40.950172 39.9625Q41.950172 41.009377 43.434547 41.009377Q44.543922 41.009377 45.325172 40.43125Q46.122047 39.8375 46.590797 38.55625ZM39.950172 35.290627L46.606422 35.290627Q46.465797 33.790627 45.840797 33.040627Q44.872047 31.868752 43.340797 31.868752Q41.950172 31.868752 40.997047 32.80625Q40.043922 33.728127 39.950172 35.290627ZM51.418922 42.4L51.418922 30.478127L53.231422 30.478127L53.231422 32.165627Q54.559547 30.196877 57.028297 30.196877Q58.106422 30.196877 59.012672 30.587502Q59.918922 30.978127 60.372047 31.618752Q60.825172 32.24375 60.997047 33.103127Q61.106422 33.665627 61.106422 35.071877L61.106422 42.4L59.090797 42.4L59.090797 35.15Q59.090797 33.915627 58.856422 33.30625Q58.622047 32.68125 58.012672 32.321877Q57.418922 31.962502 56.606422 31.962502Q55.309547 31.962502 54.372047 32.775Q53.434547 33.5875 53.434547 35.884377L53.434547 42.4L51.418922 42.4ZM72.5908 38.55625L74.66892 38.821877Q74.18455 40.65 72.8408 41.665627Q71.51267 42.665627 69.43455 42.665627Q66.80955 42.665627 65.2783 41.05625Q63.747047 39.446877 63.747047 36.540627Q63.747047 33.525 65.29392 31.868752Q66.8408 30.196877 69.30955 30.196877Q71.7158 30.196877 73.23142 31.837502Q74.74705 33.4625 74.74705 36.415627Q74.74705 36.5875 74.73142 36.946877L65.8408 36.946877Q65.95017 38.915627 66.95017 39.9625Q67.95017 41.009377 69.43455 41.009377Q70.54392 41.009377 71.32517 40.43125Q72.12205 39.8375 72.5908 38.55625ZM65.95017 35.290627L72.60642 35.290627Q72.4658 33.790627 71.8408 33.040627Q70.87205 31.868752 69.3408 31.868752Q67.95017 31.868752 66.99705 32.80625Q66.04392 33.728127 65.95017 35.290627ZM77.4033 42.4L77.4033 30.478127L79.2158 30.478127L79.2158 32.275Q79.91892 31.009377 80.49705 30.603127Q81.0908 30.196877 81.79392 30.196877Q82.82517 30.196877 83.87205 30.853127L83.18455 32.728127Q82.43455 32.290627 81.70017 32.290627Q81.0283 32.290627 80.49705 32.696877Q79.98142 33.0875 79.76267 33.790627Q79.41892 34.86875 79.41892 36.15L79.41892 42.4L77.4033 42.4ZM93.20017 40.93125Q92.07517 41.884377 91.0283 42.275Q89.99705 42.665627 88.80955 42.665627Q86.8408 42.665627 85.7783 41.7125Q84.73142 40.74375 84.73142 39.259377Q84.73142 38.384377 85.12205 37.665627Q85.5283 36.93125 86.16892 36.49375Q86.82517 36.05625 87.63767 35.8375Q88.23142 35.665627 89.43455 35.525Q91.87205 35.228127 93.0283 34.8375Q93.04392 34.415627 93.04392 34.30625Q93.04392 33.071877 92.4658 32.55625Q91.70017 31.884377 90.16892 31.884377Q88.74705 31.884377 88.05955 32.384377Q87.38767 32.86875 87.05955 34.15L85.07517 33.86875Q85.35642 32.603127 85.9658 31.821877Q86.5908 31.040627 87.74705 30.618752Q88.91892 30.196877 90.4658 30.196877Q91.99705 30.196877 92.95017 30.556252Q93.9033 30.915627 94.3408 31.462502Q94.79392 32.009377 94.98142 32.8375Q95.07517 33.353127 95.07517 34.7125L95.07517 37.4Q95.07517 40.228127 95.20017 40.978127Q95.3408 41.7125 95.7158 42.4L93.60642 42.4Q93.29392 41.775 93.20017 40.93125ZM93.0283 36.415627Q91.93455 36.86875 89.73142 37.18125Q88.48142 37.353127 87.9658 37.5875Q87.45017 37.80625 87.16892 38.24375Q86.88767 38.665627 86.88767 39.196877Q86.88767 40.009377 87.49705 40.55625Q88.12205 41.0875 89.29392 41.0875Q90.4658 41.0875 91.37205 40.571877Q92.2783 40.05625 92.7158 39.18125Q93.0283 38.49375 93.0283 37.15L93.0283 36.415627ZM102.8408 40.5875L103.12205 42.384377Q102.2783 42.55625 101.5908 42.55625Q100.49705 42.55625 99.88767 42.2125Q99.2783 41.853127 99.0283 41.290627Q98.79392 40.728127 98.79392 38.9L98.79392 32.040627L97.30955 32.040627L97.30955 30.478127L98.79392 30.478127L98.79392 27.525002L100.79392 26.306252L100.79392 30.478127L102.8408 30.478127L102.8408 32.040627L100.79392 32.040627L100.79392 39.025Q100.79392 39.884377 100.9033 40.134377Q101.01267 40.384377 101.24705 40.525Q101.49705 40.665627 101.95017 40.665627Q102.2783 40.665627 102.8408 40.5875ZM104.43455 28.259377L104.43455 25.931252L106.45017 25.931252L106.45017 28.259377L104.43455 28.259377ZM104.43455 42.4L104.43455 30.478127L106.45017 30.478127L106.45017 42.4L104.43455 42.4ZM108.66892 36.43125Q108.66892 33.11875 110.51267 31.525002Q112.04392 30.196877 114.26267 30.196877Q116.7158 30.196877 118.2783 31.821877Q119.8408 33.43125 119.8408 36.275Q119.8408 38.571877 119.1533 39.9Q118.4658 41.2125 117.13767 41.946877Q115.82517 42.665627 114.26267 42.665627Q111.76267 42.665627 110.2158 41.071877Q108.66892 39.4625 108.66892 36.43125ZM110.74705 36.43125Q110.74705 38.728127 111.74705 39.86875Q112.74705 41.009377 114.26267 41.009377Q115.76267 41.009377 116.76267 39.86875Q117.76267 38.7125 117.76267 36.36875Q117.76267 34.15 116.74705 33.025Q115.74705 31.884377 114.26267 31.884377Q112.74705 31.884377 111.74705 33.025Q110.74705 34.15 110.74705 36.43125ZM122.41892 42.4L122.41892 30.478127L124.23142 30.478127L124.23142 32.165627Q125.55955 30.196877 128.02829 30.196877Q129.10641 30.196877 130.01266 30.587502Q130.91891 30.978127 131.37204 31.618752Q131.82516 32.24375 131.99704 33.103127Q132.10641 33.665627 132.10641 35.071877L132.10641 42.4L130.09079 42.4L130.09079 35.15Q130.09079 33.915627 129.85641 33.30625Q129.62204 32.68125 129.01266 32.321877Q128.41891 31.962502 127.60642 31.962502Q126.30955 31.962502 125.37205 32.775Q124.43455 33.5875 124.43455 35.884377L124.43455 42.4L122.41892 42.4ZM149.38766 35.946877L149.38766 34.009377L156.35641 33.99375L156.35641 40.103127Q154.74704 41.384377 153.04391 42.040627Q151.34079 42.68125 149.54391 42.68125Q147.10641 42.68125 145.12204 41.65Q143.15329 40.603127 142.13766 38.634377Q141.12204 36.665627 141.12204 34.24375Q141.12204 31.837502 142.12204 29.759377Q143.13766 27.681252 145.02829 26.665627Q146.91891 25.650002 149.37204 25.650002Q151.15329 25.650002 152.59079 26.228127Q154.04391 26.806252 154.85641 27.853127Q155.68454 28.884377 156.10641 30.540627L154.13766 31.071877Q153.77829 29.821877 153.21579 29.103127Q152.66891 28.384377 151.63766 27.962502Q150.62204 27.525002 149.38766 27.525002Q147.88766 27.525002 146.79391 27.978127Q145.71579 28.431252 145.04391 29.181252Q144.37204 29.915627 143.99704 30.806252Q143.37204 32.321877 143.37204 34.11875Q143.37204 36.30625 144.12204 37.790627Q144.88766 39.275 146.34079 39.99375Q147.79391 40.7125 149.41891 40.7125Q150.82516 40.7125 152.16891 40.165627Q153.52829 39.61875 154.21579 39.009377L154.21579 35.946877L149.38766 35.946877ZM159.68454 42.4L159.68454 25.931252L165.88766 25.931252Q167.52829 25.931252 168.38766 26.087502Q169.60641 26.290627 170.41891 26.868752Q171.24704 27.431252 171.74704 28.462502Q172.24704 29.478127 172.24704 30.696877Q172.24704 32.790627 170.90329 34.259377Q169.57516 35.7125 166.07516 35.7125L161.85641 35.7125L161.85641 42.4L159.68454 42.4ZM161.85641 33.759377L166.10641 33.759377Q168.23141 33.759377 169.10641 32.978127Q169.99704 32.196877 169.99704 30.759377Q169.99704 29.728127 169.46579 28.993752Q168.95016 28.259377 168.10641 28.025002Q167.54391 27.884377 166.07516 27.884377L161.85641 27.884377L161.85641 33.759377ZM178.87204 42.4L178.87204 27.884377L173.45016 27.884377L173.45016 25.931252L186.49704 25.931252L186.49704 27.884377L181.04391 27.884377L181.04391 42.4L178.87204 42.4ZM198.48141 40.4625L198.48141 42.4L187.60641 42.4Q187.57516 41.665627 187.84079 40.99375Q188.24704 39.884377 189.15329 38.80625Q190.07516 37.728127 191.80954 36.30625Q194.49704 34.11875 195.43454 32.8375Q196.38766 31.540627 196.38766 30.400002Q196.38766 29.196877 195.52829 28.368752Q194.66891 27.540627 193.27829 27.540627Q191.82516 27.540627 190.95016 28.415627Q190.07516 29.290627 190.05954 30.837502L187.98141 30.634377Q188.20016 28.306252 189.59079 27.087502Q190.98141 25.868752 193.32516 25.868752Q195.70016 25.868752 197.07516 27.181252Q198.46579 28.493752 198.46579 30.446877Q198.46579 31.431252 198.05954 32.384377Q197.65329 33.3375 196.71579 34.4Q195.77829 35.446877 193.59079 37.290627Q191.77829 38.821877 191.26266 39.36875Q190.74704 39.9 190.40329 40.4625L198.48141 40.4625ZM201.95016 42.4L201.95016 40.103127L204.24704 40.103127L204.24704 42.4Q204.24704 43.665627 203.79391 44.446877Q203.35641 45.228127 202.37204 45.65L201.80954 44.790627Q202.45016 44.509377 202.74704 43.9625Q203.05954 43.415627 203.09079 42.4L201.95016 42.4ZM212.85641 38.0875L214.98141 37.9Q215.21579 39.4625 216.07516 40.24375Q216.93454 41.025 218.15329 41.025Q219.60641 41.025 220.60641 39.93125Q221.62204 38.821877 221.62204 36.99375Q221.62204 35.275 220.65329 34.275Q219.68454 33.275 218.10641 33.275Q217.13766 33.275 216.34079 33.7125Q215.55954 34.15 215.12204 34.86875L213.21579 34.61875L214.80954 26.165627L222.99704 26.165627L222.99704 28.087502L216.43454 28.087502L215.54391 32.509377Q217.02829 31.478127 218.65329 31.478127Q220.80954 31.478127 222.29391 32.978127Q223.77829 34.478127 223.77829 36.821877Q223.77829 39.05625 222.46579 40.68125Q220.88766 42.68125 218.15329 42.68125Q215.90329 42.68125 214.48141 41.43125Q213.05954 40.165627 212.85641 38.0875ZM234.27829 42.4L232.40329 42.4L232.40329 25.931252L234.43454 25.931252L234.43454 31.806252Q235.71579 30.196877 237.70016 30.196877Q238.79391 30.196877 239.77829 30.650002Q240.76266 31.087502 241.38766 31.900002Q242.02829 32.696877 242.38766 33.8375Q242.74704 34.9625 242.74704 36.259377Q242.74704 39.321877 241.23141 40.99375Q239.71579 42.665627 237.59079 42.665627Q235.48141 42.665627 234.27829 40.9L234.27829 42.4ZM234.26266 36.353127Q234.26266 38.49375 234.84079 39.446877Q235.79391 41.009377 237.43454 41.009377Q238.74704 41.009377 239.71579 39.86875Q240.68454 38.7125 240.68454 36.43125Q240.68454 34.0875 239.74704 32.978127Q238.82516 31.868752 237.51266 31.868752Q236.20016 31.868752 235.23141 33.025Q234.26266 34.165627 234.26266 36.353127ZM253.59079 38.55625L255.66891 38.821877Q255.18454 40.65 253.84079 41.665627Q252.51266 42.665627 250.43454 42.665627Q247.80954 42.665627 246.27829 41.05625Q244.74704 39.446877 244.74704 36.540627Q244.74704 33.525 246.29391 31.868752Q247.84079 30.196877 250.30954 30.196877Q252.71579 30.196877 254.23141 31.837502Q255.74704 33.4625 255.74704 36.415627Q255.74704 36.5875 255.73141 36.946877L246.84079 36.946877Q246.95016 38.915627 247.95016 39.9625Q248.95016 41.009377 250.43454 41.009377Q251.54391 41.009377 252.32516 40.43125Q253.12204 39.8375 253.59079 38.55625ZM246.95016 35.290627L253.60641 35.290627Q253.46579 33.790627 252.84079 33.040627Q251.87204 31.868752 250.34079 31.868752Q248.95016 31.868752 247.99704 32.80625Q247.04391 33.728127 246.95016 35.290627ZM266.20016 40.93125Q265.07516 41.884377 264.0283 42.275Q262.99704 42.665627 261.80954 42.665627Q259.8408 42.665627 258.7783 41.7125Q257.7314 40.74375 257.7314 39.259377Q257.7314 38.384377 258.12204 37.665627Q258.5283 36.93125 259.1689 36.49375Q259.82516 36.05625 260.63766 35.8375Q261.2314 35.665627 262.43454 35.525Q264.87204 35.228127 266.0283 34.8375Q266.0439 34.415627 266.0439 34.30625Q266.0439 33.071877 265.4658 32.55625Q264.70016 31.884377 263.1689 31.884377Q261.74704 31.884377 261.05954 32.384377Q260.38766 32.86875 260.05954 34.15L258.07516 33.86875Q258.3564 32.603127 258.9658 31.821877Q259.5908 31.040627 260.74704 30.618752Q261.9189 30.196877 263.4658 30.196877Q264.99704 30.196877 265.95016 30.556252Q266.9033 30.915627 267.3408 31.462502Q267.7939 32.009377 267.9814 32.8375Q268.07516 33.353127 268.07516 34.7125L268.07516 37.4Q268.07516 40.228127 268.20016 40.978127Q268.3408 41.7125 268.7158 42.4L266.6064 42.4Q266.2939 41.775 266.20016 40.93125ZM266.0283 36.415627Q264.93454 36.86875 262.7314 37.18125Q261.4814 37.353127 260.9658 37.5875Q260.45016 37.80625 260.1689 38.24375Q259.88766 38.665627 259.88766 39.196877Q259.88766 40.009377 260.49704 40.55625Q261.12204 41.0875 262.2939 41.0875Q263.4658 41.0875 264.37204 40.571877Q265.2783 40.05625 265.7158 39.18125Q266.0283 38.49375 266.0283 37.15L266.0283 36.415627ZM271.4189 42.4L271.4189 30.478127L273.2314 30.478127L273.2314 32.15Q273.7939 31.275002 274.7158 30.743752Q275.6533 30.196877 276.8408 30.196877Q278.1689 30.196877 279.01266 30.759377Q279.87204 31.306252 280.2158 32.290627Q281.62204 30.196877 283.9033 30.196877Q285.6689 30.196877 286.62204 31.181252Q287.57516 32.165627 287.57516 34.2125L287.57516 42.4L285.57516 42.4L285.57516 34.884377Q285.57516 33.68125 285.37204 33.15Q285.18454 32.603127 284.6533 32.290627Q284.13766 31.962502 283.45016 31.962502Q282.18454 31.962502 281.3564 32.80625Q280.5283 33.634377 280.5283 35.478127L280.5283 42.4L278.51266 42.4L278.51266 34.65Q278.51266 33.30625 278.01266 32.634377Q277.51266 31.962502 276.38766 31.962502Q275.5439 31.962502 274.80954 32.415627Q274.0908 32.853127 273.76266 33.728127Q273.43454 34.5875 273.43454 36.2125L273.43454 42.4L271.4189 42.4ZM289.6064 38.8375L291.6064 38.525Q291.7783 39.728127 292.5439 40.36875Q293.30954 41.009377 294.70016 41.009377Q296.0908 41.009377 296.76266 40.446877Q297.43454 39.86875 297.43454 39.103127Q297.43454 38.43125 296.8408 38.025Q296.43454 37.759377 294.7783 37.353127Q292.55954 36.790627 291.70016 36.384377Q290.8408 35.9625 290.38766 35.24375Q289.95016 34.509377 289.95016 33.634377Q289.95016 32.8375 290.30954 32.165627Q290.68454 31.478127 291.30954 31.040627Q291.7783 30.681252 292.5908 30.446877Q293.4033 30.196877 294.3408 30.196877Q295.74704 30.196877 296.80954 30.603127Q297.87204 31.009377 298.37204 31.712502Q298.87204 32.4 299.05954 33.55625L297.0908 33.821877Q296.95016 32.9 296.30954 32.384377Q295.6689 31.868752 294.4814 31.868752Q293.0908 31.868752 292.49704 32.3375Q291.9033 32.790627 291.9033 33.4Q291.9033 33.790627 292.1533 34.11875Q292.4033 34.43125 292.9189 34.65Q293.2314 34.759377 294.7158 35.165627Q296.8564 35.74375 297.70016 36.103127Q298.5439 36.4625 299.0283 37.165627Q299.51266 37.86875 299.51266 38.9Q299.51266 39.9 298.9189 40.80625Q298.3408 41.696877 297.2158 42.18125Q296.1064 42.665627 294.7158 42.665627Q292.38766 42.665627 291.1689 41.7125Q289.95016 40.74375 289.6064 38.8375ZM302.95016 42.4L302.95016 40.103127L305.24704 40.103127L305.24704 42.4Q305.24704 43.665627 304.7939 44.446877Q304.3564 45.228127 303.37204 45.65L302.80954 44.790627Q303.45016 44.509377 303.74704 43.9625Q304.05954 43.415627 304.0908 42.4L302.95016 42.4ZM313.8564 38.0875L315.9814 37.9Q316.2158 39.4625 317.07516 40.24375Q317.93454 41.025 319.1533 41.025Q320.6064 41.025 321.6064 39.93125Q322.62204 38.821877 322.62204 36.99375Q322.62204 35.275 321.6533 34.275Q320.68454 33.275 319.1064 33.275Q318.13766 33.275 317.3408 33.7125Q316.55954 34.15 316.12204 34.86875L314.2158 34.61875L315.80954 26.165627L323.99704 26.165627L323.99704 28.087502L317.43454 28.087502L316.5439 32.509377Q318.0283 31.478127 319.6533 31.478127Q321.80954 31.478127 323.2939 32.978127Q324.7783 34.478127 324.7783 36.821877Q324.7783 39.05625 323.4658 40.68125Q321.88766 42.68125 319.1533 42.68125Q316.9033 42.68125 315.4814 41.43125Q314.05954 40.165627 313.8564 38.0875ZM332.6689 36.43125Q332.6689 33.11875 334.51266 31.525002Q336.0439 30.196877 338.26266 30.196877Q340.7158 30.196877 342.2783 31.821877Q343.8408 33.43125 343.8408 36.275Q343.8408 38.571877 343.1533 39.9Q342.4658 41.2125 341.13766 41.946877Q339.82516 42.665627 338.26266 42.665627Q335.76266 42.665627 334.2158 41.071877Q332.6689 39.4625 332.6689 36.43125ZM334.74704 36.43125Q334.74704 38.728127 335.74704 39.86875Q336.74704 41.009377 338.26266 41.009377Q339.76266 41.009377 340.76266 39.86875Q341.76266 38.7125 341.76266 36.36875Q341.76266 34.15 340.74704 33.025Q339.74704 31.884377 338.26266 31.884377Q336.74704 31.884377 335.74704 33.025Q334.74704 34.15 334.74704 36.43125ZM354.2314 42.4L354.2314 40.65Q352.8408 42.665627 350.45016 42.665627Q349.4033 42.665627 348.4814 42.259377Q347.55954 41.853127 347.12204 41.24375Q346.68454 40.634377 346.49704 39.74375Q346.37204 39.15 346.37204 37.86875L346.37204 30.478127L348.4033 30.478127L348.4033 37.0875Q348.4033 38.665627 348.51266 39.228127Q348.7158 40.025 349.32516 40.478127Q349.95016 40.93125 350.8564 40.93125Q351.76266 40.93125 352.55954 40.4625Q353.3564 39.99375 353.68454 39.196877Q354.0283 38.384377 354.0283 36.86875L354.0283 30.478127L356.0439 30.478127L356.0439 42.4L354.2314 42.4ZM363.8408 40.5875L364.12204 42.384377Q363.2783 42.55625 362.5908 42.55625Q361.49704 42.55625 360.88766 42.2125Q360.2783 41.853127 360.0283 41.290627Q359.7939 40.728127 359.7939 38.9L359.7939 32.040627L358.30954 32.040627L358.30954 30.478127L359.7939 30.478127L359.7939 27.525002L361.7939 26.306252L361.7939 30.478127L363.8408 30.478127L363.8408 32.040627L361.7939 32.040627L361.7939 39.025Q361.7939 39.884377 361.9033 40.134377Q362.01266 40.384377 362.24704 40.525Q362.49704 40.665627 362.95016 40.665627Q363.2783 40.665627 363.8408 40.5875ZM365.4189 46.978127L365.4189 30.478127L367.26266 30.478127L367.26266 32.025Q367.9189 31.118752 368.7314 30.665627Q369.55954 30.196877 370.7158 30.196877Q372.24704 30.196877 373.4189 30.993752Q374.5908 31.775002 375.18454 33.2125Q375.7783 34.634377 375.7783 36.353127Q375.7783 38.18125 375.12204 39.65Q374.4658 41.103127 373.20016 41.884377Q371.95016 42.665627 370.57516 42.665627Q369.55954 42.665627 368.74704 42.24375Q367.95016 41.821877 367.43454 41.165627L367.43454 46.978127L365.4189 46.978127ZM367.24704 36.509377Q367.24704 38.80625 368.18454 39.915627Q369.12204 41.009377 370.43454 41.009377Q371.7939 41.009377 372.74704 39.86875Q373.70016 38.728127 373.70016 36.3375Q373.70016 34.05625 372.76266 32.93125Q371.82516 31.790627 370.5283 31.790627Q369.2314 31.790627 368.2314 32.99375Q367.24704 34.196877 367.24704 36.509377ZM386.2314 42.4L386.2314 40.65Q384.8408 42.665627 382.45016 42.665627Q381.4033 42.665627 380.4814 42.259377Q379.55954 41.853127 379.12204 41.24375Q378.68454 40.634377 378.49704 39.74375Q378.37204 39.15 378.37204 37.86875L378.37204 30.478127L380.4033 30.478127L380.4033 37.0875Q380.4033 38.665627 380.51266 39.228127Q380.7158 40.025 381.32516 40.478127Q381.95016 40.93125 382.8564 40.93125Q383.76266 40.93125 384.55954 40.4625Q385.3564 39.99375 385.68454 39.196877Q386.0283 38.384377 386.0283 36.86875L386.0283 30.478127L388.0439 30.478127L388.0439 42.4L386.2314 42.4ZM395.8408 40.5875L396.12204 42.384377Q395.2783 42.55625 394.5908 42.55625Q393.49704 42.55625 392.88766 42.2125Q392.2783 41.853127 392.0283 41.290627Q391.7939 40.728127 391.7939 38.9L391.7939 32.040627L390.30954 32.040627L390.30954 30.478127L391.7939 30.478127L391.7939 27.525002L393.7939 26.306252L393.7939 30.478127L395.8408 30.478127L395.8408 32.040627L393.7939 32.040627L393.7939 39.025Q393.7939 39.884377 393.9033 40.134377Q394.01266 40.384377 394.24704 40.525Q394.49704 40.665627 394.95016 40.665627Q395.2783 40.665627 395.8408 40.5875ZM402.6064 38.8375L404.6064 38.525Q404.7783 39.728127 405.5439 40.36875Q406.30954 41.009377 407.70016 41.009377Q409.0908 41.009377 409.76266 40.446877Q410.43454 39.86875 410.43454 39.103127Q410.43454 38.43125 409.8408 38.025Q409.43454 37.759377 407.7783 37.353127Q405.55954 36.790627 404.70016 36.384377Q403.8408 35.9625 403.38766 35.24375Q402.95016 34.509377 402.95016 33.634377Q402.95016 32.8375 403.30954 32.165627Q403.68454 31.478127 404.30954 31.040627Q404.7783 30.681252 405.5908 30.446877Q406.4033 30.196877 407.3408 30.196877Q408.74704 30.196877 409.80954 30.603127Q410.87204 31.009377 411.37204 31.712502Q411.87204 32.4 412.05954 33.55625L410.0908 33.821877Q409.95016 32.9 409.30954 32.384377Q408.6689 31.868752 407.4814 31.868752Q406.0908 31.868752 405.49704 32.3375Q404.9033 32.790627 404.9033 33.4Q404.9033 33.790627 405.1533 34.11875Q405.4033 34.43125 405.9189 34.65Q406.2314 34.759377 407.7158 35.165627Q409.8564 35.74375 410.70016 36.103127Q411.5439 36.4625 412.0283 37.165627Q412.51266 37.86875 412.51266 38.9Q412.51266 39.9 411.9189 40.80625Q411.3408 41.696877 410.2158 42.18125Q409.1064 42.665627 407.7158 42.665627Q405.38766 42.665627 404.1689 41.7125Q402.95016 40.74375 402.6064 38.8375ZM423.5908 38.55625L425.6689 38.821877Q425.18454 40.65 423.8408 41.665627Q422.51266 42.665627 420.43454 42.665627Q417.80954 42.665627 416.2783 41.05625Q414.74704 39.446877 414.74704 36.540627Q414.74704 33.525 416.2939 31.868752Q417.8408 30.196877 420.30954 30.196877Q422.7158 30.196877 424.2314 31.837502Q425.74704 33.4625 425.74704 36.415627Q425.74704 36.5875 425.7314 36.946877L416.8408 36.946877Q416.95016 38.915627 417.95016 39.9625Q418.95016 41.009377 420.43454 41.009377Q421.5439 41.009377 422.32516 40.43125Q423.12204 39.8375 423.5908 38.55625ZM416.95016 35.290627L423.6064 35.290627Q423.4658 33.790627 422.8408 33.040627Q421.87204 31.868752 420.3408 31.868752Q418.95016 31.868752 417.99704 32.80625Q417.0439 33.728127 416.95016 35.290627ZM436.0283 46.978127L436.0283 41.134377Q435.5439 41.790627 434.70016 42.228127Q433.8564 42.665627 432.9033 42.665627Q430.7783 42.665627 429.24704 40.978127Q427.7158 39.275 427.7158 36.321877Q427.7158 34.525 428.3408 33.103127Q428.9658 31.681252 430.13766 30.946877Q431.32516 30.196877 432.74704 30.196877Q434.95016 30.196877 436.2314 32.071877L436.2314 30.478127L438.0439 30.478127L438.0439 46.978127L436.0283 46.978127ZM429.7939 36.4Q429.7939 38.7125 430.74704 39.86875Q431.7158 41.009377 433.07516 41.009377Q434.3564 41.009377 435.2939 39.915627Q436.2314 38.821877 436.2314 36.5875Q436.2314 34.196877 435.24704 32.99375Q434.26266 31.790627 432.93454 31.790627Q431.62204 31.790627 430.70016 32.915627Q429.7939 34.040627 429.7939 36.4ZM449.2314 42.4L449.2314 40.65Q447.8408 42.665627 445.45016 42.665627Q444.4033 42.665627 443.4814 42.259377Q442.55954 41.853127 442.12204 41.24375Q441.68454 40.634377 441.49704 39.74375Q441.37204 39.15 441.37204 37.86875L441.37204 30.478127L443.4033 30.478127L443.4033 37.0875Q443.4033 38.665627 443.51266 39.228127Q443.7158 40.025 444.32516 40.478127Q444.95016 40.93125 445.8564 40.93125Q446.76266 40.93125 447.55954 40.4625Q448.3564 39.99375 448.68454 39.196877Q449.0283 38.384377 449.0283 36.86875L449.0283 30.478127L451.0439 30.478127L451.0439 42.4L449.2314 42.4ZM462.5908 38.55625L464.6689 38.821877Q464.18454 40.65 462.8408 41.665627Q461.51266 42.665627 459.43454 42.665627Q456.80954 42.665627 455.2783 41.05625Q453.74704 39.446877 453.74704 36.540627Q453.74704 33.525 455.2939 31.868752Q456.8408 30.196877 459.30954 30.196877Q461.7158 30.196877 463.2314 31.837502Q464.74704 33.4625 464.74704 36.415627Q464.74704 36.5875 464.7314 36.946877L455.8408 36.946877Q455.95016 38.915627 456.95016 39.9625Q457.95016 41.009377 459.43454 41.009377Q460.5439 41.009377 461.32516 40.43125Q462.12204 39.8375 462.5908 38.55625ZM455.95016 35.290627L462.6064 35.290627Q462.4658 33.790627 461.8408 33.040627Q460.87204 31.868752 459.3408 31.868752Q457.95016 31.868752 456.99704 32.80625Q456.0439 33.728127 455.95016 35.290627ZM467.4189 42.4L467.4189 30.478127L469.2314 30.478127L469.2314 32.165627Q470.55954 30.196877 473.0283 30.196877Q474.1064 30.196877 475.01266 30.587502Q475.9189 30.978127 476.37204 31.618752Q476.82516 32.24375 476.99704 33.103127Q477.1064 33.665627 477.1064 35.071877L477.1064 42.4L475.0908 42.4L475.0908 35.15Q475.0908 33.915627 474.8564 33.30625Q474.62204 32.68125 474.01266 32.321877Q473.4189 31.962502 472.6064 31.962502Q471.30954 31.962502 470.37204 32.775Q469.43454 33.5875 469.43454 35.884377L469.43454 42.4L467.4189 42.4ZM488.20016 38.025L490.18454 38.290627Q489.87204 40.3375 488.5283 41.509377Q487.18454 42.665627 485.2314 42.665627Q482.7783 42.665627 481.2939 41.071877Q479.80954 39.4625 479.80954 36.478127Q479.80954 34.55625 480.43454 33.103127Q481.07516 31.650002 482.38766 30.931252Q483.70016 30.196877 485.2314 30.196877Q487.18454 30.196877 488.4189 31.181252Q489.6533 32.165627 489.99704 33.978127L488.0283 34.275Q487.74704 33.071877 487.0283 32.478127Q486.32516 31.868752 485.30954 31.868752Q483.7939 31.868752 482.82516 32.9625Q481.87204 34.05625 481.87204 36.43125Q481.87204 38.821877 482.7939 39.915627Q483.7158 41.009377 485.20016 41.009377Q486.38766 41.009377 487.18454 40.275Q487.9814 39.540627 488.20016 38.025ZM500.5908 38.55625L502.6689 38.821877Q502.18454 40.65 500.8408 41.665627Q499.51266 42.665627 497.43454 42.665627Q494.80954 42.665627 493.2783 41.05625Q491.74704 39.446877 491.74704 36.540627Q491.74704 33.525 493.2939 31.868752Q494.8408 30.196877 497.30954 30.196877Q499.7158 30.196877 501.2314 31.837502Q502.74704 33.4625 502.74704 36.415627Q502.74704 36.5875 502.7314 36.946877L493.8408 36.946877Q493.95016 38.915627 494.95016 39.9625Q495.95016 41.009377 497.43454 41.009377Q498.5439 41.009377 499.32516 40.43125Q500.12204 39.8375 500.5908 38.55625ZM493.95016 35.290627L500.6064 35.290627Q500.4658 33.790627 499.8408 33.040627Q498.87204 31.868752 497.3408 31.868752Q495.95016 31.868752 494.99704 32.80625Q494.0439 33.728127 493.95016 35.290627ZM504.6064 38.8375L506.6064 38.525Q506.7783 39.728127 507.5439 40.36875Q508.30954 41.009377 509.70016 41.009377Q511.0908 41.009377 511.76266 40.446877Q512.4346 39.86875 512.4346 39.103127Q512.4346 38.43125 511.8408 38.025Q511.43454 37.759377 509.7783 37.353127Q507.55954 36.790627 506.70016 36.384377Q505.8408 35.9625 505.38766 35.24375Q504.95016 34.509377 504.95016 33.634377Q504.95016 32.8375 505.30954 32.165627Q505.68454 31.478127 506.30954 31.040627Q506.7783 30.681252 507.5908 30.446877Q508.4033 30.196877 509.3408 30.196877Q510.74704 30.196877 511.80954 30.603127Q512.8721 31.009377 513.3721 31.712502Q513.8721 32.4 514.0596 33.55625L512.0908 33.821877Q511.95016 32.9 511.30954 32.384377Q510.6689 31.868752 509.4814 31.868752Q508.0908 31.868752 507.49704 32.3375Q506.9033 32.790627 506.9033 33.4Q506.9033 33.790627 507.1533 34.11875Q507.4033 34.43125 507.9189 34.65Q508.2314 34.759377 509.7158 35.165627Q511.8564 35.74375 512.7002 36.103127Q513.54395 36.4625 514.0283 37.165627Q514.5127 37.86875 514.5127 38.9Q514.5127 39.9 513.91895 40.80625Q513.3408 41.696877 512.2158 42.18125Q511.1064 42.665627 509.7158 42.665627Q507.38766 42.665627 506.1689 41.7125Q504.95016 40.74375 504.6064 38.8375ZM515.9033 42.68125L520.66895 25.650002L522.29395 25.650002L517.5283 42.68125L515.9033 42.68125ZM523.41895 46.978127L523.41895 30.478127L525.2627 30.478127L525.2627 32.025Q525.91895 31.118752 526.73145 30.665627Q527.5596 30.196877 528.7158 30.196877Q530.2471 30.196877 531.41895 30.993752Q532.5908 31.775002 533.1846 33.2125Q533.7783 34.634377 533.7783 36.353127Q533.7783 38.18125 533.1221 39.65Q532.4658 41.103127 531.2002 41.884377Q529.9502 42.665627 528.5752 42.665627Q527.5596 42.665627 526.7471 42.24375Q525.9502 41.821877 525.4346 41.165627L525.4346 46.978127L523.41895 46.978127ZM525.2471 36.509377Q525.2471 38.80625 526.1846 39.915627Q527.1221 41.009377 528.4346 41.009377Q529.79395 41.009377 530.7471 39.86875Q531.7002 38.728127 531.7002 36.3375Q531.7002 34.05625 530.7627 32.93125Q529.8252 31.790627 528.5283 31.790627Q527.23145 31.790627 526.23145 32.99375Q525.2471 34.196877 525.2471 36.509377ZM536.4033 42.4L536.4033 30.478127L538.2158 30.478127L538.2158 32.275Q538.91895 31.009377 539.4971 30.603127Q540.0908 30.196877 540.79395 30.196877Q541.8252 30.196877 542.8721 30.853127L542.1846 32.728127Q541.4346 32.290627 540.7002 32.290627Q540.0283 32.290627 539.4971 32.696877Q538.98145 33.0875 538.7627 33.790627Q538.41895 34.86875 538.41895 36.15L538.41895 42.4L536.4033 42.4ZM543.66895 36.43125Q543.66895 33.11875 545.5127 31.525002Q547.04395 30.196877 549.2627 30.196877Q551.7158 30.196877 553.2783 31.821877Q554.8408 33.43125 554.8408 36.275Q554.8408 38.571877 554.1533 39.9Q553.4658 41.2125 552.1377 41.946877Q550.8252 42.665627 549.2627 42.665627Q546.7627 42.665627 545.2158 41.071877Q543.66895 39.4625 543.66895 36.43125ZM545.7471 36.43125Q545.7471 38.728127 546.7471 39.86875Q547.7471 41.009377 549.2627 41.009377Q550.7627 41.009377 551.7627 39.86875Q552.7627 38.7125 552.7627 36.36875Q552.7627 34.15 551.7471 33.025Q550.7471 31.884377 549.2627 31.884377Q547.7471 31.884377 546.7471 33.025Q545.7471 34.15 545.7471 36.43125ZM557.41895 42.4L557.41895 30.478127L559.23145 30.478127L559.23145 32.15Q559.79395 31.275002 560.7158 30.743752Q561.6533 30.196877 562.8408 30.196877Q564.16895 30.196877 565.0127 30.759377Q565.8721 31.306252 566.2158 32.290627Q567.6221 30.196877 569.9033 30.196877Q571.66895 30.196877 572.6221 31.181252Q573.5752 32.165627 573.5752 34.2125L573.5752 42.4L571.5752 42.4L571.5752 34.884377Q571.5752 33.68125 571.3721 33.15Q571.1846 32.603127 570.6533 32.290627Q570.1377 31.962502 569.4502 31.962502Q568.1846 31.962502 567.35645 32.80625Q566.5283 33.634377 566.5283 35.478127L566.5283 42.4L564.5127 42.4L564.5127 34.65Q564.5127 33.30625 564.0127 32.634377Q563.5127 31.962502 562.3877 31.962502Q561.54395 31.962502 560.8096 32.415627Q560.0908 32.853127 559.7627 33.728127Q559.4346 34.5875 559.4346 36.2125L559.4346 42.4L557.41895 42.4ZM576.41895 46.978127L576.41895 30.478127L578.2627 30.478127L578.2627 32.025Q578.91895 31.118752 579.73145 30.665627Q580.5596 30.196877 581.7158 30.196877Q583.2471 30.196877 584.41895 30.993752Q585.5908 31.775002 586.1846 33.2125Q586.7783 34.634377 586.7783 36.353127Q586.7783 38.18125 586.1221 39.65Q585.4658 41.103127 584.2002 41.884377Q582.9502 42.665627 581.5752 42.665627Q580.5596 42.665627 579.7471 42.24375Q578.9502 41.821877 578.4346 41.165627L578.4346 46.978127L576.41895 46.978127ZM578.2471 36.509377Q578.2471 38.80625 579.1846 39.915627Q580.1221 41.009377 581.4346 41.009377Q582.79395 41.009377 583.7471 39.86875Q584.7002 38.728127 584.7002 36.3375Q584.7002 34.05625 583.7627 32.93125Q582.8252 31.790627 581.5283 31.790627Q580.23145 31.790627 579.23145 32.99375Q578.2471 34.196877 578.2471 36.509377ZM593.8408 40.5875L594.1221 42.384377Q593.2783 42.55625 592.5908 42.55625Q591.4971 42.55625 590.8877 42.2125Q590.2783 41.853127 590.0283 41.290627Q589.79395 40.728127 589.79395 38.9L589.79395 32.040627L588.3096 32.040627L588.3096 30.478127L589.79395 30.478127L589.79395 27.525002L591.79395 26.306252L591.79395 30.478127L593.8408 30.478127L593.8408 32.040627L591.79395 32.040627L591.79395 39.025Q591.79395 39.884377 591.9033 40.134377Q592.0127 40.384377 592.2471 40.525Q592.4971 40.665627 592.9502 40.665627Q593.2783 40.665627 593.8408 40.5875Z" fill-rule="nonzero"/></svg>