<svg version="1.1" viewBox="0.0 0.0 780.0 483.0" fill="none" stroke="none" stroke-linecap="square" stroke-miterlimit="10" width="780" height="483" xmlns:xlink="http://www.w3.org/1999/xlink" xmlns="http://www.w3.org/2000/svg"><path fill="#ffffff" d="M0 0L780.0 0L780.0 483.0L0 483.0L0 0Z" fill-rule="nonzero"/><path stroke="#333333" stroke-width="1.0" stroke-linecap="butt" d="M106.5 416.5L646.5 416.5" fill-rule="nonzero"/><path stroke="#cccccc" stroke-width="1.0" stroke-linecap="butt" d="M106.5 300.5L646.5 300.5" fill-rule="nonzero"/><path stroke="#cccccc" stroke-width="1.0" stroke-linecap="butt" d="M106.5 183.5L646.5 183.5" fill-rule="nonzero"/><path stroke="#cccccc" stroke-width="1.0" stroke-linecap="butt" d="M106.5 67.5L646.5 67.5" fill-rule="nonzero"/><path stroke="#e6e6e6" stroke-width="1.0" stroke-linecap="butt" d="M106.5 377.5L646.5 377.5" fill-rule="nonzero"/><path stroke="#e6e6e6" stroke-width="1.0" stroke-linecap="butt" d="M106.5 338.5L646.5 338.5" fill-rule="nonzero"/><path stroke="#e6e6e6" stroke-width="1.0" stroke-linecap="butt" d="M106.5 261.5L646.5 261.5" fill-rule="nonzero"/><path stroke="#e6e6e6" stroke-width="1.0" stroke-linecap="butt" d="M106.5 222.5L646.5 222.5" fill-rule="nonzero"/><path stroke="#e6e6e6" stroke-width="1.0" stroke-linecap="butt" d="M106.5 145.5L646.5 145.5" fill-rule="nonzero"/><path stroke="#e6e6e6" stroke-width="1.0" stroke-linecap="butt" d="M106.5 106.5L646.5 106.5" fill-rule="nonzero"/><path stroke="#eeeeee" stroke-width="1.0" stroke-linecap="butt" d="M196.38737 101.52333L196.38737 117.52333" fill-rule="nonzero"/><path stroke="#eeeeee" stroke-width="1.0" stroke-linecap="butt" d="M376.43243 172.48666L376.43243 188.48666" fill-rule="nonzero"/><path stroke="#eeeeee" stroke-width="1.0" stroke-linecap="butt" d="M556.4775 244.61333L556.4775 260.61334" fill-rule="nonzero"/><path stroke="#eeeeee" stroke-width="1.0" stroke-linecap="butt" d="M196.38737 264.39L196.38737 280.39" fill-rule="nonzero"/><path stroke="#eeeeee" stroke-width="1.0" stroke-linecap="butt" d="M376.43243 292.31L376.43243 308.31" fill-rule="nonzero"/><path stroke="#eeeeee" stroke-width="1.0" stroke-linecap="butt" d="M556.4775 331.86334L556.4775 347.86334" fill-rule="nonzero"/><path stroke="#000000" stroke-width="1.0" stroke-linecap="butt" d="M646.5 416.5L106.5 416.5" fill-rule="nonzero"/><path stroke="#000000" stroke-width="1.0" stroke-linecap="butt" d="M106.5 416.5L106.5 67.5" fill-rule="nonzero"/><clipPath id="id_0"><path d="M106.364845 67.5L646.5 67.5L646.5 416.5L106.364845 416.5L106.364845 67.5Z" clip-rule="nonzero"/></clipPath><path stroke="#3d85c6" stroke-width="2.0" stroke-linecap="butt" stroke-opacity="0.4" clip-path="url(#id_0)" d="M0 39.29045L646.5 296.19196" fill-rule="nonzero"/><path stroke="#bf9000" stroke-width="2.0" stroke-linecap="butt" stroke-opacity="0.4" clip-path="url(#id_0)" d="M0 241.65224L646.5 362.7928" fill-rule="nonzero"/><path fill="#3d85c6" clip-path="url(#id_0)" d="M200.88737 117.52333C200.88737 120.00861 198.87265 122.02333 196.38737 122.02333C193.90208 122.02333 191.88737 120.00861 191.88737 117.52333C191.88737 115.038055 193.90208 113.02333 196.38737 113.02333C198.87265 113.02333 200.88737 115.038055 200.88737 117.52333Z" fill-rule="nonzero"/><path fill="#3d85c6" clip-path="url(#id_0)" d="M380.93243 188.48666C380.93243 190.97195 378.9177 192.98666 376.43243 192.98666C373.94714 192.98666 371.93243 190.97195 371.93243 188.48666C371.93243 186.00139 373.94714 183.98666 376.43243 183.98666C378.9177 183.98666 380.93243 186.00139 380.93243 188.48666Z" fill-rule="nonzero"/><path fill="#3d85c6" clip-path="url(#id_0)" d="M560.9775 260.61334C560.9775 263.0986 558.96277 265.11334 556.4775 265.11334C553.9922 265.11334 551.9775 263.0986 551.9775 260.61334C551.9775 258.12805 553.9922 256.11334 556.4775 256.11334C558.96277 256.11334 560.9775 258.12805 560.9775 260.61334Z" fill-rule="nonzero"/><path fill="#bf9000" clip-path="url(#id_0)" d="M200.88737 280.39C200.88737 282.87527 198.87265 284.89 196.38737 284.89C193.90208 284.89 191.88737 282.87527 191.88737 280.39C191.88737 277.90472 193.90208 275.89 196.38737 275.89C198.87265 275.89 200.88737 277.90472 200.88737 280.39Z" fill-rule="nonzero"/><path fill="#bf9000" clip-path="url(#id_0)" d="M380.93243 308.31C380.93243 310.7953 378.9177 312.81 376.43243 312.81C373.94714 312.81 371.93243 310.7953 371.93243 308.31C371.93243 305.8247 373.94714 303.81 376.43243 303.81C378.9177 303.81 380.93243 305.8247 380.93243 308.31Z" fill-rule="nonzero"/><path fill="#bf9000" clip-path="url(#id_0)" d="M560.9775 347.86334C560.9775 350.3486 558.96277 352.36334 556.4775 352.36334C553.9922 352.36334 551.9775 350.3486 551.9775 347.86334C551.9775 345.37805 553.9922 343.36334 556.4775 343.36334C558.96277 343.36334 560.9775 345.37805 560.9775 347.86334Z" fill-rule="nonzero"/><path stroke="#000000" stroke-width="1.0" stroke-linecap="butt" d="M196.5 422.5L196.5 410.5" fill-rule="nonzero"/><path stroke="#000000" stroke-width="1.0" stroke-linecap="butt" d="M376.5 422.5L376.5 410.5" fill-rule="nonzero"/><path stroke="#000000" stroke-width="1.0" stroke-linecap="butt" d="M556.5 422.5L556.5 410.5" fill-rule="nonzero"/><path stroke="#000000" stroke-width="1.0" stroke-linecap="butt" d="M103.5 377.5L109.5 377.5" fill-rule="nonzero"/><path stroke="#000000" stroke-width="1.0" stroke-linecap="butt" d="M103.5 338.5L109.5 338.5" fill-rule="nonzero"/><path stroke="#000000" stroke-width="1.0" stroke-linecap="butt" d="M103.5 261.5L109.5 261.5" fill-rule="nonzero"/><path stroke="#000000" stroke-width="1.0" stroke-linecap="butt" d="M103.5 222.5L109.5 222.5" fill-rule="nonzero"/><path stroke="#000000" stroke-width="1.0" stroke-linecap="butt" d="M103.5 145.5L109.5 145.5" fill-rule="nonzero"/><path stroke="#000000" stroke-width="1.0" stroke-linecap="butt" d="M103.5 106.5L109.5 106.5" fill-rule="nonzero"/><path stroke="#000000" stroke-width="1.0" stroke-linecap="butt" d="M100.5 416.5L112.5 416.5" fill-rule="nonzero"/><path stroke="#000000" stroke-width="1.0" stroke-linecap="butt" d="M100.5 300.5L112.5 300.5" fill-rule="nonzero"/><path stroke="#000000" stroke-width="1.0" stroke-linecap="butt" d="M100.5 183.5L112.5 183.5" fill-rule="nonzero"/><path stroke="#000000" stroke-width="1.0" stroke-linecap="butt" d="M100.5 67.5L112.5 67.5" fill-rule="nonzero"/><path stroke="#ffffff" stroke-width="3.0" stroke-linejoin="round" stroke-linecap="round" d="M189.29362 99.52333L181.8405 99.52333L181.8405 98.476456L185.778 94.101456Q186.653 93.11708 186.98112 92.49208Q187.30925 91.86708 187.30925 91.21083Q187.30925 90.320206 186.76237 89.757706Q186.23112 89.17958 185.3405 89.17958Q184.26237 89.17958 183.653 89.788956Q183.05925 90.39833 183.05925 91.49208L181.62175 91.49208Q181.62175 89.92958 182.62175 88.96083Q183.63737 87.99208 185.3405 87.99208Q186.91862 87.99208 187.8405 88.820206Q188.76237 89.64833 188.76237 91.038956Q188.76237 92.71083 186.62175 95.038956L183.57487 98.33583L189.29362 98.33583L189.29362 99.52333ZM191.01237 98.757706Q191.01237 98.382706 191.23112 98.132706Q191.4655 97.882706 191.903 97.882706Q192.35612 97.882706 192.57487 98.132706Q192.80925 98.382706 192.80925 98.757706Q192.80925 99.11708 192.57487 99.36708Q192.35612 99.61708 191.903 99.61708Q191.4655 99.61708 191.23112 99.36708Q191.01237 99.11708 191.01237 98.757706ZM195.49675 93.820206L196.07487 88.14833L201.903 88.14833L201.903 89.476456L197.30925 89.476456L196.9655 92.58583Q197.79362 92.08583 198.85612 92.08583Q200.41862 92.08583 201.32487 93.11708Q202.24675 94.14833 202.24675 95.89833Q202.24675 97.64833 201.29362 98.663956Q200.3405 99.67958 198.63737 99.67958Q197.13737 99.67958 196.18425 98.851456Q195.23112 98.007706 195.0905 96.52333L196.4655 96.52333Q196.5905 97.507706 197.153 98.007706Q197.7155 98.49208 198.63737 98.49208Q199.653 98.49208 200.2155 97.80458Q200.79362 97.11708 200.79362 95.913956Q200.79362 94.77333 200.16862 94.08583Q199.55925 93.382706 198.528 93.382706Q197.57487 93.382706 197.04362 93.80458L196.653 94.11708L195.49675 93.820206ZM211.18425 88.96083L206.4655 99.52333L204.94987 99.52333L209.653 89.33583L203.49675 89.33583L203.49675 88.14833L211.18425 88.14833L211.18425 88.96083Z" fill-rule="nonzero"/><path fill="#3d85c6" d="M189.29362 99.52333L181.8405 99.52333L181.8405 98.476456L185.778 94.101456Q186.653 93.11708 186.98112 92.49208Q187.30925 91.86708 187.30925 91.21083Q187.30925 90.320206 186.76237 89.757706Q186.23112 89.17958 185.3405 89.17958Q184.26237 89.17958 183.653 89.788956Q183.05925 90.39833 183.05925 91.49208L181.62175 91.49208Q181.62175 89.92958 182.62175 88.96083Q183.63737 87.99208 185.3405 87.99208Q186.91862 87.99208 187.8405 88.820206Q188.76237 89.64833 188.76237 91.038956Q188.76237 92.71083 186.62175 95.038956L183.57487 98.33583L189.29362 98.33583L189.29362 99.52333ZM191.01237 98.757706Q191.01237 98.382706 191.23112 98.132706Q191.4655 97.882706 191.903 97.882706Q192.35612 97.882706 192.57487 98.132706Q192.80925 98.382706 192.80925 98.757706Q192.80925 99.11708 192.57487 99.36708Q192.35612 99.61708 191.903 99.61708Q191.4655 99.61708 191.23112 99.36708Q191.01237 99.11708 191.01237 98.757706ZM195.49675 93.820206L196.07487 88.14833L201.903 88.14833L201.903 89.476456L197.30925 89.476456L196.9655 92.58583Q197.79362 92.08583 198.85612 92.08583Q200.41862 92.08583 201.32487 93.11708Q202.24675 94.14833 202.24675 95.89833Q202.24675 97.64833 201.29362 98.663956Q200.3405 99.67958 198.63737 99.67958Q197.13737 99.67958 196.18425 98.851456Q195.23112 98.007706 195.0905 96.52333L196.4655 96.52333Q196.5905 97.507706 197.153 98.007706Q197.7155 98.49208 198.63737 98.49208Q199.653 98.49208 200.2155 97.80458Q200.79362 97.11708 200.79362 95.913956Q200.79362 94.77333 200.16862 94.08583Q199.55925 93.382706 198.528 93.382706Q197.57487 93.382706 197.04362 93.80458L196.653 94.11708L195.49675 93.820206ZM211.18425 88.96083L206.4655 99.52333L204.94987 99.52333L209.653 89.33583L203.49675 89.33583L203.49675 88.14833L211.18425 88.14833L211.18425 88.96083Z" fill-rule="nonzero"/><path stroke="#ffffff" stroke-width="3.0" stroke-linejoin="round" stroke-linecap="round" d="M366.63556 170.48666L365.18243 170.48666L365.18243 160.84604L362.26056 161.92416L362.26056 160.61166L366.40118 159.04916L366.63556 159.04916L366.63556 170.48666ZM371.05743 169.72104Q371.05743 169.34604 371.27618 169.09604Q371.51056 168.84604 371.94806 168.84604Q372.40118 168.84604 372.61993 169.09604Q372.8543 169.34604 372.8543 169.72104Q372.8543 170.08041 372.61993 170.33041Q372.40118 170.58041 371.94806 170.58041Q371.51056 170.58041 371.27618 170.33041Q371.05743 170.08041 371.05743 169.72104ZM380.4168 165.48666Q379.96368 166.01791 379.33868 166.34604Q378.71368 166.67416 377.96368 166.67416Q376.9793 166.67416 376.24493 166.18979Q375.51056 165.70541 375.1043 164.83041Q374.71368 163.95541 374.71368 162.89291Q374.71368 161.75229 375.15118 160.84604Q375.58868 159.92416 376.38556 159.43979Q377.18243 158.95541 378.24493 158.95541Q379.93243 158.95541 380.90118 160.22104Q381.86993 161.47104 381.86993 163.65854L381.86993 164.08041Q381.86993 167.39291 380.55743 168.92416Q379.24493 170.45541 376.6043 170.50229L376.32306 170.50229L376.32306 169.26791L376.61993 169.26791Q378.4168 169.23666 379.36993 168.34604Q380.33868 167.43979 380.4168 165.48666ZM378.19806 165.48666Q378.9168 165.48666 379.52618 165.04916Q380.15118 164.59604 380.43243 163.93979L380.43243 163.36166Q380.43243 161.93979 379.80743 161.04916Q379.19806 160.15854 378.24493 160.15854Q377.2918 160.15854 376.71368 160.89291Q376.13556 161.61166 376.13556 162.81479Q376.13556 163.97104 376.69806 164.73666Q377.26056 165.48666 378.19806 165.48666ZM389.55743 159.09604L389.55743 160.33041L389.2918 160.33041Q387.6043 160.36166 386.6043 161.33041Q385.6043 162.29916 385.44806 164.04916Q386.33868 163.01791 387.90118 163.01791Q389.38556 163.01791 390.26056 164.06479Q391.15118 165.11166 391.15118 166.76791Q391.15118 168.53354 390.19806 169.59604Q389.24493 170.64291 387.63556 170.64291Q385.99493 170.64291 384.9793 169.39291Q383.96368 168.12729 383.96368 166.15854L383.96368 165.59604Q383.96368 162.45541 385.30743 160.79916Q386.65118 159.14291 389.2918 159.09604L389.55743 159.09604ZM387.65118 164.22104Q386.9168 164.22104 386.2918 164.67416Q385.6668 165.11166 385.4168 165.78354L385.4168 166.31479Q385.4168 167.72104 386.0418 168.58041Q386.68243 169.43979 387.63556 169.43979Q388.6043 169.43979 389.1668 168.72104Q389.7293 168.00229 389.7293 166.84604Q389.7293 165.67416 389.15118 164.95541Q388.58868 164.22104 387.65118 164.22104Z" fill-rule="nonzero"/><path fill="#3d85c6" d="M366.63556 170.48666L365.18243 170.48666L365.18243 160.84604L362.26056 161.92416L362.26056 160.61166L366.40118 159.04916L366.63556 159.04916L366.63556 170.48666ZM371.05743 169.72104Q371.05743 169.34604 371.27618 169.09604Q371.51056 168.84604 371.94806 168.84604Q372.40118 168.84604 372.61993 169.09604Q372.8543 169.34604 372.8543 169.72104Q372.8543 170.08041 372.61993 170.33041Q372.40118 170.58041 371.94806 170.58041Q371.51056 170.58041 371.27618 170.33041Q371.05743 170.08041 371.05743 169.72104ZM380.4168 165.48666Q379.96368 166.01791 379.33868 166.34604Q378.71368 166.67416 377.96368 166.67416Q376.9793 166.67416 376.24493 166.18979Q375.51056 165.70541 375.1043 164.83041Q374.71368 163.95541 374.71368 162.89291Q374.71368 161.75229 375.15118 160.84604Q375.58868 159.92416 376.38556 159.43979Q377.18243 158.95541 378.24493 158.95541Q379.93243 158.95541 380.90118 160.22104Q381.86993 161.47104 381.86993 163.65854L381.86993 164.08041Q381.86993 167.39291 380.55743 168.92416Q379.24493 170.45541 376.6043 170.50229L376.32306 170.50229L376.32306 169.26791L376.61993 169.26791Q378.4168 169.23666 379.36993 168.34604Q380.33868 167.43979 380.4168 165.48666ZM378.19806 165.48666Q378.9168 165.48666 379.52618 165.04916Q380.15118 164.59604 380.43243 163.93979L380.43243 163.36166Q380.43243 161.93979 379.80743 161.04916Q379.19806 160.15854 378.24493 160.15854Q377.2918 160.15854 376.71368 160.89291Q376.13556 161.61166 376.13556 162.81479Q376.13556 163.97104 376.69806 164.73666Q377.26056 165.48666 378.19806 165.48666ZM389.55743 159.09604L389.55743 160.33041L389.2918 160.33041Q387.6043 160.36166 386.6043 161.33041Q385.6043 162.29916 385.44806 164.04916Q386.33868 163.01791 387.90118 163.01791Q389.38556 163.01791 390.26056 164.06479Q391.15118 165.11166 391.15118 166.76791Q391.15118 168.53354 390.19806 169.59604Q389.24493 170.64291 387.63556 170.64291Q385.99493 170.64291 384.9793 169.39291Q383.96368 168.12729 383.96368 166.15854L383.96368 165.59604Q383.96368 162.45541 385.30743 160.79916Q386.65118 159.14291 389.2918 159.09604L389.55743 159.09604ZM387.65118 164.22104Q386.9168 164.22104 386.2918 164.67416Q385.6668 165.11166 385.4168 165.78354L385.4168 166.31479Q385.4168 167.72104 386.0418 168.58041Q386.68243 169.43979 387.63556 169.43979Q388.6043 169.43979 389.1668 168.72104Q389.7293 168.00229 389.7293 166.84604Q389.7293 165.67416 389.15118 164.95541Q388.58868 164.22104 387.65118 164.22104Z" fill-rule="nonzero"/><path stroke="#ffffff" stroke-width="3.0" stroke-linejoin="round" stroke-linecap="round" d="M546.6806 242.61333L545.2275 242.61333L545.2275 232.9727L542.3056 234.05083L542.3056 232.73833L546.4462 231.17583L546.6806 231.17583L546.6806 242.61333ZM551.1025 241.8477Q551.1025 241.4727 551.3212 241.2227Q551.5556 240.9727 551.9931 240.9727Q552.4462 240.9727 552.665 241.2227Q552.89935 241.4727 552.89935 241.8477Q552.89935 242.20708 552.665 242.45708Q552.4462 242.70708 551.9931 242.70708Q551.5556 242.70708 551.3212 242.45708Q551.1025 242.20708 551.1025 241.8477ZM557.02435 236.2227L558.1181 236.2227Q559.1337 236.20708 559.71185 235.69145Q560.3056 235.1602 560.3056 234.26958Q560.3056 232.26958 558.3212 232.26958Q557.3837 232.26958 556.8212 232.80083Q556.2587 233.33208 556.2587 234.2227L554.8212 234.2227Q554.8212 232.86333 555.8056 231.9727Q556.79 231.08208 558.3212 231.08208Q559.9306 231.08208 560.83685 231.94145Q561.7587 232.7852 561.7587 234.30083Q561.7587 235.0352 561.27435 235.73833Q560.79 236.42583 559.96185 236.76958Q560.89935 237.06645 561.415 237.75395Q561.9306 238.44145 561.9306 239.44145Q561.9306 240.9727 560.9306 241.87895Q559.9306 242.76958 558.3212 242.76958Q556.7275 242.76958 555.71185 241.9102Q554.71185 241.0352 554.71185 239.61333L556.165 239.61333Q556.165 240.50395 556.7431 241.05083Q557.33685 241.58208 558.3212 241.58208Q559.3681 241.58208 559.915 241.0352Q560.4775 240.48833 560.4775 239.4727Q560.4775 238.4727 559.8681 237.94145Q559.2587 237.4102 558.1181 237.39458L557.02435 237.39458L557.02435 236.2227ZM570.02435 238.7852L571.6025 238.7852L571.6025 239.9727L570.02435 239.9727L570.02435 242.61333L568.5712 242.61333L568.5712 239.9727L563.39935 239.9727L563.39935 239.11333L568.4931 231.23833L570.02435 231.23833L570.02435 238.7852ZM565.04 238.7852L568.5712 238.7852L568.5712 233.20708L568.39935 233.51958L565.04 238.7852Z" fill-rule="nonzero"/><path fill="#3d85c6" d="M546.6806 242.61333L545.2275 242.61333L545.2275 232.9727L542.3056 234.05083L542.3056 232.73833L546.4462 231.17583L546.6806 231.17583L546.6806 242.61333ZM551.1025 241.8477Q551.1025 241.4727 551.3212 241.2227Q551.5556 240.9727 551.9931 240.9727Q552.4462 240.9727 552.665 241.2227Q552.89935 241.4727 552.89935 241.8477Q552.89935 242.20708 552.665 242.45708Q552.4462 242.70708 551.9931 242.70708Q551.5556 242.70708 551.3212 242.45708Q551.1025 242.20708 551.1025 241.8477ZM557.02435 236.2227L558.1181 236.2227Q559.1337 236.20708 559.71185 235.69145Q560.3056 235.1602 560.3056 234.26958Q560.3056 232.26958 558.3212 232.26958Q557.3837 232.26958 556.8212 232.80083Q556.2587 233.33208 556.2587 234.2227L554.8212 234.2227Q554.8212 232.86333 555.8056 231.9727Q556.79 231.08208 558.3212 231.08208Q559.9306 231.08208 560.83685 231.94145Q561.7587 232.7852 561.7587 234.30083Q561.7587 235.0352 561.27435 235.73833Q560.79 236.42583 559.96185 236.76958Q560.89935 237.06645 561.415 237.75395Q561.9306 238.44145 561.9306 239.44145Q561.9306 240.9727 560.9306 241.87895Q559.9306 242.76958 558.3212 242.76958Q556.7275 242.76958 555.71185 241.9102Q554.71185 241.0352 554.71185 239.61333L556.165 239.61333Q556.165 240.50395 556.7431 241.05083Q557.33685 241.58208 558.3212 241.58208Q559.3681 241.58208 559.915 241.0352Q560.4775 240.48833 560.4775 239.4727Q560.4775 238.4727 559.8681 237.94145Q559.2587 237.4102 558.1181 237.39458L557.02435 237.39458L557.02435 236.2227ZM570.02435 238.7852L571.6025 238.7852L571.6025 239.9727L570.02435 239.9727L570.02435 242.61333L568.5712 242.61333L568.5712 239.9727L563.39935 239.9727L563.39935 239.11333L568.4931 231.23833L570.02435 231.23833L570.02435 238.7852ZM565.04 238.7852L568.5712 238.7852L568.5712 233.20708L568.39935 233.51958L565.04 238.7852Z" fill-rule="nonzero"/><path stroke="#ffffff" stroke-width="3.0" stroke-linejoin="round" stroke-linecap="round" d="M186.5905 262.39L185.13737 262.39L185.13737 252.74937L182.2155 253.8275L182.2155 252.515L186.35612 250.9525L186.5905 250.9525L186.5905 262.39ZM191.01237 261.6244Q191.01237 261.2494 191.23112 260.9994Q191.4655 260.7494 191.903 260.7494Q192.35612 260.7494 192.57487 260.9994Q192.80925 261.2494 192.80925 261.6244Q192.80925 261.98376 192.57487 262.23376Q192.35612 262.48376 191.903 262.48376Q191.4655 262.48376 191.23112 262.23376Q191.01237 261.98376 191.01237 261.6244ZM199.5905 262.39L198.13737 262.39L198.13737 252.74937L195.2155 253.8275L195.2155 252.515L199.35612 250.9525L199.5905 250.9525L199.5905 262.39ZM211.18425 251.8275L206.4655 262.39L204.94987 262.39L209.653 252.2025L203.49675 252.2025L203.49675 251.015L211.18425 251.015L211.18425 251.8275Z" fill-rule="nonzero"/><path fill="#bf9000" d="M186.5905 262.39L185.13737 262.39L185.13737 252.74939L182.2155 253.82751L182.2155 252.51501L186.35612 250.95251L186.5905 250.95251L186.5905 262.39ZM191.01237 261.6244Q191.01237 261.2494 191.23112 260.9994Q191.4655 260.7494 191.903 260.7494Q192.35612 260.7494 192.57487 260.9994Q192.80925 261.2494 192.80925 261.6244Q192.80925 261.98376 192.57487 262.23376Q192.35612 262.48376 191.903 262.48376Q191.4655 262.48376 191.23112 262.23376Q191.01237 261.98376 191.01237 261.6244ZM199.5905 262.39L198.13737 262.39L198.13737 252.74939L195.2155 253.82751L195.2155 252.51501L199.35612 250.95251L199.5905 250.95251L199.5905 262.39ZM211.18425 251.82751L206.4655 262.39L204.94987 262.39L209.653 252.20251L203.49675 252.20251L203.49675 251.01501L211.18425 251.01501L211.18425 251.82751Z" fill-rule="nonzero"/><path stroke="#ffffff" stroke-width="3.0" stroke-linejoin="round" stroke-linecap="round" d="M369.01056 285.45062Q369.01056 287.9975 368.13556 289.23187Q367.27618 290.46625 365.43243 290.46625Q363.61993 290.46625 362.74493 289.26312Q361.86993 288.04437 361.83868 285.65375L361.83868 283.71625Q361.83868 281.21625 362.69806 279.9975Q363.57306 278.77875 365.4168 278.77875Q367.26056 278.77875 368.11993 279.95062Q368.99493 281.1225 369.01056 283.57562L369.01056 285.45062ZM367.57306 283.48187Q367.57306 281.63812 367.05743 280.81Q366.5418 279.96625 365.4168 279.96625Q364.30743 279.96625 363.7918 280.81Q363.2918 281.63812 363.27618 283.3725L363.27618 285.685Q363.27618 287.52875 363.80743 288.40375Q364.3543 289.27875 365.43243 289.27875Q366.51056 289.27875 367.02618 288.45062Q367.5418 287.6225 367.57306 285.84125L367.57306 283.48187ZM371.05743 289.54437Q371.05743 289.16937 371.27618 288.91937Q371.51056 288.66937 371.94806 288.66937Q372.40118 288.66937 372.61993 288.91937Q372.8543 289.16937 372.8543 289.54437Q372.8543 289.90375 372.61993 290.15375Q372.40118 290.40375 371.94806 290.40375Q371.51056 290.40375 371.27618 290.15375Q371.05743 289.90375 371.05743 289.54437ZM380.4168 285.31Q379.96368 285.84125 379.33868 286.16937Q378.71368 286.4975 377.96368 286.4975Q376.9793 286.4975 376.24493 286.01312Q375.51056 285.52875 375.1043 284.65375Q374.71368 283.77875 374.71368 282.71625Q374.71368 281.57562 375.15118 280.66937Q375.58868 279.7475 376.38556 279.26312Q377.18243 278.77875 378.24493 278.77875Q379.93243 278.77875 380.90118 280.04437Q381.86993 281.29437 381.86993 283.48187L381.86993 283.90375Q381.86993 287.21625 380.55743 288.7475Q379.24493 290.27875 376.6043 290.32562L376.32306 290.32562L376.32306 289.09125L376.61993 289.09125Q378.4168 289.06 379.36993 288.16937Q380.33868 287.26312 380.4168 285.31ZM378.19806 285.31Q378.9168 285.31 379.52618 284.8725Q380.15118 284.41937 380.43243 283.76312L380.43243 283.185Q380.43243 281.76312 379.80743 280.8725Q379.19806 279.98187 378.24493 279.98187Q377.2918 279.98187 376.71368 280.71625Q376.13556 281.435 376.13556 282.63812Q376.13556 283.79437 376.69806 284.56Q377.26056 285.31 378.19806 285.31ZM385.9793 283.91937L387.07306 283.91937Q388.08868 283.90375 388.6668 283.38812Q389.26056 282.85687 389.26056 281.96625Q389.26056 279.96625 387.27618 279.96625Q386.33868 279.96625 385.77618 280.4975Q385.21368 281.02875 385.21368 281.91937L383.77618 281.91937Q383.77618 280.56 384.76056 279.66937Q385.74493 278.77875 387.27618 278.77875Q388.88556 278.77875 389.7918 279.63812Q390.71368 280.48187 390.71368 281.9975Q390.71368 282.73187 390.2293 283.435Q389.74493 284.1225 388.9168 284.46625Q389.8543 284.76312 390.36993 285.45062Q390.88556 286.13812 390.88556 287.13812Q390.88556 288.66937 389.88556 289.57562Q388.88556 290.46625 387.27618 290.46625Q385.68243 290.46625 384.6668 289.60687Q383.6668 288.73187 383.6668 287.31L385.11993 287.31Q385.11993 288.20062 385.69806 288.7475Q386.2918 289.27875 387.27618 289.27875Q388.32306 289.27875 388.86993 288.73187Q389.43243 288.185 389.43243 287.16937Q389.43243 286.16937 388.82306 285.63812Q388.21368 285.10687 387.07306 285.09125L385.9793 285.09125L385.9793 283.91937Z" fill-rule="nonzero"/><path fill="#bf9000" d="M369.01056 285.45062Q369.01056 287.9975 368.13556 289.23187Q367.27618 290.46625 365.43243 290.46625Q363.61993 290.46625 362.74493 289.26312Q361.86993 288.04437 361.83868 285.65375L361.83868 283.71625Q361.83868 281.21625 362.69806 279.9975Q363.57306 278.77875 365.4168 278.77875Q367.26056 278.77875 368.11993 279.95062Q368.99493 281.1225 369.01056 283.57562L369.01056 285.45062ZM367.57306 283.48187Q367.57306 281.63812 367.05743 280.81Q366.5418 279.96625 365.4168 279.96625Q364.30743 279.96625 363.7918 280.81Q363.2918 281.63812 363.27618 283.3725L363.27618 285.685Q363.27618 287.52875 363.80743 288.40375Q364.3543 289.27875 365.43243 289.27875Q366.51056 289.27875 367.02618 288.45062Q367.5418 287.6225 367.57306 285.84125L367.57306 283.48187ZM371.05743 289.54437Q371.05743 289.16937 371.27618 288.91937Q371.51056 288.66937 371.94806 288.66937Q372.40118 288.66937 372.61993 288.91937Q372.8543 289.16937 372.8543 289.54437Q372.8543 289.90375 372.61993 290.15375Q372.40118 290.40375 371.94806 290.40375Q371.51056 290.40375 371.27618 290.15375Q371.05743 289.90375 371.05743 289.54437ZM380.4168 285.31Q379.96368 285.84125 379.33868 286.16937Q378.71368 286.4975 377.96368 286.4975Q376.9793 286.4975 376.24493 286.01312Q375.51056 285.52875 375.1043 284.65375Q374.71368 283.77875 374.71368 282.71625Q374.71368 281.57562 375.15118 280.66937Q375.58868 279.7475 376.38556 279.26312Q377.18243 278.77875 378.24493 278.77875Q379.93243 278.77875 380.90118 280.04437Q381.86993 281.29437 381.86993 283.48187L381.86993 283.90375Q381.86993 287.21625 380.55743 288.7475Q379.24493 290.27875 376.6043 290.32562L376.32306 290.32562L376.32306 289.09125L376.61993 289.09125Q378.4168 289.06 379.36993 288.16937Q380.33868 287.26312 380.4168 285.31ZM378.19806 285.31Q378.9168 285.31 379.52618 284.8725Q380.15118 284.41937 380.43243 283.76312L380.43243 283.185Q380.43243 281.76312 379.80743 280.8725Q379.19806 279.98187 378.24493 279.98187Q377.2918 279.98187 376.71368 280.71625Q376.13556 281.435 376.13556 282.63812Q376.13556 283.79437 376.69806 284.56Q377.26056 285.31 378.19806 285.31ZM385.9793 283.91937L387.07306 283.91937Q388.08868 283.90375 388.6668 283.38812Q389.26056 282.85687 389.26056 281.96625Q389.26056 279.96625 387.27618 279.96625Q386.33868 279.96625 385.77618 280.4975Q385.21368 281.02875 385.21368 281.91937L383.77618 281.91937Q383.77618 280.56 384.76056 279.66937Q385.74493 278.77875 387.27618 278.77875Q388.88556 278.77875 389.7918 279.63812Q390.71368 280.48187 390.71368 281.9975Q390.71368 282.73187 390.2293 283.435Q389.74493 284.1225 388.9168 284.46625Q389.8543 284.76312 390.36993 285.45062Q390.88556 286.13812 390.88556 287.13812Q390.88556 288.66937 389.88556 289.57562Q388.88556 290.46625 387.27618 290.46625Q385.68243 290.46625 384.6668 289.60687Q383.6668 288.73187 383.6668 287.31L385.11993 287.31Q385.11993 288.20062 385.69806 288.7475Q386.2918 289.27875 387.27618 289.27875Q388.32306 289.27875 388.86993 288.73187Q389.43243 288.185 389.43243 287.16937Q389.43243 286.16937 388.82306 285.63812Q388.21368 285.10687 387.07306 285.09125L385.9793 285.09125L385.9793 283.91937Z" fill-rule="nonzero"/><path stroke="#ffffff" stroke-width="3.0" stroke-linejoin="round" stroke-linecap="round" d="M549.0556 325.00397Q549.0556 327.55084 548.1806 328.78522Q547.3212 330.0196 545.4775 330.0196Q543.665 330.0196 542.79 328.81647Q541.915 327.59772 541.8837 325.2071L541.8837 323.2696Q541.8837 320.7696 542.7431 319.55084Q543.6181 318.3321 545.46185 318.3321Q547.3056 318.3321 548.165 319.50397Q549.04 320.67584 549.0556 323.12897L549.0556 325.00397ZM547.6181 323.03522Q547.6181 321.19147 547.1025 320.36334Q546.58685 319.5196 545.46185 319.5196Q544.3525 319.5196 543.83685 320.36334Q543.33685 321.19147 543.3212 322.92584L543.3212 325.23834Q543.3212 327.0821 543.8525 327.9571Q544.39935 328.8321 545.4775 328.8321Q546.5556 328.8321 547.0712 328.00397Q547.58685 327.17584 547.6181 325.3946L547.6181 323.03522ZM551.1025 329.09772Q551.1025 328.72272 551.3212 328.47272Q551.5556 328.22272 551.9931 328.22272Q552.4462 328.22272 552.665 328.47272Q552.89935 328.72272 552.89935 329.09772Q552.89935 329.4571 552.665 329.7071Q552.4462 329.9571 551.9931 329.9571Q551.5556 329.9571 551.3212 329.7071Q551.1025 329.4571 551.1025 329.09772ZM555.58685 324.16022L556.165 318.48834L561.9931 318.48834L561.9931 319.81647L557.39935 319.81647L557.0556 322.92584Q557.8837 322.42584 558.9462 322.42584Q560.5087 322.42584 561.415 323.4571Q562.33685 324.48834 562.33685 326.23834Q562.33685 327.98834 561.3837 329.00397Q560.4306 330.0196 558.7275 330.0196Q557.2275 330.0196 556.27435 329.19147Q555.3212 328.34772 555.1806 326.86334L556.5556 326.86334Q556.6806 327.84772 557.2431 328.34772Q557.8056 328.8321 558.7275 328.8321Q559.7431 328.8321 560.3056 328.1446Q560.8837 327.4571 560.8837 326.25397Q560.8837 325.11334 560.2587 324.42584Q559.64935 323.72272 558.6181 323.72272Q557.665 323.72272 557.1337 324.1446L556.7431 324.4571L555.58685 324.16022ZM569.46185 324.86334Q569.0087 325.3946 568.3837 325.72272Q567.7587 326.05084 567.0087 326.05084Q566.02435 326.05084 565.29 325.56647Q564.5556 325.0821 564.14935 324.2071Q563.7587 323.3321 563.7587 322.2696Q563.7587 321.12897 564.1962 320.22272Q564.6337 319.30084 565.4306 318.81647Q566.2275 318.3321 567.29 318.3321Q568.9775 318.3321 569.9462 319.59772Q570.915 320.84772 570.915 323.03522L570.915 323.4571Q570.915 326.7696 569.6025 328.30084Q568.29 329.8321 565.64935 329.87897L565.3681 329.87897L565.3681 328.6446L565.665 328.6446Q567.46185 328.61334 568.415 327.72272Q569.3837 326.81647 569.46185 324.86334ZM567.2431 324.86334Q567.96185 324.86334 568.5712 324.42584Q569.1962 323.97272 569.4775 323.31647L569.4775 322.73834Q569.4775 321.31647 568.8525 320.42584Q568.2431 319.53522 567.29 319.53522Q566.33685 319.53522 565.7587 320.2696Q565.1806 320.98834 565.1806 322.19147Q565.1806 323.34772 565.7431 324.11334Q566.3056 324.86334 567.2431 324.86334Z" fill-rule="nonzero"/><path fill="#bf9000" d="M549.0556 325.00397Q549.0556 327.55084 548.1806 328.78522Q547.3212 330.0196 545.4775 330.0196Q543.665 330.0196 542.79 328.81647Q541.915 327.59772 541.8837 325.2071L541.8837 323.2696Q541.8837 320.7696 542.7431 319.55084Q543.6181 318.3321 545.46185 318.3321Q547.3056 318.3321 548.165 319.50397Q549.04 320.67584 549.0556 323.12897L549.0556 325.00397ZM547.6181 323.03522Q547.6181 321.19147 547.1025 320.36334Q546.58685 319.5196 545.46185 319.5196Q544.3525 319.5196 543.83685 320.36334Q543.33685 321.19147 543.3212 322.92584L543.3212 325.23834Q543.3212 327.0821 543.8525 327.9571Q544.39935 328.8321 545.4775 328.8321Q546.5556 328.8321 547.0712 328.00397Q547.58685 327.17584 547.6181 325.3946L547.6181 323.03522ZM551.1025 329.09772Q551.1025 328.72272 551.3212 328.47272Q551.5556 328.22272 551.9931 328.22272Q552.4462 328.22272 552.665 328.47272Q552.89935 328.72272 552.89935 329.09772Q552.89935 329.4571 552.665 329.7071Q552.4462 329.9571 551.9931 329.9571Q551.5556 329.9571 551.3212 329.7071Q551.1025 329.4571 551.1025 329.09772ZM555.58685 324.16022L556.165 318.48834L561.9931 318.48834L561.9931 319.81647L557.39935 319.81647L557.0556 322.92584Q557.8837 322.42584 558.9462 322.42584Q560.5087 322.42584 561.415 323.4571Q562.33685 324.48834 562.33685 326.23834Q562.33685 327.98834 561.3837 329.00397Q560.4306 330.0196 558.7275 330.0196Q557.2275 330.0196 556.27435 329.19147Q555.3212 328.34772 555.1806 326.86334L556.5556 326.86334Q556.6806 327.84772 557.2431 328.34772Q557.8056 328.8321 558.7275 328.8321Q559.7431 328.8321 560.3056 328.1446Q560.8837 327.4571 560.8837 326.25397Q560.8837 325.11334 560.2587 324.42584Q559.64935 323.72272 558.6181 323.72272Q557.665 323.72272 557.1337 324.1446L556.7431 324.4571L555.58685 324.16022ZM569.46185 324.86334Q569.0087 325.3946 568.3837 325.72272Q567.7587 326.05084 567.0087 326.05084Q566.02435 326.05084 565.29 325.56647Q564.5556 325.0821 564.14935 324.2071Q563.7587 323.3321 563.7587 322.2696Q563.7587 321.12897 564.1962 320.22272Q564.6337 319.30084 565.4306 318.81647Q566.2275 318.3321 567.29 318.3321Q568.9775 318.3321 569.9462 319.59772Q570.915 320.84772 570.915 323.03522L570.915 323.4571Q570.915 326.7696 569.6025 328.30084Q568.29 329.8321 565.64935 329.87897L565.3681 329.87897L565.3681 328.6446L565.665 328.6446Q567.46185 328.61334 568.415 327.72272Q569.3837 326.81647 569.46185 324.86334ZM567.2431 324.86334Q567.96185 324.86334 568.5712 324.42584Q569.1962 323.97272 569.4775 323.31647L569.4775 322.73834Q569.4775 321.31647 568.8525 320.42584Q568.2431 319.53522 567.29 319.53522Q566.33685 319.53522 565.7587 320.2696Q565.1806 320.98834 565.1806 322.19147Q565.1806 323.34772 565.7431 324.11334Q566.3056 324.86334 567.2431 324.86334Z" fill-rule="nonzero"/><path fill="#000000" d="M40.55864 342.0969L26.246138 342.0969L26.246138 331.73752L27.933638 331.73752L27.933638 340.19064L32.30864 340.19064L32.30864 332.2844L33.99614 332.2844L33.99614 340.19064L38.87114 340.19064L38.87114 331.4094L40.55864 331.4094L40.55864 342.0969ZM40.55864 330.5344L35.168015 326.73752L30.183638 330.23752L30.183638 328.05002L32.62114 326.45627Q33.30864 326.00314 33.77739 325.73752Q33.136765 325.30002 32.636765 324.94064L30.183638 323.19064L30.183638 321.0969L35.074265 324.67502L40.55864 320.81564L40.55864 322.9719L37.33989 325.11252L36.46489 325.67502L40.55864 328.39377L40.55864 330.5344ZM37.21489 312.25314L37.449265 310.44064Q39.02739 310.86252 39.918015 312.0344Q40.793015 313.19064 40.793015 315.00314Q40.793015 317.26877 39.40239 318.61252Q37.99614 319.94064 35.46489 319.94064Q32.83989 319.94064 31.402388 318.5969Q29.949263 317.25314 29.949263 315.0969Q29.949263 313.01877 31.371138 311.70627Q32.77739 310.37814 35.355515 310.37814Q35.511765 310.37814 35.824265 310.39377L35.824265 318.12814Q37.52739 318.0344 38.43364 317.1594Q39.33989 316.2844 39.33989 314.98752Q39.33989 314.01877 38.83989 313.3469Q38.324265 312.6594 37.21489 312.25314ZM34.37114 318.0344L34.37114 312.23752Q33.074265 312.3469 32.418015 312.89377Q31.402388 313.73752 31.402388 315.08127Q31.402388 316.2844 32.21489 317.11252Q33.011765 317.94064 34.37114 318.0344ZM36.761765 301.58127L36.980515 299.86252Q38.77739 300.14377 39.793015 301.31564Q40.793015 302.4719 40.793015 304.17502Q40.793015 306.30002 39.40239 307.5969Q38.011765 308.89377 35.418015 308.89377Q33.730515 308.89377 32.480515 308.3469Q31.214888 307.7844 30.589888 306.64377Q29.949263 305.50314 29.949263 304.1594Q29.949263 302.4719 30.808638 301.4094Q31.668013 300.33127 33.230515 300.01877L33.49614 301.73752Q32.449265 301.9719 31.933638 302.5969Q31.402388 303.2219 31.402388 304.0969Q31.402388 305.42502 32.355515 306.25314Q33.30864 307.08127 35.355515 307.08127Q37.449265 307.08127 38.40239 306.2844Q39.33989 305.48752 39.33989 304.19064Q39.33989 303.1594 38.71489 302.4719Q38.074265 301.76877 36.761765 301.58127ZM40.55864 291.56564L39.02739 291.56564Q40.793015 292.76877 40.793015 294.8469Q40.793015 295.76877 40.449265 296.56564Q40.08989 297.36252 39.55864 297.75314Q39.02739 298.12814 38.24614 298.2844Q37.730515 298.39377 36.605515 298.39377L30.183638 298.39377L30.183638 296.64377L35.93364 296.64377Q37.30864 296.64377 37.793015 296.5344Q38.480515 296.36252 38.886765 295.83127Q39.27739 295.2844 39.27739 294.50314Q39.27739 293.70627 38.87114 293.01877Q38.46489 292.31564 37.77739 292.0344Q37.074265 291.73752 35.74614 291.73752L30.183638 291.73752L30.183638 289.98752L40.55864 289.98752L40.55864 291.56564ZM38.980515 283.51877L40.543015 283.26877Q40.699265 284.00314 40.699265 284.5969Q40.699265 285.55002 40.40239 286.08127Q40.08989 286.5969 39.605515 286.81564Q39.105515 287.0344 37.52739 287.0344L31.558638 287.0344L31.558638 288.31564L30.183638 288.31564L30.183638 287.0344L27.621138 287.0344L26.558638 285.2844L30.183638 285.2844L30.183638 283.51877L31.558638 283.51877L31.558638 285.2844L37.62114 285.2844Q38.37114 285.2844 38.58989 285.19064Q38.793015 285.0969 38.93364 284.89377Q39.05864 284.67502 39.05864 284.2844Q39.05864 284.00314 38.980515 283.51877ZM28.261763 281.3469L26.246138 281.3469L26.246138 279.58127L28.261763 279.58127L28.261763 281.3469ZM40.55864 281.3469L30.183638 281.3469L30.183638 279.58127L40.55864 279.58127L40.55864 281.3469ZM35.37114 278.00314Q32.49614 278.00314 31.105513 276.4094Q29.949263 275.06564 29.949263 273.14377Q29.949263 271.00314 31.355513 269.6594Q32.761765 268.30002 35.230515 268.30002Q37.230515 268.30002 38.386765 268.89377Q39.52739 269.48752 40.168015 270.64377Q40.793015 271.7844 40.793015 273.14377Q40.793015 275.33127 39.40239 276.67502Q37.99614 278.00314 35.37114 278.00314ZM35.37114 276.20627Q37.37114 276.20627 38.355515 275.3469Q39.33989 274.4719 39.33989 273.14377Q39.33989 271.83127 38.355515 270.9719Q37.355515 270.0969 35.30864 270.0969Q33.386765 270.0969 32.40239 270.9719Q31.402388 271.8469 31.402388 273.14377Q31.402388 274.4719 32.40239 275.3469Q33.386765 276.20627 35.37114 276.20627ZM40.55864 266.36252L30.183638 266.36252L30.183638 264.76877L31.668013 264.76877Q29.949263 263.62814 29.949263 261.4719Q29.949263 260.5344 30.293013 259.75314Q30.621138 258.95627 31.168013 258.56564Q31.714888 258.17502 32.46489 258.01877Q32.96489 257.92502 34.18364 257.92502L40.55864 257.92502L40.55864 259.69064L34.24614 259.69064Q33.168015 259.69064 32.636765 259.89377Q32.105515 260.0969 31.793013 260.62814Q31.480513 261.14377 31.480513 261.8469Q31.480513 262.9719 32.199265 263.7844Q32.90239 264.5969 34.886765 264.5969L40.55864 264.5969L40.55864 266.36252ZM38.980515 245.51875L40.543015 245.26875Q40.699265 246.00313 40.699265 246.59688Q40.699265 247.55 40.40239 248.08125Q40.08989 248.59688 39.605515 248.81563Q39.105515 249.03438 37.52739 249.03438L31.558638 249.03438L31.558638 250.31563L30.183638 250.31563L30.183638 249.03438L27.621138 249.03438L26.558638 247.28438L30.183638 247.28438L30.183638 245.51875L31.558638 245.51875L31.558638 247.28438L37.62114 247.28438Q38.37114 247.28438 38.58989 247.19063Q38.793015 247.09688 38.93364 246.89375Q39.05864 246.675 39.05864 246.28438Q39.05864 246.00313 38.980515 245.51875ZM28.261763 243.34688L26.246138 243.34688L26.246138 241.58125L28.261763 241.58125L28.261763 243.34688ZM40.55864 243.34688L30.183638 243.34688L30.183638 241.58125L40.55864 241.58125L40.55864 243.34688ZM40.55864 239.3625L30.183638 239.3625L30.183638 237.78438L31.636763 237.78438Q30.886763 237.3 30.418013 236.4875Q29.949263 235.675 29.949263 234.64375Q29.949263 233.4875 30.433638 232.75313Q30.902388 232.01875 31.761763 231.70625Q29.949263 230.47188 29.949263 228.50313Q29.949263 226.95625 30.808638 226.12813Q31.668013 225.3 33.43364 225.3L40.55864 225.3L40.55864 227.05L34.02739 227.05Q32.96489 227.05 32.511765 227.22188Q32.043015 227.39375 31.761763 227.84688Q31.480513 228.28438 31.480513 228.89375Q31.480513 229.9875 32.21489 230.72188Q32.93364 231.44063 34.52739 231.44063L40.55864 231.44063L40.55864 233.19063L33.824265 233.19063Q32.65239 233.19063 32.074265 233.62813Q31.480513 234.05 31.480513 235.03438Q31.480513 235.76875 31.871138 236.40938Q32.261765 237.03438 33.011765 237.31563Q33.761765 237.59688 35.18364 237.59688L40.55864 237.59688L40.55864 239.3625ZM37.21489 215.25311L37.449265 213.44061Q39.02739 213.86249 39.918015 215.03436Q40.793015 216.19061 40.793015 218.00311Q40.793015 220.26874 39.40239 221.61249Q37.99614 222.94061 35.46489 222.94061Q32.83989 222.94061 31.402388 221.59686Q29.949263 220.25311 29.949263 218.09686Q29.949263 216.01874 31.371138 214.70624Q32.77739 213.37811 35.355515 213.37811Q35.511765 213.37811 35.824265 213.39374L35.824265 221.12811Q37.52739 221.03436 38.43364 220.15936Q39.33989 219.28436 39.33989 217.98749Q39.33989 217.01874 38.83989 216.34686Q38.324265 215.65936 37.21489 215.25311ZM34.37114 221.03436L34.37114 215.23749Q33.074265 215.34686 32.418015 215.89374Q31.402388 216.73749 31.402388 218.08124Q31.402388 219.28436 32.21489 220.11249Q33.011765 220.94061 34.37114 221.03436ZM44.761765 202.00311Q42.93364 203.45624 40.480515 204.45624Q38.011765 205.45624 35.37114 205.45624Q33.043015 205.45624 30.918013 204.70624Q28.449263 203.83124 25.996138 202.00311L25.996138 200.73749Q28.027388 201.92499 28.902388 202.29999Q30.246138 202.89374 31.714888 203.23749Q33.543015 203.65936 35.386765 203.65936Q40.074265 203.65936 44.761765 200.73749L44.761765 202.00311ZM37.46489 199.06561L37.18364 197.31561Q38.230515 197.17499 38.793015 196.50311Q39.33989 195.83124 39.33989 194.62811Q39.33989 193.42499 38.855515 192.84686Q38.355515 192.25311 37.699265 192.25311Q37.105515 192.25311 36.761765 192.76874Q36.52739 193.12811 36.168015 194.56561Q35.668015 196.50311 35.324265 197.25311Q34.96489 197.98749 34.33989 198.37811Q33.699265 198.76874 32.93364 198.76874Q32.24614 198.76874 31.652388 198.45624Q31.058638 198.12811 30.668013 197.58124Q30.371138 197.17499 30.168013 196.47186Q29.949263 195.75311 29.949263 194.94061Q29.949263 193.72186 30.308638 192.79999Q30.652388 191.87811 31.261763 191.44061Q31.855513 191.00311 32.855515 190.83124L33.08989 192.54999Q32.293015 192.67499 31.855513 193.23749Q31.402388 193.79999 31.402388 194.81561Q31.402388 196.03436 31.808638 196.54999Q32.199265 197.06561 32.730515 197.06561Q33.074265 197.06561 33.355515 196.84686Q33.636765 196.64374 33.824265 196.17499Q33.918015 195.90936 34.261765 194.62811Q34.761765 192.75311 35.08989 192.01874Q35.40239 191.28436 36.011765 190.86249Q36.605515 190.44061 37.511765 190.44061Q38.386765 190.44061 39.168015 190.95624Q39.949265 191.47186 40.37114 192.44061Q40.793015 193.40936 40.793015 194.62811Q40.793015 196.64374 39.949265 197.70624Q39.105515 198.76874 37.46489 199.06561ZM44.761765 187.20624L44.761765 188.45624Q40.074265 185.54999 35.386765 185.54999Q33.543015 185.54999 31.746138 185.95624Q30.277388 186.29999 28.933638 186.89374Q28.043013 187.26874 25.996138 188.45624L25.996138 187.20624Q28.449263 185.36249 30.918013 184.48749Q33.043015 183.73749 35.37114 183.73749Q38.011765 183.73749 40.480515 184.75311Q42.93364 185.75311 44.761765 187.20624Z" fill-rule="nonzero"/><path fill="#000000" d="M78.44297 417.14062Q78.44297 419.6875 77.56797 420.92188Q76.708595 422.15625 74.864845 422.15625Q73.052345 422.15625 72.177345 420.95312Q71.302345 419.73438 71.271095 417.34375L71.271095 415.40625Q71.271095 412.90625 72.13047 411.6875Q73.00547 410.46875 74.84922 410.46875Q76.69297 410.46875 77.552345 411.64062Q78.427345 412.8125 78.44297 415.26562L78.44297 417.14062ZM77.00547 415.17188Q77.00547 413.32812 76.489845 412.5Q75.97422 411.65625 74.84922 411.65625Q73.739845 411.65625 73.22422 412.5Q72.72422 413.32812 72.708595 415.0625L72.708595 417.375Q72.708595 419.21875 73.239845 420.09375Q73.78672 420.96875 74.864845 420.96875Q75.94297 420.96875 76.458595 420.14062Q76.97422 419.3125 77.00547 417.53125L77.00547 415.17188ZM80.489845 421.23438Q80.489845 420.85938 80.708595 420.60938Q80.94297 420.35938 81.38047 420.35938Q81.833595 420.35938 82.052345 420.60938Q82.28672 420.85938 82.28672 421.23438Q82.28672 421.59375 82.052345 421.84375Q81.833595 422.09375 81.38047 422.09375Q80.94297 422.09375 80.708595 421.84375Q80.489845 421.59375 80.489845 421.23438ZM91.44297 417.14062Q91.44297 419.6875 90.56797 420.92188Q89.708595 422.15625 87.864845 422.15625Q86.052345 422.15625 85.177345 420.95312Q84.302345 419.73438 84.271095 417.34375L84.271095 415.40625Q84.271095 412.90625 85.13047 411.6875Q86.00547 410.46875 87.84922 410.46875Q89.69297 410.46875 90.552345 411.64062Q91.427345 412.8125 91.44297 415.26562L91.44297 417.14062ZM90.00547 415.17188Q90.00547 413.32812 89.489845 412.5Q88.97422 411.65625 87.84922 411.65625Q86.739845 411.65625 86.22422 412.5Q85.72422 413.32812 85.708595 415.0625L85.708595 417.375Q85.708595 419.21875 86.239845 420.09375Q86.78672 420.96875 87.864845 420.96875Q88.94297 420.96875 89.458595 420.14062Q89.97422 419.3125 90.00547 417.53125L90.00547 415.17188Z" fill-rule="nonzero"/><path fill="#000000" d="M76.06797 305.66666L74.614845 305.66666L74.614845 296.02603L71.69297 297.10416L71.69297 295.79166L75.833595 294.22916L76.06797 294.22916L76.06797 305.66666ZM80.489845 304.90103Q80.489845 304.52603 80.708595 304.27603Q80.94297 304.02603 81.38047 304.02603Q81.833595 304.02603 82.052345 304.27603Q82.28672 304.52603 82.28672 304.90103Q82.28672 305.2604 82.052345 305.5104Q81.833595 305.7604 81.38047 305.7604Q80.94297 305.7604 80.708595 305.5104Q80.489845 305.2604 80.489845 304.90103ZM91.44297 300.80728Q91.44297 303.35416 90.56797 304.58853Q89.708595 305.8229 87.864845 305.8229Q86.052345 305.8229 85.177345 304.61978Q84.302345 303.40103 84.271095 301.0104L84.271095 299.0729Q84.271095 296.5729 85.13047 295.35416Q86.00547 294.1354 87.84922 294.1354Q89.69297 294.1354 90.552345 295.30728Q91.427345 296.47916 91.44297 298.93228L91.44297 300.80728ZM90.00547 298.83853Q90.00547 296.99478 89.489845 296.16666Q88.97422 295.3229 87.84922 295.3229Q86.739845 295.3229 86.22422 296.16666Q85.72422 296.99478 85.708595 298.72916L85.708595 301.04166Q85.708595 302.8854 86.239845 303.7604Q86.78672 304.6354 87.864845 304.6354Q88.94297 304.6354 89.458595 303.80728Q89.97422 302.97916 90.00547 301.1979L90.00547 298.83853Z" fill-rule="nonzero"/><path fill="#000000" d="M78.771095 189.33333L71.31797 189.33333L71.31797 188.28645L75.25547 183.91145Q76.13047 182.92708 76.458595 182.30208Q76.78672 181.67708 76.78672 181.02083Q76.78672 180.1302 76.239845 179.5677Q75.708595 178.98958 74.81797 178.98958Q73.739845 178.98958 73.13047 179.59895Q72.53672 180.20833 72.53672 181.30208L71.09922 181.30208Q71.09922 179.73958 72.09922 178.77083Q73.114845 177.80208 74.81797 177.80208Q76.396095 177.80208 77.31797 178.6302Q78.239845 179.45833 78.239845 180.84895Q78.239845 182.52083 76.09922 184.84895L73.052345 188.14583L78.771095 188.14583L78.771095 189.33333ZM80.489845 188.5677Q80.489845 188.1927 80.708595 187.9427Q80.94297 187.6927 81.38047 187.6927Q81.833595 187.6927 82.052345 187.9427Q82.28672 188.1927 82.28672 188.5677Q82.28672 188.92708 82.052345 189.17708Q81.833595 189.42708 81.38047 189.42708Q80.94297 189.42708 80.708595 189.17708Q80.489845 188.92708 80.489845 188.5677ZM91.44297 184.47395Q91.44297 187.02083 90.56797 188.2552Q89.708595 189.48958 87.864845 189.48958Q86.052345 189.48958 85.177345 188.28645Q84.302345 187.0677 84.271095 184.67708L84.271095 182.73958Q84.271095 180.23958 85.13047 179.02083Q86.00547 177.80208 87.84922 177.80208Q89.69297 177.80208 90.552345 178.97395Q91.427345 180.14583 91.44297 182.59895L91.44297 184.47395ZM90.00547 182.5052Q90.00547 180.66145 89.489845 179.83333Q88.97422 178.98958 87.84922 178.98958Q86.739845 178.98958 86.22422 179.83333Q85.72422 180.66145 85.708595 182.39583L85.708595 184.70833Q85.708595 186.55208 86.239845 187.42708Q86.78672 188.30208 87.864845 188.30208Q88.94297 188.30208 89.458595 187.47395Q89.97422 186.64583 90.00547 184.86458L90.00547 182.5052Z" fill-rule="nonzero"/><path fill="#000000" d="M73.41172 66.609375L74.50547 66.609375Q75.521095 66.59375 76.09922 66.078125Q76.69297 65.546875 76.69297 64.65625Q76.69297 62.65625 74.708595 62.65625Q73.771095 62.65625 73.208595 63.1875Q72.646095 63.71875 72.646095 64.609375L71.208595 64.609375Q71.208595 63.25 72.19297 62.359375Q73.177345 61.46875 74.708595 61.46875Q76.31797 61.46875 77.22422 62.328125Q78.146095 63.171875 78.146095 64.6875Q78.146095 65.421875 77.66172 66.125Q77.177345 66.8125 76.34922 67.15625Q77.28672 67.453125 77.802345 68.140625Q78.31797 68.828125 78.31797 69.828125Q78.31797 71.359375 77.31797 72.265625Q76.31797 73.15625 74.708595 73.15625Q73.114845 73.15625 72.09922 72.296875Q71.09922 71.421875 71.09922 70.0L72.552345 70.0Q72.552345 70.890625 73.13047 71.4375Q73.72422 71.96875 74.708595 71.96875Q75.75547 71.96875 76.302345 71.421875Q76.864845 70.875 76.864845 69.859375Q76.864845 68.859375 76.25547 68.328125Q75.646095 67.796875 74.50547 67.78125L73.41172 67.78125L73.41172 66.609375ZM80.489845 72.234375Q80.489845 71.859375 80.708595 71.609375Q80.94297 71.359375 81.38047 71.359375Q81.833595 71.359375 82.052345 71.609375Q82.28672 71.859375 82.28672 72.234375Q82.28672 72.59375 82.052345 72.84375Q81.833595 73.09375 81.38047 73.09375Q80.94297 73.09375 80.708595 72.84375Q80.489845 72.59375 80.489845 72.234375ZM91.44297 68.140625Q91.44297 70.6875 90.56797 71.921875Q89.708595 73.15625 87.864845 73.15625Q86.052345 73.15625 85.177345 71.953125Q84.302345 70.734375 84.271095 68.34375L84.271095 66.40625Q84.271095 63.90625 85.13047 62.6875Q86.00547 61.46875 87.84922 61.46875Q89.69297 61.46875 90.552345 62.640625Q91.427345 63.8125 91.44297 66.265625L91.44297 68.140625ZM90.00547 66.171875Q90.00547 64.328125 89.489845 63.5Q88.97422 62.65625 87.84922 62.65625Q86.739845 62.65625 86.22422 63.5Q85.72422 64.328125 85.708595 66.0625L85.708595 68.375Q85.708595 70.21875 86.239845 71.09375Q86.78672 71.96875 87.864845 71.96875Q88.94297 71.96875 89.458595 71.140625Q89.97422 70.3125 90.00547 68.53125L90.00547 66.171875Z" fill-rule="nonzero"/><path fill="#000000" d="M152.87175 448.5L152.87175 435.70312L157.05925 435.70312Q159.13737 435.70312 160.18425 436.5625Q161.24675 437.42188 161.24675 439.10938Q161.24675 440.01562 160.73112 440.70312Q160.2155 441.39062 159.3405 441.76562Q160.37175 442.0625 160.98112 442.875Q161.5905 443.6875 161.5905 444.8125Q161.5905 446.53125 160.4655 447.51562Q159.35612 448.5 157.30925 448.5L152.87175 448.5ZM154.55925 442.51562L154.55925 447.125L157.3405 447.125Q158.528 447.125 159.19987 446.51562Q159.88737 445.89062 159.88737 444.82812Q159.88737 442.51562 157.37175 442.51562L154.55925 442.51562ZM154.55925 441.15625L157.10612 441.15625Q158.2155 441.15625 158.87175 440.60938Q159.54362 440.04688 159.54362 439.10938Q159.54362 438.04688 158.91862 437.57812Q158.30925 437.09375 157.05925 437.09375L154.55925 437.09375L154.55925 441.15625ZM170.93425 445.15625L165.57487 445.15625L164.37175 448.5L162.63737 448.5L167.528 435.70312L168.99675 435.70312L173.88737 448.5L172.16862 448.5L170.93425 445.15625ZM166.0905 443.76562L170.43425 443.76562L168.26237 437.78125L166.0905 443.76562ZM180.55925 443.32812L177.55925 443.32812L177.55925 448.5L175.87175 448.5L175.87175 435.70312L180.10612 435.70312Q182.26237 435.70312 183.41862 436.6875Q184.5905 437.67188 184.5905 439.54688Q184.5905 440.75 183.93425 441.64062Q183.29362 442.51562 182.153 442.96875L185.153 448.39062L185.153 448.5L183.3405 448.5L180.55925 443.32812ZM177.55925 441.9375L180.153 441.9375Q181.403 441.9375 182.153 441.29688Q182.903 440.64062 182.903 439.54688Q182.903 438.35938 182.18425 437.73438Q181.48112 437.09375 180.13737 437.09375L177.55925 437.09375L177.55925 441.9375ZM195.7155 437.09375L191.60612 437.09375L191.60612 448.5L189.91862 448.5L189.91862 437.09375L185.82487 437.09375L185.82487 435.70312L195.7155 435.70312L195.7155 437.09375ZM200.99675 443.73438L196.7155 443.73438L196.7155 442.40625L200.99675 442.40625L200.99675 443.73438ZM204.38737 448.5L202.76237 448.5L202.76237 435.0L204.38737 435.0L204.38737 448.5ZM212.49675 448.5Q212.35612 448.21875 212.26237 447.5Q211.12175 448.67188 209.55925 448.67188Q208.153 448.67188 207.24675 447.875Q206.3405 447.07812 206.3405 445.85938Q206.3405 444.375 207.4655 443.5625Q208.60612 442.73438 210.653 442.73438L212.23112 442.73438L212.23112 441.98438Q212.23112 441.14062 211.7155 440.64062Q211.2155 440.125 210.2155 440.125Q209.35612 440.125 208.76237 440.5625Q208.16862 441.0 208.16862 441.625L206.54362 441.625Q206.54362 440.92188 207.04362 440.26562Q207.54362 439.59375 208.403 439.20312Q209.278 438.8125 210.32487 438.8125Q211.9655 438.8125 212.88737 439.64062Q213.82487 440.45312 213.85612 441.90625L213.85612 446.28125Q213.85612 447.57812 214.19987 448.35938L214.19987 448.5L212.49675 448.5ZM209.79362 447.26562Q210.55925 447.26562 211.24675 446.875Q211.93425 446.46875 212.23112 445.84375L212.23112 443.89062L210.9655 443.89062Q207.9655 443.89062 207.9655 445.64062Q207.9655 446.40625 208.48112 446.84375Q208.99675 447.26562 209.79362 447.26562ZM221.2155 440.45312Q220.8405 440.39062 220.41862 440.39062Q218.80925 440.39062 218.24675 441.75L218.24675 448.5L216.62175 448.5L216.62175 438.98438L218.19987 438.98438L218.23112 440.09375Q219.028 438.8125 220.49675 438.8125Q220.9655 438.8125 221.2155 438.9375L221.2155 440.45312ZM222.23112 443.67188Q222.23112 441.4375 223.26237 440.125Q224.29362 438.8125 225.98112 438.8125Q227.73112 438.8125 228.69987 440.04688L228.778 438.98438L230.26237 438.98438L230.26237 448.26562Q230.26237 450.125 229.16862 451.1875Q228.07487 452.25 226.23112 452.25Q225.19987 452.25 224.2155 451.79688Q223.23112 451.35938 222.7155 450.59375L223.55925 449.625Q224.60612 450.92188 226.12175 450.92188Q227.30925 450.92188 227.9655 450.25Q228.63737 449.57812 228.63737 448.375L228.63737 447.54688Q227.653 448.67188 225.9655 448.67188Q224.29362 448.67188 223.26237 447.32812Q222.23112 445.98438 222.23112 443.67188ZM223.87175 443.84375Q223.87175 445.45312 224.528 446.375Q225.18425 447.29688 226.37175 447.29688Q227.903 447.29688 228.63737 445.89062L228.63737 441.5625Q227.88737 440.1875 226.38737 440.1875Q225.19987 440.1875 224.528 441.125Q223.87175 442.04688 223.87175 443.84375ZM236.55925 448.67188Q234.63737 448.67188 233.41862 447.40625Q232.19987 446.14062 232.19987 444.01562L232.19987 443.70312Q232.19987 442.29688 232.74675 441.1875Q233.29362 440.07812 234.26237 439.45312Q235.23112 438.8125 236.35612 438.8125Q238.2155 438.8125 239.24675 440.03125Q240.278 441.25 240.278 443.53125L240.278 444.20312L233.82487 444.20312Q233.87175 445.60938 234.653 446.48438Q235.43425 447.34375 236.653 447.34375Q237.51237 447.34375 238.10612 447.0Q238.7155 446.64062 239.153 446.0625L240.153 446.84375Q238.94987 448.67188 236.55925 448.67188ZM236.35612 440.15625Q235.37175 440.15625 234.69987 440.875Q234.04362 441.57812 233.88737 442.875L238.653 442.875L238.653 442.75Q238.57487 441.51562 237.98112 440.84375Q237.38737 440.15625 236.35612 440.15625Z" fill-rule="nonzero"/><path fill="#000000" d="M315.9168 448.5L315.9168 435.70312L319.52618 435.70312Q321.19806 435.70312 322.4793 436.4375Q323.76056 437.17188 324.46368 438.54688Q325.1668 439.90625 325.1668 441.67188L325.1668 442.48438Q325.1668 444.29688 324.46368 445.65625Q323.77618 447.01562 322.4793 447.75Q321.18243 448.48438 319.46368 448.5L315.9168 448.5ZM317.6043 437.09375L317.6043 447.125L319.38556 447.125Q321.33868 447.125 322.4168 445.90625Q323.51056 444.6875 323.51056 442.45312L323.51056 441.70312Q323.51056 439.53125 322.4793 438.32812Q321.44806 437.10938 319.57306 437.09375L317.6043 437.09375ZM329.43243 448.5L327.80743 448.5L327.80743 438.98438L329.43243 438.98438L329.43243 448.5ZM327.6668 436.46875Q327.6668 436.07812 327.90118 435.8125Q328.15118 435.53125 328.61993 435.53125Q329.1043 435.53125 329.3543 435.8125Q329.6043 436.07812 329.6043 436.46875Q329.6043 436.85938 329.3543 437.125Q329.1043 437.39062 328.61993 437.39062Q328.15118 437.39062 327.90118 437.125Q327.6668 436.85938 327.6668 436.46875ZM337.19806 445.98438Q337.19806 445.3125 336.69806 444.95312Q336.21368 444.59375 334.9793 444.32812Q333.74493 444.0625 333.01056 443.70312Q332.2918 443.32812 331.93243 442.8125Q331.58868 442.29688 331.58868 441.59375Q331.58868 440.4375 332.57306 439.625Q333.57306 438.8125 335.1043 438.8125Q336.7293 438.8125 337.7293 439.65625Q338.74493 440.48438 338.74493 441.78125L337.1043 441.78125Q337.1043 441.10938 336.52618 440.64062Q335.96368 440.15625 335.1043 440.15625Q334.21368 440.15625 333.71368 440.54688Q333.21368 440.92188 333.21368 441.54688Q333.21368 442.14062 333.68243 442.4375Q334.15118 442.73438 335.36993 443.01562Q336.58868 443.28125 337.33868 443.65625Q338.1043 444.03125 338.46368 444.5625Q338.82306 445.09375 338.82306 445.85938Q338.82306 447.14062 337.80743 447.90625Q336.7918 448.67188 335.1668 448.67188Q334.02618 448.67188 333.13556 448.26562Q332.26056 447.85938 331.76056 447.14062Q331.26056 446.42188 331.26056 445.57812L332.90118 445.57812Q332.93243 446.39062 333.5418 446.875Q334.1668 447.34375 335.1668 447.34375Q336.08868 447.34375 336.63556 446.96875Q337.19806 446.59375 337.19806 445.98438ZM342.86993 436.6875L342.86993 438.98438L344.65118 438.98438L344.65118 440.25L342.86993 440.25L342.86993 446.14062Q342.86993 446.71875 343.1043 447.0Q343.33868 447.28125 343.9168 447.28125Q344.19806 447.28125 344.68243 447.1875L344.68243 448.5Q344.0418 448.67188 343.44806 448.67188Q342.3543 448.67188 341.7918 448.01562Q341.24493 447.35938 341.24493 446.14062L341.24493 440.25L339.51056 440.25L339.51056 438.98438L341.24493 438.98438L341.24493 436.6875L342.86993 436.6875ZM348.43243 448.5L346.80743 448.5L346.80743 438.98438L348.43243 438.98438L348.43243 448.5ZM346.6668 436.46875Q346.6668 436.07812 346.90118 435.8125Q347.15118 435.53125 347.61993 435.53125Q348.1043 435.53125 348.3543 435.8125Q348.6043 436.07812 348.6043 436.46875Q348.6043 436.85938 348.3543 437.125Q348.1043 437.39062 347.61993 437.39062Q347.15118 437.39062 346.90118 437.125Q346.6668 436.85938 346.6668 436.46875ZM352.43243 448.5L350.80743 448.5L350.80743 435.0L352.43243 435.0L352.43243 448.5ZM354.9168 448.5L354.9168 435.70312L359.1043 435.70312Q361.18243 435.70312 362.2293 436.5625Q363.2918 437.42188 363.2918 439.10938Q363.2918 440.01562 362.77618 440.70312Q362.26056 441.39062 361.38556 441.76562Q362.4168 442.0625 363.02618 442.875Q363.63556 443.6875 363.63556 444.8125Q363.63556 446.53125 362.51056 447.51562Q361.40118 448.5 359.3543 448.5L354.9168 448.5ZM356.6043 442.51562L356.6043 447.125L359.38556 447.125Q360.57306 447.125 361.24493 446.51562Q361.93243 445.89062 361.93243 444.82812Q361.93243 442.51562 359.4168 442.51562L356.6043 442.51562ZM356.6043 441.15625L359.15118 441.15625Q360.26056 441.15625 360.9168 440.60938Q361.58868 440.04688 361.58868 439.10938Q361.58868 438.04688 360.96368 437.57812Q360.3543 437.09375 359.1043 437.09375L356.6043 437.09375L356.6043 441.15625ZM372.9793 445.15625L367.61993 445.15625L366.4168 448.5L364.68243 448.5L369.57306 435.70312L371.0418 435.70312L375.93243 448.5L374.21368 448.5L372.9793 445.15625ZM368.13556 443.76562L372.4793 443.76562L370.30743 437.78125L368.13556 443.76562ZM382.6043 443.32812L379.6043 443.32812L379.6043 448.5L377.9168 448.5L377.9168 435.70312L382.15118 435.70312Q384.30743 435.70312 385.46368 436.6875Q386.63556 437.67188 386.63556 439.54688Q386.63556 440.75 385.9793 441.64062Q385.33868 442.51562 384.19806 442.96875L387.19806 448.39062L387.19806 448.5L385.38556 448.5L382.6043 443.32812ZM379.6043 441.9375L382.19806 441.9375Q383.44806 441.9375 384.19806 441.29688Q384.94806 440.64062 384.94806 439.54688Q384.94806 438.35938 384.2293 437.73438Q383.52618 437.09375 382.18243 437.09375L379.6043 437.09375L379.6043 441.9375ZM397.76056 437.09375L393.65118 437.09375L393.65118 448.5L391.96368 448.5L391.96368 437.09375L387.86993 437.09375L387.86993 435.70312L397.76056 435.70312L397.76056 437.09375ZM403.0418 443.73438L398.76056 443.73438L398.76056 442.40625L403.0418 442.40625L403.0418 443.73438ZM409.83868 448.5L408.19806 448.5L408.19806 437.65625L404.93243 438.85938L404.93243 437.39062L409.58868 435.64062L409.83868 435.64062L409.83868 448.5ZM422.88556 448.5L414.49493 448.5L414.49493 447.32812L418.93243 442.40625Q419.9168 441.29688 420.27618 440.59375Q420.65118 439.89062 420.65118 439.14062Q420.65118 438.14062 420.0418 437.5Q419.44806 436.85938 418.43243 436.85938Q417.21368 436.85938 416.5418 437.5625Q415.86993 438.25 415.86993 439.46875L414.24493 439.46875Q414.24493 437.70312 415.38556 436.625Q416.52618 435.53125 418.43243 435.53125Q420.21368 435.53125 421.24493 436.46875Q422.2918 437.40625 422.2918 438.95312Q422.2918 440.84375 419.88556 443.45312L416.46368 447.17188L422.88556 447.17188L422.88556 448.5ZM428.0418 443.73438L423.76056 443.73438L423.76056 442.40625L428.0418 442.40625L428.0418 443.73438ZM435.86993 435.6875L435.86993 437.07812L435.57306 437.07812Q433.68243 437.10938 432.55743 438.20312Q431.43243 439.28125 431.26056 441.26562Q432.26056 440.10938 434.01056 440.10938Q435.68243 440.10938 436.68243 441.29688Q437.68243 442.46875 437.68243 444.32812Q437.68243 446.29688 436.6043 447.48438Q435.52618 448.67188 433.71368 448.67188Q431.88556 448.67188 430.7293 447.26562Q429.58868 445.85938 429.58868 443.625L429.58868 443.0Q429.58868 439.46875 431.08868 437.60938Q432.6043 435.73438 435.58868 435.6875L435.86993 435.6875ZM433.74493 441.45312Q432.90118 441.45312 432.19806 441.96875Q431.49493 442.46875 431.2293 443.21875L431.2293 443.8125Q431.2293 445.39062 431.93243 446.35938Q432.65118 447.32812 433.71368 447.32812Q434.80743 447.32812 435.43243 446.53125Q436.07306 445.71875 436.07306 444.40625Q436.07306 443.07812 435.43243 442.26562Q434.7918 441.45312 433.74493 441.45312Z" fill-rule="nonzero"/><path fill="#000000" d="M500.96185 448.5L500.96185 435.70312L504.57123 435.70312Q506.2431 435.70312 507.52435 436.4375Q508.8056 437.17188 509.50873 438.54688Q510.21185 439.90625 510.21185 441.67188L510.21185 442.48438Q510.21185 444.29688 509.50873 445.65625Q508.82123 447.01562 507.52435 447.75Q506.22748 448.48438 504.50873 448.5L500.96185 448.5ZM502.64935 437.09375L502.64935 447.125L504.4306 447.125Q506.38373 447.125 507.46185 445.90625Q508.5556 444.6875 508.5556 442.45312L508.5556 441.70312Q508.5556 439.53125 507.52435 438.32812Q506.4931 437.10938 504.6181 437.09375L502.64935 437.09375ZM514.4775 448.5L512.8525 448.5L512.8525 438.98438L514.4775 438.98438L514.4775 448.5ZM512.71185 436.46875Q512.71185 436.07812 512.9462 435.8125Q513.1962 435.53125 513.665 435.53125Q514.14935 435.53125 514.39935 435.8125Q514.64935 436.07812 514.64935 436.46875Q514.64935 436.85938 514.39935 437.125Q514.14935 437.39062 513.665 437.39062Q513.1962 437.39062 512.9462 437.125Q512.71185 436.85938 512.71185 436.46875ZM522.2431 445.98438Q522.2431 445.3125 521.7431 444.95312Q521.2587 444.59375 520.02435 444.32812Q518.79 444.0625 518.0556 443.70312Q517.33685 443.32812 516.9775 442.8125Q516.6337 442.29688 516.6337 441.59375Q516.6337 440.4375 517.6181 439.625Q518.6181 438.8125 520.14935 438.8125Q521.77435 438.8125 522.77435 439.65625Q523.79 440.48438 523.79 441.78125L522.14935 441.78125Q522.14935 441.10938 521.5712 440.64062Q521.0087 440.15625 520.14935 440.15625Q519.2587 440.15625 518.7587 440.54688Q518.2587 440.92188 518.2587 441.54688Q518.2587 442.14062 518.7275 442.4375Q519.1962 442.73438 520.415 443.01562Q521.6337 443.28125 522.3837 443.65625Q523.14935 444.03125 523.5087 444.5625Q523.8681 445.09375 523.8681 445.85938Q523.8681 447.14062 522.8525 447.90625Q521.83685 448.67188 520.21185 448.67188Q519.0712 448.67188 518.1806 448.26562Q517.3056 447.85938 516.8056 447.14062Q516.3056 446.42188 516.3056 445.57812L517.9462 445.57812Q517.9775 446.39062 518.58685 446.875Q519.21185 447.34375 520.21185 447.34375Q521.1337 447.34375 521.6806 446.96875Q522.2431 446.59375 522.2431 445.98438ZM527.915 436.6875L527.915 438.98438L529.6962 438.98438L529.6962 440.25L527.915 440.25L527.915 446.14062Q527.915 446.71875 528.14935 447.0Q528.3837 447.28125 528.96185 447.28125Q529.2431 447.28125 529.7275 447.1875L529.7275 448.5Q529.08685 448.67188 528.4931 448.67188Q527.39935 448.67188 526.83685 448.01562Q526.29 447.35938 526.29 446.14062L526.29 440.25L524.5556 440.25L524.5556 438.98438L526.29 438.98438L526.29 436.6875L527.915 436.6875ZM533.4775 448.5L531.8525 448.5L531.8525 438.98438L533.4775 438.98438L533.4775 448.5ZM531.71185 436.46875Q531.71185 436.07812 531.9462 435.8125Q532.1962 435.53125 532.665 435.53125Q533.14935 435.53125 533.39935 435.8125Q533.64935 436.07812 533.64935 436.46875Q533.64935 436.85938 533.39935 437.125Q533.14935 437.39062 532.665 437.39062Q532.1962 437.39062 531.9462 437.125Q531.71185 436.85938 531.71185 436.46875ZM537.4775 448.5L535.8525 448.5L535.8525 435.0L537.4775 435.0L537.4775 448.5ZM539.96185 448.5L539.96185 435.70312L544.14935 435.70312Q546.2275 435.70312 547.27435 436.5625Q548.33685 437.42188 548.33685 439.10938Q548.33685 440.01562 547.8212 440.70312Q547.3056 441.39062 546.4306 441.76562Q547.46185 442.0625 548.0712 442.875Q548.6806 443.6875 548.6806 444.8125Q548.6806 446.53125 547.5556 447.51562Q546.4462 448.5 544.39935 448.5L539.96185 448.5ZM541.64935 442.51562L541.64935 447.125L544.4306 447.125Q545.6181 447.125 546.29 446.51562Q546.9775 445.89062 546.9775 444.82812Q546.9775 442.51562 544.46185 442.51562L541.64935 442.51562ZM541.64935 441.15625L544.1962 441.15625Q545.3056 441.15625 545.96185 440.60938Q546.6337 440.04688 546.6337 439.10938Q546.6337 438.04688 546.0087 437.57812Q545.39935 437.09375 544.14935 437.09375L541.64935 437.09375L541.64935 441.15625ZM558.02435 445.15625L552.665 445.15625L551.46185 448.5L549.7275 448.5L554.6181 435.70312L556.08685 435.70312L560.9775 448.5L559.2587 448.5L558.02435 445.15625ZM553.1806 443.76562L557.52435 443.76562L555.3525 437.78125L553.1806 443.76562ZM567.64935 443.32812L564.64935 443.32812L564.64935 448.5L562.96185 448.5L562.96185 435.70312L567.1962 435.70312Q569.3525 435.70312 570.5087 436.6875Q571.6806 437.67188 571.6806 439.54688Q571.6806 440.75 571.02435 441.64062Q570.3837 442.51562 569.2431 442.96875L572.2431 448.39062L572.2431 448.5L570.4306 448.5L567.64935 443.32812ZM564.64935 441.9375L567.2431 441.9375Q568.4931 441.9375 569.2431 441.29688Q569.9931 440.64062 569.9931 439.54688Q569.9931 438.35938 569.27435 437.73438Q568.5712 437.09375 567.2275 437.09375L564.64935 437.09375L564.64935 441.9375ZM582.8056 437.09375L578.6962 437.09375L578.6962 448.5L577.0087 448.5L577.0087 437.09375L572.915 437.09375L572.915 435.70312L582.8056 435.70312L582.8056 437.09375ZM588.08685 443.73438L583.8056 443.73438L583.8056 442.40625L588.08685 442.40625L588.08685 443.73438ZM595.915 435.6875L595.915 437.07812L595.6181 437.07812Q593.7275 437.10938 592.6025 438.20312Q591.4775 439.28125 591.3056 441.26562Q592.3056 440.10938 594.0556 440.10938Q595.7275 440.10938 596.7275 441.29688Q597.7275 442.46875 597.7275 444.32812Q597.7275 446.29688 596.64935 447.48438Q595.5712 448.67188 593.7587 448.67188Q591.9306 448.67188 590.77435 447.26562Q589.6337 445.85938 589.6337 443.625L589.6337 443.0Q589.6337 439.46875 591.1337 437.60938Q592.64935 435.73438 595.6337 435.6875L595.915 435.6875ZM593.79 441.45312Q592.9462 441.45312 592.2431 441.96875Q591.54 442.46875 591.27435 443.21875L591.27435 443.8125Q591.27435 445.39062 591.9775 446.35938Q592.6962 447.32812 593.7587 447.32812Q594.8525 447.32812 595.4775 446.53125Q596.1181 445.71875 596.1181 444.40625Q596.1181 443.07812 595.4775 442.26562Q594.83685 441.45312 593.79 441.45312ZM603.08685 443.73438L598.8056 443.73438L598.8056 442.40625L603.08685 442.40625L603.08685 443.73438ZM610.915 435.6875L610.915 437.07812L610.6181 437.07812Q608.7275 437.10938 607.6025 438.20312Q606.4775 439.28125 606.3056 441.26562Q607.3056 440.10938 609.0556 440.10938Q610.7275 440.10938 611.7275 441.29688Q612.7275 442.46875 612.7275 444.32812Q612.7275 446.29688 611.64935 447.48438Q610.5712 448.67188 608.7587 448.67188Q606.9306 448.67188 605.77435 447.26562Q604.6337 445.85938 604.6337 443.625L604.6337 443.0Q604.6337 439.46875 606.1337 437.60938Q607.64935 435.73438 610.6337 435.6875L610.915 435.6875ZM608.79 441.45312Q607.9462 441.45312 607.2431 441.96875Q606.54 442.46875 606.27435 443.21875L606.27435 443.8125Q606.27435 445.39062 606.9775 446.35938Q607.6962 447.32812 608.7587 447.32812Q609.8525 447.32812 610.4775 446.53125Q611.1181 445.71875 611.1181 444.40625Q611.1181 443.07812 610.4775 442.26562Q609.83685 441.45312 608.79 441.45312Z" fill-rule="nonzero"/><path fill="#3d85c6" d="M690.0981 77.0C690.0981 80.313705 687.4118 83.0 684.0981 83.0C680.7844 83.0 678.0981 80.313705 678.0981 77.0C678.0981 73.686295 680.7844 71.0 684.0981 71.0C687.4118 71.0 690.0981 73.686295 690.0981 77.0Z" fill-rule="nonzero"/><path fill="#1a1a1a" d="M700.9262 78.046875L700.9262 82.5L699.4262 82.5L699.4262 71.125L703.6137 71.125Q705.4887 71.125 706.5356 72.078125Q707.5981 73.03125 707.5981 74.59375Q707.5981 76.25 706.56683 77.15625Q705.5356 78.046875 703.5981 78.046875L700.9262 78.046875ZM700.9262 76.8125L703.6137 76.8125Q704.81683 76.8125 705.45746 76.25Q706.0981 75.6875 706.0981 74.609375Q706.0981 73.59375 705.45746 72.984375Q704.81683 72.375 703.70746 72.359375L700.9262 72.359375L700.9262 76.8125ZM711.95746 80.375L713.9262 74.046875L715.4731 74.046875L712.08246 83.8125Q711.2856 85.921875 709.56683 85.921875L709.3012 85.890625L708.75433 85.796875L708.75433 84.625L709.14496 84.65625Q709.87933 84.65625 710.2856 84.359375Q710.70746 84.0625 710.9731 83.265625L711.2856 82.40625L708.26996 74.046875L709.8481 74.046875L711.95746 80.375ZM719.1606 72.0L719.1606 74.046875L720.7387 74.046875L720.7387 75.15625L719.1606 75.15625L719.1606 80.40625Q719.1606 80.90625 719.3637 81.171875Q719.58246 81.421875 720.08246 81.421875Q720.33246 81.421875 720.76996 81.328125L720.76996 82.5Q720.20746 82.65625 719.6606 82.65625Q718.69183 82.65625 718.19183 82.078125Q717.70746 81.484375 717.70746 80.40625L717.70746 75.15625L716.1762 75.15625L716.1762 74.046875L717.70746 74.046875L717.70746 72.0L719.1606 72.0ZM723.64496 75.0625Q724.5981 73.890625 726.14496 73.890625Q728.81683 73.890625 728.8481 76.90625L728.8481 82.5L727.39496 82.5L727.39496 76.90625Q727.39496 75.984375 726.9731 75.546875Q726.56683 75.109375 725.70746 75.109375Q725.00433 75.109375 724.4731 75.484375Q723.94183 75.859375 723.64496 76.46875L723.64496 82.5L722.19183 82.5L722.19183 70.5L723.64496 70.5L723.64496 75.0625ZM730.81683 78.1875Q730.81683 76.953125 731.3012 75.96875Q731.7856 74.96875 732.6606 74.4375Q733.5356 73.890625 734.64496 73.890625Q736.37933 73.890625 737.44183 75.09375Q738.50433 76.28125 738.50433 78.265625L738.50433 78.359375Q738.50433 79.59375 738.0356 80.578125Q737.56683 81.5625 736.6762 82.109375Q735.8012 82.65625 734.6606 82.65625Q732.94183 82.65625 731.87933 81.46875Q730.81683 80.265625 730.81683 78.296875L730.81683 78.1875ZM732.26996 78.359375Q732.26996 79.765625 732.9106 80.625Q733.56683 81.46875 734.6606 81.46875Q735.76996 81.46875 736.4106 80.609375Q737.06683 79.75 737.06683 78.1875Q737.06683 76.796875 736.39496 75.9375Q735.7387 75.078125 734.64496 75.078125Q733.58246 75.078125 732.9262 75.9375Q732.26996 76.78125 732.26996 78.359375ZM741.56683 74.046875L741.6137 75.109375Q742.58246 73.890625 744.14496 73.890625Q746.81683 73.890625 746.8481 76.90625L746.8481 82.5L745.39496 82.5L745.39496 76.90625Q745.39496 75.984375 744.9731 75.546875Q744.56683 75.109375 743.70746 75.109375Q743.00433 75.109375 742.4731 75.484375Q741.94183 75.859375 741.64496 76.46875L741.64496 82.5L740.19183 82.5L740.19183 74.046875L741.56683 74.046875Z" fill-rule="nonzero"/><path fill="#bf9000" d="M690.0981 106.0C690.0981 109.313705 687.4118 112.0 684.0981 112.0C680.7844 112.0 678.0981 109.313705 678.0981 106.0C678.0981 102.686295 680.7844 100.0 684.0981 100.0C687.4118 100.0 690.0981 102.686295 690.0981 106.0Z" fill-rule="nonzero"/><path fill="#1a1a1a" d="M703.5981 106.890625L700.9262 106.890625L700.9262 111.5L699.4106 111.5L699.4106 100.125L703.1762 100.125Q705.0981 100.125 706.12933 101.0Q707.1762 101.875 707.1762 103.546875Q707.1762 104.609375 706.5981 105.40625Q706.01996 106.1875 705.00433 106.578125L707.6762 111.40625L707.6762 111.5L706.06683 111.5L703.5981 106.890625ZM700.9262 105.671875L703.2231 105.671875Q704.3481 105.671875 705.00433 105.09375Q705.6606 104.515625 705.6606 103.546875Q705.6606 102.484375 705.0356 101.921875Q704.4106 101.359375 703.2231 101.359375L700.9262 101.359375L700.9262 105.671875ZM714.4106 110.65625Q713.56683 111.65625 711.94183 111.65625Q710.58246 111.65625 709.87933 110.875Q709.1762 110.078125 709.1606 108.546875L709.1606 103.046875L710.6137 103.046875L710.6137 108.5Q710.6137 110.421875 712.1762 110.421875Q713.83246 110.421875 714.37933 109.1875L714.37933 103.046875L715.81683 103.046875L715.81683 111.5L714.44183 111.5L714.4106 110.65625ZM723.1137 109.25Q723.1137 108.671875 722.6762 108.34375Q722.2387 108.015625 721.12933 107.78125Q720.0356 107.546875 719.39496 107.21875Q718.75433 106.890625 718.44183 106.4375Q718.12933 105.984375 718.12933 105.359375Q718.12933 104.328125 719.00433 103.609375Q719.89496 102.890625 721.25433 102.890625Q722.69183 102.890625 723.58246 103.640625Q724.4887 104.375 724.4887 105.53125L723.0356 105.53125Q723.0356 104.9375 722.51996 104.515625Q722.01996 104.078125 721.25433 104.078125Q720.4731 104.078125 720.01996 104.421875Q719.58246 104.765625 719.58246 105.3125Q719.58246 105.84375 719.9887 106.109375Q720.4106 106.375 721.4887 106.625Q722.56683 106.859375 723.2387 107.203125Q723.9106 107.53125 724.2387 108.0Q724.56683 108.46875 724.56683 109.15625Q724.56683 110.28125 723.6606 110.96875Q722.75433 111.65625 721.3012 111.65625Q720.2856 111.65625 719.50433 111.296875Q718.7231 110.9375 718.2856 110.296875Q717.8481 109.640625 717.8481 108.890625L719.2856 108.890625Q719.33246 109.625 719.8637 110.046875Q720.4106 110.46875 721.3012 110.46875Q722.12933 110.46875 722.6137 110.140625Q723.1137 109.8125 723.1137 109.25ZM728.1606 101.0L728.1606 103.046875L729.7387 103.046875L729.7387 104.15625L728.1606 104.15625L728.1606 109.40625Q728.1606 109.90625 728.3637 110.171875Q728.58246 110.421875 729.08246 110.421875Q729.33246 110.421875 729.76996 110.328125L729.76996 111.5Q729.20746 111.65625 728.6606 111.65625Q727.69183 111.65625 727.19183 111.078125Q726.70746 110.484375 726.70746 109.40625L726.70746 104.15625L725.1762 104.15625L725.1762 103.046875L726.70746 103.046875L726.70746 101.0L728.1606 101.0Z" fill-rule="nonzero"/><path fill="#757575" d="M22.636757 37.45061L24.777382 37.26311Q24.933632 38.54436 25.480507 39.372486Q26.043007 40.20061 27.214882 40.716236Q28.386757 41.216236 29.855507 41.216236Q31.152382 41.216236 32.15238 40.841236Q33.15238 40.45061 33.636757 39.778736Q34.12113 39.091236 34.12113 38.29436Q34.12113 37.497486 33.65238 36.88811Q33.18363 36.278736 32.105507 35.872486Q31.418007 35.60686 29.043007 35.04436Q26.683632 34.466236 25.730507 33.966236Q24.496132 33.32561 23.886757 32.372486Q23.293007 31.403736 23.293007 30.231861Q23.293007 28.919361 24.027382 27.794361Q24.777382 26.669361 26.183632 26.091236Q27.605507 25.497486 29.339882 25.497486Q31.246132 25.497486 32.699257 26.106861Q34.168007 26.716236 34.949257 27.919361Q35.74613 29.106861 35.793007 30.622486L33.62113 30.794361Q33.449257 29.153736 32.43363 28.325611Q31.418007 27.497486 29.433632 27.497486Q27.371132 27.497486 26.418007 28.263111Q25.480507 29.013111 25.480507 30.075611Q25.480507 30.997486 26.152382 31.591236Q26.808632 32.20061 29.574257 32.82561Q32.355507 33.45061 33.386757 33.91936Q34.886757 34.60686 35.58988 35.66936Q36.30863 36.73186 36.30863 38.10686Q36.30863 39.48186 35.52738 40.70061Q34.74613 41.903736 33.27738 42.591236Q31.808632 43.26311 29.964882 43.26311Q27.636757 43.26311 26.058632 42.591236Q24.480507 41.903736 23.574257 40.54436Q22.683632 39.16936 22.636757 37.45061ZM47.293007 42.966236L47.293007 41.13811Q45.83988 43.247486 43.355507 43.247486Q42.24613 43.247486 41.293007 42.82561Q40.33988 42.403736 39.87113 41.76311Q39.418007 41.122486 39.230507 40.20061Q39.08988 39.57561 39.08988 38.23186L39.08988 30.513111L41.199257 30.513111L41.199257 37.41936Q41.199257 39.07561 41.33988 39.653736Q41.52738 40.48186 42.168007 40.966236Q42.824257 41.434986 43.77738 41.434986Q44.71488 41.434986 45.543007 40.95061Q46.386757 40.45061 46.730507 39.622486Q47.074257 38.778736 47.074257 37.184986L47.074257 30.513111L49.18363 30.513111L49.18363 42.966236L47.293007 42.966236ZM52.136757 42.966236L52.136757 30.513111L54.02738 30.513111L54.02738 32.26311Q54.62113 31.356861 55.58988 30.794361Q56.55863 30.231861 57.80863 30.231861Q59.18363 30.231861 60.05863 30.809986Q60.949257 31.388111 61.324257 32.41936Q62.793007 30.231861 65.16801 30.231861Q67.01176 30.231861 68.01176 31.263111Q69.01176 32.29436 69.01176 34.41936L69.01176 42.966236L66.90238 42.966236L66.90238 35.122486Q66.90238 33.85686 66.69926 33.309986Q66.49613 32.747486 65.94926 32.403736Q65.41801 32.059986 64.69926 32.059986Q63.386757 32.059986 62.511757 32.934986Q61.65238 33.809986 61.65238 35.73186L61.65238 42.966236L59.543007 42.966236L59.543007 34.872486Q59.543007 33.466236 59.02738 32.76311Q58.511757 32.059986 57.33988 32.059986Q56.449257 32.059986 55.68363 32.528736Q54.93363 32.997486 54.58988 33.903736Q54.24613 34.809986 54.24613 36.51311L54.24613 42.966236L52.136757 42.966236ZM72.13676 42.966236L72.13676 30.513111L74.02738 30.513111L74.02738 32.26311Q74.62113 31.356861 75.58988 30.794361Q76.55863 30.231861 77.80863 30.231861Q79.18363 30.231861 80.05863 30.809986Q80.94926 31.388111 81.32426 32.41936Q82.79301 30.231861 85.16801 30.231861Q87.01176 30.231861 88.01176 31.263111Q89.01176 32.29436 89.01176 34.41936L89.01176 42.966236L86.90238 42.966236L86.90238 35.122486Q86.90238 33.85686 86.69926 33.309986Q86.49613 32.747486 85.94926 32.403736Q85.41801 32.059986 84.69926 32.059986Q83.38676 32.059986 82.51176 32.934986Q81.65238 33.809986 81.65238 35.73186L81.65238 42.966236L79.54301 42.966236L79.54301 34.872486Q79.54301 33.466236 79.02738 32.76311Q78.51176 32.059986 77.33988 32.059986Q76.44926 32.059986 75.68363 32.528736Q74.93363 32.997486 74.58988 33.903736Q74.24613 34.809986 74.24613 36.51311L74.24613 42.966236L72.13676 42.966236ZM100.26176 41.434986Q99.08988 42.41936 97.99613 42.841236Q96.91801 43.247486 95.68363 43.247486Q93.63676 43.247486 92.52738 42.247486Q91.43363 41.247486 91.43363 39.684986Q91.43363 38.76311 91.83988 38.01311Q92.26176 37.26311 92.93363 36.809986Q93.60551 36.341236 94.44926 36.10686Q95.07426 35.95061 96.32426 35.79436Q98.88676 35.48186 100.08988 35.059986Q100.10551 34.63811 100.10551 34.51311Q100.10551 33.23186 99.49613 32.70061Q98.69926 31.981861 97.10551 31.981861Q95.60551 31.981861 94.90238 32.51311Q94.19926 33.028736 93.85551 34.35686L91.79301 34.07561Q92.07426 32.747486 92.71488 31.934986Q93.35551 31.122486 94.57426 30.684986Q95.79301 30.231861 97.40238 30.231861Q98.99613 30.231861 99.99613 30.606861Q100.99613 30.981861 101.46488 31.559986Q101.93363 32.122486 102.12113 32.997486Q102.21488 33.528736 102.21488 34.934986L102.21488 37.747486Q102.21488 40.684986 102.35551 41.466236Q102.49613 42.247486 102.88676 42.966236L100.68363 42.966236Q100.35551 42.309986 100.26176 41.434986ZM100.08988 36.716236Q98.93363 37.184986 96.63676 37.51311Q95.33988 37.70061 94.79301 37.934986Q94.26176 38.16936 93.96488 38.622486Q93.68363 39.07561 93.68363 39.622486Q93.68363 40.466236 94.30863 41.028736Q94.94926 41.591236 96.18363 41.591236Q97.40238 41.591236 98.35551 41.059986Q99.30863 40.528736 99.74613 39.60686Q100.08988 38.88811 100.08988 37.497486L100.08988 36.716236ZM105.12113 42.966236L105.12113 30.513111L107.01176 30.513111L107.01176 32.403736Q107.74613 31.075611 108.35551 30.653736Q108.98051 30.231861 109.71488 30.231861Q110.77738 30.231861 111.88676 30.919361L111.15238 32.872486Q110.38676 32.41936 109.60551 32.41936Q108.91801 32.41936 108.35551 32.841236Q107.80863 33.247486 107.57426 33.98186Q107.23051 35.10686 107.23051 36.45061L107.23051 42.966236L105.12113 42.966236ZM113.15238 28.216236L113.15238 25.778736L115.26176 25.778736L115.26176 28.216236L113.15238 28.216236ZM113.15238 42.966236L113.15238 30.513111L115.26176 30.513111L115.26176 42.966236L113.15238 42.966236ZM117.02738 42.966236L117.02738 41.247486L124.94926 32.153736Q123.60551 32.23186 122.57426 32.23186L117.49613 32.23186L117.49613 30.513111L127.66801 30.513111L127.66801 31.919361L120.93363 39.809986L119.63676 41.247486Q121.04301 41.153736 122.29301 41.153736L128.043 41.153736L128.043 42.966236L117.02738 42.966236ZM138.26175 41.434986Q137.08987 42.41936 135.99612 42.841236Q134.918 43.247486 133.68362 43.247486Q131.63675 43.247486 130.52737 42.247486Q129.43362 41.247486 129.43362 39.684986Q129.43362 38.76311 129.83987 38.01311Q130.26175 37.26311 130.93362 36.809986Q131.6055 36.341236 132.44925 36.10686Q133.07425 35.95061 134.32425 35.79436Q136.88675 35.48186 138.08987 35.059986Q138.1055 34.63811 138.1055 34.51311Q138.1055 33.23186 137.49612 32.70061Q136.69925 31.981861 135.1055 31.981861Q133.6055 31.981861 132.90237 32.51311Q132.19925 33.028736 131.8555 34.35686L129.793 34.07561Q130.07425 32.747486 130.71487 31.934986Q131.3555 31.122486 132.57425 30.684986Q133.793 30.231861 135.40237 30.231861Q136.99612 30.231861 137.99612 30.606861Q138.99612 30.981861 139.46487 31.559986Q139.93362 32.122486 140.12112 32.997486Q140.21487 33.528736 140.21487 34.934986L140.21487 37.747486Q140.21487 40.684986 140.3555 41.466236Q140.49612 42.247486 140.88675 42.966236L138.68362 42.966236Q138.3555 42.309986 138.26175 41.434986ZM138.08987 36.716236Q136.93362 37.184986 134.63675 37.51311Q133.33987 37.70061 132.793 37.934986Q132.26175 38.16936 131.96487 38.622486Q131.68362 39.07561 131.68362 39.622486Q131.68362 40.466236 132.30862 41.028736Q132.94925 41.591236 134.18362 41.591236Q135.40237 41.591236 136.3555 41.059986Q137.30862 40.528736 137.74612 39.60686Q138.08987 38.88811 138.08987 37.497486L138.08987 36.716236ZM147.74612 41.07561L148.05862 42.934986Q147.168 43.13811 146.46487 43.13811Q145.30862 43.13811 144.668 42.778736Q144.043 42.403736 143.77737 41.809986Q143.52737 41.216236 143.52737 39.32561L143.52737 32.153736L141.9805 32.153736L141.9805 30.513111L143.52737 30.513111L143.52737 27.434986L145.62112 26.169361L145.62112 30.513111L147.74612 30.513111L147.74612 32.153736L145.62112 32.153736L145.62112 39.434986Q145.62112 40.341236 145.7305 40.60686Q145.8555 40.85686 146.1055 41.01311Q146.3555 41.153736 146.82425 41.153736Q147.168 41.153736 147.74612 41.07561ZM150.15237 28.216236L150.15237 25.778736L152.26175 25.778736L152.26175 28.216236L150.15237 28.216236ZM150.15237 42.966236L150.15237 30.513111L152.26175 30.513111L152.26175 42.966236L150.15237 42.966236ZM154.3555 36.747486Q154.3555 33.278736 156.27737 31.622486Q157.88675 30.231861 160.19925 30.231861Q162.76175 30.231861 164.38675 31.919361Q166.01175 33.60686 166.01175 36.559986Q166.01175 38.966236 165.293 40.341236Q164.57425 41.716236 163.19925 42.48186Q161.82425 43.247486 160.19925 43.247486Q157.57425 43.247486 155.96487 41.57561Q154.3555 39.88811 154.3555 36.747486ZM156.52737 36.747486Q156.52737 39.13811 157.55862 40.32561Q158.6055 41.51311 160.19925 41.51311Q161.76175 41.51311 162.80862 40.32561Q163.8555 39.122486 163.8555 36.66936Q163.8555 34.35686 162.793 33.16936Q161.74612 31.981861 160.19925 31.981861Q158.6055 31.981861 157.55862 33.16936Q156.52737 34.35686 156.52737 36.747486ZM168.13675 42.966236L168.13675 30.513111L170.043 30.513111L170.043 32.29436Q171.418 30.231861 173.99612 30.231861Q175.12112 30.231861 176.05862 30.638111Q177.01175 31.044361 177.4805 31.700611Q177.94925 32.35686 178.13675 33.26311Q178.26175 33.841236 178.26175 35.309986L178.26175 42.966236L176.15237 42.966236L176.15237 35.38811Q176.15237 34.10686 175.90237 33.466236Q175.65237 32.82561 175.02737 32.45061Q174.40237 32.059986 173.55862 32.059986Q172.21487 32.059986 171.2305 32.91936Q170.24612 33.778736 170.24612 36.16936L170.24612 42.966236L168.13675 42.966236ZM181.69925 42.966236L181.69925 40.559986L184.08987 40.559986L184.08987 42.966236Q184.08987 44.29436 183.62112 45.10686Q183.15237 45.91936 182.13675 46.372486L181.55862 45.466236Q182.21487 45.16936 182.52737 44.591236Q182.8555 44.028736 182.88675 42.966236L181.69925 42.966236ZM194.57425 38.434986L196.68362 38.153736Q197.043 39.934986 197.918 40.73186Q198.793 41.528736 200.043 41.528736Q201.52737 41.528736 202.543 40.497486Q203.57425 39.466236 203.57425 37.934986Q203.57425 36.48186 202.62112 35.54436Q201.68362 34.591236 200.21487 34.591236Q199.62112 34.591236 198.7305 34.82561L198.96487 32.98186Q199.168 32.997486 199.30862 32.997486Q200.65237 32.997486 201.7305 32.29436Q202.80862 31.591236 202.80862 30.138111Q202.80862 28.966236 202.01175 28.216236Q201.2305 27.450611 199.99612 27.450611Q198.76175 27.450611 197.93362 28.231861Q197.12112 28.997486 196.88675 30.544361L194.77737 30.169361Q195.168 28.044361 196.52737 26.888111Q197.90237 25.716236 199.94925 25.716236Q201.3555 25.716236 202.52737 26.325611Q203.71487 26.919361 204.33987 27.966236Q204.9805 29.013111 204.9805 30.184986Q204.9805 31.294361 204.37112 32.216236Q203.77737 33.122486 202.6055 33.653736Q204.13675 34.01311 204.9805 35.122486Q205.82425 36.23186 205.82425 37.88811Q205.82425 40.13811 204.18362 41.716236Q202.543 43.278736 200.02737 43.278736Q197.76175 43.278736 196.26175 41.934986Q194.77737 40.57561 194.57425 38.434986ZM217.08987 42.966236L215.13675 42.966236L215.13675 25.778736L217.24612 25.778736L217.24612 31.919361Q218.57425 30.231861 220.65237 30.231861Q221.793 30.231861 222.82425 30.700611Q223.8555 31.169361 224.51175 32.01311Q225.168 32.841236 225.543 34.028736Q225.918 35.20061 225.918 36.559986Q225.918 39.747486 224.33987 41.497486Q222.76175 43.247486 220.543 43.247486Q218.33987 43.247486 217.08987 41.403736L217.08987 42.966236ZM217.05862 36.653736Q217.05862 38.88811 217.668 39.88811Q218.668 41.51311 220.37112 41.51311Q221.74612 41.51311 222.74612 40.309986Q223.76175 39.10686 223.76175 36.73186Q223.76175 34.29436 222.793 33.13811Q221.83987 31.966236 220.46487 31.966236Q219.07425 31.966236 218.05862 33.16936Q217.05862 34.372486 217.05862 36.653736ZM236.668 38.95061L238.83987 39.23186Q238.32425 41.13811 236.93362 42.20061Q235.543 43.247486 233.37112 43.247486Q230.63675 43.247486 229.02737 41.57561Q227.43362 39.88811 227.43362 36.841236Q227.43362 33.70061 229.043 31.966236Q230.668 30.231861 233.24612 30.231861Q235.74612 30.231861 237.32425 31.934986Q238.918 33.63811 238.918 36.716236Q238.918 36.903736 238.90237 37.278736L229.62112 37.278736Q229.7305 39.32561 230.77737 40.41936Q231.82425 41.51311 233.38675 41.51311Q234.543 41.51311 235.3555 40.903736Q236.18362 40.29436 236.668 38.95061ZM229.7305 35.54436L236.68362 35.54436Q236.543 33.98186 235.88675 33.184986Q234.88675 31.966236 233.27737 31.966236Q231.82425 31.966236 230.82425 32.95061Q229.83987 33.91936 229.7305 35.54436ZM249.26175 41.434986Q248.08987 42.41936 246.99612 42.841236Q245.918 43.247486 244.68362 43.247486Q242.63675 43.247486 241.52737 42.247486Q240.43362 41.247486 240.43362 39.684986Q240.43362 38.76311 240.83987 38.01311Q241.26175 37.26311 241.93362 36.809986Q242.6055 36.341236 243.44925 36.10686Q244.07425 35.95061 245.32425 35.79436Q247.88675 35.48186 249.08987 35.059986Q249.1055 34.63811 249.1055 34.51311Q249.1055 33.23186 248.49612 32.70061Q247.69925 31.981861 246.1055 31.981861Q244.6055 31.981861 243.90237 32.51311Q243.19925 33.028736 242.8555 34.35686L240.793 34.07561Q241.07425 32.747486 241.71487 31.934986Q242.3555 31.122486 243.57425 30.684986Q244.793 30.231861 246.40237 30.231861Q247.99612 30.231861 248.99612 30.606861Q249.99612 30.981861 250.46487 31.559986Q250.93362 32.122486 251.12112 32.997486Q251.21487 33.528736 251.21487 34.934986L251.21487 37.747486Q251.21487 40.684986 251.3555 41.466236Q251.49612 42.247486 251.88675 42.966236L249.68362 42.966236Q249.3555 42.309986 249.26175 41.434986ZM249.08987 36.716236Q247.93362 37.184986 245.63675 37.51311Q244.33987 37.70061 243.793 37.934986Q243.26175 38.16936 242.96487 38.622486Q242.68362 39.07561 242.68362 39.622486Q242.68362 40.466236 243.30862 41.028736Q243.94925 41.591236 245.18362 41.591236Q246.40237 41.591236 247.3555 41.059986Q248.30862 40.528736 248.74612 39.60686Q249.08987 38.88811 249.08987 37.497486L249.08987 36.716236ZM254.13675 42.966236L254.13675 30.513111L256.02737 30.513111L256.02737 32.26311Q256.62112 31.356861 257.58987 30.794361Q258.55862 30.231861 259.80862 30.231861Q261.18362 30.231861 262.05862 30.809986Q262.94925 31.388111 263.32425 32.41936Q264.793 30.231861 267.168 30.231861Q269.01175 30.231861 270.01175 31.263111Q271.01175 32.29436 271.01175 34.41936L271.01175 42.966236L268.90237 42.966236L268.90237 35.122486Q268.90237 33.85686 268.69925 33.309986Q268.49612 32.747486 267.94925 32.403736Q267.418 32.059986 266.69925 32.059986Q265.38675 32.059986 264.51175 32.934986Q263.65237 33.809986 263.65237 35.73186L263.65237 42.966236L261.543 42.966236L261.543 34.872486Q261.543 33.466236 261.02737 32.76311Q260.51175 32.059986 259.33987 32.059986Q258.44925 32.059986 257.68362 32.528736Q256.93362 32.997486 256.58987 33.903736Q256.24612 34.809986 256.24612 36.51311L256.24612 42.966236L254.13675 42.966236ZM273.293 39.247486L275.38675 38.91936Q275.55862 40.16936 276.3555 40.841236Q277.168 41.51311 278.6055 41.51311Q280.05862 41.51311 280.76175 40.91936Q281.46487 40.32561 281.46487 39.528736Q281.46487 38.809986 280.83987 38.403736Q280.418 38.122486 278.68362 37.684986Q276.37112 37.10686 275.46487 36.684986Q274.57425 36.247486 274.1055 35.497486Q273.65237 34.73186 273.65237 33.82561Q273.65237 32.997486 274.02737 32.29436Q274.418 31.575611 275.07425 31.106861Q275.55862 30.747486 276.40237 30.497486Q277.26175 30.231861 278.2305 30.231861Q279.69925 30.231861 280.80862 30.653736Q281.918 31.075611 282.43362 31.809986Q282.96487 32.528736 283.168 33.73186L281.1055 34.01311Q280.96487 33.04436 280.293 32.51311Q279.62112 31.966236 278.38675 31.966236Q276.93362 31.966236 276.30862 32.45061Q275.68362 32.934986 275.68362 33.57561Q275.68362 33.98186 275.94925 34.309986Q276.19925 34.653736 276.76175 34.872486Q277.07425 34.997486 278.62112 35.41936Q280.8555 36.01311 281.7305 36.403736Q282.62112 36.778736 283.12112 37.51311Q283.63675 38.23186 283.63675 39.309986Q283.63675 40.35686 283.01175 41.29436Q282.40237 42.23186 281.24612 42.747486Q280.08987 43.247486 278.62112 43.247486Q276.19925 43.247486 274.918 42.247486Q273.65237 41.23186 273.293 39.247486Z" fill-rule="nonzero"/></svg>