<svg version="1.1" viewBox="0.0 0.0 651.0 428.0" fill="none" stroke="none" stroke-linecap="square" stroke-miterlimit="10" width="651" height="428" xmlns:xlink="http://www.w3.org/1999/xlink" xmlns="http://www.w3.org/2000/svg"><path fill="#ffffff" d="M0 0L651.0 0L651.0 428.0L0 428.0L0 0Z" fill-rule="nonzero"/><path stroke="#333333" stroke-width="1.0" stroke-linecap="butt" d="M106.5 379.5L468.5 379.5" fill-rule="nonzero"/><path stroke="#cccccc" stroke-width="1.0" stroke-linecap="butt" d="M106.5 279.5L468.5 279.5" fill-rule="nonzero"/><path stroke="#cccccc" stroke-width="1.0" stroke-linecap="butt" d="M106.5 179.5L468.5 179.5" fill-rule="nonzero"/><path stroke="#cccccc" stroke-width="1.0" stroke-linecap="butt" d="M106.5 79.5L468.5 79.5" fill-rule="nonzero"/><path stroke="#e6e6e6" stroke-width="1.0" stroke-linecap="butt" d="M106.5 346.5L468.5 346.5" fill-rule="nonzero"/><path stroke="#e6e6e6" stroke-width="1.0" stroke-linecap="butt" d="M106.5 312.5L468.5 312.5" fill-rule="nonzero"/><path stroke="#e6e6e6" stroke-width="1.0" stroke-linecap="butt" d="M106.5 246.5L468.5 246.5" fill-rule="nonzero"/><path stroke="#e6e6e6" stroke-width="1.0" stroke-linecap="butt" d="M106.5 212.5L468.5 212.5" fill-rule="nonzero"/><path stroke="#e6e6e6" stroke-width="1.0" stroke-linecap="butt" d="M106.5 146.5L468.5 146.5" fill-rule="nonzero"/><path stroke="#e6e6e6" stroke-width="1.0" stroke-linecap="butt" d="M106.5 112.5L468.5 112.5" fill-rule="nonzero"/><path stroke="#000000" stroke-width="1.0" stroke-linecap="butt" d="M106.5 379.5L106.5 79.5" fill-rule="nonzero"/><clipPath id="id_0"><path d="M106.35313 79.5L468.5 79.5L468.5 379.6L106.35313 379.6L106.35313 79.5Z" clip-rule="nonzero"/></clipPath><path stroke="#000000" stroke-width="2.0" stroke-linecap="butt" stroke-opacity="0.0" clip-path="url(#id_0)" d="M193.0 380.0L162.0 380.0L162.0 217.0C162.0 215.89543 162.89543 215.0 164.0 215.0L191.0 215.0C192.10457 215.0 193.0 215.89543 193.0 217.0Z" fill-rule="nonzero"/><path fill="#3d85c6" clip-path="url(#id_0)" d="M193.0 380.0L162.0 380.0L162.0 217.0C162.0 215.89543 162.89543 215.0 164.0 215.0L191.0 215.0C192.10457 215.0 193.0 215.89543 193.0 217.0Z" fill-rule="nonzero"/><path stroke="#000000" stroke-width="2.0" stroke-linecap="butt" stroke-opacity="0.0" clip-path="url(#id_0)" d="M347.0 380.0L316.0 380.0L316.0 101.0C316.0 99.89543 316.89542 99.0 318.0 99.0L345.0 99.0C346.10458 99.0 347.0 99.89543 347.0 101.0Z" fill-rule="nonzero"/><path fill="#3d85c6" clip-path="url(#id_0)" d="M347.0 380.0L316.0 380.0L316.0 101.0C316.0 99.89543 316.89542 99.0 318.0 99.0L345.0 99.0C346.10458 99.0 347.0 99.89543 347.0 101.0Z" fill-rule="nonzero"/><path stroke="#000000" stroke-width="2.0" stroke-linecap="butt" stroke-opacity="0.0" clip-path="url(#id_0)" d="M226.0 380.0L195.0 380.0L195.0 313.0C195.0 311.89542 195.89543 311.0 197.0 311.0L224.0 311.0C225.10457 311.0 226.0 311.89542 226.0 313.0Z" fill-rule="nonzero"/><path fill="#bf9000" clip-path="url(#id_0)" d="M226.0 380.0L195.0 380.0L195.0 313.0C195.0 311.89542 195.89543 311.0 197.0 311.0L224.0 311.0C225.10457 311.0 226.0 311.89542 226.0 313.0Z" fill-rule="nonzero"/><path stroke="#000000" stroke-width="2.0" stroke-linecap="butt" stroke-opacity="0.0" clip-path="url(#id_0)" d="M380.0 380.0L349.0 380.0L349.0 273.0C349.0 271.89542 349.89542 271.0 351.0 271.0L378.0 271.0C379.10458 271.0 380.0 271.89542 380.0 273.0Z" fill-rule="nonzero"/><path fill="#bf9000" clip-path="url(#id_0)" d="M380.0 380.0L349.0 380.0L349.0 273.0C349.0 271.89542 349.89542 271.0 351.0 271.0L378.0 271.0C379.10458 271.0 380.0 271.89542 380.0 273.0Z" fill-rule="nonzero"/><path stroke="#000000" stroke-width="2.0" stroke-linecap="butt" stroke-opacity="0.0" clip-path="url(#id_0)" d="M259.0 380.0L228.0 380.0L228.0 307.0C228.0 305.89542 228.89543 305.0 230.0 305.0L257.0 305.0C258.10458 305.0 259.0 305.89542 259.0 307.0Z" fill-rule="nonzero"/><path fill="#fbbc04" clip-path="url(#id_0)" d="M259.0 380.0L228.0 380.0L228.0 307.0C228.0 305.89542 228.89543 305.0 230.0 305.0L257.0 305.0C258.10458 305.0 259.0 305.89542 259.0 307.0Z" fill-rule="nonzero"/><path stroke="#000000" stroke-width="1.0" stroke-linecap="butt" d="M103.5 346.5L109.5 346.5" fill-rule="nonzero"/><path stroke="#000000" stroke-width="1.0" stroke-linecap="butt" d="M103.5 312.5L109.5 312.5" fill-rule="nonzero"/><path stroke="#000000" stroke-width="1.0" stroke-linecap="butt" d="M103.5 246.5L109.5 246.5" fill-rule="nonzero"/><path stroke="#000000" stroke-width="1.0" stroke-linecap="butt" d="M103.5 212.5L109.5 212.5" fill-rule="nonzero"/><path stroke="#000000" stroke-width="1.0" stroke-linecap="butt" d="M103.5 146.5L109.5 146.5" fill-rule="nonzero"/><path stroke="#000000" stroke-width="1.0" stroke-linecap="butt" d="M103.5 112.5L109.5 112.5" fill-rule="nonzero"/><path stroke="#000000" stroke-width="1.0" stroke-linecap="butt" d="M100.5 379.5L112.5 379.5" fill-rule="nonzero"/><path stroke="#000000" stroke-width="1.0" stroke-linecap="butt" d="M100.5 279.5L112.5 279.5" fill-rule="nonzero"/><path stroke="#000000" stroke-width="1.0" stroke-linecap="butt" d="M100.5 179.5L112.5 179.5" fill-rule="nonzero"/><path stroke="#000000" stroke-width="1.0" stroke-linecap="butt" d="M100.5 79.5L112.5 79.5" fill-rule="nonzero"/><path stroke="#ffffff" stroke-width="3.0" stroke-linejoin="round" stroke-linecap="round" d="M167.20312 194.545L165.75 194.545L165.75 184.90437L162.82812 185.9825L162.82812 184.67L166.96875 183.1075L167.20312 183.1075L167.20312 194.545ZM171.625 193.77937Q171.625 193.40437 171.84375 193.15437Q172.07812 192.90437 172.51562 192.90437Q172.96875 192.90437 173.1875 193.15437Q173.42188 193.40437 173.42188 193.77937Q173.42188 194.13875 173.1875 194.38875Q172.96875 194.63875 172.51562 194.63875Q172.07812 194.63875 171.84375 194.38875Q171.625 194.13875 171.625 193.77937ZM181.125 183.15437L181.125 184.38875L180.85938 184.38875Q179.17188 184.42 178.17188 185.38875Q177.17188 186.3575 177.01562 188.1075Q177.90625 187.07625 179.46875 187.07625Q180.95312 187.07625 181.82812 188.12312Q182.71875 189.17 182.71875 190.82625Q182.71875 192.59187 181.76562 193.65437Q180.8125 194.70125 179.20312 194.70125Q177.5625 194.70125 176.54688 193.45125Q175.53125 192.18562 175.53125 190.21687L175.53125 189.65437Q175.53125 186.51375 176.875 184.8575Q178.21875 183.20125 180.85938 183.15437L181.125 183.15437ZM179.21875 188.27937Q178.48438 188.27937 177.85938 188.7325Q177.23438 189.17 176.98438 189.84187L176.98438 190.37312Q176.98438 191.77937 177.60938 192.63875Q178.25 193.49812 179.20312 193.49812Q180.17188 193.49812 180.73438 192.77937Q181.29688 192.06062 181.29688 190.90437Q181.29688 189.7325 180.71875 189.01375Q180.15625 188.27937 179.21875 188.27937ZM185.10938 188.84187L185.6875 183.17L191.51562 183.17L191.51562 184.49812L186.92188 184.49812L186.57812 187.6075Q187.40625 187.1075 188.46875 187.1075Q190.03125 187.1075 190.9375 188.13875Q191.85938 189.17 191.85938 190.92Q191.85938 192.67 190.90625 193.68562Q189.95312 194.70125 188.25 194.70125Q186.75 194.70125 185.79688 193.87312Q184.84375 193.02937 184.70312 191.545L186.07812 191.545Q186.20312 192.52937 186.76562 193.02937Q187.32812 193.51375 188.25 193.51375Q189.26562 193.51375 189.82812 192.82625Q190.40625 192.13875 190.40625 190.93562Q190.40625 189.795 189.78125 189.1075Q189.17188 188.40437 188.14062 188.40437Q187.1875 188.40437 186.65625 188.82625L186.26562 189.13875L185.10938 188.84187Z" fill-rule="nonzero"/><path fill="#3d85c6" d="M167.20312 194.545L165.75 194.545L165.75 184.90437L162.82812 185.9825L162.82812 184.67L166.96875 183.1075L167.20312 183.1075L167.20312 194.545ZM171.625 193.77937Q171.625 193.40437 171.84375 193.15437Q172.07812 192.90437 172.51562 192.90437Q172.96875 192.90437 173.1875 193.15437Q173.42188 193.40437 173.42188 193.77937Q173.42188 194.13875 173.1875 194.38875Q172.96875 194.63875 172.51562 194.63875Q172.07812 194.63875 171.84375 194.38875Q171.625 194.13875 171.625 193.77937ZM181.125 183.15437L181.125 184.38875L180.85938 184.38875Q179.17188 184.42 178.17188 185.38875Q177.17188 186.3575 177.01562 188.1075Q177.90625 187.07625 179.46875 187.07625Q180.95312 187.07625 181.82812 188.12312Q182.71875 189.17 182.71875 190.82625Q182.71875 192.59187 181.76562 193.65437Q180.8125 194.70125 179.20312 194.70125Q177.5625 194.70125 176.54688 193.45125Q175.53125 192.18562 175.53125 190.21687L175.53125 189.65437Q175.53125 186.51375 176.875 184.8575Q178.21875 183.20125 180.85938 183.15437L181.125 183.15437ZM179.21875 188.27937Q178.48438 188.27937 177.85938 188.7325Q177.23438 189.17 176.98438 189.84187L176.98438 190.37312Q176.98438 191.77937 177.60938 192.63875Q178.25 193.49812 179.20312 193.49812Q180.17188 193.49812 180.73438 192.77937Q181.29688 192.06062 181.29688 190.90437Q181.29688 189.7325 180.71875 189.01375Q180.15625 188.27937 179.21875 188.27937ZM185.10938 188.84187L185.6875 183.17L191.51562 183.17L191.51562 184.49812L186.92188 184.49812L186.57812 187.6075Q187.40625 187.1075 188.46875 187.1075Q190.03125 187.1075 190.9375 188.13875Q191.85938 189.17 191.85938 190.92Q191.85938 192.67 190.90625 193.68562Q189.95312 194.70125 188.25 194.70125Q186.75 194.70125 185.79688 193.87312Q184.84375 193.02937 184.70312 191.545L186.07812 191.545Q186.20312 192.52937 186.76562 193.02937Q187.32812 193.51375 188.25 193.51375Q189.26562 193.51375 189.82812 192.82625Q190.40625 192.13875 190.40625 190.93562Q190.40625 189.795 189.78125 189.1075Q189.17188 188.40437 188.14062 188.40437Q187.1875 188.40437 186.65625 188.82625L186.26562 189.13875L185.10938 188.84187Z" fill-rule="nonzero"/><path stroke="#ffffff" stroke-width="3.0" stroke-linejoin="round" stroke-linecap="round" d="M323.90625 78.50633L316.45312 78.50633L316.45312 77.45946L320.39062 73.08446Q321.26562 72.10008 321.59375 71.47508Q321.92188 70.85008 321.92188 70.19383Q321.92188 69.30321 321.375 68.74071Q320.84375 68.16258 319.95312 68.16258Q318.875 68.16258 318.26562 68.77196Q317.67188 69.38133 317.67188 70.47508L316.23438 70.47508Q316.23438 68.91258 317.23438 67.94383Q318.25 66.97508 319.95312 66.97508Q321.53125 66.97508 322.45312 67.80321Q323.375 68.63133 323.375 70.02196Q323.375 71.69383 321.23438 74.02196L318.1875 77.31883L323.90625 77.31883L323.90625 78.50633ZM325.625 77.74071Q325.625 77.36571 325.84375 77.11571Q326.07812 76.86571 326.51562 76.86571Q326.96875 76.86571 327.1875 77.11571Q327.42188 77.36571 327.42188 77.74071Q327.42188 78.10008 327.1875 78.35008Q326.96875 78.60008 326.51562 78.60008Q326.07812 78.60008 325.84375 78.35008Q325.625 78.10008 325.625 77.74071ZM336.34375 70.10008Q336.34375 70.94383 335.89062 71.61571Q335.45312 72.27196 334.6875 72.64696Q335.57812 73.03758 336.09375 73.77196Q336.60938 74.50633 336.60938 75.42821Q336.60938 76.91258 335.60938 77.78758Q334.625 78.66258 333.0 78.66258Q331.35938 78.66258 330.35938 77.78758Q329.375 76.89696 329.375 75.42821Q329.375 74.50633 329.875 73.77196Q330.39062 73.02196 331.28125 72.64696Q330.51562 72.27196 330.07812 71.61571Q329.64062 70.94383 329.64062 70.10008Q329.64062 68.66258 330.5625 67.81883Q331.48438 66.97508 333.0 66.97508Q334.5 66.97508 335.42188 67.81883Q336.34375 68.66258 336.34375 70.10008ZM335.17188 75.39696Q335.17188 74.44383 334.5625 73.85008Q333.95312 73.24071 332.96875 73.24071Q332.0 73.24071 331.40625 73.83446Q330.82812 74.42821 330.82812 75.39696Q330.82812 76.36571 331.39062 76.92821Q331.96875 77.47508 333.0 77.47508Q334.01562 77.47508 334.59375 76.92821Q335.17188 76.36571 335.17188 75.39696ZM333.0 68.16258Q332.14062 68.16258 331.60938 68.69383Q331.09375 69.20946 331.09375 70.11571Q331.09375 70.99071 331.60938 71.52196Q332.125 72.05321 332.98438 72.05321Q333.85938 72.05321 334.375 71.52196Q334.90625 70.99071 334.90625 70.13133Q334.90625 69.25633 334.35938 68.70946Q333.82812 68.16258 333.0 68.16258ZM343.20312 78.50633L341.75 78.50633L341.75 68.86571L338.82812 69.94383L338.82812 68.63133L342.96875 67.06883L343.20312 67.06883L343.20312 78.50633Z" fill-rule="nonzero"/><path fill="#3d85c6" d="M323.90625 78.50633L316.45312 78.50633L316.45312 77.45946L320.39062 73.08446Q321.26562 72.10008 321.59375 71.47508Q321.92188 70.85008 321.92188 70.19383Q321.92188 69.30321 321.375 68.74071Q320.84375 68.16258 319.95312 68.16258Q318.875 68.16258 318.26562 68.77196Q317.67188 69.38133 317.67188 70.47508L316.23438 70.47508Q316.23438 68.91258 317.23438 67.94383Q318.25 66.97508 319.95312 66.97508Q321.53125 66.97508 322.45312 67.80321Q323.375 68.63133 323.375 70.02196Q323.375 71.69383 321.23438 74.02196L318.1875 77.31883L323.90625 77.31883L323.90625 78.50633ZM325.625 77.74071Q325.625 77.36571 325.84375 77.11571Q326.07812 76.86571 326.51562 76.86571Q326.96875 76.86571 327.1875 77.11571Q327.42188 77.36571 327.42188 77.74071Q327.42188 78.10008 327.1875 78.35008Q326.96875 78.60008 326.51562 78.60008Q326.07812 78.60008 325.84375 78.35008Q325.625 78.10008 325.625 77.74071ZM336.34375 70.10008Q336.34375 70.94383 335.89062 71.61571Q335.45312 72.27196 334.6875 72.64696Q335.57812 73.03758 336.09375 73.77196Q336.60938 74.50633 336.60938 75.42821Q336.60938 76.91258 335.60938 77.78758Q334.625 78.66258 333.0 78.66258Q331.35938 78.66258 330.35938 77.78758Q329.375 76.89696 329.375 75.42821Q329.375 74.50633 329.875 73.77196Q330.39062 73.02196 331.28125 72.64696Q330.51562 72.27196 330.07812 71.61571Q329.64062 70.94383 329.64062 70.10008Q329.64062 68.66258 330.5625 67.81883Q331.48438 66.97508 333.0 66.97508Q334.5 66.97508 335.42188 67.81883Q336.34375 68.66258 336.34375 70.10008ZM335.17188 75.39696Q335.17188 74.44383 334.5625 73.85008Q333.95312 73.24071 332.96875 73.24071Q332.0 73.24071 331.40625 73.83446Q330.82812 74.42821 330.82812 75.39696Q330.82812 76.36571 331.39062 76.92821Q331.96875 77.47508 333.0 77.47508Q334.01562 77.47508 334.59375 76.92821Q335.17188 76.36571 335.17188 75.39696ZM333.0 68.16258Q332.14062 68.16258 331.60938 68.69383Q331.09375 69.20946 331.09375 70.11571Q331.09375 70.99071 331.60938 71.52196Q332.125 72.05321 332.98438 72.05321Q333.85938 72.05321 334.375 71.52196Q334.90625 70.99071 334.90625 70.13133Q334.90625 69.25633 334.35938 68.70946Q333.82812 68.16258 333.0 68.16258ZM343.20312 78.50633L341.75 78.50633L341.75 68.86571L338.82812 69.94383L338.82812 68.63133L342.96875 67.06883L343.20312 67.06883L343.20312 78.50633Z" fill-rule="nonzero"/><path stroke="#ffffff" stroke-width="3.0" stroke-linejoin="round" stroke-linecap="round" d="M202.57812 285.71762Q202.57812 288.2645 201.70312 289.49887Q200.84375 290.73325 199.0 290.73325Q197.1875 290.73325 196.3125 289.53012Q195.4375 288.31137 195.40625 285.92075L195.40625 283.98325Q195.40625 281.48325 196.26562 280.2645Q197.14062 279.04575 198.98438 279.04575Q200.82812 279.04575 201.6875 280.21762Q202.5625 281.3895 202.57812 283.84262L202.57812 285.71762ZM201.14062 283.74887Q201.14062 281.90512 200.625 281.077Q200.10938 280.23325 198.98438 280.23325Q197.875 280.23325 197.35938 281.077Q196.85938 281.90512 196.84375 283.6395L196.84375 285.952Q196.84375 287.79575 197.375 288.67075Q197.92188 289.54575 199.0 289.54575Q200.07812 289.54575 200.59375 288.71762Q201.10938 287.8895 201.14062 286.10825L201.14062 283.74887ZM204.625 289.81137Q204.625 289.43637 204.84375 289.18637Q205.07812 288.93637 205.51562 288.93637Q205.96875 288.93637 206.1875 289.18637Q206.42188 289.43637 206.42188 289.81137Q206.42188 290.17075 206.1875 290.42075Q205.96875 290.67075 205.51562 290.67075Q205.07812 290.67075 204.84375 290.42075Q204.625 290.17075 204.625 289.81137ZM214.125 279.18637L214.125 280.42075L213.85938 280.42075Q212.17188 280.452 211.17188 281.42075Q210.17188 282.3895 210.01562 284.1395Q210.90625 283.10825 212.46875 283.10825Q213.95312 283.10825 214.82812 284.15512Q215.71875 285.202 215.71875 286.85825Q215.71875 288.62387 214.76562 289.68637Q213.8125 290.73325 212.20312 290.73325Q210.5625 290.73325 209.54688 289.48325Q208.53125 288.21762 208.53125 286.24887L208.53125 285.68637Q208.53125 282.54575 209.875 280.8895Q211.21875 279.23325 213.85938 279.18637L214.125 279.18637ZM212.21875 284.31137Q211.48438 284.31137 210.85938 284.7645Q210.23438 285.202 209.98438 285.87387L209.98438 286.40512Q209.98438 287.81137 210.60938 288.67075Q211.25 289.53012 212.20312 289.53012Q213.17188 289.53012 213.73438 288.81137Q214.29688 288.09262 214.29688 286.93637Q214.29688 285.7645 213.71875 285.04575Q213.15625 284.31137 212.21875 284.31137ZM222.98438 285.577Q222.53125 286.10825 221.90625 286.43637Q221.28125 286.7645 220.53125 286.7645Q219.54688 286.7645 218.8125 286.28012Q218.07812 285.79575 217.67188 284.92075Q217.28125 284.04575 217.28125 282.98325Q217.28125 281.84262 217.71875 280.93637Q218.15625 280.0145 218.95312 279.53012Q219.75 279.04575 220.8125 279.04575Q222.5 279.04575 223.46875 280.31137Q224.4375 281.56137 224.4375 283.74887L224.4375 284.17075Q224.4375 287.48325 223.125 289.0145Q221.8125 290.54575 219.17188 290.59262L218.89062 290.59262L218.89062 289.35825L219.1875 289.35825Q220.98438 289.327 221.9375 288.43637Q222.90625 287.53012 222.98438 285.577ZM220.76562 285.577Q221.48438 285.577 222.09375 285.1395Q222.71875 284.68637 223.0 284.03012L223.0 283.452Q223.0 282.03012 222.375 281.1395Q221.76562 280.24887 220.8125 280.24887Q219.85938 280.24887 219.28125 280.98325Q218.70312 281.702 218.70312 282.90512Q218.70312 284.06137 219.26562 284.827Q219.82812 285.577 220.76562 285.577Z" fill-rule="nonzero"/><path fill="#bf9000" d="M202.57812 285.71762Q202.57812 288.2645 201.70312 289.49887Q200.84375 290.73325 199.0 290.73325Q197.1875 290.73325 196.3125 289.53012Q195.4375 288.31137 195.40625 285.92075L195.40625 283.98325Q195.40625 281.48325 196.26562 280.2645Q197.14062 279.04575 198.98438 279.04575Q200.82812 279.04575 201.6875 280.21762Q202.5625 281.3895 202.57812 283.84262L202.57812 285.71762ZM201.14062 283.74887Q201.14062 281.90512 200.625 281.077Q200.10938 280.23325 198.98438 280.23325Q197.875 280.23325 197.35938 281.077Q196.85938 281.90512 196.84375 283.6395L196.84375 285.952Q196.84375 287.79575 197.375 288.67075Q197.92188 289.54575 199.0 289.54575Q200.07812 289.54575 200.59375 288.71762Q201.10938 287.8895 201.14062 286.10825L201.14062 283.74887ZM204.625 289.81137Q204.625 289.43637 204.84375 289.18637Q205.07812 288.93637 205.51562 288.93637Q205.96875 288.93637 206.1875 289.18637Q206.42188 289.43637 206.42188 289.81137Q206.42188 290.17075 206.1875 290.42075Q205.96875 290.67075 205.51562 290.67075Q205.07812 290.67075 204.84375 290.42075Q204.625 290.17075 204.625 289.81137ZM214.125 279.18637L214.125 280.42075L213.85938 280.42075Q212.17188 280.452 211.17188 281.42075Q210.17188 282.3895 210.01562 284.1395Q210.90625 283.10825 212.46875 283.10825Q213.95312 283.10825 214.82812 284.15512Q215.71875 285.202 215.71875 286.85825Q215.71875 288.62387 214.76562 289.68637Q213.8125 290.73325 212.20312 290.73325Q210.5625 290.73325 209.54688 289.48325Q208.53125 288.21762 208.53125 286.24887L208.53125 285.68637Q208.53125 282.54575 209.875 280.8895Q211.21875 279.23325 213.85938 279.18637L214.125 279.18637ZM212.21875 284.31137Q211.48438 284.31137 210.85938 284.7645Q210.23438 285.202 209.98438 285.87387L209.98438 286.40512Q209.98438 287.81137 210.60938 288.67075Q211.25 289.53012 212.20312 289.53012Q213.17188 289.53012 213.73438 288.81137Q214.29688 288.09262 214.29688 286.93637Q214.29688 285.7645 213.71875 285.04575Q213.15625 284.31137 212.21875 284.31137ZM222.98438 285.577Q222.53125 286.10825 221.90625 286.43637Q221.28125 286.7645 220.53125 286.7645Q219.54688 286.7645 218.8125 286.28012Q218.07812 285.79575 217.67188 284.92075Q217.28125 284.04575 217.28125 282.98325Q217.28125 281.84262 217.71875 280.93637Q218.15625 280.0145 218.95312 279.53012Q219.75 279.04575 220.8125 279.04575Q222.5 279.04575 223.46875 280.31137Q224.4375 281.56137 224.4375 283.74887L224.4375 284.17075Q224.4375 287.48325 223.125 289.0145Q221.8125 290.54575 219.17188 290.59262L218.89062 290.59262L218.89062 289.35825L219.1875 289.35825Q220.98438 289.327 221.9375 288.43637Q222.90625 287.53012 222.98438 285.577ZM220.76562 285.577Q221.48438 285.577 222.09375 285.1395Q222.71875 284.68637 223.0 284.03012L223.0 283.452Q223.0 282.03012 222.375 281.1395Q221.76562 280.24887 220.8125 280.24887Q219.85938 280.24887 219.28125 280.98325Q218.70312 281.702 218.70312 282.90512Q218.70312 284.06137 219.26562 284.827Q219.82812 285.577 220.76562 285.577Z" fill-rule="nonzero"/><path stroke="#ffffff" stroke-width="3.0" stroke-linejoin="round" stroke-linecap="round" d="M354.20312 250.56366L352.75 250.56366L352.75 240.92303L349.82812 242.00116L349.82812 240.68866L353.96875 239.12616L354.20312 239.12616L354.20312 250.56366ZM358.625 249.79803Q358.625 249.42303 358.84375 249.17303Q359.07812 248.92303 359.51562 248.92303Q359.96875 248.92303 360.1875 249.17303Q360.42188 249.42303 360.42188 249.79803Q360.42188 250.15741 360.1875 250.40741Q359.96875 250.65741 359.51562 250.65741Q359.07812 250.65741 358.84375 250.40741Q358.625 250.15741 358.625 249.79803ZM369.57812 245.70428Q369.57812 248.25116 368.70312 249.48553Q367.84375 250.71991 366.0 250.71991Q364.1875 250.71991 363.3125 249.51678Q362.4375 248.29803 362.40625 245.90741L362.40625 243.96991Q362.40625 241.46991 363.26562 240.25116Q364.14062 239.03241 365.98438 239.03241Q367.82812 239.03241 368.6875 240.20428Q369.5625 241.37616 369.57812 243.82928L369.57812 245.70428ZM368.14062 243.73553Q368.14062 241.89178 367.625 241.06366Q367.10938 240.21991 365.98438 240.21991Q364.875 240.21991 364.35938 241.06366Q363.85938 241.89178 363.84375 243.62616L363.84375 245.93866Q363.84375 247.78241 364.375 248.65741Q364.92188 249.53241 366.0 249.53241Q367.07812 249.53241 367.59375 248.70428Q368.10938 247.87616 368.14062 246.09491L368.14062 243.73553ZM376.98438 245.56366Q376.53125 246.09491 375.90625 246.42303Q375.28125 246.75116 374.53125 246.75116Q373.54688 246.75116 372.8125 246.26678Q372.07812 245.78241 371.67188 244.90741Q371.28125 244.03241 371.28125 242.96991Q371.28125 241.82928 371.71875 240.92303Q372.15625 240.00116 372.95312 239.51678Q373.75 239.03241 374.8125 239.03241Q376.5 239.03241 377.46875 240.29803Q378.4375 241.54803 378.4375 243.73553L378.4375 244.15741Q378.4375 247.46991 377.125 249.00116Q375.8125 250.53241 373.17188 250.57928L372.89062 250.57928L372.89062 249.34491L373.1875 249.34491Q374.98438 249.31366 375.9375 248.42303Q376.90625 247.51678 376.98438 245.56366ZM374.76562 245.56366Q375.48438 245.56366 376.09375 245.12616Q376.71875 244.67303 377.0 244.01678L377.0 243.43866Q377.0 242.01678 376.375 241.12616Q375.76562 240.23553 374.8125 240.23553Q373.85938 240.23553 373.28125 240.96991Q372.70312 241.68866 372.70312 242.89178Q372.70312 244.04803 373.26562 244.81366Q373.82812 245.56366 374.76562 245.56366Z" fill-rule="nonzero"/><path fill="#bf9000" d="M354.20312 250.56366L352.75 250.56366L352.75 240.92303L349.82812 242.00116L349.82812 240.68866L353.96875 239.12616L354.20312 239.12616L354.20312 250.56366ZM358.625 249.79803Q358.625 249.42303 358.84375 249.17303Q359.07812 248.92303 359.51562 248.92303Q359.96875 248.92303 360.1875 249.17303Q360.42188 249.42303 360.42188 249.79803Q360.42188 250.15741 360.1875 250.40741Q359.96875 250.65741 359.51562 250.65741Q359.07812 250.65741 358.84375 250.40741Q358.625 250.15741 358.625 249.79803ZM369.57812 245.70428Q369.57812 248.25116 368.70312 249.48553Q367.84375 250.71991 366.0 250.71991Q364.1875 250.71991 363.3125 249.51678Q362.4375 248.29803 362.40625 245.90741L362.40625 243.96991Q362.40625 241.46991 363.26562 240.25116Q364.14062 239.03241 365.98438 239.03241Q367.82812 239.03241 368.6875 240.20428Q369.5625 241.37616 369.57812 243.82928L369.57812 245.70428ZM368.14062 243.73553Q368.14062 241.89178 367.625 241.06366Q367.10938 240.21991 365.98438 240.21991Q364.875 240.21991 364.35938 241.06366Q363.85938 241.89178 363.84375 243.62616L363.84375 245.93866Q363.84375 247.78241 364.375 248.65741Q364.92188 249.53241 366.0 249.53241Q367.07812 249.53241 367.59375 248.70428Q368.10938 247.87616 368.14062 246.09491L368.14062 243.73553ZM376.98438 245.56366Q376.53125 246.09491 375.90625 246.42303Q375.28125 246.75116 374.53125 246.75116Q373.54688 246.75116 372.8125 246.26678Q372.07812 245.78241 371.67188 244.90741Q371.28125 244.03241 371.28125 242.96991Q371.28125 241.82928 371.71875 240.92303Q372.15625 240.00116 372.95312 239.51678Q373.75 239.03241 374.8125 239.03241Q376.5 239.03241 377.46875 240.29803Q378.4375 241.54803 378.4375 243.73553L378.4375 244.15741Q378.4375 247.46991 377.125 249.00116Q375.8125 250.53241 373.17188 250.57928L372.89062 250.57928L372.89062 249.34491L373.1875 249.34491Q374.98438 249.31366 375.9375 248.42303Q376.90625 247.51678 376.98438 245.56366ZM374.76562 245.56366Q375.48438 245.56366 376.09375 245.12616Q376.71875 244.67303 377.0 244.01678L377.0 243.43866Q377.0 242.01678 376.375 241.12616Q375.76562 240.23553 374.8125 240.23553Q373.85938 240.23553 373.28125 240.96991Q372.70312 241.68866 372.70312 242.89178Q372.70312 244.04803 373.26562 244.81366Q373.82812 245.56366 374.76562 245.56366Z" fill-rule="nonzero"/><path stroke="#ffffff" stroke-width="3.0" stroke-linejoin="round" stroke-linecap="round" d="M235.57812 279.99246Q235.57812 282.53934 234.70312 283.7737Q233.84375 285.0081 232.0 285.0081Q230.1875 285.0081 229.3125 283.80496Q228.4375 282.5862 228.40625 280.1956L228.40625 278.2581Q228.40625 275.7581 229.26562 274.53934Q230.14062 273.3206 231.98438 273.3206Q233.82812 273.3206 234.6875 274.49246Q235.5625 275.66434 235.57812 278.11746L235.57812 279.99246ZM234.14062 278.0237Q234.14062 276.17996 233.625 275.35184Q233.10938 274.5081 231.98438 274.5081Q230.875 274.5081 230.35938 275.35184Q229.85938 276.17996 229.84375 277.91434L229.84375 280.22684Q229.84375 282.0706 230.375 282.9456Q230.92188 283.8206 232.0 283.8206Q233.07812 283.8206 233.59375 282.99246Q234.10938 282.16434 234.14062 280.3831L234.14062 278.0237ZM237.625 284.0862Q237.625 283.7112 237.84375 283.4612Q238.07812 283.2112 238.51562 283.2112Q238.96875 283.2112 239.1875 283.4612Q239.42188 283.7112 239.42188 284.0862Q239.42188 284.4456 239.1875 284.6956Q238.96875 284.9456 238.51562 284.9456Q238.07812 284.9456 237.84375 284.6956Q237.625 284.4456 237.625 284.0862ZM248.79688 274.28934L244.07812 284.85184L242.5625 284.85184L247.26562 274.66434L241.10938 274.66434L241.10938 273.47684L248.79688 273.47684L248.79688 274.28934ZM251.10938 279.1487L251.6875 273.47684L257.51562 273.47684L257.51562 274.80496L252.92188 274.80496L252.57812 277.91434Q253.40625 277.41434 254.46875 277.41434Q256.03125 277.41434 256.9375 278.4456Q257.85938 279.47684 257.85938 281.22684Q257.85938 282.97684 256.90625 283.99246Q255.95312 285.0081 254.25 285.0081Q252.75 285.0081 251.79688 284.17996Q250.84375 283.3362 250.70312 281.85184L252.07812 281.85184Q252.20312 282.8362 252.76562 283.3362Q253.32812 283.8206 254.25 283.8206Q255.26562 283.8206 255.82812 283.1331Q256.40625 282.4456 256.40625 281.24246Q256.40625 280.10184 255.78125 279.41434Q255.17188 278.7112 254.14062 278.7112Q253.1875 278.7112 252.65625 279.1331L252.26562 279.4456L251.10938 279.1487Z" fill-rule="nonzero"/><path fill="#fbbc04" d="M235.57812 279.99246Q235.57812 282.53934 234.70312 283.7737Q233.84375 285.0081 232.0 285.0081Q230.1875 285.0081 229.3125 283.80496Q228.4375 282.5862 228.40625 280.1956L228.40625 278.2581Q228.40625 275.7581 229.26562 274.53934Q230.14062 273.3206 231.98438 273.3206Q233.82812 273.3206 234.6875 274.49246Q235.5625 275.66434 235.57812 278.11746L235.57812 279.99246ZM234.14062 278.0237Q234.14062 276.17996 233.625 275.35184Q233.10938 274.5081 231.98438 274.5081Q230.875 274.5081 230.35938 275.35184Q229.85938 276.17996 229.84375 277.91434L229.84375 280.22684Q229.84375 282.0706 230.375 282.9456Q230.92188 283.8206 232.0 283.8206Q233.07812 283.8206 233.59375 282.99246Q234.10938 282.16434 234.14062 280.3831L234.14062 278.0237ZM237.625 284.0862Q237.625 283.7112 237.84375 283.4612Q238.07812 283.2112 238.51562 283.2112Q238.96875 283.2112 239.1875 283.4612Q239.42188 283.7112 239.42188 284.0862Q239.42188 284.4456 239.1875 284.6956Q238.96875 284.9456 238.51562 284.9456Q238.07812 284.9456 237.84375 284.6956Q237.625 284.4456 237.625 284.0862ZM248.79688 274.28934L244.07812 284.85184L242.5625 284.85184L247.26562 274.66434L241.10938 274.66434L241.10938 273.47684L248.79688 273.47684L248.79688 274.28934ZM251.10938 279.1487L251.6875 273.47684L257.51562 273.47684L257.51562 274.80496L252.92188 274.80496L252.57812 277.91434Q253.40625 277.41434 254.46875 277.41434Q256.03125 277.41434 256.9375 278.4456Q257.85938 279.47684 257.85938 281.22684Q257.85938 282.97684 256.90625 283.99246Q255.95312 285.0081 254.25 285.0081Q252.75 285.0081 251.79688 284.17996Q250.84375 283.3362 250.70312 281.85184L252.07812 281.85184Q252.20312 282.8362 252.76562 283.3362Q253.32812 283.8206 254.25 283.8206Q255.26562 283.8206 255.82812 283.1331Q256.40625 282.4456 256.40625 281.24246Q256.40625 280.10184 255.78125 279.41434Q255.17188 278.7112 254.14062 278.7112Q253.1875 278.7112 252.65625 279.1331L252.26562 279.4456L251.10938 279.1487Z" fill-rule="nonzero"/><path fill="#000000" d="M38.552895 322.59637L24.240396 322.59637L24.240396 312.237L25.927896 312.237L25.927896 320.69012L30.302896 320.69012L30.302896 312.78387L31.990396 312.78387L31.990396 320.69012L36.865395 320.69012L36.865395 311.90887L38.552895 311.90887L38.552895 322.59637ZM38.552895 311.03387L33.16227 307.237L28.177896 310.737L28.177896 308.5495L30.615396 306.95575Q31.302896 306.50262 31.771646 306.237Q31.131021 305.7995 30.631021 305.44012L28.177896 303.69012L28.177896 301.59637L33.06852 305.1745L38.552895 301.31512L38.552895 303.47137L35.334145 305.612L34.459145 306.1745L38.552895 308.89325L38.552895 311.03387ZM35.209145 292.75262L35.44352 290.94012Q37.021645 291.362 37.91227 292.53387Q38.78727 293.69012 38.78727 295.50262Q38.78727 297.76825 37.396645 299.112Q35.990395 300.44012 33.459145 300.44012Q30.834146 300.44012 29.396646 299.09637Q27.943521 297.75262 27.943521 295.59637Q27.943521 293.51825 29.365396 292.20575Q30.771646 290.87762 33.34977 290.87762Q33.50602 290.87762 33.81852 290.89325L33.81852 298.62762Q35.521645 298.53387 36.427895 297.65887Q37.334145 296.78387 37.334145 295.487Q37.334145 294.51825 36.834145 293.84637Q36.31852 293.15887 35.209145 292.75262ZM32.365395 298.53387L32.365395 292.737Q31.068521 292.84637 30.412271 293.39325Q29.396646 294.237 29.396646 295.58075Q29.396646 296.78387 30.209146 297.612Q31.006021 298.44012 32.365395 298.53387ZM34.75602 282.08075L34.97477 280.362Q36.771645 280.64325 37.78727 281.81512Q38.78727 282.97137 38.78727 284.6745Q38.78727 286.7995 37.396645 288.09637Q36.00602 289.39325 33.41227 289.39325Q31.724771 289.39325 30.474771 288.84637Q29.209146 288.28387 28.584146 287.14325Q27.943521 286.00262 27.943521 284.65887Q27.943521 282.97137 28.802896 281.90887Q29.662271 280.83075 31.224771 280.51825L31.490396 282.237Q30.443521 282.47137 29.927896 283.09637Q29.396646 283.72137 29.396646 284.59637Q29.396646 285.9245 30.349771 286.75262Q31.302896 287.58075 33.34977 287.58075Q35.44352 287.58075 36.396645 286.78387Q37.334145 285.987 37.334145 284.69012Q37.334145 283.65887 36.709145 282.97137Q36.06852 282.26825 34.75602 282.08075ZM38.552895 272.06512L37.021645 272.06512Q38.78727 273.26825 38.78727 275.34637Q38.78727 276.26825 38.44352 277.06512Q38.084145 277.862 37.552895 278.25262Q37.021645 278.62762 36.240395 278.78387Q35.72477 278.89325 34.59977 278.89325L28.177896 278.89325L28.177896 277.14325L33.927895 277.14325Q35.302895 277.14325 35.78727 277.03387Q36.47477 276.862 36.88102 276.33075Q37.271645 275.78387 37.271645 275.00262Q37.271645 274.20575 36.865395 273.51825Q36.459145 272.81512 35.771645 272.53387Q35.06852 272.237 33.740395 272.237L28.177896 272.237L28.177896 270.487L38.552895 270.487L38.552895 272.06512ZM36.97477 264.01825L38.53727 263.76825Q38.69352 264.50262 38.69352 265.09637Q38.69352 266.0495 38.396645 266.58075Q38.084145 267.09637 37.59977 267.31512Q37.09977 267.53387 35.521645 267.53387L29.552896 267.53387L29.552896 268.81512L28.177896 268.81512L28.177896 267.53387L25.615396 267.53387L24.552896 265.78387L28.177896 265.78387L28.177896 264.01825L29.552896 264.01825L29.552896 265.78387L35.615395 265.78387Q36.365395 265.78387 36.584145 265.69012Q36.78727 265.59637 36.927895 265.39325Q37.052895 265.1745 37.052895 264.78387Q37.052895 264.50262 36.97477 264.01825ZM26.256021 261.84637L24.240396 261.84637L24.240396 260.08075L26.256021 260.08075L26.256021 261.84637ZM38.552895 261.84637L28.177896 261.84637L28.177896 260.08075L38.552895 260.08075L38.552895 261.84637ZM33.365395 258.50262Q30.490396 258.50262 29.099771 256.90887Q27.943521 255.56512 27.943521 253.64325Q27.943521 251.50262 29.349771 250.15887Q30.756021 248.7995 33.22477 248.7995Q35.22477 248.7995 36.38102 249.39325Q37.521645 249.987 38.16227 251.14325Q38.78727 252.28387 38.78727 253.64325Q38.78727 255.83075 37.396645 257.1745Q35.990395 258.50262 33.365395 258.50262ZM33.365395 256.70575Q35.365395 256.70575 36.34977 255.84637Q37.334145 254.97137 37.334145 253.64325Q37.334145 252.33075 36.34977 251.47137Q35.34977 250.59637 33.302895 250.59637Q31.381021 250.59637 30.396646 251.47137Q29.396646 252.34637 29.396646 253.64325Q29.396646 254.97137 30.396646 255.84637Q31.381021 256.70575 33.365395 256.70575ZM38.552895 246.862L28.177896 246.862L28.177896 245.26825L29.662271 245.26825Q27.943521 244.12762 27.943521 241.97137Q27.943521 241.03387 28.287271 240.25262Q28.615396 239.45575 29.162271 239.06512Q29.709146 238.6745 30.459146 238.51825Q30.959146 238.4245 32.177895 238.4245L38.552895 238.4245L38.552895 240.19012L32.240395 240.19012Q31.162271 240.19012 30.631021 240.39325Q30.099771 240.59637 29.787271 241.12762Q29.474771 241.64325 29.474771 242.34637Q29.474771 243.47137 30.193521 244.28387Q30.896646 245.09637 32.88102 245.09637L38.552895 245.09637L38.552895 246.862ZM36.97477 226.01825L38.53727 225.76825Q38.69352 226.50262 38.69352 227.09637Q38.69352 228.0495 38.396645 228.58075Q38.084145 229.09637 37.59977 229.31512Q37.09977 229.53387 35.521645 229.53387L29.552896 229.53387L29.552896 230.81512L28.177896 230.81512L28.177896 229.53387L25.615396 229.53387L24.552896 227.78387L28.177896 227.78387L28.177896 226.01825L29.552896 226.01825L29.552896 227.78387L35.615395 227.78387Q36.365395 227.78387 36.584145 227.69012Q36.78727 227.59637 36.927895 227.39325Q37.052895 227.1745 37.052895 226.78387Q37.052895 226.50262 36.97477 226.01825ZM26.256021 223.84637L24.240396 223.84637L24.240396 222.08075L26.256021 222.08075L26.256021 223.84637ZM38.552895 223.84637L28.177896 223.84637L28.177896 222.08075L38.552895 222.08075L38.552895 223.84637ZM38.552895 219.862L28.177896 219.862L28.177896 218.28387L29.631021 218.28387Q28.881021 217.7995 28.412271 216.987Q27.943521 216.1745 27.943521 215.14325Q27.943521 213.987 28.427896 213.25262Q28.896646 212.51825 29.756021 212.20575Q27.943521 210.97137 27.943521 209.00262Q27.943521 207.45575 28.802896 206.62762Q29.662271 205.7995 31.427896 205.7995L38.552895 205.7995L38.552895 207.5495L32.021645 207.5495Q30.959146 207.5495 30.506021 207.72137Q30.037271 207.89325 29.756021 208.34637Q29.474771 208.78387 29.474771 209.39325Q29.474771 210.487 30.209146 211.22137Q30.927896 211.94012 32.521645 211.94012L38.552895 211.94012L38.552895 213.69012L31.818521 213.69012Q30.646646 213.69012 30.068521 214.12762Q29.474771 214.5495 29.474771 215.53387Q29.474771 216.26825 29.865396 216.90887Q30.256021 217.53387 31.006021 217.81512Q31.756021 218.09637 33.177895 218.09637L38.552895 218.09637L38.552895 219.862ZM35.209145 195.75262L35.44352 193.94012Q37.021645 194.362 37.91227 195.53387Q38.78727 196.69012 38.78727 198.50262Q38.78727 200.76825 37.396645 202.112Q35.990395 203.44012 33.459145 203.44012Q30.834146 203.44012 29.396646 202.09637Q27.943521 200.75262 27.943521 198.59637Q27.943521 196.51825 29.365396 195.20575Q30.771646 193.87762 33.34977 193.87762Q33.50602 193.87762 33.81852 193.89325L33.81852 201.62762Q35.521645 201.53387 36.427895 200.65887Q37.334145 199.78387 37.334145 198.487Q37.334145 197.51825 36.834145 196.84637Q36.31852 196.15887 35.209145 195.75262ZM32.365395 201.53387L32.365395 195.737Q31.068521 195.84637 30.412271 196.39325Q29.396646 197.237 29.396646 198.58075Q29.396646 199.78387 30.209146 200.612Q31.006021 201.44012 32.365395 201.53387ZM42.75602 182.50262Q40.927895 183.95575 38.47477 184.95575Q36.00602 185.95575 33.365395 185.95575Q31.037271 185.95575 28.912271 185.20575Q26.443521 184.33075 23.990396 182.50262L23.990396 181.237Q26.021646 182.4245 26.896646 182.7995Q28.240396 183.39325 29.709146 183.737Q31.537271 184.15887 33.38102 184.15887Q38.06852 184.15887 42.75602 181.237L42.75602 182.50262ZM35.459145 179.56512L35.177895 177.81512Q36.22477 177.6745 36.78727 177.00262Q37.334145 176.33075 37.334145 175.12762Q37.334145 173.9245 36.84977 173.34637Q36.34977 172.75262 35.69352 172.75262Q35.09977 172.75262 34.75602 173.26825Q34.521645 173.62762 34.16227 175.06512Q33.66227 177.00262 33.31852 177.75262Q32.959145 178.487 32.334145 178.87762Q31.693521 179.26825 30.927896 179.26825Q30.240396 179.26825 29.646646 178.95575Q29.052896 178.62762 28.662271 178.08075Q28.365396 177.6745 28.162271 176.97137Q27.943521 176.25262 27.943521 175.44012Q27.943521 174.22137 28.302896 173.2995Q28.646646 172.37762 29.256021 171.94012Q29.849771 171.50262 30.849771 171.33075L31.084146 173.0495Q30.287271 173.1745 29.849771 173.737Q29.396646 174.2995 29.396646 175.31512Q29.396646 176.53387 29.802896 177.0495Q30.193521 177.56512 30.724771 177.56512Q31.068521 177.56512 31.349771 177.34637Q31.631021 177.14325 31.818521 176.6745Q31.912271 176.40887 32.25602 175.12762Q32.75602 173.25262 33.084145 172.51825Q33.396645 171.78387 34.00602 171.362Q34.59977 170.94012 35.50602 170.94012Q36.38102 170.94012 37.16227 171.45575Q37.94352 171.97137 38.365395 172.94012Q38.78727 173.90887 38.78727 175.12762Q38.78727 177.14325 37.94352 178.20575Q37.09977 179.26825 35.459145 179.56512ZM42.75602 167.70575L42.75602 168.95575Q38.06852 166.0495 33.38102 166.0495Q31.537271 166.0495 29.740396 166.45575Q28.271646 166.7995 26.927896 167.39325Q26.037271 167.76825 23.990396 168.95575L23.990396 167.70575Q26.443521 165.862 28.912271 164.987Q31.037271 164.237 33.365395 164.237Q36.00602 164.237 38.47477 165.25262Q40.927895 166.25262 42.75602 167.70575Z" fill-rule="nonzero"/><path fill="#000000" d="M78.43125 380.24063Q78.43125 382.7875 77.55625 384.02188Q76.69688 385.25626 74.85313 385.25626Q73.04063 385.25626 72.16563 384.05313Q71.29063 382.83438 71.25938 380.44376L71.25938 378.50626Q71.25938 376.00626 72.11875 374.7875Q72.99375 373.56876 74.8375 373.56876Q76.68125 373.56876 77.54063 374.74063Q78.41563 375.9125 78.43125 378.36563L78.43125 380.24063ZM76.99375 378.27188Q76.99375 376.42813 76.47813 375.6Q75.9625 374.75626 74.8375 374.75626Q73.72813 374.75626 73.2125 375.6Q72.7125 376.42813 72.69688 378.1625L72.69688 380.475Q72.69688 382.31876 73.22813 383.19376Q73.775 384.06876 74.85313 384.06876Q75.93125 384.06876 76.44688 383.24063Q76.9625 382.4125 76.99375 380.63126L76.99375 378.27188ZM80.47813 384.33438Q80.47813 383.95938 80.69688 383.70938Q80.93125 383.45938 81.36875 383.45938Q81.82188 383.45938 82.04063 383.70938Q82.275 383.95938 82.275 384.33438Q82.275 384.69376 82.04063 384.94376Q81.82188 385.19376 81.36875 385.19376Q80.93125 385.19376 80.69688 384.94376Q80.47813 384.69376 80.47813 384.33438ZM91.43125 380.24063Q91.43125 382.7875 90.55625 384.02188Q89.69688 385.25626 87.85313 385.25626Q86.04063 385.25626 85.16563 384.05313Q84.29063 382.83438 84.25938 380.44376L84.25938 378.50626Q84.25938 376.00626 85.11875 374.7875Q85.99375 373.56876 87.8375 373.56876Q89.68125 373.56876 90.54063 374.74063Q91.41563 375.9125 91.43125 378.36563L91.43125 380.24063ZM89.99375 378.27188Q89.99375 376.42813 89.47813 375.6Q88.9625 374.75626 87.8375 374.75626Q86.72813 374.75626 86.2125 375.6Q85.7125 376.42813 85.69688 378.1625L85.69688 380.475Q85.69688 382.31876 86.22813 383.19376Q86.775 384.06876 87.85313 384.06876Q88.93125 384.06876 89.44688 383.24063Q89.9625 382.4125 89.99375 380.63126L89.99375 378.27188Z" fill-rule="nonzero"/><path fill="#000000" d="M76.05625 285.06668L74.60313 285.06668L74.60313 275.42606L71.68125 276.50418L71.68125 275.19168L75.82188 273.62918L76.05625 273.62918L76.05625 285.06668ZM80.47813 284.30106Q80.47813 283.92606 80.69688 283.67606Q80.93125 283.42606 81.36875 283.42606Q81.82188 283.42606 82.04063 283.67606Q82.275 283.92606 82.275 284.30106Q82.275 284.66043 82.04063 284.91043Q81.82188 285.16043 81.36875 285.16043Q80.93125 285.16043 80.69688 284.91043Q80.47813 284.66043 80.47813 284.30106ZM91.43125 280.2073Q91.43125 282.75418 90.55625 283.98856Q89.69688 285.22293 87.85313 285.22293Q86.04063 285.22293 85.16563 284.0198Q84.29063 282.80106 84.25938 280.41043L84.25938 278.47293Q84.25938 275.97293 85.11875 274.75418Q85.99375 273.53543 87.8375 273.53543Q89.68125 273.53543 90.54063 274.7073Q91.41563 275.87918 91.43125 278.3323L91.43125 280.2073ZM89.99375 278.23856Q89.99375 276.3948 89.47813 275.56668Q88.9625 274.72293 87.8375 274.72293Q86.72813 274.72293 86.2125 275.56668Q85.7125 276.3948 85.69688 278.12918L85.69688 280.44168Q85.69688 282.28543 86.22813 283.16043Q86.775 284.03543 87.85313 284.03543Q88.93125 284.03543 89.44688 283.2073Q89.9625 282.37918 89.99375 280.59793L89.99375 278.23856Z" fill-rule="nonzero"/><path fill="#000000" d="M78.75938 185.03334L71.30625 185.03334L71.30625 183.98647L75.24375 179.61147Q76.11875 178.62709 76.44688 178.00209Q76.775 177.37709 76.775 176.72084Q76.775 175.83022 76.22813 175.26772Q75.69688 174.68959 74.80625 174.68959Q73.72813 174.68959 73.11875 175.29897Q72.525 175.90834 72.525 177.00209L71.0875 177.00209Q71.0875 175.43959 72.0875 174.47084Q73.10313 173.50209 74.80625 173.50209Q76.38438 173.50209 77.30625 174.33022Q78.22813 175.15834 78.22813 176.54897Q78.22813 178.22084 76.0875 180.54897L73.04063 183.84584L78.75938 183.84584L78.75938 185.03334ZM80.47813 184.26772Q80.47813 183.89272 80.69688 183.64272Q80.93125 183.39272 81.36875 183.39272Q81.82188 183.39272 82.04063 183.64272Q82.275 183.89272 82.275 184.26772Q82.275 184.62709 82.04063 184.87709Q81.82188 185.12709 81.36875 185.12709Q80.93125 185.12709 80.69688 184.87709Q80.47813 184.62709 80.47813 184.26772ZM91.43125 180.17397Q91.43125 182.72084 90.55625 183.95522Q89.69688 185.18959 87.85313 185.18959Q86.04063 185.18959 85.16563 183.98647Q84.29063 182.76772 84.25938 180.37709L84.25938 178.43959Q84.25938 175.93959 85.11875 174.72084Q85.99375 173.50209 87.8375 173.50209Q89.68125 173.50209 90.54063 174.67397Q91.41563 175.84584 91.43125 178.29897L91.43125 180.17397ZM89.99375 178.20522Q89.99375 176.36147 89.47813 175.53334Q88.9625 174.68959 87.8375 174.68959Q86.72813 174.68959 86.2125 175.53334Q85.7125 176.36147 85.69688 178.09584L85.69688 180.40834Q85.69688 182.25209 86.22813 183.12709Q86.775 184.00209 87.85313 184.00209Q88.93125 184.00209 89.44688 183.17397Q89.9625 182.34584 89.99375 180.56459L89.99375 178.20522Z" fill-rule="nonzero"/><path fill="#000000" d="M73.4 78.609375L74.49375 78.609375Q75.50938 78.59375 76.0875 78.078125Q76.68125 77.546875 76.68125 76.65625Q76.68125 74.65625 74.69688 74.65625Q73.75938 74.65625 73.19688 75.1875Q72.63438 75.71875 72.63438 76.609375L71.19688 76.609375Q71.19688 75.25 72.18125 74.359375Q73.16563 73.46875 74.69688 73.46875Q76.30625 73.46875 77.2125 74.328125Q78.13438 75.171875 78.13438 76.6875Q78.13438 77.421875 77.65 78.125Q77.16563 78.8125 76.3375 79.15625Q77.275 79.453125 77.79063 80.140625Q78.30625 80.828125 78.30625 81.828125Q78.30625 83.359375 77.30625 84.265625Q76.30625 85.15625 74.69688 85.15625Q73.10313 85.15625 72.0875 84.296875Q71.0875 83.421875 71.0875 82.0L72.54063 82.0Q72.54063 82.890625 73.11875 83.4375Q73.7125 83.96875 74.69688 83.96875Q75.74375 83.96875 76.29063 83.421875Q76.85313 82.875 76.85313 81.859375Q76.85313 80.859375 76.24375 80.328125Q75.63438 79.796875 74.49375 79.78125L73.4 79.78125L73.4 78.609375ZM80.47813 84.234375Q80.47813 83.859375 80.69688 83.609375Q80.93125 83.359375 81.36875 83.359375Q81.82188 83.359375 82.04063 83.609375Q82.275 83.859375 82.275 84.234375Q82.275 84.59375 82.04063 84.84375Q81.82188 85.09375 81.36875 85.09375Q80.93125 85.09375 80.69688 84.84375Q80.47813 84.59375 80.47813 84.234375ZM91.43125 80.140625Q91.43125 82.6875 90.55625 83.921875Q89.69688 85.15625 87.85313 85.15625Q86.04063 85.15625 85.16563 83.953125Q84.29063 82.734375 84.25938 80.34375L84.25938 78.40625Q84.25938 75.90625 85.11875 74.6875Q85.99375 73.46875 87.8375 73.46875Q89.68125 73.46875 90.54063 74.640625Q91.41563 75.8125 91.43125 78.265625L91.43125 80.140625ZM89.99375 78.171875Q89.99375 76.328125 89.47813 75.5Q88.9625 74.65625 87.8375 74.65625Q86.72813 74.65625 86.2125 75.5Q85.7125 76.328125 85.69688 78.0625L85.69688 80.375Q85.69688 82.21875 86.22813 83.09375Q86.775 83.96875 87.85313 83.96875Q88.93125 83.96875 89.44688 83.140625Q89.9625 82.3125 89.99375 80.53125L89.99375 78.171875Z" fill-rule="nonzero"/><path fill="#000000" d="M173.07716 405.6L171.49904 405.6L171.49904 395.52188Q170.92091 396.06876 169.99904 396.61563Q169.07716 397.14688 168.32716 397.42813L168.32716 395.89688Q169.65529 395.27188 170.65529 394.38126Q171.65529 393.49063 172.06154 392.6625L173.07716 392.6625L173.07716 405.6ZM181.92091 402.81876L183.49904 402.56876Q183.62404 403.50626 184.21779 404.00626Q184.82716 404.50626 185.90529 404.50626Q186.99904 404.50626 187.53029 404.06876Q188.06154 403.61563 188.06154 403.02188Q188.06154 402.49063 187.59279 402.17813Q187.26466 401.975 185.96779 401.64688Q184.23341 401.20938 183.56154 400.89688Q182.88966 400.56876 182.53029 400.00626Q182.18654 399.42813 182.18654 398.74063Q182.18654 398.11563 182.46779 397.58438Q182.76466 397.05313 183.24904 396.70938Q183.62404 396.42813 184.26466 396.24063Q184.90529 396.05313 185.62404 396.05313Q186.73341 396.05313 187.56154 396.38126Q188.38966 396.69376 188.78029 397.24063Q189.18654 397.77188 189.32716 398.67813L187.78029 398.88126Q187.67091 398.1625 187.17091 397.75626Q186.67091 397.35 185.74904 397.35Q184.65529 397.35 184.18654 397.70938Q183.71779 398.06876 183.71779 398.55313Q183.71779 398.86563 183.92091 399.11563Q184.10841 399.36563 184.51466 399.5375Q184.76466 399.61563 185.92091 399.94376Q187.59279 400.38126 188.24904 400.67813Q188.92091 400.95938 189.29591 401.50626Q189.68654 402.05313 189.68654 402.85Q189.68654 403.64688 189.21779 404.35Q188.76466 405.05313 187.88966 405.44376Q187.01466 405.81876 185.92091 405.81876Q184.09279 405.81876 183.13966 405.06876Q182.18654 404.30313 181.92091 402.81876ZM197.95216 402.6L199.59279 402.80313Q199.20216 404.225 198.15529 405.02188Q197.10841 405.81876 195.48341 405.81876Q193.43654 405.81876 192.23341 404.55313Q191.03029 403.2875 191.03029 401.00626Q191.03029 398.6625 192.23341 397.36563Q193.45216 396.05313 195.38966 396.05313Q197.26466 396.05313 198.45216 397.33438Q199.63966 398.6 199.63966 400.9125Q199.63966 401.05313 199.62404 401.33438L192.67091 401.33438Q192.74904 402.88126 193.53029 403.69376Q194.32716 404.50626 195.48341 404.50626Q196.35841 404.50626 196.96779 404.05313Q197.59279 403.6 197.95216 402.6ZM192.74904 400.0375L197.96779 400.0375Q197.85841 398.86563 197.37404 398.27188Q196.60841 397.35 195.40529 397.35Q194.32716 397.35 193.57716 398.08438Q192.84279 398.81876 192.74904 400.0375ZM201.56154 405.6L201.56154 396.27188L202.98341 396.27188L202.98341 397.6Q204.01466 396.05313 205.95216 396.05313Q206.79591 396.05313 207.49904 396.36563Q208.21779 396.6625 208.56154 397.1625Q208.92091 397.64688 209.06154 398.31876Q209.13966 398.75626 209.13966 399.86563L209.13966 405.6L207.56154 405.6L207.56154 399.92813Q207.56154 398.95938 207.37404 398.475Q207.20216 397.99063 206.71779 397.70938Q206.24904 397.42813 205.62404 397.42813Q204.60841 397.42813 203.87404 398.06876Q203.13966 398.70938 203.13966 400.50626L203.13966 405.6L201.56154 405.6ZM215.01466 404.17813L215.24904 405.58438Q214.57716 405.725 214.04591 405.725Q213.18654 405.725 212.70216 405.45938Q212.23341 405.17813 212.04591 404.74063Q211.85841 404.2875 211.85841 402.86563L211.85841 397.49063L210.68654 397.49063L210.68654 396.27188L211.85841 396.27188L211.85841 393.95938L213.42091 393.00626L213.42091 396.27188L215.01466 396.27188L215.01466 397.49063L213.42091 397.49063L213.42091 402.95938Q213.42091 403.63126 213.49904 403.83438Q213.59279 404.02188 213.78029 404.13126Q213.96779 404.24063 214.32716 404.24063Q214.57716 404.24063 215.01466 404.17813ZM222.95216 402.6L224.59279 402.80313Q224.20216 404.225 223.15529 405.02188Q222.10841 405.81876 220.48341 405.81876Q218.43654 405.81876 217.23341 404.55313Q216.03029 403.2875 216.03029 401.00626Q216.03029 398.6625 217.23341 397.36563Q218.45216 396.05313 220.38966 396.05313Q222.26466 396.05313 223.45216 397.33438Q224.63966 398.6 224.63966 400.9125Q224.63966 401.05313 224.62404 401.33438L217.67091 401.33438Q217.74904 402.88126 218.53029 403.69376Q219.32716 404.50626 220.48341 404.50626Q221.35841 404.50626 221.96779 404.05313Q222.59279 403.6 222.95216 402.6ZM217.74904 400.0375L222.96779 400.0375Q222.85841 398.86563 222.37404 398.27188Q221.60841 397.35 220.40529 397.35Q219.32716 397.35 218.57716 398.08438Q217.84279 398.81876 217.74904 400.0375ZM226.56154 405.6L226.56154 396.27188L227.98341 396.27188L227.98341 397.6Q229.01466 396.05313 230.95216 396.05313Q231.79591 396.05313 232.49904 396.36563Q233.21779 396.6625 233.56154 397.1625Q233.92091 397.64688 234.06154 398.31876Q234.13966 398.75626 234.13966 399.86563L234.13966 405.6L232.56154 405.6L232.56154 399.92813Q232.56154 398.95938 232.37404 398.475Q232.20216 397.99063 231.71779 397.70938Q231.24904 397.42813 230.62404 397.42813Q229.60841 397.42813 228.87404 398.06876Q228.13966 398.70938 228.13966 400.50626L228.13966 405.6L226.56154 405.6ZM242.65529 402.17813L244.20216 402.38126Q243.95216 403.99063 242.90529 404.9125Q241.85841 405.81876 240.32716 405.81876Q238.40529 405.81876 237.23341 404.56876Q236.07716 403.30313 236.07716 400.975Q236.07716 399.45938 236.57716 398.33438Q237.07716 397.19376 238.09279 396.63126Q239.12404 396.05313 240.32716 396.05313Q241.85841 396.05313 242.81154 396.83438Q243.78029 397.6 244.06154 399.00626L242.51466 399.24063Q242.29591 398.30313 241.73341 397.83438Q241.18654 397.35 240.38966 397.35Q239.20216 397.35 238.45216 398.20938Q237.70216 399.06876 237.70216 400.92813Q237.70216 402.80313 238.42091 403.6625Q239.13966 404.50626 240.31154 404.50626Q241.23341 404.50626 241.85841 403.94376Q242.48341 403.36563 242.65529 402.17813ZM251.95216 402.6L253.59279 402.80313Q253.20216 404.225 252.15529 405.02188Q251.10841 405.81876 249.48341 405.81876Q247.43654 405.81876 246.23341 404.55313Q245.03029 403.2875 245.03029 401.00626Q245.03029 398.6625 246.23341 397.36563Q247.45216 396.05313 249.38966 396.05313Q251.26466 396.05313 252.45216 397.33438Q253.63966 398.6 253.63966 400.9125Q253.63966 401.05313 253.62404 401.33438L246.67091 401.33438Q246.74904 402.88126 247.53029 403.69376Q248.32716 404.50626 249.48341 404.50626Q250.35841 404.50626 250.96779 404.05313Q251.59279 403.6 251.95216 402.6ZM246.74904 400.0375L251.96779 400.0375Q251.85841 398.86563 251.37404 398.27188Q250.60841 397.35 249.40529 397.35Q248.32716 397.35 247.57716 398.08438Q246.84279 398.81876 246.74904 400.0375Z" fill-rule="nonzero"/><path fill="#000000" d="M317.68222 405.6L316.1041 405.6L316.1041 395.52188Q315.52597 396.06876 314.6041 396.61563Q313.68222 397.14688 312.93222 397.42813L312.93222 395.89688Q314.26035 395.27188 315.26035 394.38126Q316.26035 393.49063 316.6666 392.6625L317.68222 392.6625L317.68222 405.6ZM321.7291 399.24063Q321.7291 396.95938 322.19785 395.56876Q322.6666 394.17813 323.58847 393.42813Q324.52597 392.6625 325.93222 392.6625Q326.96347 392.6625 327.74472 393.08438Q328.52597 393.49063 329.02597 394.2875Q329.5416 395.06876 329.83847 396.20938Q330.13535 397.33438 330.13535 399.24063Q330.13535 401.50626 329.6666 402.9125Q329.19785 404.30313 328.26035 405.06876Q327.33847 405.81876 325.93222 405.81876Q324.05722 405.81876 322.99472 404.49063Q321.7291 402.88126 321.7291 399.24063ZM323.3541 399.24063Q323.3541 402.4125 324.08847 403.475Q324.83847 404.52188 325.93222 404.52188Q327.01035 404.52188 327.76035 403.475Q328.51035 402.4125 328.51035 399.24063Q328.51035 396.06876 327.76035 395.02188Q327.01035 393.975 325.9166 393.975Q324.82285 393.975 324.1666 394.89688Q323.3541 396.06876 323.3541 399.24063ZM336.52597 402.81876L338.1041 402.56876Q338.2291 403.50626 338.82285 404.00626Q339.43222 404.50626 340.51035 404.50626Q341.6041 404.50626 342.13535 404.06876Q342.6666 403.61563 342.6666 403.02188Q342.6666 402.49063 342.19785 402.17813Q341.86972 401.975 340.57285 401.64688Q338.83847 401.20938 338.1666 400.89688Q337.49472 400.56876 337.13535 400.00626Q336.7916 399.42813 336.7916 398.74063Q336.7916 398.11563 337.07285 397.58438Q337.36972 397.05313 337.8541 396.70938Q338.2291 396.42813 338.86972 396.24063Q339.51035 396.05313 340.2291 396.05313Q341.33847 396.05313 342.1666 396.38126Q342.99472 396.69376 343.38535 397.24063Q343.7916 397.77188 343.93222 398.67813L342.38535 398.88126Q342.27597 398.1625 341.77597 397.75626Q341.27597 397.35 340.3541 397.35Q339.26035 397.35 338.7916 397.70938Q338.32285 398.06876 338.32285 398.55313Q338.32285 398.86563 338.52597 399.11563Q338.71347 399.36563 339.11972 399.5375Q339.36972 399.61563 340.52597 399.94376Q342.19785 400.38126 342.8541 400.67813Q343.52597 400.95938 343.90097 401.50626Q344.2916 402.05313 344.2916 402.85Q344.2916 403.64688 343.82285 404.35Q343.36972 405.05313 342.49472 405.44376Q341.61972 405.81876 340.52597 405.81876Q338.69785 405.81876 337.74472 405.06876Q336.7916 404.30313 336.52597 402.81876ZM352.55722 402.6L354.19785 402.80313Q353.80722 404.225 352.76035 405.02188Q351.71347 405.81876 350.08847 405.81876Q348.0416 405.81876 346.83847 404.55313Q345.63535 403.2875 345.63535 401.00626Q345.63535 398.6625 346.83847 397.36563Q348.05722 396.05313 349.99472 396.05313Q351.86972 396.05313 353.05722 397.33438Q354.24472 398.6 354.24472 400.9125Q354.24472 401.05313 354.2291 401.33438L347.27597 401.33438Q347.3541 402.88126 348.13535 403.69376Q348.93222 404.50626 350.08847 404.50626Q350.96347 404.50626 351.57285 404.05313Q352.19785 403.6 352.55722 402.6ZM347.3541 400.0375L352.57285 400.0375Q352.46347 398.86563 351.9791 398.27188Q351.21347 397.35 350.01035 397.35Q348.93222 397.35 348.18222 398.08438Q347.44785 398.81876 347.3541 400.0375ZM356.1666 405.6L356.1666 396.27188L357.58847 396.27188L357.58847 397.6Q358.61972 396.05313 360.55722 396.05313Q361.40097 396.05313 362.1041 396.36563Q362.82285 396.6625 363.1666 397.1625Q363.52597 397.64688 363.6666 398.31876Q363.74472 398.75626 363.74472 399.86563L363.74472 405.6L362.1666 405.6L362.1666 399.92813Q362.1666 398.95938 361.9791 398.475Q361.80722 397.99063 361.32285 397.70938Q360.8541 397.42813 360.2291 397.42813Q359.21347 397.42813 358.4791 398.06876Q357.74472 398.70938 357.74472 400.50626L357.74472 405.6L356.1666 405.6ZM369.61972 404.17813L369.8541 405.58438Q369.18222 405.725 368.65097 405.725Q367.7916 405.725 367.30722 405.45938Q366.83847 405.17813 366.65097 404.74063Q366.46347 404.2875 366.46347 402.86563L366.46347 397.49063L365.2916 397.49063L365.2916 396.27188L366.46347 396.27188L366.46347 393.95938L368.02597 393.00626L368.02597 396.27188L369.61972 396.27188L369.61972 397.49063L368.02597 397.49063L368.02597 402.95938Q368.02597 403.63126 368.1041 403.83438Q368.19785 404.02188 368.38535 404.13126Q368.57285 404.24063 368.93222 404.24063Q369.18222 404.24063 369.61972 404.17813ZM377.55722 402.6L379.19785 402.80313Q378.80722 404.225 377.76035 405.02188Q376.71347 405.81876 375.08847 405.81876Q373.0416 405.81876 371.83847 404.55313Q370.63535 403.2875 370.63535 401.00626Q370.63535 398.6625 371.83847 397.36563Q373.05722 396.05313 374.99472 396.05313Q376.86972 396.05313 378.05722 397.33438Q379.24472 398.6 379.24472 400.9125Q379.24472 401.05313 379.2291 401.33438L372.27597 401.33438Q372.3541 402.88126 373.13535 403.69376Q373.93222 404.50626 375.08847 404.50626Q375.96347 404.50626 376.57285 404.05313Q377.19785 403.6 377.55722 402.6ZM372.3541 400.0375L377.57285 400.0375Q377.46347 398.86563 376.9791 398.27188Q376.21347 397.35 375.01035 397.35Q373.93222 397.35 373.18222 398.08438Q372.44785 398.81876 372.3541 400.0375ZM381.1666 405.6L381.1666 396.27188L382.58847 396.27188L382.58847 397.6Q383.61972 396.05313 385.55722 396.05313Q386.40097 396.05313 387.1041 396.36563Q387.82285 396.6625 388.1666 397.1625Q388.52597 397.64688 388.6666 398.31876Q388.74472 398.75626 388.74472 399.86563L388.74472 405.6L387.1666 405.6L387.1666 399.92813Q387.1666 398.95938 386.9791 398.475Q386.80722 397.99063 386.32285 397.70938Q385.8541 397.42813 385.2291 397.42813Q384.21347 397.42813 383.4791 398.06876Q382.74472 398.70938 382.74472 400.50626L382.74472 405.6L381.1666 405.6ZM397.26035 402.17813L398.80722 402.38126Q398.55722 403.99063 397.51035 404.9125Q396.46347 405.81876 394.93222 405.81876Q393.01035 405.81876 391.83847 404.56876Q390.68222 403.30313 390.68222 400.975Q390.68222 399.45938 391.18222 398.33438Q391.68222 397.19376 392.69785 396.63126Q393.7291 396.05313 394.93222 396.05313Q396.46347 396.05313 397.4166 396.83438Q398.38535 397.6 398.6666 399.00626L397.11972 399.24063Q396.90097 398.30313 396.33847 397.83438Q395.7916 397.35 394.99472 397.35Q393.80722 397.35 393.05722 398.20938Q392.30722 399.06876 392.30722 400.92813Q392.30722 402.80313 393.02597 403.6625Q393.74472 404.50626 394.9166 404.50626Q395.83847 404.50626 396.46347 403.94376Q397.08847 403.36563 397.26035 402.17813ZM406.55722 402.6L408.19785 402.80313Q407.80722 404.225 406.76035 405.02188Q405.71347 405.81876 404.08847 405.81876Q402.0416 405.81876 400.83847 404.55313Q399.63535 403.2875 399.63535 401.00626Q399.63535 398.6625 400.83847 397.36563Q402.05722 396.05313 403.99472 396.05313Q405.86972 396.05313 407.05722 397.33438Q408.24472 398.6 408.24472 400.9125Q408.24472 401.05313 408.2291 401.33438L401.27597 401.33438Q401.3541 402.88126 402.13535 403.69376Q402.93222 404.50626 404.08847 404.50626Q404.96347 404.50626 405.57285 404.05313Q406.19785 403.6 406.55722 402.6ZM401.3541 400.0375L406.57285 400.0375Q406.46347 398.86563 405.9791 398.27188Q405.21347 397.35 404.01035 397.35Q402.93222 397.35 402.18222 398.08438Q401.44785 398.81876 401.3541 400.0375ZM409.52597 402.81876L411.1041 402.56876Q411.2291 403.50626 411.82285 404.00626Q412.43222 404.50626 413.51035 404.50626Q414.6041 404.50626 415.13535 404.06876Q415.6666 403.61563 415.6666 403.02188Q415.6666 402.49063 415.19785 402.17813Q414.86972 401.975 413.57285 401.64688Q411.83847 401.20938 411.1666 400.89688Q410.49472 400.56876 410.13535 400.00626Q409.7916 399.42813 409.7916 398.74063Q409.7916 398.11563 410.07285 397.58438Q410.36972 397.05313 410.8541 396.70938Q411.2291 396.42813 411.86972 396.24063Q412.51035 396.05313 413.2291 396.05313Q414.33847 396.05313 415.1666 396.38126Q415.99472 396.69376 416.38535 397.24063Q416.7916 397.77188 416.93222 398.67813L415.38535 398.88126Q415.27597 398.1625 414.77597 397.75626Q414.27597 397.35 413.3541 397.35Q412.26035 397.35 411.7916 397.70938Q411.32285 398.06876 411.32285 398.55313Q411.32285 398.86563 411.52597 399.11563Q411.71347 399.36563 412.11972 399.5375Q412.36972 399.61563 413.52597 399.94376Q415.19785 400.38126 415.8541 400.67813Q416.52597 400.95938 416.90097 401.50626Q417.2916 402.05313 417.2916 402.85Q417.2916 403.64688 416.82285 404.35Q416.36972 405.05313 415.49472 405.44376Q414.61972 405.81876 413.52597 405.81876Q411.69785 405.81876 410.74472 405.06876Q409.7916 404.30313 409.52597 402.81876Z" fill-rule="nonzero"/><path fill="#3d85c6" d="M498.5766 84.0C498.5766 83.447716 499.02432 83.0 499.5766 83.0L509.5766 83.0C510.12888 83.0 510.5766 83.447716 510.5766 84.0L510.5766 94.0C510.5766 94.552284 510.12888 95.0 509.5766 95.0L499.5766 95.0C499.02432 95.0 498.5766 94.552284 498.5766 94.0Z" fill-rule="nonzero"/><path fill="#1a1a1a" d="M519.811 94.5L519.811 83.046875L524.1391 83.046875Q525.2797 83.046875 525.8735 83.15625Q526.7172 83.296875 527.2797 83.6875Q527.85785 84.078125 528.2016 84.796875Q528.561 85.5 528.561 86.359375Q528.561 87.8125 527.6235 88.828125Q526.7016 89.84375 524.2641 89.84375L521.3266 89.84375L521.3266 94.5L519.811 94.5ZM521.3266 88.484375L524.29535 88.484375Q525.7641 88.484375 526.3735 87.9375Q526.9985 87.390625 526.9985 86.40625Q526.9985 85.6875 526.6235 85.171875Q526.2641 84.65625 525.67035 84.5Q525.29535 84.390625 524.2641 84.390625L521.3266 84.390625L521.3266 88.484375ZM530.5766 97.703125L530.42035 96.375Q530.8735 96.5 531.2172 96.5Q531.686 96.5 531.9672 96.34375Q532.2485 96.1875 532.436 95.90625Q532.561 95.703125 532.85785 94.859375Q532.9047 94.75 532.98285 94.515625L529.8422 86.203125L531.35785 86.203125L533.0766 91.0Q533.42035 91.921875 533.686 92.921875Q533.92035 91.953125 534.2641 91.03125L536.0297 86.203125L537.436 86.203125L534.2797 94.640625Q533.7797 96.015625 533.4985 96.53125Q533.1235 97.21875 532.6391 97.546875Q532.1547 97.875 531.48285 97.875Q531.0766 97.875 530.5766 97.703125ZM541.7016 93.234375L541.9047 94.484375Q541.311 94.609375 540.8422 94.609375Q540.0766 94.609375 539.6547 94.375Q539.23285 94.125 539.061 93.734375Q538.8891 93.328125 538.8891 92.0625L538.8891 87.296875L537.85785 87.296875L537.85785 86.203125L538.8891 86.203125L538.8891 84.140625L540.29535 83.296875L540.29535 86.203125L541.7016 86.203125L541.7016 87.296875L540.29535 87.296875L540.29535 92.140625Q540.29535 92.75 540.35785 92.921875Q540.436 93.09375 540.60785 93.203125Q540.7797 93.296875 541.0922 93.296875Q541.3266 93.296875 541.7016 93.234375ZM542.6391 94.5L542.6391 83.046875L544.04535 83.046875L544.04535 87.15625Q545.0297 86.015625 546.5297 86.015625Q547.4516 86.015625 548.1235 86.375Q548.811 86.734375 549.0922 87.375Q549.3891 88.015625 549.3891 89.234375L549.3891 94.5L547.98285 94.5L547.98285 89.234375Q547.98285 88.1875 547.5297 87.703125Q547.0766 87.21875 546.23285 87.21875Q545.60785 87.21875 545.061 87.546875Q544.5141 87.875 544.2797 88.4375Q544.04535 88.984375 544.04535 89.953125L544.04535 94.5L542.6391 94.5ZM551.10785 90.34375Q551.10785 88.046875 552.3891 86.9375Q553.4672 86.015625 554.9985 86.015625Q556.7172 86.015625 557.79535 87.140625Q558.8891 88.25 558.8891 90.234375Q558.8891 91.828125 558.4047 92.75Q557.92035 93.671875 556.9985 94.1875Q556.0922 94.6875 554.9985 94.6875Q553.2641 94.6875 552.186 93.578125Q551.10785 92.453125 551.10785 90.34375ZM552.561 90.34375Q552.561 91.9375 553.2485 92.734375Q553.9516 93.53125 554.9985 93.53125Q556.04535 93.53125 556.73285 92.734375Q557.436 91.9375 557.436 90.296875Q557.436 88.765625 556.73285 87.96875Q556.04535 87.171875 554.9985 87.171875Q553.9516 87.171875 553.2485 87.96875Q552.561 88.75 552.561 90.34375ZM560.6391 94.5L560.6391 86.203125L561.9047 86.203125L561.9047 87.375Q562.811 86.015625 564.54535 86.015625Q565.29535 86.015625 565.92035 86.28125Q566.54535 86.546875 566.85785 86.984375Q567.17035 87.421875 567.29535 88.03125Q567.3735 88.421875 567.3735 89.390625L567.3735 94.5L565.9672 94.5L565.9672 89.453125Q565.9672 88.59375 565.79535 88.171875Q565.6391 87.734375 565.2172 87.484375Q564.811 87.234375 564.2485 87.234375Q563.3422 87.234375 562.686 87.8125Q562.04535 88.375 562.04535 89.96875L562.04535 94.5L560.6391 94.5Z" fill-rule="nonzero"/><path fill="#bf9000" d="M498.5766 113.0C498.5766 112.447716 499.02432 112.0 499.5766 112.0L509.5766 112.0C510.12888 112.0 510.5766 112.447716 510.5766 113.0L510.5766 123.0C510.5766 123.552284 510.12888 124.0 509.5766 124.0L499.5766 124.0C499.02432 124.0 498.5766 123.552284 498.5766 123.0Z" fill-rule="nonzero"/><path fill="#1a1a1a" d="M519.8422 123.5L519.8422 112.046875L524.92035 112.046875Q526.4516 112.046875 527.2485 112.359375Q528.04535 112.65625 528.5141 113.4375Q528.9985 114.21875 528.9985 115.171875Q528.9985 116.390625 528.2016 117.234375Q527.42035 118.0625 525.7641 118.28125Q526.3735 118.578125 526.686 118.859375Q527.3422 119.46875 527.936 120.375L529.936 123.5L528.0297 123.5L526.5141 121.109375Q525.8422 120.078125 525.4047 119.53125Q524.98285 118.984375 524.6391 118.765625Q524.311 118.546875 523.9516 118.46875Q523.7016 118.40625 523.10785 118.40625L521.35785 118.40625L521.35785 123.5L519.8422 123.5ZM521.35785 117.09375L524.60785 117.09375Q525.6547 117.09375 526.23285 116.890625Q526.8266 116.671875 527.1235 116.203125Q527.436 115.71875 527.436 115.171875Q527.436 114.359375 526.8422 113.84375Q526.2485 113.3125 524.98285 113.3125L521.35785 113.3125L521.35785 117.09375ZM537.0766 123.5L537.0766 122.28125Q536.10785 123.6875 534.436 123.6875Q533.7016 123.6875 533.061 123.40625Q532.436 123.125 532.1235 122.703125Q531.811 122.265625 531.686 121.65625Q531.60785 121.234375 531.60785 120.34375L531.60785 115.203125L533.0141 115.203125L533.0141 119.796875Q533.0141 120.90625 533.0922 121.28125Q533.23285 121.84375 533.6547 122.15625Q534.0922 122.46875 534.7172 122.46875Q535.35785 122.46875 535.9047 122.15625Q536.4672 121.828125 536.686 121.265625Q536.92035 120.703125 536.92035 119.640625L536.92035 115.203125L538.3266 115.203125L538.3266 123.5L537.0766 123.5ZM540.0766 121.015625L541.4672 120.796875Q541.5766 121.640625 542.10785 122.09375Q542.6547 122.53125 543.60785 122.53125Q544.5766 122.53125 545.04535 122.140625Q545.5141 121.734375 545.5141 121.203125Q545.5141 120.734375 545.10785 120.453125Q544.811 120.265625 543.67035 119.984375Q542.1235 119.59375 541.5141 119.3125Q540.92035 119.015625 540.60785 118.515625Q540.311 118.015625 540.311 117.40625Q540.311 116.84375 540.561 116.375Q540.811 115.90625 541.2485 115.59375Q541.5766 115.34375 542.1391 115.1875Q542.7172 115.015625 543.35785 115.015625Q544.3422 115.015625 545.0766 115.296875Q545.811 115.578125 546.1547 116.0625Q546.5141 116.53125 546.6547 117.34375L545.2797 117.53125Q545.186 116.890625 544.73285 116.53125Q544.2797 116.171875 543.4672 116.171875Q542.4985 116.171875 542.0766 116.5Q541.67035 116.8125 541.67035 117.234375Q541.67035 117.515625 541.8422 117.734375Q542.0141 117.953125 542.3735 118.109375Q542.5922 118.1875 543.6235 118.46875Q545.10785 118.859375 545.7016 119.125Q546.29535 119.375 546.6235 119.859375Q546.9672 120.34375 546.9672 121.0625Q546.9672 121.765625 546.54535 122.390625Q546.1391 123.0 545.35785 123.34375Q544.5922 123.6875 543.6235 123.6875Q541.9985 123.6875 541.1547 123.015625Q540.311 122.34375 540.0766 121.015625ZM551.7016 122.234375L551.9047 123.484375Q551.311 123.609375 550.8422 123.609375Q550.0766 123.609375 549.6547 123.375Q549.23285 123.125 549.061 122.734375Q548.8891 122.328125 548.8891 121.0625L548.8891 116.296875L547.85785 116.296875L547.85785 115.203125L548.8891 115.203125L548.8891 113.140625L550.29535 112.296875L550.29535 115.203125L551.7016 115.203125L551.7016 116.296875L550.29535 116.296875L550.29535 121.140625Q550.29535 121.75 550.35785 121.921875Q550.436 122.09375 550.60785 122.203125Q550.7797 122.296875 551.0922 122.296875Q551.3266 122.296875 551.7016 122.234375Z" fill-rule="nonzero"/><path fill="#fbbc04" d="M498.5766 142.0C498.5766 141.44771 499.02432 141.0 499.5766 141.0L509.5766 141.0C510.12888 141.0 510.5766 141.44771 510.5766 142.0L510.5766 152.0C510.5766 152.55229 510.12888 153.0 509.5766 153.0L499.5766 153.0C499.02432 153.0 498.5766 152.55229 498.5766 152.0Z" fill-rule="nonzero"/><path fill="#1a1a1a" d="M527.98285 148.48438L529.4985 148.85938Q529.0297 150.73438 527.7797 151.71875Q526.54535 152.70312 524.7641 152.70312Q522.9047 152.70312 521.7485 151.95312Q520.5922 151.1875 519.98285 149.76562Q519.3735 148.32812 519.3735 146.6875Q519.3735 144.89062 520.061 143.5625Q520.7485 142.23438 521.9985 141.54688Q523.2641 140.84375 524.7797 140.84375Q526.4985 140.84375 527.67035 141.71875Q528.8422 142.59375 529.311 144.1875L527.811 144.53125Q527.42035 143.28125 526.6547 142.71875Q525.9047 142.14062 524.7485 142.14062Q523.436 142.14062 522.54535 142.78125Q521.6547 143.40625 521.29535 144.48438Q520.936 145.54688 520.936 146.67188Q520.936 148.14062 521.35785 149.23438Q521.79535 150.3125 522.686 150.85938Q523.5922 151.39062 524.6391 151.39062Q525.9047 151.39062 526.7797 150.65625Q527.67035 149.92188 527.98285 148.48438ZM534.5922 150.64062L534.5922 147.5L531.4672 147.5L531.4672 146.1875L534.5922 146.1875L534.5922 143.07812L535.92035 143.07812L535.92035 146.1875L539.0297 146.1875L539.0297 147.5L535.92035 147.5L535.92035 150.64062L534.5922 150.64062ZM543.5922 150.64062L543.5922 147.5L540.4672 147.5L540.4672 146.1875L543.5922 146.1875L543.5922 143.07812L544.92035 143.07812L544.92035 146.1875L548.0297 146.1875L548.0297 147.5L544.92035 147.5L544.92035 150.64062L543.5922 150.64062ZM556.3266 155.875Q555.1547 154.40625 554.3422 152.4375Q553.54535 150.45312 553.54535 148.34375Q553.54535 146.48438 554.1547 144.78125Q554.85785 142.8125 556.3266 140.84375L557.3266 140.84375Q556.3891 142.46875 556.0766 143.17188Q555.60785 144.25 555.3266 145.42188Q554.9985 146.875 554.9985 148.35938Q554.9985 152.10938 557.3266 155.875L556.3266 155.875ZM558.7641 152.5L558.7641 141.04688L561.04535 141.04688L563.7641 149.15625Q564.1391 150.28125 564.311 150.84375Q564.4985 150.21875 564.92035 149.01562L567.6547 141.04688L569.7016 141.04688L569.7016 152.5L568.23285 152.5L568.23285 142.90625L564.9047 152.5L563.54535 152.5L560.23285 142.75L560.23285 152.5L558.7641 152.5ZM577.04535 151.46875Q576.2641 152.14062 575.54535 152.42188Q574.8266 152.6875 573.9985 152.6875Q572.6235 152.6875 571.8891 152.01562Q571.1547 151.34375 571.1547 150.3125Q571.1547 149.70312 571.436 149.20312Q571.7172 148.6875 572.1547 148.39062Q572.60785 148.07812 573.17035 147.92188Q573.5922 147.8125 574.42035 147.71875Q576.1235 147.51562 576.936 147.23438Q576.936 146.9375 576.936 146.85938Q576.936 146.0 576.54535 145.65625Q575.9985 145.17188 574.936 145.17188Q573.9516 145.17188 573.4672 145.53125Q572.9985 145.875 572.7797 146.75L571.4047 146.5625Q571.5922 145.6875 572.0141 145.14062Q572.4516 144.59375 573.2641 144.3125Q574.0766 144.01562 575.1391 144.01562Q576.2016 144.01562 576.85785 144.26562Q577.5297 144.51562 577.8422 144.89062Q578.1547 145.26562 578.2797 145.84375Q578.35785 146.20312 578.35785 147.14062L578.35785 149.01562Q578.35785 150.98438 578.436 151.5Q578.5297 152.01562 578.79535 152.5L577.3266 152.5Q577.10785 152.0625 577.04535 151.46875ZM576.936 148.32812Q576.17035 148.64062 574.6391 148.85938Q573.7641 148.98438 573.4047 149.14062Q573.04535 149.29688 572.8422 149.60938Q572.6547 149.90625 572.6547 150.26562Q572.6547 150.82812 573.0766 151.20312Q573.5141 151.57812 574.3266 151.57812Q575.1391 151.57812 575.7641 151.23438Q576.4047 150.875 576.7016 150.25Q576.936 149.78125 576.936 148.84375L576.936 148.32812ZM580.6235 152.5L580.6235 144.20312L581.8891 144.20312L581.8891 145.45312Q582.3735 144.57812 582.7797 144.29688Q583.186 144.01562 583.686 144.01562Q584.3891 144.01562 585.1235 144.46875L584.6391 145.76562Q584.1235 145.46875 583.60785 145.46875Q583.1547 145.46875 582.7797 145.75Q582.42035 146.01562 582.2641 146.51562Q582.0297 147.26562 582.0297 148.15625L582.0297 152.5L580.6235 152.5ZM585.6391 142.65625L585.6391 141.04688L587.04535 141.04688L587.04535 142.65625L585.6391 142.65625ZM585.6391 152.5L585.6391 144.20312L587.04535 144.20312L587.04535 152.5L585.6391 152.5ZM595.04535 151.46875Q594.2641 152.14062 593.54535 152.42188Q592.8266 152.6875 591.9985 152.6875Q590.6235 152.6875 589.8891 152.01562Q589.1547 151.34375 589.1547 150.3125Q589.1547 149.70312 589.436 149.20312Q589.7172 148.6875 590.1547 148.39062Q590.60785 148.07812 591.17035 147.92188Q591.5922 147.8125 592.42035 147.71875Q594.1235 147.51562 594.936 147.23438Q594.936 146.9375 594.936 146.85938Q594.936 146.0 594.54535 145.65625Q593.9985 145.17188 592.936 145.17188Q591.9516 145.17188 591.4672 145.53125Q590.9985 145.875 590.7797 146.75L589.4047 146.5625Q589.5922 145.6875 590.0141 145.14062Q590.4516 144.59375 591.2641 144.3125Q592.0766 144.01562 593.1391 144.01562Q594.2016 144.01562 594.85785 144.26562Q595.5297 144.51562 595.8422 144.89062Q596.1547 145.26562 596.2797 145.84375Q596.35785 146.20312 596.35785 147.14062L596.35785 149.01562Q596.35785 150.98438 596.436 151.5Q596.5297 152.01562 596.79535 152.5L595.3266 152.5Q595.10785 152.0625 595.04535 151.46875ZM594.936 148.32812Q594.17035 148.64062 592.6391 148.85938Q591.7641 148.98438 591.4047 149.14062Q591.04535 149.29688 590.8422 149.60938Q590.6547 149.90625 590.6547 150.26562Q590.6547 150.82812 591.0766 151.20312Q591.5141 151.57812 592.3266 151.57812Q593.1391 151.57812 593.7641 151.23438Q594.4047 150.875 594.7016 150.25Q594.936 149.78125 594.936 148.84375L594.936 148.32812ZM598.6391 152.5L598.6391 144.20312L599.9047 144.20312L599.9047 145.375Q600.811 144.01562 602.54535 144.01562Q603.29535 144.01562 603.92035 144.28125Q604.54535 144.54688 604.85785 144.98438Q605.17035 145.42188 605.29535 146.03125Q605.3735 146.42188 605.3735 147.39062L605.3735 152.5L603.9672 152.5L603.9672 147.45312Q603.9672 146.59375 603.79535 146.17188Q603.6391 145.73438 603.2172 145.48438Q602.811 145.23438 602.2485 145.23438Q601.3422 145.23438 600.686 145.8125Q600.04535 146.375 600.04535 147.96875L600.04535 152.5L598.6391 152.5ZM608.561 155.875L607.54535 155.875Q609.8891 152.10938 609.8891 148.35938Q609.8891 146.89062 609.54535 145.4375Q609.2797 144.26562 608.811 143.1875Q608.4985 142.48438 607.54535 140.84375L608.561 140.84375Q610.0297 142.8125 610.73285 144.78125Q611.3266 146.48438 611.3266 148.34375Q611.3266 150.45312 610.5141 152.4375Q609.7172 154.40625 608.561 155.875Z" fill-rule="nonzero"/><path fill="#757575" d="M25.521645 42.4L25.521645 27.884377L20.09977 27.884377L20.09977 25.931252L33.146645 25.931252L33.146645 27.884377L27.69352 27.884377L27.69352 42.4L25.521645 42.4ZM35.052895 42.4L35.052895 30.478127L36.865395 30.478127L36.865395 32.275Q37.56852 31.009377 38.146645 30.603127Q38.740395 30.196877 39.44352 30.196877Q40.47477 30.196877 41.521645 30.853127L40.834145 32.728127Q40.084145 32.290627 39.34977 32.290627Q38.677895 32.290627 38.146645 32.696877Q37.63102 33.0875 37.41227 33.790627Q37.06852 34.86875 37.06852 36.15L37.06852 42.4L35.052895 42.4ZM50.84977 40.93125Q49.72477 41.884377 48.677895 42.275Q47.646645 42.665627 46.459145 42.665627Q44.490395 42.665627 43.427895 41.7125Q42.38102 40.74375 42.38102 39.259377Q42.38102 38.384377 42.771645 37.665627Q43.177895 36.93125 43.81852 36.49375Q44.47477 36.05625 45.28727 35.8375Q45.88102 35.665627 47.084145 35.525Q49.521645 35.228127 50.677895 34.8375Q50.69352 34.415627 50.69352 34.30625Q50.69352 33.071877 50.115395 32.55625Q49.34977 31.884377 47.81852 31.884377Q46.396645 31.884377 45.709145 32.384377Q45.03727 32.86875 44.709145 34.15L42.72477 33.86875Q43.00602 32.603127 43.615395 31.821877Q44.240395 31.040627 45.396645 30.618752Q46.56852 30.196877 48.115395 30.196877Q49.646645 30.196877 50.59977 30.556252Q51.552895 30.915627 51.990395 31.462502Q52.44352 32.009377 52.63102 32.8375Q52.72477 33.353127 52.72477 34.7125L52.72477 37.4Q52.72477 40.228127 52.84977 40.978127Q52.990395 41.7125 53.365395 42.4L51.25602 42.4Q50.94352 41.775 50.84977 40.93125ZM50.677895 36.415627Q49.584145 36.86875 47.38102 37.18125Q46.13102 37.353127 45.615395 37.5875Q45.09977 37.80625 44.81852 38.24375Q44.53727 38.665627 44.53727 39.196877Q44.53727 40.009377 45.146645 40.55625Q45.771645 41.0875 46.94352 41.0875Q48.115395 41.0875 49.021645 40.571877Q49.927895 40.05625 50.365395 39.18125Q50.677895 38.49375 50.677895 37.15L50.677895 36.415627ZM56.06852 42.4L56.06852 30.478127L57.88102 30.478127L57.88102 32.165627Q59.209145 30.196877 61.677895 30.196877Q62.75602 30.196877 63.66227 30.587502Q64.56852 30.978127 65.021645 31.618752Q65.47477 32.24375 65.646645 33.103127Q65.75602 33.665627 65.75602 35.071877L65.75602 42.4L63.740395 42.4L63.740395 35.15Q63.740395 33.915627 63.50602 33.30625Q63.271645 32.68125 62.66227 32.321877Q62.06852 31.962502 61.25602 31.962502Q59.959145 31.962502 59.021645 32.775Q58.084145 33.5875 58.084145 35.884377L58.084145 42.4L56.06852 42.4ZM68.25602 38.8375L70.25602 38.525Q70.427895 39.728127 71.19352 40.36875Q71.959145 41.009377 73.34977 41.009377Q74.740395 41.009377 75.41227 40.446877Q76.084145 39.86875 76.084145 39.103127Q76.084145 38.43125 75.490395 38.025Q75.084145 37.759377 73.427895 37.353127Q71.209145 36.790627 70.34977 36.384377Q69.490395 35.9625 69.03727 35.24375Q68.59977 34.509377 68.59977 33.634377Q68.59977 32.8375 68.959145 32.165627Q69.334145 31.478127 69.959145 31.040627Q70.427895 30.681252 71.240395 30.446877Q72.052895 30.196877 72.990395 30.196877Q74.396645 30.196877 75.459145 30.603127Q76.521645 31.009377 77.021645 31.712502Q77.521645 32.4 77.709145 33.55625L75.740395 33.821877Q75.59977 32.9 74.959145 32.384377Q74.31852 31.868752 73.13102 31.868752Q71.740395 31.868752 71.146645 32.3375Q70.552895 32.790627 70.552895 33.4Q70.552895 33.790627 70.802895 34.11875Q71.052895 34.43125 71.56852 34.65Q71.88102 34.759377 73.365395 35.165627Q75.50602 35.74375 76.34977 36.103127Q77.19352 36.4625 77.677895 37.165627Q78.16227 37.86875 78.16227 38.9Q78.16227 39.9 77.56852 40.80625Q76.990395 41.696877 75.865395 42.18125Q74.75602 42.665627 73.365395 42.665627Q71.03727 42.665627 69.81852 41.7125Q68.59977 40.74375 68.25602 38.8375ZM81.021645 42.4L81.021645 25.931252L83.052895 25.931252L83.052895 42.4L81.021645 42.4ZM93.84977 40.93125Q92.72477 41.884377 91.677895 42.275Q90.646645 42.665627 89.459145 42.665627Q87.490395 42.665627 86.427895 41.7125Q85.38102 40.74375 85.38102 39.259377Q85.38102 38.384377 85.771645 37.665627Q86.177895 36.93125 86.81852 36.49375Q87.47477 36.05625 88.28727 35.8375Q88.88102 35.665627 90.084145 35.525Q92.521645 35.228127 93.677895 34.8375Q93.69352 34.415627 93.69352 34.30625Q93.69352 33.071877 93.115395 32.55625Q92.34977 31.884377 90.81852 31.884377Q89.396645 31.884377 88.709145 32.384377Q88.03727 32.86875 87.709145 34.15L85.72477 33.86875Q86.00602 32.603127 86.615395 31.821877Q87.240395 31.040627 88.396645 30.618752Q89.56852 30.196877 91.115395 30.196877Q92.646645 30.196877 93.59977 30.556252Q94.552895 30.915627 94.990395 31.462502Q95.44352 32.009377 95.63102 32.8375Q95.72477 33.353127 95.72477 34.7125L95.72477 37.4Q95.72477 40.228127 95.84977 40.978127Q95.990395 41.7125 96.365395 42.4L94.25602 42.4Q93.94352 41.775 93.84977 40.93125ZM93.677895 36.415627Q92.584145 36.86875 90.38102 37.18125Q89.13102 37.353127 88.615395 37.5875Q88.09977 37.80625 87.81852 38.24375Q87.53727 38.665627 87.53727 39.196877Q87.53727 40.009377 88.146645 40.55625Q88.771645 41.0875 89.94352 41.0875Q91.115395 41.0875 92.021645 40.571877Q92.927895 40.05625 93.365395 39.18125Q93.677895 38.49375 93.677895 37.15L93.677895 36.415627ZM103.490395 40.5875L103.771645 42.384377Q102.927895 42.55625 102.240395 42.55625Q101.146645 42.55625 100.53727 42.2125Q99.927895 41.853127 99.677895 41.290627Q99.44352 40.728127 99.44352 38.9L99.44352 32.040627L97.959145 32.040627L97.959145 30.478127L99.44352 30.478127L99.44352 27.525002L101.44352 26.306252L101.44352 30.478127L103.490395 30.478127L103.490395 32.040627L101.44352 32.040627L101.44352 39.025Q101.44352 39.884377 101.552895 40.134377Q101.66227 40.384377 101.896645 40.525Q102.146645 40.665627 102.59977 40.665627Q102.927895 40.665627 103.490395 40.5875ZM105.084145 28.259377L105.084145 25.931252L107.09977 25.931252L107.09977 28.259377L105.084145 28.259377ZM105.084145 42.4L105.084145 30.478127L107.09977 30.478127L107.09977 42.4L105.084145 42.4ZM109.31852 36.43125Q109.31852 33.11875 111.16227 31.525002Q112.69352 30.196877 114.91227 30.196877Q117.365395 30.196877 118.927895 31.821877Q120.490395 33.43125 120.490395 36.275Q120.490395 38.571877 119.802895 39.9Q119.115395 41.2125 117.78727 41.946877Q116.47477 42.665627 114.91227 42.665627Q112.41227 42.665627 110.865395 41.071877Q109.31852 39.4625 109.31852 36.43125ZM111.396645 36.43125Q111.396645 38.728127 112.396645 39.86875Q113.396645 41.009377 114.91227 41.009377Q116.41227 41.009377 117.41227 39.86875Q118.41227 38.7125 118.41227 36.36875Q118.41227 34.15 117.396645 33.025Q116.396645 31.884377 114.91227 31.884377Q113.396645 31.884377 112.396645 33.025Q111.396645 34.15 111.396645 36.43125ZM123.06852 42.4L123.06852 30.478127L124.88102 30.478127L124.88102 32.165627Q126.209145 30.196877 128.67789 30.196877Q129.75601 30.196877 130.66226 30.587502Q131.56851 30.978127 132.02164 31.618752Q132.47476 32.24375 132.64664 33.103127Q132.75601 33.665627 132.75601 35.071877L132.75601 42.4L130.74039 42.4L130.74039 35.15Q130.74039 33.915627 130.50601 33.30625Q130.27164 32.68125 129.66226 32.321877Q129.06851 31.962502 128.25601 31.962502Q126.959145 31.962502 126.021645 32.775Q125.084145 33.5875 125.084145 35.884377L125.084145 42.4L123.06852 42.4ZM142.25601 42.4L142.25601 25.931252L145.53726 25.931252L149.44351 37.5875Q149.97476 39.228127 150.22476 40.025Q150.50601 39.134377 151.09976 37.384377L155.03726 25.931252L157.97476 25.931252L157.97476 42.4L155.86539 42.4L155.86539 28.618752L151.08414 42.4L149.11539 42.4L144.36539 28.384377L144.36539 42.4L142.25601 42.4ZM168.84976 40.93125Q167.72476 41.884377 166.67789 42.275Q165.64664 42.665627 164.45914 42.665627Q162.49039 42.665627 161.42789 41.7125Q160.38101 40.74375 160.38101 39.259377Q160.38101 38.384377 160.77164 37.665627Q161.17789 36.93125 161.81851 36.49375Q162.47476 36.05625 163.28726 35.8375Q163.88101 35.665627 165.08414 35.525Q167.52164 35.228127 168.67789 34.8375Q168.69351 34.415627 168.69351 34.30625Q168.69351 33.071877 168.11539 32.55625Q167.34976 31.884377 165.81851 31.884377Q164.39664 31.884377 163.70914 32.384377Q163.03726 32.86875 162.70914 34.15L160.72476 33.86875Q161.00601 32.603127 161.61539 31.821877Q162.24039 31.040627 163.39664 30.618752Q164.56851 30.196877 166.11539 30.196877Q167.64664 30.196877 168.59976 30.556252Q169.55289 30.915627 169.99039 31.462502Q170.44351 32.009377 170.63101 32.8375Q170.72476 33.353127 170.72476 34.7125L170.72476 37.4Q170.72476 40.228127 170.84976 40.978127Q170.99039 41.7125 171.36539 42.4L169.25601 42.4Q168.94351 41.775 168.84976 40.93125ZM168.67789 36.415627Q167.58414 36.86875 165.38101 37.18125Q164.13101 37.353127 163.61539 37.5875Q163.09976 37.80625 162.81851 38.24375Q162.53726 38.665627 162.53726 39.196877Q162.53726 40.009377 163.14664 40.55625Q163.77164 41.0875 164.94351 41.0875Q166.11539 41.0875 167.02164 40.571877Q167.92789 40.05625 168.36539 39.18125Q168.67789 38.49375 168.67789 37.15L168.67789 36.415627ZM174.05289 42.4L174.05289 30.478127L175.86539 30.478127L175.86539 32.275Q176.56851 31.009377 177.14664 30.603127Q177.74039 30.196877 178.44351 30.196877Q179.47476 30.196877 180.52164 30.853127L179.83414 32.728127Q179.08414 32.290627 178.34976 32.290627Q177.67789 32.290627 177.14664 32.696877Q176.63101 33.0875 176.41226 33.790627Q176.06851 34.86875 176.06851 36.15L176.06851 42.4L174.05289 42.4ZM182.08414 28.259377L182.08414 25.931252L184.09976 25.931252L184.09976 28.259377L182.08414 28.259377ZM182.08414 42.4L182.08414 30.478127L184.09976 30.478127L184.09976 42.4L182.08414 42.4ZM194.84976 40.93125Q193.72476 41.884377 192.67789 42.275Q191.64664 42.665627 190.45914 42.665627Q188.49039 42.665627 187.42789 41.7125Q186.38101 40.74375 186.38101 39.259377Q186.38101 38.384377 186.77164 37.665627Q187.17789 36.93125 187.81851 36.49375Q188.47476 36.05625 189.28726 35.8375Q189.88101 35.665627 191.08414 35.525Q193.52164 35.228127 194.67789 34.8375Q194.69351 34.415627 194.69351 34.30625Q194.69351 33.071877 194.11539 32.55625Q193.34976 31.884377 191.81851 31.884377Q190.39664 31.884377 189.70914 32.384377Q189.03726 32.86875 188.70914 34.15L186.72476 33.86875Q187.00601 32.603127 187.61539 31.821877Q188.24039 31.040627 189.39664 30.618752Q190.56851 30.196877 192.11539 30.196877Q193.64664 30.196877 194.59976 30.556252Q195.55289 30.915627 195.99039 31.462502Q196.44351 32.009377 196.63101 32.8375Q196.72476 33.353127 196.72476 34.7125L196.72476 37.4Q196.72476 40.228127 196.84976 40.978127Q196.99039 41.7125 197.36539 42.4L195.25601 42.4Q194.94351 41.775 194.84976 40.93125ZM194.67789 36.415627Q193.58414 36.86875 191.38101 37.18125Q190.13101 37.353127 189.61539 37.5875Q189.09976 37.80625 188.81851 38.24375Q188.53726 38.665627 188.53726 39.196877Q188.53726 40.009377 189.14664 40.55625Q189.77164 41.0875 190.94351 41.0875Q192.11539 41.0875 193.02164 40.571877Q193.92789 40.05625 194.36539 39.18125Q194.67789 38.49375 194.67789 37.15L194.67789 36.415627ZM200.06851 42.4L200.06851 30.478127L201.88101 30.478127L201.88101 32.165627Q203.20914 30.196877 205.67789 30.196877Q206.75601 30.196877 207.66226 30.587502Q208.56851 30.978127 209.02164 31.618752Q209.47476 32.24375 209.64664 33.103127Q209.75601 33.665627 209.75601 35.071877L209.75601 42.4L207.74039 42.4L207.74039 35.15Q207.74039 33.915627 207.50601 33.30625Q207.27164 32.68125 206.66226 32.321877Q206.06851 31.962502 205.25601 31.962502Q203.95914 31.962502 203.02164 32.775Q202.08414 33.5875 202.08414 35.884377L202.08414 42.4L200.06851 42.4ZM213.59976 42.4L213.59976 40.103127L215.89664 40.103127L215.89664 42.4Q215.89664 43.665627 215.44351 44.446877Q215.00601 45.228127 214.02164 45.65L213.45914 44.790627Q214.09976 44.509377 214.39664 43.9625Q214.70914 43.415627 214.74039 42.4L213.59976 42.4ZM234.99039 29.962502L232.99039 30.118752Q232.72476 28.931252 232.22476 28.400002Q231.39664 27.525002 230.20914 27.525002Q229.24039 27.525002 228.50601 28.071877Q227.55289 28.759377 226.99039 30.103127Q226.44351 31.431252 226.42789 33.915627Q227.16226 32.790627 228.20914 32.259377Q229.27164 31.712502 230.42789 31.712502Q232.44351 31.712502 233.86539 33.2125Q235.28726 34.696877 235.28726 37.05625Q235.28726 38.603127 234.61539 39.93125Q233.95914 41.259377 232.78726 41.978127Q231.61539 42.68125 230.13101 42.68125Q227.59976 42.68125 226.00601 40.821877Q224.41226 38.9625 224.41226 34.696877Q224.41226 29.915627 226.17789 27.759377Q227.72476 25.868752 230.31851 25.868752Q232.27164 25.868752 233.50601 26.962502Q234.75601 28.040627 234.99039 29.962502ZM226.74039 37.071877Q226.74039 38.103127 227.17789 39.071877Q227.63101 40.025 228.42789 40.525Q229.22476 41.025 230.09976 41.025Q231.38101 41.025 232.30289 39.99375Q233.22476 38.946877 233.22476 37.18125Q233.22476 35.478127 232.30289 34.49375Q231.39664 33.509377 230.02164 33.509377Q228.64664 33.509377 227.69351 34.49375Q226.74039 35.478127 226.74039 37.071877ZM245.92789 42.4L244.05289 42.4L244.05289 25.931252L246.08414 25.931252L246.08414 31.806252Q247.36539 30.196877 249.34976 30.196877Q250.44351 30.196877 251.42789 30.650002Q252.41226 31.087502 253.03726 31.900002Q253.67789 32.696877 254.03726 33.8375Q254.39664 34.9625 254.39664 36.259377Q254.39664 39.321877 252.88101 40.99375Q251.36539 42.665627 249.24039 42.665627Q247.13101 42.665627 245.92789 40.9L245.92789 42.4ZM245.91226 36.353127Q245.91226 38.49375 246.49039 39.446877Q247.44351 41.009377 249.08414 41.009377Q250.39664 41.009377 251.36539 39.86875Q252.33414 38.7125 252.33414 36.43125Q252.33414 34.0875 251.39664 32.978127Q250.47476 31.868752 249.16226 31.868752Q247.84976 31.868752 246.88101 33.025Q245.91226 34.165627 245.91226 36.353127ZM265.2404 38.55625L267.3185 38.821877Q266.83414 40.65 265.4904 41.665627Q264.16226 42.665627 262.08414 42.665627Q259.45914 42.665627 257.9279 41.05625Q256.39664 39.446877 256.39664 36.540627Q256.39664 33.525 257.9435 31.868752Q259.4904 30.196877 261.95914 30.196877Q264.3654 30.196877 265.881 31.837502Q267.39664 33.4625 267.39664 36.415627Q267.39664 36.5875 267.381 36.946877L258.4904 36.946877Q258.59976 38.915627 259.59976 39.9625Q260.59976 41.009377 262.08414 41.009377Q263.1935 41.009377 263.97476 40.43125Q264.77164 39.8375 265.2404 38.55625ZM258.59976 35.290627L265.256 35.290627Q265.1154 33.790627 264.4904 33.040627Q263.52164 31.868752 261.9904 31.868752Q260.59976 31.868752 259.64664 32.80625Q258.6935 33.728127 258.59976 35.290627ZM277.84976 40.93125Q276.72476 41.884377 275.6779 42.275Q274.64664 42.665627 273.45914 42.665627Q271.4904 42.665627 270.4279 41.7125Q269.381 40.74375 269.381 39.259377Q269.381 38.384377 269.77164 37.665627Q270.1779 36.93125 270.8185 36.49375Q271.47476 36.05625 272.28726 35.8375Q272.881 35.665627 274.08414 35.525Q276.52164 35.228127 277.6779 34.8375Q277.6935 34.415627 277.6935 34.30625Q277.6935 33.071877 277.1154 32.55625Q276.34976 31.884377 274.8185 31.884377Q273.39664 31.884377 272.70914 32.384377Q272.03726 32.86875 271.70914 34.15L269.72476 33.86875Q270.006 32.603127 270.6154 31.821877Q271.2404 31.040627 272.39664 30.618752Q273.5685 30.196877 275.1154 30.196877Q276.64664 30.196877 277.59976 30.556252Q278.5529 30.915627 278.9904 31.462502Q279.4435 32.009377 279.631 32.8375Q279.72476 33.353127 279.72476 34.7125L279.72476 37.4Q279.72476 40.228127 279.84976 40.978127Q279.9904 41.7125 280.3654 42.4L278.256 42.4Q277.9435 41.775 277.84976 40.93125ZM277.6779 36.415627Q276.58414 36.86875 274.381 37.18125Q273.131 37.353127 272.6154 37.5875Q272.09976 37.80625 271.8185 38.24375Q271.53726 38.665627 271.53726 39.196877Q271.53726 40.009377 272.14664 40.55625Q272.77164 41.0875 273.9435 41.0875Q275.1154 41.0875 276.02164 40.571877Q276.9279 40.05625 277.3654 39.18125Q277.6779 38.49375 277.6779 37.15L277.6779 36.415627ZM283.0685 42.4L283.0685 30.478127L284.881 30.478127L284.881 32.15Q285.4435 31.275002 286.3654 30.743752Q287.3029 30.196877 288.4904 30.196877Q289.8185 30.196877 290.66226 30.759377Q291.52164 31.306252 291.8654 32.290627Q293.27164 30.196877 295.5529 30.196877Q297.3185 30.196877 298.27164 31.181252Q299.22476 32.165627 299.22476 34.2125L299.22476 42.4L297.22476 42.4L297.22476 34.884377Q297.22476 33.68125 297.02164 33.15Q296.83414 32.603127 296.3029 32.290627Q295.78726 31.962502 295.09976 31.962502Q293.83414 31.962502 293.006 32.80625Q292.1779 33.634377 292.1779 35.478127L292.1779 42.4L290.16226 42.4L290.16226 34.65Q290.16226 33.30625 289.66226 32.634377Q289.16226 31.962502 288.03726 31.962502Q287.1935 31.962502 286.45914 32.415627Q285.7404 32.853127 285.41226 33.728127Q285.08414 34.5875 285.08414 36.2125L285.08414 42.4L283.0685 42.4ZM301.256 38.8375L303.256 38.525Q303.4279 39.728127 304.1935 40.36875Q304.95914 41.009377 306.34976 41.009377Q307.7404 41.009377 308.41226 40.446877Q309.08414 39.86875 309.08414 39.103127Q309.08414 38.43125 308.4904 38.025Q308.08414 37.759377 306.4279 37.353127Q304.20914 36.790627 303.34976 36.384377Q302.4904 35.9625 302.03726 35.24375Q301.59976 34.509377 301.59976 33.634377Q301.59976 32.8375 301.95914 32.165627Q302.33414 31.478127 302.95914 31.040627Q303.4279 30.681252 304.2404 30.446877Q305.0529 30.196877 305.9904 30.196877Q307.39664 30.196877 308.45914 30.603127Q309.52164 31.009377 310.02164 31.712502Q310.52164 32.4 310.70914 33.55625L308.7404 33.821877Q308.59976 32.9 307.95914 32.384377Q307.3185 31.868752 306.131 31.868752Q304.7404 31.868752 304.14664 32.3375Q303.5529 32.790627 303.5529 33.4Q303.5529 33.790627 303.8029 34.11875Q304.0529 34.43125 304.5685 34.65Q304.881 34.759377 306.3654 35.165627Q308.506 35.74375 309.34976 36.103127Q310.1935 36.4625 310.6779 37.165627Q311.16226 37.86875 311.16226 38.9Q311.16226 39.9 310.5685 40.80625Q309.9904 41.696877 308.8654 42.18125Q307.756 42.665627 306.3654 42.665627Q304.03726 42.665627 302.8185 41.7125Q301.59976 40.74375 301.256 38.8375Z" fill-rule="nonzero"/></svg>