<svg version="1.1" viewBox="0.0 0.0 651.0 428.0" fill="none" stroke="none" stroke-linecap="square" stroke-miterlimit="10" width="651" height="428" xmlns:xlink="http://www.w3.org/1999/xlink" xmlns="http://www.w3.org/2000/svg"><path fill="#ffffff" d="M0 0L651.0 0L651.0 428.0L0 428.0L0 0Z" fill-rule="nonzero"/><path stroke="#333333" stroke-width="1.0" stroke-linecap="butt" d="M106.5 379.5L524.5 379.5" fill-rule="nonzero"/><path stroke="#cccccc" stroke-width="1.0" stroke-linecap="butt" d="M106.5 304.5L524.5 304.5" fill-rule="nonzero"/><path stroke="#cccccc" stroke-width="1.0" stroke-linecap="butt" d="M106.5 229.5L524.5 229.5" fill-rule="nonzero"/><path stroke="#cccccc" stroke-width="1.0" stroke-linecap="butt" d="M106.5 154.5L524.5 154.5" fill-rule="nonzero"/><path stroke="#cccccc" stroke-width="1.0" stroke-linecap="butt" d="M106.5 79.5L524.5 79.5" fill-rule="nonzero"/><path stroke="#e6e6e6" stroke-width="1.0" stroke-linecap="butt" d="M106.5 354.5L524.5 354.5" fill-rule="nonzero"/><path stroke="#e6e6e6" stroke-width="1.0" stroke-linecap="butt" d="M106.5 329.5L524.5 329.5" fill-rule="nonzero"/><path stroke="#e6e6e6" stroke-width="1.0" stroke-linecap="butt" d="M106.5 279.5L524.5 279.5" fill-rule="nonzero"/><path stroke="#e6e6e6" stroke-width="1.0" stroke-linecap="butt" d="M106.5 254.5L524.5 254.5" fill-rule="nonzero"/><path stroke="#e6e6e6" stroke-width="1.0" stroke-linecap="butt" d="M106.5 204.5L524.5 204.5" fill-rule="nonzero"/><path stroke="#e6e6e6" stroke-width="1.0" stroke-linecap="butt" d="M106.5 179.5L524.5 179.5" fill-rule="nonzero"/><path stroke="#e6e6e6" stroke-width="1.0" stroke-linecap="butt" d="M106.5 129.5L524.5 129.5" fill-rule="nonzero"/><path stroke="#e6e6e6" stroke-width="1.0" stroke-linecap="butt" d="M106.5 104.5L524.5 104.5" fill-rule="nonzero"/><path stroke="#000000" stroke-width="1.0" stroke-linecap="butt" d="M106.5 379.5L106.5 79.5" fill-rule="nonzero"/><clipPath id="id_0"><path d="M106.35313 79.5L524.5 79.5L524.5 379.6L106.35313 379.6L106.35313 79.5Z" clip-rule="nonzero"/></clipPath><path stroke="#000000" stroke-width="2.0" stroke-linecap="butt" stroke-opacity="0.0" clip-path="url(#id_0)" d="M225.0 380.0L169.0 380.0L169.0 163.0C169.0 161.89543 169.89543 161.0 171.0 161.0L223.0 161.0C224.10457 161.0 225.0 161.89543 225.0 163.0Z" fill-rule="nonzero"/><path fill="#3d85c6" clip-path="url(#id_0)" d="M225.0 380.0L169.0 380.0L169.0 163.0C169.0 161.89543 169.89543 161.0 171.0 161.0L223.0 161.0C224.10457 161.0 225.0 161.89543 225.0 163.0Z" fill-rule="nonzero"/><path stroke="#000000" stroke-width="2.0" stroke-linecap="butt" stroke-opacity="0.0" clip-path="url(#id_0)" d="M403.0 380.0L347.0 380.0L347.0 118.0C347.0 116.89543 347.89542 116.0 349.0 116.0L401.0 116.0C402.10458 116.0 403.0 116.89543 403.0 118.0Z" fill-rule="nonzero"/><path fill="#3d85c6" clip-path="url(#id_0)" d="M403.0 380.0L347.0 380.0L347.0 118.0C347.0 116.89543 347.89542 116.0 349.0 116.0L401.0 116.0C402.10458 116.0 403.0 116.89543 403.0 118.0Z" fill-rule="nonzero"/><path stroke="#000000" stroke-width="2.0" stroke-linecap="butt" stroke-opacity="0.0" clip-path="url(#id_0)" d="M283.0 380.0L227.0 380.0L227.0 292.0C227.0 290.89542 227.89543 290.0 229.0 290.0L281.0 290.0C282.10458 290.0 283.0 290.89542 283.0 292.0Z" fill-rule="nonzero"/><path fill="#bf9000" clip-path="url(#id_0)" d="M283.0 380.0L227.0 380.0L227.0 292.0C227.0 290.89542 227.89543 290.0 229.0 290.0L281.0 290.0C282.10458 290.0 283.0 290.89542 283.0 292.0Z" fill-rule="nonzero"/><path stroke="#000000" stroke-width="2.0" stroke-linecap="butt" stroke-opacity="0.0" clip-path="url(#id_0)" d="M461.0 380.0L405.0 380.0L405.0 167.0C405.0 165.89543 405.89542 165.0 407.0 165.0L459.0 165.0C460.10458 165.0 461.0 165.89543 461.0 167.0Z" fill-rule="nonzero"/><path fill="#bf9000" clip-path="url(#id_0)" d="M461.0 380.0L405.0 380.0L405.0 167.0C405.0 165.89543 405.89542 165.0 407.0 165.0L459.0 165.0C460.10458 165.0 461.0 165.89543 461.0 167.0Z" fill-rule="nonzero"/><path stroke="#000000" stroke-width="1.0" stroke-linecap="butt" d="M103.5 354.5L109.5 354.5" fill-rule="nonzero"/><path stroke="#000000" stroke-width="1.0" stroke-linecap="butt" d="M103.5 329.5L109.5 329.5" fill-rule="nonzero"/><path stroke="#000000" stroke-width="1.0" stroke-linecap="butt" d="M103.5 279.5L109.5 279.5" fill-rule="nonzero"/><path stroke="#000000" stroke-width="1.0" stroke-linecap="butt" d="M103.5 254.5L109.5 254.5" fill-rule="nonzero"/><path stroke="#000000" stroke-width="1.0" stroke-linecap="butt" d="M103.5 204.5L109.5 204.5" fill-rule="nonzero"/><path stroke="#000000" stroke-width="1.0" stroke-linecap="butt" d="M103.5 179.5L109.5 179.5" fill-rule="nonzero"/><path stroke="#000000" stroke-width="1.0" stroke-linecap="butt" d="M103.5 129.5L109.5 129.5" fill-rule="nonzero"/><path stroke="#000000" stroke-width="1.0" stroke-linecap="butt" d="M103.5 104.5L109.5 104.5" fill-rule="nonzero"/><path stroke="#000000" stroke-width="1.0" stroke-linecap="butt" d="M100.5 379.5L112.5 379.5" fill-rule="nonzero"/><path stroke="#000000" stroke-width="1.0" stroke-linecap="butt" d="M100.5 304.5L112.5 304.5" fill-rule="nonzero"/><path stroke="#000000" stroke-width="1.0" stroke-linecap="butt" d="M100.5 229.5L112.5 229.5" fill-rule="nonzero"/><path stroke="#000000" stroke-width="1.0" stroke-linecap="butt" d="M100.5 154.5L112.5 154.5" fill-rule="nonzero"/><path stroke="#000000" stroke-width="1.0" stroke-linecap="butt" d="M100.5 79.5L112.5 79.5" fill-rule="nonzero"/><path stroke="#ffffff" stroke-width="3.0" stroke-linejoin="round" stroke-linecap="round" d="M183.10938 134.82387L183.6875 129.152L189.51562 129.152L189.51562 130.48012L184.92188 130.48012L184.57812 133.5895Q185.40625 133.0895 186.46875 133.0895Q188.03125 133.0895 188.9375 134.12074Q189.85938 135.152 189.85938 136.902Q189.85938 138.652 188.90625 139.66762Q187.95312 140.68324 186.25 140.68324Q184.75 140.68324 183.79688 139.85512Q182.84375 139.01137 182.70312 137.527L184.07812 137.527Q184.20312 138.51137 184.76562 139.01137Q185.32812 139.49574 186.25 139.49574Q187.26562 139.49574 187.82812 138.80824Q188.40625 138.12074 188.40625 136.91762Q188.40625 135.777 187.78125 135.0895Q187.17188 134.38637 186.14062 134.38637Q185.1875 134.38637 184.65625 134.80824L184.26562 135.12074L183.10938 134.82387ZM191.625 139.76137Q191.625 139.38637 191.84375 139.13637Q192.07812 138.88637 192.51562 138.88637Q192.96875 138.88637 193.1875 139.13637Q193.42188 139.38637 193.42188 139.76137Q193.42188 140.12074 193.1875 140.37074Q192.96875 140.62074 192.51562 140.62074Q192.07812 140.62074 191.84375 140.37074Q191.625 140.12074 191.625 139.76137ZM202.34375 132.12074Q202.34375 132.9645 201.89062 133.63637Q201.45312 134.29262 200.6875 134.66762Q201.57812 135.05824 202.09375 135.79262Q202.60938 136.527 202.60938 137.44887Q202.60938 138.93324 201.60938 139.80824Q200.625 140.68324 199.0 140.68324Q197.35938 140.68324 196.35938 139.80824Q195.375 138.91762 195.375 137.44887Q195.375 136.527 195.875 135.79262Q196.39062 135.04262 197.28125 134.66762Q196.51562 134.29262 196.07812 133.63637Q195.64062 132.9645 195.64062 132.12074Q195.64062 130.68324 196.5625 129.8395Q197.48438 128.99574 199.0 128.99574Q200.5 128.99574 201.42188 129.8395Q202.34375 130.68324 202.34375 132.12074ZM201.17188 137.41762Q201.17188 136.4645 200.5625 135.87074Q199.95312 135.26137 198.96875 135.26137Q198.0 135.26137 197.40625 135.85512Q196.82812 136.44887 196.82812 137.41762Q196.82812 138.38637 197.39062 138.94887Q197.96875 139.49574 199.0 139.49574Q200.01562 139.49574 200.59375 138.94887Q201.17188 138.38637 201.17188 137.41762ZM199.0 130.18324Q198.14062 130.18324 197.60938 130.7145Q197.09375 131.23012 197.09375 132.13637Q197.09375 133.01137 197.60938 133.54262Q198.125 134.07387 198.98438 134.07387Q199.85938 134.07387 200.375 133.54262Q200.90625 133.01137 200.90625 132.152Q200.90625 131.277 200.35938 130.73012Q199.82812 130.18324 199.0 130.18324ZM210.54688 136.69887L212.125 136.69887L212.125 137.88637L210.54688 137.88637L210.54688 140.527L209.09375 140.527L209.09375 137.88637L203.92188 137.88637L203.92188 137.027L209.01562 129.152L210.54688 129.152L210.54688 136.69887ZM205.5625 136.69887L209.09375 136.69887L209.09375 131.12074L208.92188 131.43324L205.5625 136.69887Z" fill-rule="nonzero"/><path fill="#3d85c6" d="M183.10938 134.82387L183.6875 129.152L189.51562 129.152L189.51562 130.48012L184.92188 130.48012L184.57812 133.5895Q185.40625 133.0895 186.46875 133.0895Q188.03125 133.0895 188.9375 134.12074Q189.85938 135.152 189.85938 136.902Q189.85938 138.652 188.90625 139.66762Q187.95312 140.68324 186.25 140.68324Q184.75 140.68324 183.79688 139.85512Q182.84375 139.01137 182.70312 137.527L184.07812 137.527Q184.20312 138.51137 184.76562 139.01137Q185.32812 139.49574 186.25 139.49574Q187.26562 139.49574 187.82812 138.80824Q188.40625 138.12074 188.40625 136.91762Q188.40625 135.777 187.78125 135.0895Q187.17188 134.38637 186.14062 134.38637Q185.1875 134.38637 184.65625 134.80824L184.26562 135.12074L183.10938 134.82387ZM191.625 139.76137Q191.625 139.38637 191.84375 139.13637Q192.07812 138.88637 192.51562 138.88637Q192.96875 138.88637 193.1875 139.13637Q193.42188 139.38637 193.42188 139.76137Q193.42188 140.12074 193.1875 140.37074Q192.96875 140.62074 192.51562 140.62074Q192.07812 140.62074 191.84375 140.37074Q191.625 140.12074 191.625 139.76137ZM202.34375 132.12074Q202.34375 132.9645 201.89062 133.63637Q201.45312 134.29262 200.6875 134.66762Q201.57812 135.05824 202.09375 135.79262Q202.60938 136.527 202.60938 137.44887Q202.60938 138.93324 201.60938 139.80824Q200.625 140.68324 199.0 140.68324Q197.35938 140.68324 196.35938 139.80824Q195.375 138.91762 195.375 137.44887Q195.375 136.527 195.875 135.79262Q196.39062 135.04262 197.28125 134.66762Q196.51562 134.29262 196.07812 133.63637Q195.64062 132.9645 195.64062 132.12074Q195.64062 130.68324 196.5625 129.8395Q197.48438 128.99574 199.0 128.99574Q200.5 128.99574 201.42188 129.8395Q202.34375 130.68324 202.34375 132.12074ZM201.17188 137.41762Q201.17188 136.4645 200.5625 135.87074Q199.95312 135.26137 198.96875 135.26137Q198.0 135.26137 197.40625 135.85512Q196.82812 136.44887 196.82812 137.41762Q196.82812 138.38637 197.39062 138.94887Q197.96875 139.49574 199.0 139.49574Q200.01562 139.49574 200.59375 138.94887Q201.17188 138.38637 201.17188 137.41762ZM199.0 130.18324Q198.14062 130.18324 197.60938 130.7145Q197.09375 131.23012 197.09375 132.13637Q197.09375 133.01137 197.60938 133.54262Q198.125 134.07387 198.98438 134.07387Q199.85938 134.07387 200.375 133.54262Q200.90625 133.01137 200.90625 132.152Q200.90625 131.277 200.35938 130.73012Q199.82812 130.18324 199.0 130.18324ZM210.54688 136.69887L212.125 136.69887L212.125 137.88637L210.54688 137.88637L210.54688 140.527L209.09375 140.527L209.09375 137.88637L203.92188 137.88637L203.92188 137.027L209.01562 129.152L210.54688 129.152L210.54688 136.69887ZM205.5625 136.69887L209.09375 136.69887L209.09375 131.12074L208.92188 131.43324L205.5625 136.69887Z" fill-rule="nonzero"/><path stroke="#ffffff" stroke-width="3.0" stroke-linejoin="round" stroke-linecap="round" d="M367.79688 85.32462L363.07812 95.88712L361.5625 95.88712L366.26562 85.69962L360.10938 85.69962L360.10938 84.51212L367.79688 84.51212L367.79688 85.32462ZM369.625 95.1215Q369.625 94.7465 369.84375 94.4965Q370.07812 94.2465 370.51562 94.2465Q370.96875 94.2465 371.1875 94.4965Q371.42188 94.7465 371.42188 95.1215Q371.42188 95.48087 371.1875 95.73087Q370.96875 95.98087 370.51562 95.98087Q370.07812 95.98087 369.84375 95.73087Q369.625 95.48087 369.625 95.1215ZM380.57812 91.02775Q380.57812 93.57462 379.70312 94.809Q378.84375 96.04337 377.0 96.04337Q375.1875 96.04337 374.3125 94.84025Q373.4375 93.6215 373.40625 91.23087L373.40625 89.29337Q373.40625 86.79337 374.26562 85.57462Q375.14062 84.35587 376.98438 84.35587Q378.82812 84.35587 379.6875 85.52775Q380.5625 86.69962 380.57812 89.15275L380.57812 91.02775ZM379.14062 89.059Q379.14062 87.21525 378.625 86.38712Q378.10938 85.54337 376.98438 85.54337Q375.875 85.54337 375.35938 86.38712Q374.85938 87.21525 374.84375 88.94962L374.84375 91.26212Q374.84375 93.10587 375.375 93.98087Q375.92188 94.85587 377.0 94.85587Q378.07812 94.85587 378.59375 94.02775Q379.10938 93.19962 379.14062 91.41837L379.14062 89.059ZM384.54688 89.4965L385.64062 89.4965Q386.65625 89.48087 387.23438 88.96525Q387.82812 88.434 387.82812 87.54337Q387.82812 85.54337 385.84375 85.54337Q384.90625 85.54337 384.34375 86.07462Q383.78125 86.60587 383.78125 87.4965L382.34375 87.4965Q382.34375 86.13712 383.32812 85.2465Q384.3125 84.35587 385.84375 84.35587Q387.45312 84.35587 388.35938 85.21525Q389.28125 86.059 389.28125 87.57462Q389.28125 88.309 388.79688 89.01212Q388.3125 89.69962 387.48438 90.04337Q388.42188 90.34025 388.9375 91.02775Q389.45312 91.71525 389.45312 92.71525Q389.45312 94.2465 388.45312 95.15275Q387.45312 96.04337 385.84375 96.04337Q384.25 96.04337 383.23438 95.184Q382.23438 94.309 382.23438 92.88712L383.6875 92.88712Q383.6875 93.77775 384.26562 94.32462Q384.85938 94.85587 385.84375 94.85587Q386.89062 94.85587 387.4375 94.309Q388.0 93.76212 388.0 92.7465Q388.0 91.7465 387.39062 91.21525Q386.78125 90.684 385.64062 90.66837L384.54688 90.66837L384.54688 89.4965Z" fill-rule="nonzero"/><path fill="#3d85c6" d="M367.79688 85.32462L363.07812 95.88712L361.5625 95.88712L366.26562 85.69962L360.10938 85.69962L360.10938 84.51212L367.79688 84.51212L367.79688 85.32462ZM369.625 95.1215Q369.625 94.7465 369.84375 94.4965Q370.07812 94.2465 370.51562 94.2465Q370.96875 94.2465 371.1875 94.4965Q371.42188 94.7465 371.42188 95.1215Q371.42188 95.48087 371.1875 95.73087Q370.96875 95.98087 370.51562 95.98087Q370.07812 95.98087 369.84375 95.73087Q369.625 95.48087 369.625 95.1215ZM380.57812 91.02775Q380.57812 93.57462 379.70312 94.809Q378.84375 96.04337 377.0 96.04337Q375.1875 96.04337 374.3125 94.84025Q373.4375 93.6215 373.40625 91.23087L373.40625 89.29337Q373.40625 86.79337 374.26562 85.57462Q375.14062 84.35587 376.98438 84.35587Q378.82812 84.35587 379.6875 85.52775Q380.5625 86.69962 380.57812 89.15275L380.57812 91.02775ZM379.14062 89.059Q379.14062 87.21525 378.625 86.38712Q378.10938 85.54337 376.98438 85.54337Q375.875 85.54337 375.35938 86.38712Q374.85938 87.21525 374.84375 88.94962L374.84375 91.26212Q374.84375 93.10587 375.375 93.98087Q375.92188 94.85587 377.0 94.85587Q378.07812 94.85587 378.59375 94.02775Q379.10938 93.19962 379.14062 91.41837L379.14062 89.059ZM384.54688 89.4965L385.64062 89.4965Q386.65625 89.48087 387.23438 88.96525Q387.82812 88.434 387.82812 87.54337Q387.82812 85.54337 385.84375 85.54337Q384.90625 85.54337 384.34375 86.07462Q383.78125 86.60587 383.78125 87.4965L382.34375 87.4965Q382.34375 86.13712 383.32812 85.2465Q384.3125 84.35587 385.84375 84.35587Q387.45312 84.35587 388.35938 85.21525Q389.28125 86.059 389.28125 87.57462Q389.28125 88.309 388.79688 89.01212Q388.3125 89.69962 387.48438 90.04337Q388.42188 90.34025 388.9375 91.02775Q389.45312 91.71525 389.45312 92.71525Q389.45312 94.2465 388.45312 95.15275Q387.45312 96.04337 385.84375 96.04337Q384.25 96.04337 383.23438 95.184Q382.23438 94.309 382.23438 92.88712L383.6875 92.88712Q383.6875 93.77775 384.26562 94.32462Q384.85938 94.85587 385.84375 94.85587Q386.89062 94.85587 387.4375 94.309Q388.0 93.76212 388.0 92.7465Q388.0 91.7465 387.39062 91.21525Q386.78125 90.684 385.64062 90.66837L384.54688 90.66837L384.54688 89.4965Z" fill-rule="nonzero"/><path stroke="#ffffff" stroke-width="3.0" stroke-linejoin="round" stroke-linecap="round" d="M247.90625 270.32025L240.45312 270.32025L240.45312 269.27338L244.39062 264.89838Q245.26562 263.914 245.59375 263.289Q245.92188 262.664 245.92188 262.00775Q245.92188 261.11713 245.375 260.55463Q244.84375 259.9765 243.95312 259.9765Q242.875 259.9765 242.26562 260.58588Q241.67188 261.19525 241.67188 262.289L240.23438 262.289Q240.23438 260.7265 241.23438 259.75775Q242.25 258.789 243.95312 258.789Q245.53125 258.789 246.45312 259.61713Q247.375 260.44525 247.375 261.83588Q247.375 263.50775 245.23438 265.83588L242.1875 269.13275L247.90625 269.13275L247.90625 270.32025ZM249.625 269.55463Q249.625 269.17963 249.84375 268.92963Q250.07812 268.67963 250.51562 268.67963Q250.96875 268.67963 251.1875 268.92963Q251.42188 269.17963 251.42188 269.55463Q251.42188 269.914 251.1875 270.164Q250.96875 270.414 250.51562 270.414Q250.07812 270.414 249.84375 270.164Q249.625 269.914 249.625 269.55463ZM255.54688 263.92963L256.64062 263.92963Q257.65625 263.914 258.23438 263.39838Q258.82812 262.86713 258.82812 261.9765Q258.82812 259.9765 256.84375 259.9765Q255.90625 259.9765 255.34375 260.50775Q254.78125 261.039 254.78125 261.92963L253.34375 261.92963Q253.34375 260.57025 254.32812 259.67963Q255.3125 258.789 256.84375 258.789Q258.45312 258.789 259.35938 259.64838Q260.28125 260.49213 260.28125 262.00775Q260.28125 262.74213 259.79688 263.44525Q259.3125 264.13275 258.48438 264.4765Q259.42188 264.77338 259.9375 265.46088Q260.45312 266.14838 260.45312 267.14838Q260.45312 268.67963 259.45312 269.58588Q258.45312 270.4765 256.84375 270.4765Q255.25 270.4765 254.23438 269.61713Q253.23438 268.74213 253.23438 267.32025L254.6875 267.32025Q254.6875 268.21088 255.26562 268.75775Q255.85938 269.289 256.84375 269.289Q257.89062 269.289 258.4375 268.74213Q259.0 268.19525 259.0 267.17963Q259.0 266.17963 258.39062 265.64838Q257.78125 265.11713 256.64062 265.1015L255.54688 265.1015L255.54688 263.92963ZM269.34375 261.914Q269.34375 262.75775 268.89062 263.42963Q268.45312 264.08588 267.6875 264.46088Q268.57812 264.8515 269.09375 265.58588Q269.60938 266.32025 269.60938 267.24213Q269.60938 268.7265 268.60938 269.6015Q267.625 270.4765 266.0 270.4765Q264.35938 270.4765 263.35938 269.6015Q262.375 268.71088 262.375 267.24213Q262.375 266.32025 262.875 265.58588Q263.39062 264.83588 264.28125 264.46088Q263.51562 264.08588 263.07812 263.42963Q262.64062 262.75775 262.64062 261.914Q262.64062 260.4765 263.5625 259.63275Q264.48438 258.789 266.0 258.789Q267.5 258.789 268.42188 259.63275Q269.34375 260.4765 269.34375 261.914ZM268.17188 267.21088Q268.17188 266.25775 267.5625 265.664Q266.95312 265.05463 265.96875 265.05463Q265.0 265.05463 264.40625 265.64838Q263.82812 266.24213 263.82812 267.21088Q263.82812 268.17963 264.39062 268.74213Q264.96875 269.289 266.0 269.289Q267.01562 269.289 267.59375 268.74213Q268.17188 268.17963 268.17188 267.21088ZM266.0 259.9765Q265.14062 259.9765 264.60938 260.50775Q264.09375 261.02338 264.09375 261.92963Q264.09375 262.80463 264.60938 263.33588Q265.125 263.86713 265.98438 263.86713Q266.85938 263.86713 267.375 263.33588Q267.90625 262.80463 267.90625 261.94525Q267.90625 261.07025 267.35938 260.52338Q266.82812 259.9765 266.0 259.9765Z" fill-rule="nonzero"/><path fill="#bf9000" d="M247.90625 270.32025L240.45312 270.32025L240.45312 269.27338L244.39062 264.89838Q245.26562 263.914 245.59375 263.289Q245.92188 262.664 245.92188 262.00775Q245.92188 261.11713 245.375 260.55463Q244.84375 259.9765 243.95312 259.9765Q242.875 259.9765 242.26562 260.58588Q241.67188 261.19525 241.67188 262.289L240.23438 262.289Q240.23438 260.7265 241.23438 259.75775Q242.25 258.789 243.95312 258.789Q245.53125 258.789 246.45312 259.61713Q247.375 260.44525 247.375 261.83588Q247.375 263.50775 245.23438 265.83588L242.1875 269.13275L247.90625 269.13275L247.90625 270.32025ZM249.625 269.55463Q249.625 269.17963 249.84375 268.92963Q250.07812 268.67963 250.51562 268.67963Q250.96875 268.67963 251.1875 268.92963Q251.42188 269.17963 251.42188 269.55463Q251.42188 269.914 251.1875 270.164Q250.96875 270.414 250.51562 270.414Q250.07812 270.414 249.84375 270.164Q249.625 269.914 249.625 269.55463ZM255.54688 263.92963L256.64062 263.92963Q257.65625 263.914 258.23438 263.39838Q258.82812 262.86713 258.82812 261.9765Q258.82812 259.9765 256.84375 259.9765Q255.90625 259.9765 255.34375 260.50775Q254.78125 261.039 254.78125 261.92963L253.34375 261.92963Q253.34375 260.57025 254.32812 259.67963Q255.3125 258.789 256.84375 258.789Q258.45312 258.789 259.35938 259.64838Q260.28125 260.49213 260.28125 262.00775Q260.28125 262.74213 259.79688 263.44525Q259.3125 264.13275 258.48438 264.4765Q259.42188 264.77338 259.9375 265.46088Q260.45312 266.14838 260.45312 267.14838Q260.45312 268.67963 259.45312 269.58588Q258.45312 270.4765 256.84375 270.4765Q255.25 270.4765 254.23438 269.61713Q253.23438 268.74213 253.23438 267.32025L254.6875 267.32025Q254.6875 268.21088 255.26562 268.75775Q255.85938 269.289 256.84375 269.289Q257.89062 269.289 258.4375 268.74213Q259.0 268.19525 259.0 267.17963Q259.0 266.17963 258.39062 265.64838Q257.78125 265.11713 256.64062 265.1015L255.54688 265.1015L255.54688 263.92963ZM269.34375 261.914Q269.34375 262.75775 268.89062 263.42963Q268.45312 264.08588 267.6875 264.46088Q268.57812 264.8515 269.09375 265.58588Q269.60938 266.32025 269.60938 267.24213Q269.60938 268.7265 268.60938 269.6015Q267.625 270.4765 266.0 270.4765Q264.35938 270.4765 263.35938 269.6015Q262.375 268.71088 262.375 267.24213Q262.375 266.32025 262.875 265.58588Q263.39062 264.83588 264.28125 264.46088Q263.51562 264.08588 263.07812 263.42963Q262.64062 262.75775 262.64062 261.914Q262.64062 260.4765 263.5625 259.63275Q264.48438 258.789 266.0 258.789Q267.5 258.789 268.42188 259.63275Q269.34375 260.4765 269.34375 261.914ZM268.17188 267.21088Q268.17188 266.25775 267.5625 265.664Q266.95312 265.05463 265.96875 265.05463Q265.0 265.05463 264.40625 265.64838Q263.82812 266.24213 263.82812 267.21088Q263.82812 268.17963 264.39062 268.74213Q264.96875 269.289 266.0 269.289Q267.01562 269.289 267.59375 268.74213Q268.17188 268.17963 268.17188 267.21088ZM266.0 259.9765Q265.14062 259.9765 264.60938 260.50775Q264.09375 261.02338 264.09375 261.92963Q264.09375 262.80463 264.60938 263.33588Q265.125 263.86713 265.98438 263.86713Q266.85938 263.86713 267.375 263.33588Q267.90625 262.80463 267.90625 261.94525Q267.90625 261.07025 267.35938 260.52338Q266.82812 259.9765 266.0 259.9765Z" fill-rule="nonzero"/><path stroke="#ffffff" stroke-width="3.0" stroke-linejoin="round" stroke-linecap="round" d="M419.10938 138.95026L419.6875 133.27838L425.51562 133.27838L425.51562 134.6065L420.92188 134.6065L420.57812 137.71588Q421.40625 137.21588 422.46875 137.21588Q424.03125 137.21588 424.9375 138.24713Q425.85938 139.27838 425.85938 141.02838Q425.85938 142.77838 424.90625 143.794Q423.95312 144.80963 422.25 144.80963Q420.75 144.80963 419.79688 143.9815Q418.84375 143.13776 418.70312 141.65338L420.07812 141.65338Q420.20312 142.63776 420.76562 143.13776Q421.32812 143.62213 422.25 143.62213Q423.26562 143.62213 423.82812 142.93463Q424.40625 142.24713 424.40625 141.044Q424.40625 139.90338 423.78125 139.21588Q423.17188 138.51276 422.14062 138.51276Q421.1875 138.51276 420.65625 138.93463L420.26562 139.24713L419.10938 138.95026ZM427.625 143.88776Q427.625 143.51276 427.84375 143.26276Q428.07812 143.01276 428.51562 143.01276Q428.96875 143.01276 429.1875 143.26276Q429.42188 143.51276 429.42188 143.88776Q429.42188 144.24713 429.1875 144.49713Q428.96875 144.74713 428.51562 144.74713Q428.07812 144.74713 427.84375 144.49713Q427.625 144.24713 427.625 143.88776ZM438.79688 134.09088L434.07812 144.65338L432.5625 144.65338L437.26562 134.46588L431.10938 134.46588L431.10938 133.27838L438.79688 133.27838L438.79688 134.09088ZM442.54688 138.26276L443.64062 138.26276Q444.65625 138.24713 445.23438 137.7315Q445.82812 137.20026 445.82812 136.30963Q445.82812 134.30963 443.84375 134.30963Q442.90625 134.30963 442.34375 134.84088Q441.78125 135.37213 441.78125 136.26276L440.34375 136.26276Q440.34375 134.90338 441.32812 134.01276Q442.3125 133.12213 443.84375 133.12213Q445.45312 133.12213 446.35938 133.9815Q447.28125 134.82526 447.28125 136.34088Q447.28125 137.07526 446.79688 137.77838Q446.3125 138.46588 445.48438 138.80963Q446.42188 139.1065 446.9375 139.794Q447.45312 140.4815 447.45312 141.4815Q447.45312 143.01276 446.45312 143.919Q445.45312 144.80963 443.84375 144.80963Q442.25 144.80963 441.23438 143.95026Q440.23438 143.07526 440.23438 141.65338L441.6875 141.65338Q441.6875 142.544 442.26562 143.09088Q442.85938 143.62213 443.84375 143.62213Q444.89062 143.62213 445.4375 143.07526Q446.0 142.52838 446.0 141.51276Q446.0 140.51276 445.39062 139.9815Q444.78125 139.45026 443.64062 139.43463L442.54688 139.43463L442.54688 138.26276Z" fill-rule="nonzero"/><path fill="#bf9000" d="M419.10938 138.95026L419.6875 133.27838L425.51562 133.27838L425.51562 134.6065L420.92188 134.6065L420.57812 137.71588Q421.40625 137.21588 422.46875 137.21588Q424.03125 137.21588 424.9375 138.24713Q425.85938 139.27838 425.85938 141.02838Q425.85938 142.77838 424.90625 143.794Q423.95312 144.80963 422.25 144.80963Q420.75 144.80963 419.79688 143.9815Q418.84375 143.13776 418.70312 141.65338L420.07812 141.65338Q420.20312 142.63776 420.76562 143.13776Q421.32812 143.62213 422.25 143.62213Q423.26562 143.62213 423.82812 142.93463Q424.40625 142.24713 424.40625 141.044Q424.40625 139.90338 423.78125 139.21588Q423.17188 138.51276 422.14062 138.51276Q421.1875 138.51276 420.65625 138.93463L420.26562 139.24713L419.10938 138.95026ZM427.625 143.88776Q427.625 143.51276 427.84375 143.26276Q428.07812 143.01276 428.51562 143.01276Q428.96875 143.01276 429.1875 143.26276Q429.42188 143.51276 429.42188 143.88776Q429.42188 144.24713 429.1875 144.49713Q428.96875 144.74713 428.51562 144.74713Q428.07812 144.74713 427.84375 144.49713Q427.625 144.24713 427.625 143.88776ZM438.79688 134.09088L434.07812 144.65338L432.5625 144.65338L437.26562 134.46588L431.10938 134.46588L431.10938 133.27838L438.79688 133.27838L438.79688 134.09088ZM442.54688 138.26276L443.64062 138.26276Q444.65625 138.24713 445.23438 137.7315Q445.82812 137.20026 445.82812 136.30963Q445.82812 134.30963 443.84375 134.30963Q442.90625 134.30963 442.34375 134.84088Q441.78125 135.37213 441.78125 136.26276L440.34375 136.26276Q440.34375 134.90338 441.32812 134.01276Q442.3125 133.12213 443.84375 133.12213Q445.45312 133.12213 446.35938 133.9815Q447.28125 134.82526 447.28125 136.34088Q447.28125 137.07526 446.79688 137.77838Q446.3125 138.46588 445.48438 138.80963Q446.42188 139.1065 446.9375 139.794Q447.45312 140.4815 447.45312 141.4815Q447.45312 143.01276 446.45312 143.919Q445.45312 144.80963 443.84375 144.80963Q442.25 144.80963 441.23438 143.95026Q440.23438 143.07526 440.23438 141.65338L441.6875 141.65338Q441.6875 142.544 442.26562 143.09088Q442.85938 143.62213 443.84375 143.62213Q444.89062 143.62213 445.4375 143.07526Q446.0 142.52838 446.0 141.51276Q446.0 140.51276 445.39062 139.9815Q444.78125 139.45026 443.64062 139.43463L442.54688 139.43463L442.54688 138.26276Z" fill-rule="nonzero"/><path fill="#000000" d="M38.552895 322.59637L24.240396 322.59637L24.240396 312.237L25.927896 312.237L25.927896 320.69012L30.302896 320.69012L30.302896 312.78387L31.990396 312.78387L31.990396 320.69012L36.865395 320.69012L36.865395 311.90887L38.552895 311.90887L38.552895 322.59637ZM38.552895 311.03387L33.16227 307.237L28.177896 310.737L28.177896 308.5495L30.615396 306.95575Q31.302896 306.50262 31.771646 306.237Q31.131021 305.7995 30.631021 305.44012L28.177896 303.69012L28.177896 301.59637L33.06852 305.1745L38.552895 301.31512L38.552895 303.47137L35.334145 305.612L34.459145 306.1745L38.552895 308.89325L38.552895 311.03387ZM35.209145 292.75262L35.44352 290.94012Q37.021645 291.362 37.91227 292.53387Q38.78727 293.69012 38.78727 295.50262Q38.78727 297.76825 37.396645 299.112Q35.990395 300.44012 33.459145 300.44012Q30.834146 300.44012 29.396646 299.09637Q27.943521 297.75262 27.943521 295.59637Q27.943521 293.51825 29.365396 292.20575Q30.771646 290.87762 33.34977 290.87762Q33.50602 290.87762 33.81852 290.89325L33.81852 298.62762Q35.521645 298.53387 36.427895 297.65887Q37.334145 296.78387 37.334145 295.487Q37.334145 294.51825 36.834145 293.84637Q36.31852 293.15887 35.209145 292.75262ZM32.365395 298.53387L32.365395 292.737Q31.068521 292.84637 30.412271 293.39325Q29.396646 294.237 29.396646 295.58075Q29.396646 296.78387 30.209146 297.612Q31.006021 298.44012 32.365395 298.53387ZM34.75602 282.08075L34.97477 280.362Q36.771645 280.64325 37.78727 281.81512Q38.78727 282.97137 38.78727 284.6745Q38.78727 286.7995 37.396645 288.09637Q36.00602 289.39325 33.41227 289.39325Q31.724771 289.39325 30.474771 288.84637Q29.209146 288.28387 28.584146 287.14325Q27.943521 286.00262 27.943521 284.65887Q27.943521 282.97137 28.802896 281.90887Q29.662271 280.83075 31.224771 280.51825L31.490396 282.237Q30.443521 282.47137 29.927896 283.09637Q29.396646 283.72137 29.396646 284.59637Q29.396646 285.9245 30.349771 286.75262Q31.302896 287.58075 33.34977 287.58075Q35.44352 287.58075 36.396645 286.78387Q37.334145 285.987 37.334145 284.69012Q37.334145 283.65887 36.709145 282.97137Q36.06852 282.26825 34.75602 282.08075ZM38.552895 272.06512L37.021645 272.06512Q38.78727 273.26825 38.78727 275.34637Q38.78727 276.26825 38.44352 277.06512Q38.084145 277.862 37.552895 278.25262Q37.021645 278.62762 36.240395 278.78387Q35.72477 278.89325 34.59977 278.89325L28.177896 278.89325L28.177896 277.14325L33.927895 277.14325Q35.302895 277.14325 35.78727 277.03387Q36.47477 276.862 36.88102 276.33075Q37.271645 275.78387 37.271645 275.00262Q37.271645 274.20575 36.865395 273.51825Q36.459145 272.81512 35.771645 272.53387Q35.06852 272.237 33.740395 272.237L28.177896 272.237L28.177896 270.487L38.552895 270.487L38.552895 272.06512ZM36.97477 264.01825L38.53727 263.76825Q38.69352 264.50262 38.69352 265.09637Q38.69352 266.0495 38.396645 266.58075Q38.084145 267.09637 37.59977 267.31512Q37.09977 267.53387 35.521645 267.53387L29.552896 267.53387L29.552896 268.81512L28.177896 268.81512L28.177896 267.53387L25.615396 267.53387L24.552896 265.78387L28.177896 265.78387L28.177896 264.01825L29.552896 264.01825L29.552896 265.78387L35.615395 265.78387Q36.365395 265.78387 36.584145 265.69012Q36.78727 265.59637 36.927895 265.39325Q37.052895 265.1745 37.052895 264.78387Q37.052895 264.50262 36.97477 264.01825ZM26.256021 261.84637L24.240396 261.84637L24.240396 260.08075L26.256021 260.08075L26.256021 261.84637ZM38.552895 261.84637L28.177896 261.84637L28.177896 260.08075L38.552895 260.08075L38.552895 261.84637ZM33.365395 258.50262Q30.490396 258.50262 29.099771 256.90887Q27.943521 255.56512 27.943521 253.64325Q27.943521 251.50262 29.349771 250.15887Q30.756021 248.7995 33.22477 248.7995Q35.22477 248.7995 36.38102 249.39325Q37.521645 249.987 38.16227 251.14325Q38.78727 252.28387 38.78727 253.64325Q38.78727 255.83075 37.396645 257.1745Q35.990395 258.50262 33.365395 258.50262ZM33.365395 256.70575Q35.365395 256.70575 36.34977 255.84637Q37.334145 254.97137 37.334145 253.64325Q37.334145 252.33075 36.34977 251.47137Q35.34977 250.59637 33.302895 250.59637Q31.381021 250.59637 30.396646 251.47137Q29.396646 252.34637 29.396646 253.64325Q29.396646 254.97137 30.396646 255.84637Q31.381021 256.70575 33.365395 256.70575ZM38.552895 246.862L28.177896 246.862L28.177896 245.26825L29.662271 245.26825Q27.943521 244.12762 27.943521 241.97137Q27.943521 241.03387 28.287271 240.25262Q28.615396 239.45575 29.162271 239.06512Q29.709146 238.6745 30.459146 238.51825Q30.959146 238.4245 32.177895 238.4245L38.552895 238.4245L38.552895 240.19012L32.240395 240.19012Q31.162271 240.19012 30.631021 240.39325Q30.099771 240.59637 29.787271 241.12762Q29.474771 241.64325 29.474771 242.34637Q29.474771 243.47137 30.193521 244.28387Q30.896646 245.09637 32.88102 245.09637L38.552895 245.09637L38.552895 246.862ZM36.97477 226.01825L38.53727 225.76825Q38.69352 226.50262 38.69352 227.09637Q38.69352 228.0495 38.396645 228.58075Q38.084145 229.09637 37.59977 229.31512Q37.09977 229.53387 35.521645 229.53387L29.552896 229.53387L29.552896 230.81512L28.177896 230.81512L28.177896 229.53387L25.615396 229.53387L24.552896 227.78387L28.177896 227.78387L28.177896 226.01825L29.552896 226.01825L29.552896 227.78387L35.615395 227.78387Q36.365395 227.78387 36.584145 227.69012Q36.78727 227.59637 36.927895 227.39325Q37.052895 227.1745 37.052895 226.78387Q37.052895 226.50262 36.97477 226.01825ZM26.256021 223.84637L24.240396 223.84637L24.240396 222.08075L26.256021 222.08075L26.256021 223.84637ZM38.552895 223.84637L28.177896 223.84637L28.177896 222.08075L38.552895 222.08075L38.552895 223.84637ZM38.552895 219.862L28.177896 219.862L28.177896 218.28387L29.631021 218.28387Q28.881021 217.7995 28.412271 216.987Q27.943521 216.1745 27.943521 215.14325Q27.943521 213.987 28.427896 213.25262Q28.896646 212.51825 29.756021 212.20575Q27.943521 210.97137 27.943521 209.00262Q27.943521 207.45575 28.802896 206.62762Q29.662271 205.7995 31.427896 205.7995L38.552895 205.7995L38.552895 207.5495L32.021645 207.5495Q30.959146 207.5495 30.506021 207.72137Q30.037271 207.89325 29.756021 208.34637Q29.474771 208.78387 29.474771 209.39325Q29.474771 210.487 30.209146 211.22137Q30.927896 211.94012 32.521645 211.94012L38.552895 211.94012L38.552895 213.69012L31.818521 213.69012Q30.646646 213.69012 30.068521 214.12762Q29.474771 214.5495 29.474771 215.53387Q29.474771 216.26825 29.865396 216.90887Q30.256021 217.53387 31.006021 217.81512Q31.756021 218.09637 33.177895 218.09637L38.552895 218.09637L38.552895 219.862ZM35.209145 195.75262L35.44352 193.94012Q37.021645 194.362 37.91227 195.53387Q38.78727 196.69012 38.78727 198.50262Q38.78727 200.76825 37.396645 202.112Q35.990395 203.44012 33.459145 203.44012Q30.834146 203.44012 29.396646 202.09637Q27.943521 200.75262 27.943521 198.59637Q27.943521 196.51825 29.365396 195.20575Q30.771646 193.87762 33.34977 193.87762Q33.50602 193.87762 33.81852 193.89325L33.81852 201.62762Q35.521645 201.53387 36.427895 200.65887Q37.334145 199.78387 37.334145 198.487Q37.334145 197.51825 36.834145 196.84637Q36.31852 196.15887 35.209145 195.75262ZM32.365395 201.53387L32.365395 195.737Q31.068521 195.84637 30.412271 196.39325Q29.396646 197.237 29.396646 198.58075Q29.396646 199.78387 30.209146 200.612Q31.006021 201.44012 32.365395 201.53387ZM42.75602 182.50262Q40.927895 183.95575 38.47477 184.95575Q36.00602 185.95575 33.365395 185.95575Q31.037271 185.95575 28.912271 185.20575Q26.443521 184.33075 23.990396 182.50262L23.990396 181.237Q26.021646 182.4245 26.896646 182.7995Q28.240396 183.39325 29.709146 183.737Q31.537271 184.15887 33.38102 184.15887Q38.06852 184.15887 42.75602 181.237L42.75602 182.50262ZM35.459145 179.56512L35.177895 177.81512Q36.22477 177.6745 36.78727 177.00262Q37.334145 176.33075 37.334145 175.12762Q37.334145 173.9245 36.84977 173.34637Q36.34977 172.75262 35.69352 172.75262Q35.09977 172.75262 34.75602 173.26825Q34.521645 173.62762 34.16227 175.06512Q33.66227 177.00262 33.31852 177.75262Q32.959145 178.487 32.334145 178.87762Q31.693521 179.26825 30.927896 179.26825Q30.240396 179.26825 29.646646 178.95575Q29.052896 178.62762 28.662271 178.08075Q28.365396 177.6745 28.162271 176.97137Q27.943521 176.25262 27.943521 175.44012Q27.943521 174.22137 28.302896 173.2995Q28.646646 172.37762 29.256021 171.94012Q29.849771 171.50262 30.849771 171.33075L31.084146 173.0495Q30.287271 173.1745 29.849771 173.737Q29.396646 174.2995 29.396646 175.31512Q29.396646 176.53387 29.802896 177.0495Q30.193521 177.56512 30.724771 177.56512Q31.068521 177.56512 31.349771 177.34637Q31.631021 177.14325 31.818521 176.6745Q31.912271 176.40887 32.25602 175.12762Q32.75602 173.25262 33.084145 172.51825Q33.396645 171.78387 34.00602 171.362Q34.59977 170.94012 35.50602 170.94012Q36.38102 170.94012 37.16227 171.45575Q37.94352 171.97137 38.365395 172.94012Q38.78727 173.90887 38.78727 175.12762Q38.78727 177.14325 37.94352 178.20575Q37.09977 179.26825 35.459145 179.56512ZM42.75602 167.70575L42.75602 168.95575Q38.06852 166.0495 33.38102 166.0495Q31.537271 166.0495 29.740396 166.45575Q28.271646 166.7995 26.927896 167.39325Q26.037271 167.76825 23.990396 168.95575L23.990396 167.70575Q26.443521 165.862 28.912271 164.987Q31.037271 164.237 33.365395 164.237Q36.00602 164.237 38.47477 165.25262Q40.927895 166.25262 42.75602 167.70575Z" fill-rule="nonzero"/><path fill="#000000" d="M78.43125 380.24063Q78.43125 382.7875 77.55625 384.02188Q76.69688 385.25626 74.85313 385.25626Q73.04063 385.25626 72.16563 384.05313Q71.29063 382.83438 71.25938 380.44376L71.25938 378.50626Q71.25938 376.00626 72.11875 374.7875Q72.99375 373.56876 74.8375 373.56876Q76.68125 373.56876 77.54063 374.74063Q78.41563 375.9125 78.43125 378.36563L78.43125 380.24063ZM76.99375 378.27188Q76.99375 376.42813 76.47813 375.6Q75.9625 374.75626 74.8375 374.75626Q73.72813 374.75626 73.2125 375.6Q72.7125 376.42813 72.69688 378.1625L72.69688 380.475Q72.69688 382.31876 73.22813 383.19376Q73.775 384.06876 74.85313 384.06876Q75.93125 384.06876 76.44688 383.24063Q76.9625 382.4125 76.99375 380.63126L76.99375 378.27188ZM80.47813 384.33438Q80.47813 383.95938 80.69688 383.70938Q80.93125 383.45938 81.36875 383.45938Q81.82188 383.45938 82.04063 383.70938Q82.275 383.95938 82.275 384.33438Q82.275 384.69376 82.04063 384.94376Q81.82188 385.19376 81.36875 385.19376Q80.93125 385.19376 80.69688 384.94376Q80.47813 384.69376 80.47813 384.33438ZM91.43125 380.24063Q91.43125 382.7875 90.55625 384.02188Q89.69688 385.25626 87.85313 385.25626Q86.04063 385.25626 85.16563 384.05313Q84.29063 382.83438 84.25938 380.44376L84.25938 378.50626Q84.25938 376.00626 85.11875 374.7875Q85.99375 373.56876 87.8375 373.56876Q89.68125 373.56876 90.54063 374.74063Q91.41563 375.9125 91.43125 378.36563L91.43125 380.24063ZM89.99375 378.27188Q89.99375 376.42813 89.47813 375.6Q88.9625 374.75626 87.8375 374.75626Q86.72813 374.75626 86.2125 375.6Q85.7125 376.42813 85.69688 378.1625L85.69688 380.475Q85.69688 382.31876 86.22813 383.19376Q86.775 384.06876 87.85313 384.06876Q88.93125 384.06876 89.44688 383.24063Q89.9625 382.4125 89.99375 380.63126L89.99375 378.27188Z" fill-rule="nonzero"/><path fill="#000000" d="M78.75938 310.075L71.30625 310.075L71.30625 309.02814L75.24375 304.65314Q76.11875 303.66876 76.44688 303.04376Q76.775 302.41876 76.775 301.7625Q76.775 300.8719 76.22813 300.3094Q75.69688 299.73126 74.80625 299.73126Q73.72813 299.73126 73.11875 300.34064Q72.525 300.95 72.525 302.04376L71.0875 302.04376Q71.0875 300.48126 72.0875 299.5125Q73.10313 298.54376 74.80625 298.54376Q76.38438 298.54376 77.30625 299.3719Q78.22813 300.2 78.22813 301.59064Q78.22813 303.2625 76.0875 305.59064L73.04063 308.8875L78.75938 308.8875L78.75938 310.075ZM80.47813 309.3094Q80.47813 308.9344 80.69688 308.6844Q80.93125 308.4344 81.36875 308.4344Q81.82188 308.4344 82.04063 308.6844Q82.275 308.9344 82.275 309.3094Q82.275 309.66876 82.04063 309.91876Q81.82188 310.16876 81.36875 310.16876Q80.93125 310.16876 80.69688 309.91876Q80.47813 309.66876 80.47813 309.3094ZM91.43125 305.21564Q91.43125 307.7625 90.55625 308.9969Q89.69688 310.23126 87.85313 310.23126Q86.04063 310.23126 85.16563 309.02814Q84.29063 307.8094 84.25938 305.41876L84.25938 303.48126Q84.25938 300.98126 85.11875 299.7625Q85.99375 298.54376 87.8375 298.54376Q89.68125 298.54376 90.54063 299.71564Q91.41563 300.8875 91.43125 303.34064L91.43125 305.21564ZM89.99375 303.2469Q89.99375 301.40314 89.47813 300.575Q88.9625 299.73126 87.8375 299.73126Q86.72813 299.73126 86.2125 300.575Q85.7125 301.40314 85.69688 303.1375L85.69688 305.45Q85.69688 307.29376 86.22813 308.16876Q86.775 309.04376 87.85313 309.04376Q88.93125 309.04376 89.44688 308.21564Q89.9625 307.3875 89.99375 305.60626L89.99375 303.2469Z" fill-rule="nonzero"/><path fill="#000000" d="M77.4 231.22188L78.97813 231.22188L78.97813 232.40938L77.4 232.40938L77.4 235.05L75.94688 235.05L75.94688 232.40938L70.775 232.40938L70.775 231.55L75.86875 223.675L77.4 223.675L77.4 231.22188ZM72.41563 231.22188L75.94688 231.22188L75.94688 225.64375L75.775 225.95625L72.41563 231.22188ZM80.47813 234.28438Q80.47813 233.90938 80.69688 233.65938Q80.93125 233.40938 81.36875 233.40938Q81.82188 233.40938 82.04063 233.65938Q82.275 233.90938 82.275 234.28438Q82.275 234.64375 82.04063 234.89375Q81.82188 235.14375 81.36875 235.14375Q80.93125 235.14375 80.69688 234.89375Q80.47813 234.64375 80.47813 234.28438ZM91.43125 230.19063Q91.43125 232.7375 90.55625 233.97188Q89.69688 235.20625 87.85313 235.20625Q86.04063 235.20625 85.16563 234.00313Q84.29063 232.78438 84.25938 230.39375L84.25938 228.45625Q84.25938 225.95625 85.11875 224.7375Q85.99375 223.51875 87.8375 223.51875Q89.68125 223.51875 90.54063 224.69063Q91.41563 225.8625 91.43125 228.31563L91.43125 230.19063ZM89.99375 228.22188Q89.99375 226.37813 89.47813 225.55Q88.9625 224.70625 87.8375 224.70625Q86.72813 224.70625 86.2125 225.55Q85.7125 226.37813 85.69688 228.1125L85.69688 230.425Q85.69688 232.26875 86.22813 233.14375Q86.775 234.01875 87.85313 234.01875Q88.93125 234.01875 89.44688 233.19063Q89.9625 232.3625 89.99375 230.58125L89.99375 228.22188Z" fill-rule="nonzero"/><path fill="#000000" d="M76.97813 148.63437L76.97813 149.86874L76.7125 149.86874Q75.025 149.9 74.025 150.86874Q73.025 151.8375 72.86875 153.5875Q73.75938 152.55624 75.32188 152.55624Q76.80625 152.55624 77.68125 153.60312Q78.57188 154.65 78.57188 156.30624Q78.57188 158.07187 77.61875 159.13437Q76.66563 160.18124 75.05625 160.18124Q73.41563 160.18124 72.4 158.93124Q71.38438 157.66562 71.38438 155.69687L71.38438 155.13437Q71.38438 151.99374 72.72813 150.3375Q74.07188 148.68124 76.7125 148.63437L76.97813 148.63437ZM75.07188 153.75937Q74.3375 153.75937 73.7125 154.2125Q73.0875 154.65 72.8375 155.32187L72.8375 155.85312Q72.8375 157.25937 73.4625 158.11874Q74.10313 158.97812 75.05625 158.97812Q76.025 158.97812 76.5875 158.25937Q77.15 157.54062 77.15 156.38437Q77.15 155.2125 76.57188 154.49374Q76.00938 153.75937 75.07188 153.75937ZM80.47813 159.25937Q80.47813 158.88437 80.69688 158.63437Q80.93125 158.38437 81.36875 158.38437Q81.82188 158.38437 82.04063 158.63437Q82.275 158.88437 82.275 159.25937Q82.275 159.61874 82.04063 159.86874Q81.82188 160.11874 81.36875 160.11874Q80.93125 160.11874 80.69688 159.86874Q80.47813 159.61874 80.47813 159.25937ZM91.43125 155.16562Q91.43125 157.7125 90.55625 158.94687Q89.69688 160.18124 87.85313 160.18124Q86.04063 160.18124 85.16563 158.97812Q84.29063 157.75937 84.25938 155.36874L84.25938 153.43124Q84.25938 150.93124 85.11875 149.7125Q85.99375 148.49374 87.8375 148.49374Q89.68125 148.49374 90.54063 149.66562Q91.41563 150.8375 91.43125 153.29062L91.43125 155.16562ZM89.99375 153.19687Q89.99375 151.35312 89.47813 150.525Q88.9625 149.68124 87.8375 149.68124Q86.72813 149.68124 86.2125 150.525Q85.7125 151.35312 85.69688 153.0875L85.69688 155.4Q85.69688 157.24374 86.22813 158.11874Q86.775 158.99374 87.85313 158.99374Q88.93125 158.99374 89.44688 158.16562Q89.9625 157.3375 89.99375 155.55624L89.99375 153.19687Z" fill-rule="nonzero"/><path fill="#000000" d="M78.19688 76.59375Q78.19688 77.4375 77.74375 78.109375Q77.30625 78.765625 76.54063 79.140625Q77.43125 79.53125 77.94688 80.265625Q78.4625 81.0 78.4625 81.921875Q78.4625 83.40625 77.4625 84.28125Q76.47813 85.15625 74.85313 85.15625Q73.2125 85.15625 72.2125 84.28125Q71.22813 83.390625 71.22813 81.921875Q71.22813 81.0 71.72813 80.265625Q72.24375 79.515625 73.13438 79.140625Q72.36875 78.765625 71.93125 78.109375Q71.49375 77.4375 71.49375 76.59375Q71.49375 75.15625 72.41563 74.3125Q73.3375 73.46875 74.85313 73.46875Q76.35313 73.46875 77.275 74.3125Q78.19688 75.15625 78.19688 76.59375ZM77.025 81.890625Q77.025 80.9375 76.41563 80.34375Q75.80625 79.734375 74.82188 79.734375Q73.85313 79.734375 73.25938 80.328125Q72.68125 80.921875 72.68125 81.890625Q72.68125 82.859375 73.24375 83.421875Q73.82188 83.96875 74.85313 83.96875Q75.86875 83.96875 76.44688 83.421875Q77.025 82.859375 77.025 81.890625ZM74.85313 74.65625Q73.99375 74.65625 73.4625 75.1875Q72.94688 75.703125 72.94688 76.609375Q72.94688 77.484375 73.4625 78.015625Q73.97813 78.546875 74.8375 78.546875Q75.7125 78.546875 76.22813 78.015625Q76.75938 77.484375 76.75938 76.625Q76.75938 75.75 76.2125 75.203125Q75.68125 74.65625 74.85313 74.65625ZM80.47813 84.234375Q80.47813 83.859375 80.69688 83.609375Q80.93125 83.359375 81.36875 83.359375Q81.82188 83.359375 82.04063 83.609375Q82.275 83.859375 82.275 84.234375Q82.275 84.59375 82.04063 84.84375Q81.82188 85.09375 81.36875 85.09375Q80.93125 85.09375 80.69688 84.84375Q80.47813 84.59375 80.47813 84.234375ZM91.43125 80.140625Q91.43125 82.6875 90.55625 83.921875Q89.69688 85.15625 87.85313 85.15625Q86.04063 85.15625 85.16563 83.953125Q84.29063 82.734375 84.25938 80.34375L84.25938 78.40625Q84.25938 75.90625 85.11875 74.6875Q85.99375 73.46875 87.8375 73.46875Q89.68125 73.46875 90.54063 74.640625Q91.41563 75.8125 91.43125 78.265625L91.43125 80.140625ZM89.99375 78.171875Q89.99375 76.328125 89.47813 75.5Q88.9625 74.65625 87.8375 74.65625Q86.72813 74.65625 86.2125 75.5Q85.7125 76.328125 85.69688 78.0625L85.69688 80.375Q85.69688 82.21875 86.22813 83.09375Q86.775 83.96875 87.85313 83.96875Q88.93125 83.96875 89.44688 83.140625Q89.9625 82.3125 89.99375 80.53125L89.99375 78.171875Z" fill-rule="nonzero"/><path fill="#000000" d="M178.70914 402.19376L180.30289 401.99063Q180.56851 403.33438 181.22476 403.92813Q181.88101 404.52188 182.81851 404.52188Q183.94351 404.52188 184.70914 403.75626Q185.47476 402.975 185.47476 401.83438Q185.47476 400.74063 184.75601 400.0375Q184.05289 399.31876 182.95914 399.31876Q182.50601 399.31876 181.83414 399.50626L182.00601 398.11563Q182.16226 398.13126 182.27164 398.13126Q183.27164 398.13126 184.08414 397.6Q184.89664 397.06876 184.89664 395.975Q184.89664 395.1 184.30289 394.5375Q183.70914 393.95938 182.78726 393.95938Q181.86539 393.95938 181.24039 394.5375Q180.63101 395.11563 180.45914 396.2875L178.88101 396.00626Q179.16226 394.4125 180.19351 393.5375Q181.22476 392.6625 182.75601 392.6625Q183.80289 392.6625 184.69351 393.11563Q185.58414 393.56876 186.05289 394.35Q186.52164 395.13126 186.52164 396.00626Q186.52164 396.85 186.06851 397.5375Q185.63101 398.20938 184.74039 398.61563Q185.88101 398.88126 186.50601 399.725Q187.14664 400.55313 187.14664 401.7875Q187.14664 403.475 185.91226 404.6625Q184.69351 405.83438 182.81851 405.83438Q181.11539 405.83438 179.99039 404.81876Q178.88101 403.80313 178.70914 402.19376ZM193.50601 402.81876L195.08414 402.56876Q195.20914 403.50626 195.80289 404.00626Q196.41226 404.50626 197.49039 404.50626Q198.58414 404.50626 199.11539 404.06876Q199.64664 403.61563 199.64664 403.02188Q199.64664 402.49063 199.17789 402.17813Q198.84976 401.975 197.55289 401.64688Q195.81851 401.20938 195.14664 400.89688Q194.47476 400.56876 194.11539 400.00626Q193.77164 399.42813 193.77164 398.74063Q193.77164 398.11563 194.05289 397.58438Q194.34976 397.05313 194.83414 396.70938Q195.20914 396.42813 195.84976 396.24063Q196.49039 396.05313 197.20914 396.05313Q198.31851 396.05313 199.14664 396.38126Q199.97476 396.69376 200.36539 397.24063Q200.77164 397.77188 200.91226 398.67813L199.36539 398.88126Q199.25601 398.1625 198.75601 397.75626Q198.25601 397.35 197.33414 397.35Q196.24039 397.35 195.77164 397.70938Q195.30289 398.06876 195.30289 398.55313Q195.30289 398.86563 195.50601 399.11563Q195.69351 399.36563 196.09976 399.5375Q196.34976 399.61563 197.50601 399.94376Q199.17789 400.38126 199.83414 400.67813Q200.50601 400.95938 200.88101 401.50626Q201.27164 402.05313 201.27164 402.85Q201.27164 403.64688 200.80289 404.35Q200.34976 405.05313 199.47476 405.44376Q198.59976 405.81876 197.50601 405.81876Q195.67789 405.81876 194.72476 405.06876Q193.77164 404.30313 193.50601 402.81876ZM209.53726 402.6L211.17789 402.80313Q210.78726 404.225 209.74039 405.02188Q208.69351 405.81876 207.06851 405.81876Q205.02164 405.81876 203.81851 404.55313Q202.61539 403.2875 202.61539 401.00626Q202.61539 398.6625 203.81851 397.36563Q205.03726 396.05313 206.97476 396.05313Q208.84976 396.05313 210.03726 397.33438Q211.22476 398.6 211.22476 400.9125Q211.22476 401.05313 211.20914 401.33438L204.25601 401.33438Q204.33414 402.88126 205.11539 403.69376Q205.91226 404.50626 207.06851 404.50626Q207.94351 404.50626 208.55289 404.05313Q209.17789 403.6 209.53726 402.6ZM204.33414 400.0375L209.55289 400.0375Q209.44351 398.86563 208.95914 398.27188Q208.19351 397.35 206.99039 397.35Q205.91226 397.35 205.16226 398.08438Q204.42789 398.81876 204.33414 400.0375ZM213.14664 405.6L213.14664 396.27188L214.56851 396.27188L214.56851 397.6Q215.59976 396.05313 217.53726 396.05313Q218.38101 396.05313 219.08414 396.36563Q219.80289 396.6625 220.14664 397.1625Q220.50601 397.64688 220.64664 398.31876Q220.72476 398.75626 220.72476 399.86563L220.72476 405.6L219.14664 405.6L219.14664 399.92813Q219.14664 398.95938 218.95914 398.475Q218.78726 397.99063 218.30289 397.70938Q217.83414 397.42813 217.20914 397.42813Q216.19351 397.42813 215.45914 398.06876Q214.72476 398.70938 214.72476 400.50626L214.72476 405.6L213.14664 405.6ZM226.59976 404.17813L226.83414 405.58438Q226.16226 405.725 225.63101 405.725Q224.77164 405.725 224.28726 405.45938Q223.81851 405.17813 223.63101 404.74063Q223.44351 404.2875 223.44351 402.86563L223.44351 397.49063L222.27164 397.49063L222.27164 396.27188L223.44351 396.27188L223.44351 393.95938L225.00601 393.00626L225.00601 396.27188L226.59976 396.27188L226.59976 397.49063L225.00601 397.49063L225.00601 402.95938Q225.00601 403.63126 225.08414 403.83438Q225.17789 404.02188 225.36539 404.13126Q225.55289 404.24063 225.91226 404.24063Q226.16226 404.24063 226.59976 404.17813ZM234.53726 402.6L236.17789 402.80313Q235.78726 404.225 234.74039 405.02188Q233.69351 405.81876 232.06851 405.81876Q230.02164 405.81876 228.81851 404.55313Q227.61539 403.2875 227.61539 401.00626Q227.61539 398.6625 228.81851 397.36563Q230.03726 396.05313 231.97476 396.05313Q233.84976 396.05313 235.03726 397.33438Q236.22476 398.6 236.22476 400.9125Q236.22476 401.05313 236.20914 401.33438L229.25601 401.33438Q229.33414 402.88126 230.11539 403.69376Q230.91226 404.50626 232.06851 404.50626Q232.94351 404.50626 233.55289 404.05313Q234.17789 403.6 234.53726 402.6ZM229.33414 400.0375L234.55289 400.0375Q234.44351 398.86563 233.95914 398.27188Q233.19351 397.35 231.99039 397.35Q230.91226 397.35 230.16226 398.08438Q229.42789 398.81876 229.33414 400.0375ZM238.14664 405.6L238.14664 396.27188L239.56851 396.27188L239.56851 397.6Q240.59976 396.05313 242.53726 396.05313Q243.38101 396.05313 244.08414 396.36563Q244.80289 396.6625 245.14664 397.1625Q245.50601 397.64688 245.64664 398.31876Q245.72476 398.75626 245.72476 399.86563L245.72476 405.6L244.14664 405.6L244.14664 399.92813Q244.14664 398.95938 243.95914 398.475Q243.78726 397.99063 243.30289 397.70938Q242.83414 397.42813 242.20914 397.42813Q241.19351 397.42813 240.45914 398.06876Q239.72476 398.70938 239.72476 400.50626L239.72476 405.6L238.14664 405.6ZM254.24039 402.17813L255.78726 402.38126Q255.53726 403.99063 254.49039 404.9125Q253.44351 405.81876 251.91226 405.81876Q249.99039 405.81876 248.81851 404.56876Q247.66226 403.30313 247.66226 400.975Q247.66226 399.45938 248.16226 398.33438Q248.66226 397.19376 249.67789 396.63126Q250.70914 396.05313 251.91226 396.05313Q253.44351 396.05313 254.39664 396.83438Q255.36539 397.6 255.64664 399.00626L254.09976 399.24063Q253.88101 398.30313 253.31851 397.83438Q252.77164 397.35 251.97476 397.35Q250.78726 397.35 250.03726 398.20938Q249.28726 399.06876 249.28726 400.92813Q249.28726 402.80313 250.00601 403.6625Q250.72476 404.50626 251.89664 404.50626Q252.81851 404.50626 253.44351 403.94376Q254.06851 403.36563 254.24039 402.17813ZM263.53726 402.6L265.1779 402.80313Q264.78726 404.225 263.7404 405.02188Q262.6935 405.81876 261.0685 405.81876Q259.02164 405.81876 257.8185 404.55313Q256.6154 403.2875 256.6154 401.00626Q256.6154 398.6625 257.8185 397.36563Q259.03726 396.05313 260.97476 396.05313Q262.84976 396.05313 264.03726 397.33438Q265.22476 398.6 265.22476 400.9125Q265.22476 401.05313 265.20914 401.33438L258.256 401.33438Q258.33414 402.88126 259.1154 403.69376Q259.91226 404.50626 261.0685 404.50626Q261.9435 404.50626 262.5529 404.05313Q263.1779 403.6 263.53726 402.6ZM258.33414 400.0375L263.5529 400.0375Q263.4435 398.86563 262.95914 398.27188Q262.1935 397.35 260.9904 397.35Q259.91226 397.35 259.16226 398.08438Q258.4279 398.81876 258.33414 400.0375ZM266.506 402.81876L268.08414 402.56876Q268.20914 403.50626 268.8029 404.00626Q269.41226 404.50626 270.4904 404.50626Q271.58414 404.50626 272.1154 404.06876Q272.64664 403.61563 272.64664 403.02188Q272.64664 402.49063 272.1779 402.17813Q271.84976 401.975 270.5529 401.64688Q268.8185 401.20938 268.14664 400.89688Q267.47476 400.56876 267.1154 400.00626Q266.77164 399.42813 266.77164 398.74063Q266.77164 398.11563 267.0529 397.58438Q267.34976 397.05313 267.83414 396.70938Q268.20914 396.42813 268.84976 396.24063Q269.4904 396.05313 270.20914 396.05313Q271.3185 396.05313 272.14664 396.38126Q272.97476 396.69376 273.3654 397.24063Q273.77164 397.77188 273.91226 398.67813L272.3654 398.88126Q272.256 398.1625 271.756 397.75626Q271.256 397.35 270.33414 397.35Q269.2404 397.35 268.77164 397.70938Q268.3029 398.06876 268.3029 398.55313Q268.3029 398.86563 268.506 399.11563Q268.6935 399.36563 269.09976 399.5375Q269.34976 399.61563 270.506 399.94376Q272.1779 400.38126 272.83414 400.67813Q273.506 400.95938 273.881 401.50626Q274.27164 402.05313 274.27164 402.85Q274.27164 403.64688 273.8029 404.35Q273.34976 405.05313 272.47476 405.44376Q271.59976 405.81876 270.506 405.81876Q268.6779 405.81876 267.72476 405.06876Q266.77164 404.30313 266.506 402.81876Z" fill-rule="nonzero"/><path fill="#000000" d="M357.5971 405.6L356.01898 405.6L356.01898 395.52188Q355.44086 396.06876 354.51898 396.61563Q353.5971 397.14688 352.8471 397.42813L352.8471 395.89688Q354.17523 395.27188 355.17523 394.38126Q356.17523 393.49063 356.58148 392.6625L357.5971 392.6625L357.5971 405.6ZM361.64398 399.24063Q361.64398 396.95938 362.11273 395.56876Q362.58148 394.17813 363.50336 393.42813Q364.44086 392.6625 365.8471 392.6625Q366.87836 392.6625 367.6596 393.08438Q368.44086 393.49063 368.94086 394.2875Q369.45648 395.06876 369.75336 396.20938Q370.05023 397.33438 370.05023 399.24063Q370.05023 401.50626 369.58148 402.9125Q369.11273 404.30313 368.17523 405.06876Q367.25336 405.81876 365.8471 405.81876Q363.9721 405.81876 362.9096 404.49063Q361.64398 402.88126 361.64398 399.24063ZM363.26898 399.24063Q363.26898 402.4125 364.00336 403.475Q364.75336 404.52188 365.8471 404.52188Q366.92523 404.52188 367.67523 403.475Q368.42523 402.4125 368.42523 399.24063Q368.42523 396.06876 367.67523 395.02188Q366.92523 393.975 365.83148 393.975Q364.73773 393.975 364.08148 394.89688Q363.26898 396.06876 363.26898 399.24063ZM376.44086 402.81876L378.01898 402.56876Q378.14398 403.50626 378.73773 404.00626Q379.3471 404.50626 380.42523 404.50626Q381.51898 404.50626 382.05023 404.06876Q382.58148 403.61563 382.58148 403.02188Q382.58148 402.49063 382.11273 402.17813Q381.7846 401.975 380.48773 401.64688Q378.75336 401.20938 378.08148 400.89688Q377.4096 400.56876 377.05023 400.00626Q376.70648 399.42813 376.70648 398.74063Q376.70648 398.11563 376.98773 397.58438Q377.2846 397.05313 377.76898 396.70938Q378.14398 396.42813 378.7846 396.24063Q379.42523 396.05313 380.14398 396.05313Q381.25336 396.05313 382.08148 396.38126Q382.9096 396.69376 383.30023 397.24063Q383.70648 397.77188 383.8471 398.67813L382.30023 398.88126Q382.19086 398.1625 381.69086 397.75626Q381.19086 397.35 380.26898 397.35Q379.17523 397.35 378.70648 397.70938Q378.23773 398.06876 378.23773 398.55313Q378.23773 398.86563 378.44086 399.11563Q378.62836 399.36563 379.0346 399.5375Q379.2846 399.61563 380.44086 399.94376Q382.11273 400.38126 382.76898 400.67813Q383.44086 400.95938 383.81586 401.50626Q384.20648 402.05313 384.20648 402.85Q384.20648 403.64688 383.73773 404.35Q383.2846 405.05313 382.4096 405.44376Q381.5346 405.81876 380.44086 405.81876Q378.61273 405.81876 377.6596 405.06876Q376.70648 404.30313 376.44086 402.81876ZM392.4721 402.6L394.11273 402.80313Q393.7221 404.225 392.67523 405.02188Q391.62836 405.81876 390.00336 405.81876Q387.95648 405.81876 386.75336 404.55313Q385.55023 403.2875 385.55023 401.00626Q385.55023 398.6625 386.75336 397.36563Q387.9721 396.05313 389.9096 396.05313Q391.7846 396.05313 392.9721 397.33438Q394.1596 398.6 394.1596 400.9125Q394.1596 401.05313 394.14398 401.33438L387.19086 401.33438Q387.26898 402.88126 388.05023 403.69376Q388.8471 404.50626 390.00336 404.50626Q390.87836 404.50626 391.48773 404.05313Q392.11273 403.6 392.4721 402.6ZM387.26898 400.0375L392.48773 400.0375Q392.37836 398.86563 391.89398 398.27188Q391.12836 397.35 389.92523 397.35Q388.8471 397.35 388.0971 398.08438Q387.36273 398.81876 387.26898 400.0375ZM396.08148 405.6L396.08148 396.27188L397.50336 396.27188L397.50336 397.6Q398.5346 396.05313 400.4721 396.05313Q401.31586 396.05313 402.01898 396.36563Q402.73773 396.6625 403.08148 397.1625Q403.44086 397.64688 403.58148 398.31876Q403.6596 398.75626 403.6596 399.86563L403.6596 405.6L402.08148 405.6L402.08148 399.92813Q402.08148 398.95938 401.89398 398.475Q401.7221 397.99063 401.23773 397.70938Q400.76898 397.42813 400.14398 397.42813Q399.12836 397.42813 398.39398 398.06876Q397.6596 398.70938 397.6596 400.50626L397.6596 405.6L396.08148 405.6ZM409.5346 404.17813L409.76898 405.58438Q409.0971 405.725 408.56586 405.725Q407.70648 405.725 407.2221 405.45938Q406.75336 405.17813 406.56586 404.74063Q406.37836 404.2875 406.37836 402.86563L406.37836 397.49063L405.20648 397.49063L405.20648 396.27188L406.37836 396.27188L406.37836 393.95938L407.94086 393.00626L407.94086 396.27188L409.5346 396.27188L409.5346 397.49063L407.94086 397.49063L407.94086 402.95938Q407.94086 403.63126 408.01898 403.83438Q408.11273 404.02188 408.30023 404.13126Q408.48773 404.24063 408.8471 404.24063Q409.0971 404.24063 409.5346 404.17813ZM417.4721 402.6L419.11273 402.80313Q418.7221 404.225 417.67523 405.02188Q416.62836 405.81876 415.00336 405.81876Q412.95648 405.81876 411.75336 404.55313Q410.55023 403.2875 410.55023 401.00626Q410.55023 398.6625 411.75336 397.36563Q412.9721 396.05313 414.9096 396.05313Q416.7846 396.05313 417.9721 397.33438Q419.1596 398.6 419.1596 400.9125Q419.1596 401.05313 419.14398 401.33438L412.19086 401.33438Q412.26898 402.88126 413.05023 403.69376Q413.8471 404.50626 415.00336 404.50626Q415.87836 404.50626 416.48773 404.05313Q417.11273 403.6 417.4721 402.6ZM412.26898 400.0375L417.48773 400.0375Q417.37836 398.86563 416.89398 398.27188Q416.12836 397.35 414.92523 397.35Q413.8471 397.35 413.0971 398.08438Q412.36273 398.81876 412.26898 400.0375ZM421.08148 405.6L421.08148 396.27188L422.50336 396.27188L422.50336 397.6Q423.5346 396.05313 425.4721 396.05313Q426.31586 396.05313 427.01898 396.36563Q427.73773 396.6625 428.08148 397.1625Q428.44086 397.64688 428.58148 398.31876Q428.6596 398.75626 428.6596 399.86563L428.6596 405.6L427.08148 405.6L427.08148 399.92813Q427.08148 398.95938 426.89398 398.475Q426.7221 397.99063 426.23773 397.70938Q425.76898 397.42813 425.14398 397.42813Q424.12836 397.42813 423.39398 398.06876Q422.6596 398.70938 422.6596 400.50626L422.6596 405.6L421.08148 405.6ZM437.17523 402.17813L438.7221 402.38126Q438.4721 403.99063 437.42523 404.9125Q436.37836 405.81876 434.8471 405.81876Q432.92523 405.81876 431.75336 404.56876Q430.5971 403.30313 430.5971 400.975Q430.5971 399.45938 431.0971 398.33438Q431.5971 397.19376 432.61273 396.63126Q433.64398 396.05313 434.8471 396.05313Q436.37836 396.05313 437.33148 396.83438Q438.30023 397.6 438.58148 399.00626L437.0346 399.24063Q436.81586 398.30313 436.25336 397.83438Q435.70648 397.35 434.9096 397.35Q433.7221 397.35 432.9721 398.20938Q432.2221 399.06876 432.2221 400.92813Q432.2221 402.80313 432.94086 403.6625Q433.6596 404.50626 434.83148 404.50626Q435.75336 404.50626 436.37836 403.94376Q437.00336 403.36563 437.17523 402.17813ZM446.4721 402.6L448.11273 402.80313Q447.7221 404.225 446.67523 405.02188Q445.62836 405.81876 444.00336 405.81876Q441.95648 405.81876 440.75336 404.55313Q439.55023 403.2875 439.55023 401.00626Q439.55023 398.6625 440.75336 397.36563Q441.9721 396.05313 443.9096 396.05313Q445.7846 396.05313 446.9721 397.33438Q448.1596 398.6 448.1596 400.9125Q448.1596 401.05313 448.14398 401.33438L441.19086 401.33438Q441.26898 402.88126 442.05023 403.69376Q442.8471 404.50626 444.00336 404.50626Q444.87836 404.50626 445.48773 404.05313Q446.11273 403.6 446.4721 402.6ZM441.26898 400.0375L446.48773 400.0375Q446.37836 398.86563 445.89398 398.27188Q445.12836 397.35 443.92523 397.35Q442.8471 397.35 442.0971 398.08438Q441.36273 398.81876 441.26898 400.0375ZM449.44086 402.81876L451.01898 402.56876Q451.14398 403.50626 451.73773 404.00626Q452.3471 404.50626 453.42523 404.50626Q454.51898 404.50626 455.05023 404.06876Q455.58148 403.61563 455.58148 403.02188Q455.58148 402.49063 455.11273 402.17813Q454.7846 401.975 453.48773 401.64688Q451.75336 401.20938 451.08148 400.89688Q450.4096 400.56876 450.05023 400.00626Q449.70648 399.42813 449.70648 398.74063Q449.70648 398.11563 449.98773 397.58438Q450.2846 397.05313 450.76898 396.70938Q451.14398 396.42813 451.7846 396.24063Q452.42523 396.05313 453.14398 396.05313Q454.25336 396.05313 455.08148 396.38126Q455.9096 396.69376 456.30023 397.24063Q456.70648 397.77188 456.8471 398.67813L455.30023 398.88126Q455.19086 398.1625 454.69086 397.75626Q454.19086 397.35 453.26898 397.35Q452.17523 397.35 451.70648 397.70938Q451.23773 398.06876 451.23773 398.55313Q451.23773 398.86563 451.44086 399.11563Q451.62836 399.36563 452.0346 399.5375Q452.2846 399.61563 453.44086 399.94376Q455.11273 400.38126 455.76898 400.67813Q456.44086 400.95938 456.81586 401.50626Q457.20648 402.05313 457.20648 402.85Q457.20648 403.64688 456.73773 404.35Q456.2846 405.05313 455.4096 405.44376Q454.5346 405.81876 453.44086 405.81876Q451.61273 405.81876 450.6596 405.06876Q449.70648 404.30313 449.44086 402.81876Z" fill-rule="nonzero"/><path fill="#3d85c6" d="M552.1932 84.0C552.1932 83.447716 552.64087 83.0 553.1932 83.0L563.1932 83.0C563.7454 83.0 564.1932 83.447716 564.1932 84.0L564.1932 94.0C564.1932 94.552284 563.7454 95.0 563.1932 95.0L553.1932 95.0C552.64087 95.0 552.1932 94.552284 552.1932 94.0Z" fill-rule="nonzero"/><path fill="#1a1a1a" d="M573.42755 94.5L573.42755 83.046875L577.7557 83.046875Q578.8963 83.046875 579.49005 83.15625Q580.3338 83.296875 580.8963 83.6875Q581.4744 84.078125 581.8182 84.796875Q582.17755 85.5 582.17755 86.359375Q582.17755 87.8125 581.24005 88.828125Q580.3182 89.84375 577.8807 89.84375L574.9432 89.84375L574.9432 94.5L573.42755 94.5ZM574.9432 88.484375L577.9119 88.484375Q579.3807 88.484375 579.99005 87.9375Q580.61505 87.390625 580.61505 86.40625Q580.61505 85.6875 580.24005 85.171875Q579.8807 84.65625 579.2869 84.5Q578.9119 84.390625 577.8807 84.390625L574.9432 84.390625L574.9432 88.484375ZM584.1932 97.703125L584.0369 96.375Q584.49005 96.5 584.8338 96.5Q585.30255 96.5 585.5838 96.34375Q585.86505 96.1875 586.05255 95.90625Q586.17755 95.703125 586.4744 94.859375Q586.5213 94.75 586.5994 94.515625L583.4588 86.203125L584.9744 86.203125L586.6932 91.0Q587.0369 91.921875 587.30255 92.921875Q587.5369 91.953125 587.8807 91.03125L589.6463 86.203125L591.05255 86.203125L587.8963 94.640625Q587.3963 96.015625 587.11505 96.53125Q586.74005 97.21875 586.2557 97.546875Q585.7713 97.875 585.0994 97.875Q584.6932 97.875 584.1932 97.703125ZM595.3182 93.234375L595.5213 94.484375Q594.92755 94.609375 594.4588 94.609375Q593.6932 94.609375 593.2713 94.375Q592.8494 94.125 592.67755 93.734375Q592.5057 93.328125 592.5057 92.0625L592.5057 87.296875L591.4744 87.296875L591.4744 86.203125L592.5057 86.203125L592.5057 84.140625L593.9119 83.296875L593.9119 86.203125L595.3182 86.203125L595.3182 87.296875L593.9119 87.296875L593.9119 92.140625Q593.9119 92.75 593.9744 92.921875Q594.05255 93.09375 594.2244 93.203125Q594.3963 93.296875 594.7088 93.296875Q594.9432 93.296875 595.3182 93.234375ZM596.2557 94.5L596.2557 83.046875L597.6619 83.046875L597.6619 87.15625Q598.6463 86.015625 600.1463 86.015625Q601.0682 86.015625 601.74005 86.375Q602.42755 86.734375 602.7088 87.375Q603.0057 88.015625 603.0057 89.234375L603.0057 94.5L601.5994 94.5L601.5994 89.234375Q601.5994 88.1875 601.1463 87.703125Q600.6932 87.21875 599.8494 87.21875Q599.2244 87.21875 598.67755 87.546875Q598.1307 87.875 597.8963 88.4375Q597.6619 88.984375 597.6619 89.953125L597.6619 94.5L596.2557 94.5ZM604.7244 90.34375Q604.7244 88.046875 606.0057 86.9375Q607.0838 86.015625 608.61505 86.015625Q610.3338 86.015625 611.4119 87.140625Q612.5057 88.25 612.5057 90.234375Q612.5057 91.828125 612.0213 92.75Q611.5369 93.671875 610.61505 94.1875Q609.7088 94.6875 608.61505 94.6875Q606.8807 94.6875 605.80255 93.578125Q604.7244 92.453125 604.7244 90.34375ZM606.17755 90.34375Q606.17755 91.9375 606.86505 92.734375Q607.5682 93.53125 608.61505 93.53125Q609.6619 93.53125 610.3494 92.734375Q611.05255 91.9375 611.05255 90.296875Q611.05255 88.765625 610.3494 87.96875Q609.6619 87.171875 608.61505 87.171875Q607.5682 87.171875 606.86505 87.96875Q606.17755 88.75 606.17755 90.34375ZM614.2557 94.5L614.2557 86.203125L615.5213 86.203125L615.5213 87.375Q616.42755 86.015625 618.1619 86.015625Q618.9119 86.015625 619.5369 86.28125Q620.1619 86.546875 620.4744 86.984375Q620.7869 87.421875 620.9119 88.03125Q620.99005 88.421875 620.99005 89.390625L620.99005 94.5L619.5838 94.5L619.5838 89.453125Q619.5838 88.59375 619.4119 88.171875Q619.2557 87.734375 618.8338 87.484375Q618.42755 87.234375 617.86505 87.234375Q616.9588 87.234375 616.30255 87.8125Q615.6619 88.375 615.6619 89.96875L615.6619 94.5L614.2557 94.5Z" fill-rule="nonzero"/><path fill="#bf9000" d="M552.1932 113.0C552.1932 112.447716 552.64087 112.0 553.1932 112.0L563.1932 112.0C563.7454 112.0 564.1932 112.447716 564.1932 113.0L564.1932 123.0C564.1932 123.552284 563.7454 124.0 563.1932 124.0L553.1932 124.0C552.64087 124.0 552.1932 123.552284 552.1932 123.0Z" fill-rule="nonzero"/><path fill="#1a1a1a" d="M573.4588 123.5L573.4588 112.046875L578.5369 112.046875Q580.0682 112.046875 580.86505 112.359375Q581.6619 112.65625 582.1307 113.4375Q582.61505 114.21875 582.61505 115.171875Q582.61505 116.390625 581.8182 117.234375Q581.0369 118.0625 579.3807 118.28125Q579.99005 118.578125 580.30255 118.859375Q580.9588 119.46875 581.55255 120.375L583.55255 123.5L581.6463 123.5L580.1307 121.109375Q579.4588 120.078125 579.0213 119.53125Q578.5994 118.984375 578.2557 118.765625Q577.92755 118.546875 577.5682 118.46875Q577.3182 118.40625 576.7244 118.40625L574.9744 118.40625L574.9744 123.5L573.4588 123.5ZM574.9744 117.09375L578.2244 117.09375Q579.2713 117.09375 579.8494 116.890625Q580.4432 116.671875 580.74005 116.203125Q581.05255 115.71875 581.05255 115.171875Q581.05255 114.359375 580.4588 113.84375Q579.86505 113.3125 578.5994 113.3125L574.9744 113.3125L574.9744 117.09375ZM590.6932 123.5L590.6932 122.28125Q589.7244 123.6875 588.05255 123.6875Q587.3182 123.6875 586.67755 123.40625Q586.05255 123.125 585.74005 122.703125Q585.42755 122.265625 585.30255 121.65625Q585.2244 121.234375 585.2244 120.34375L585.2244 115.203125L586.6307 115.203125L586.6307 119.796875Q586.6307 120.90625 586.7088 121.28125Q586.8494 121.84375 587.2713 122.15625Q587.7088 122.46875 588.3338 122.46875Q588.9744 122.46875 589.5213 122.15625Q590.0838 121.828125 590.30255 121.265625Q590.5369 120.703125 590.5369 119.640625L590.5369 115.203125L591.9432 115.203125L591.9432 123.5L590.6932 123.5ZM593.6932 121.015625L595.0838 120.796875Q595.1932 121.640625 595.7244 122.09375Q596.2713 122.53125 597.2244 122.53125Q598.1932 122.53125 598.6619 122.140625Q599.1307 121.734375 599.1307 121.203125Q599.1307 120.734375 598.7244 120.453125Q598.42755 120.265625 597.2869 119.984375Q595.74005 119.59375 595.1307 119.3125Q594.5369 119.015625 594.2244 118.515625Q593.92755 118.015625 593.92755 117.40625Q593.92755 116.84375 594.17755 116.375Q594.42755 115.90625 594.86505 115.59375Q595.1932 115.34375 595.7557 115.1875Q596.3338 115.015625 596.9744 115.015625Q597.9588 115.015625 598.6932 115.296875Q599.42755 115.578125 599.7713 116.0625Q600.1307 116.53125 600.2713 117.34375L598.8963 117.53125Q598.80255 116.890625 598.3494 116.53125Q597.8963 116.171875 597.0838 116.171875Q596.11505 116.171875 595.6932 116.5Q595.2869 116.8125 595.2869 117.234375Q595.2869 117.515625 595.4588 117.734375Q595.6307 117.953125 595.99005 118.109375Q596.2088 118.1875 597.24005 118.46875Q598.7244 118.859375 599.3182 119.125Q599.9119 119.375 600.24005 119.859375Q600.5838 120.34375 600.5838 121.0625Q600.5838 121.765625 600.1619 122.390625Q599.7557 123.0 598.9744 123.34375Q598.2088 123.6875 597.24005 123.6875Q595.61505 123.6875 594.7713 123.015625Q593.92755 122.34375 593.6932 121.015625ZM605.3182 122.234375L605.5213 123.484375Q604.92755 123.609375 604.4588 123.609375Q603.6932 123.609375 603.2713 123.375Q602.8494 123.125 602.67755 122.734375Q602.5057 122.328125 602.5057 121.0625L602.5057 116.296875L601.4744 116.296875L601.4744 115.203125L602.5057 115.203125L602.5057 113.140625L603.9119 112.296875L603.9119 115.203125L605.3182 115.203125L605.3182 116.296875L603.9119 116.296875L603.9119 121.140625Q603.9119 121.75 603.9744 121.921875Q604.05255 122.09375 604.2244 122.203125Q604.3963 122.296875 604.7088 122.296875Q604.9432 122.296875 605.3182 122.234375Z" fill-rule="nonzero"/><path fill="#757575" d="M25.521645 42.4L25.521645 27.884377L20.09977 27.884377L20.09977 25.931252L33.146645 25.931252L33.146645 27.884377L27.69352 27.884377L27.69352 42.4L25.521645 42.4ZM35.052895 42.4L35.052895 30.478127L36.865395 30.478127L36.865395 32.275Q37.56852 31.009377 38.146645 30.603127Q38.740395 30.196877 39.44352 30.196877Q40.47477 30.196877 41.521645 30.853127L40.834145 32.728127Q40.084145 32.290627 39.34977 32.290627Q38.677895 32.290627 38.146645 32.696877Q37.63102 33.0875 37.41227 33.790627Q37.06852 34.86875 37.06852 36.15L37.06852 42.4L35.052895 42.4ZM50.84977 40.93125Q49.72477 41.884377 48.677895 42.275Q47.646645 42.665627 46.459145 42.665627Q44.490395 42.665627 43.427895 41.7125Q42.38102 40.74375 42.38102 39.259377Q42.38102 38.384377 42.771645 37.665627Q43.177895 36.93125 43.81852 36.49375Q44.47477 36.05625 45.28727 35.8375Q45.88102 35.665627 47.084145 35.525Q49.521645 35.228127 50.677895 34.8375Q50.69352 34.415627 50.69352 34.30625Q50.69352 33.071877 50.115395 32.55625Q49.34977 31.884377 47.81852 31.884377Q46.396645 31.884377 45.709145 32.384377Q45.03727 32.86875 44.709145 34.15L42.72477 33.86875Q43.00602 32.603127 43.615395 31.821877Q44.240395 31.040627 45.396645 30.618752Q46.56852 30.196877 48.115395 30.196877Q49.646645 30.196877 50.59977 30.556252Q51.552895 30.915627 51.990395 31.462502Q52.44352 32.009377 52.63102 32.8375Q52.72477 33.353127 52.72477 34.7125L52.72477 37.4Q52.72477 40.228127 52.84977 40.978127Q52.990395 41.7125 53.365395 42.4L51.25602 42.4Q50.94352 41.775 50.84977 40.93125ZM50.677895 36.415627Q49.584145 36.86875 47.38102 37.18125Q46.13102 37.353127 45.615395 37.5875Q45.09977 37.80625 44.81852 38.24375Q44.53727 38.665627 44.53727 39.196877Q44.53727 40.009377 45.146645 40.55625Q45.771645 41.0875 46.94352 41.0875Q48.115395 41.0875 49.021645 40.571877Q49.927895 40.05625 50.365395 39.18125Q50.677895 38.49375 50.677895 37.15L50.677895 36.415627ZM56.06852 42.4L56.06852 30.478127L57.88102 30.478127L57.88102 32.165627Q59.209145 30.196877 61.677895 30.196877Q62.75602 30.196877 63.66227 30.587502Q64.56852 30.978127 65.021645 31.618752Q65.47477 32.24375 65.646645 33.103127Q65.75602 33.665627 65.75602 35.071877L65.75602 42.4L63.740395 42.4L63.740395 35.15Q63.740395 33.915627 63.50602 33.30625Q63.271645 32.68125 62.66227 32.321877Q62.06852 31.962502 61.25602 31.962502Q59.959145 31.962502 59.021645 32.775Q58.084145 33.5875 58.084145 35.884377L58.084145 42.4L56.06852 42.4ZM68.25602 38.8375L70.25602 38.525Q70.427895 39.728127 71.19352 40.36875Q71.959145 41.009377 73.34977 41.009377Q74.740395 41.009377 75.41227 40.446877Q76.084145 39.86875 76.084145 39.103127Q76.084145 38.43125 75.490395 38.025Q75.084145 37.759377 73.427895 37.353127Q71.209145 36.790627 70.34977 36.384377Q69.490395 35.9625 69.03727 35.24375Q68.59977 34.509377 68.59977 33.634377Q68.59977 32.8375 68.959145 32.165627Q69.334145 31.478127 69.959145 31.040627Q70.427895 30.681252 71.240395 30.446877Q72.052895 30.196877 72.990395 30.196877Q74.396645 30.196877 75.459145 30.603127Q76.521645 31.009377 77.021645 31.712502Q77.521645 32.4 77.709145 33.55625L75.740395 33.821877Q75.59977 32.9 74.959145 32.384377Q74.31852 31.868752 73.13102 31.868752Q71.740395 31.868752 71.146645 32.3375Q70.552895 32.790627 70.552895 33.4Q70.552895 33.790627 70.802895 34.11875Q71.052895 34.43125 71.56852 34.65Q71.88102 34.759377 73.365395 35.165627Q75.50602 35.74375 76.34977 36.103127Q77.19352 36.4625 77.677895 37.165627Q78.16227 37.86875 78.16227 38.9Q78.16227 39.9 77.56852 40.80625Q76.990395 41.696877 75.865395 42.18125Q74.75602 42.665627 73.365395 42.665627Q71.03727 42.665627 69.81852 41.7125Q68.59977 40.74375 68.25602 38.8375ZM81.021645 42.4L81.021645 25.931252L83.052895 25.931252L83.052895 42.4L81.021645 42.4ZM93.84977 40.93125Q92.72477 41.884377 91.677895 42.275Q90.646645 42.665627 89.459145 42.665627Q87.490395 42.665627 86.427895 41.7125Q85.38102 40.74375 85.38102 39.259377Q85.38102 38.384377 85.771645 37.665627Q86.177895 36.93125 86.81852 36.49375Q87.47477 36.05625 88.28727 35.8375Q88.88102 35.665627 90.084145 35.525Q92.521645 35.228127 93.677895 34.8375Q93.69352 34.415627 93.69352 34.30625Q93.69352 33.071877 93.115395 32.55625Q92.34977 31.884377 90.81852 31.884377Q89.396645 31.884377 88.709145 32.384377Q88.03727 32.86875 87.709145 34.15L85.72477 33.86875Q86.00602 32.603127 86.615395 31.821877Q87.240395 31.040627 88.396645 30.618752Q89.56852 30.196877 91.115395 30.196877Q92.646645 30.196877 93.59977 30.556252Q94.552895 30.915627 94.990395 31.462502Q95.44352 32.009377 95.63102 32.8375Q95.72477 33.353127 95.72477 34.7125L95.72477 37.4Q95.72477 40.228127 95.84977 40.978127Q95.990395 41.7125 96.365395 42.4L94.25602 42.4Q93.94352 41.775 93.84977 40.93125ZM93.677895 36.415627Q92.584145 36.86875 90.38102 37.18125Q89.13102 37.353127 88.615395 37.5875Q88.09977 37.80625 87.81852 38.24375Q87.53727 38.665627 87.53727 39.196877Q87.53727 40.009377 88.146645 40.55625Q88.771645 41.0875 89.94352 41.0875Q91.115395 41.0875 92.021645 40.571877Q92.927895 40.05625 93.365395 39.18125Q93.677895 38.49375 93.677895 37.15L93.677895 36.415627ZM103.490395 40.5875L103.771645 42.384377Q102.927895 42.55625 102.240395 42.55625Q101.146645 42.55625 100.53727 42.2125Q99.927895 41.853127 99.677895 41.290627Q99.44352 40.728127 99.44352 38.9L99.44352 32.040627L97.959145 32.040627L97.959145 30.478127L99.44352 30.478127L99.44352 27.525002L101.44352 26.306252L101.44352 30.478127L103.490395 30.478127L103.490395 32.040627L101.44352 32.040627L101.44352 39.025Q101.44352 39.884377 101.552895 40.134377Q101.66227 40.384377 101.896645 40.525Q102.146645 40.665627 102.59977 40.665627Q102.927895 40.665627 103.490395 40.5875ZM105.084145 28.259377L105.084145 25.931252L107.09977 25.931252L107.09977 28.259377L105.084145 28.259377ZM105.084145 42.4L105.084145 30.478127L107.09977 30.478127L107.09977 42.4L105.084145 42.4ZM109.31852 36.43125Q109.31852 33.11875 111.16227 31.525002Q112.69352 30.196877 114.91227 30.196877Q117.365395 30.196877 118.927895 31.821877Q120.490395 33.43125 120.490395 36.275Q120.490395 38.571877 119.802895 39.9Q119.115395 41.2125 117.78727 41.946877Q116.47477 42.665627 114.91227 42.665627Q112.41227 42.665627 110.865395 41.071877Q109.31852 39.4625 109.31852 36.43125ZM111.396645 36.43125Q111.396645 38.728127 112.396645 39.86875Q113.396645 41.009377 114.91227 41.009377Q116.41227 41.009377 117.41227 39.86875Q118.41227 38.7125 118.41227 36.36875Q118.41227 34.15 117.396645 33.025Q116.396645 31.884377 114.91227 31.884377Q113.396645 31.884377 112.396645 33.025Q111.396645 34.15 111.396645 36.43125ZM123.06852 42.4L123.06852 30.478127L124.88102 30.478127L124.88102 32.165627Q126.209145 30.196877 128.67789 30.196877Q129.75601 30.196877 130.66226 30.587502Q131.56851 30.978127 132.02164 31.618752Q132.47476 32.24375 132.64664 33.103127Q132.75601 33.665627 132.75601 35.071877L132.75601 42.4L130.74039 42.4L130.74039 35.15Q130.74039 33.915627 130.50601 33.30625Q130.27164 32.68125 129.66226 32.321877Q129.06851 31.962502 128.25601 31.962502Q126.959145 31.962502 126.021645 32.775Q125.084145 33.5875 125.084145 35.884377L125.084145 42.4L123.06852 42.4ZM146.52164 42.4L146.52164 27.884377L141.09976 27.884377L141.09976 25.931252L154.14664 25.931252L154.14664 27.884377L148.69351 27.884377L148.69351 42.4L146.52164 42.4ZM155.50601 38.0875L157.63101 37.9Q157.86539 39.4625 158.72476 40.24375Q159.58414 41.025 160.80289 41.025Q162.25601 41.025 163.25601 39.93125Q164.27164 38.821877 164.27164 36.99375Q164.27164 35.275 163.30289 34.275Q162.33414 33.275 160.75601 33.275Q159.78726 33.275 158.99039 33.7125Q158.20914 34.15 157.77164 34.86875L155.86539 34.61875L157.45914 26.165627L165.64664 26.165627L165.64664 28.087502L159.08414 28.087502L158.19351 32.509377Q159.67789 31.478127 161.30289 31.478127Q163.45914 31.478127 164.94351 32.978127Q166.42789 34.478127 166.42789 36.821877Q166.42789 39.05625 165.11539 40.68125Q163.53726 42.68125 160.80289 42.68125Q158.55289 42.68125 157.13101 41.43125Q155.70914 40.165627 155.50601 38.0875ZM168.28726 37.4625L168.28726 35.43125L174.49039 35.43125L174.49039 37.4625L168.28726 37.4625ZM178.92789 42.4L177.05289 42.4L177.05289 25.931252L179.08414 25.931252L179.08414 31.806252Q180.36539 30.196877 182.34976 30.196877Q183.44351 30.196877 184.42789 30.650002Q185.41226 31.087502 186.03726 31.900002Q186.67789 32.696877 187.03726 33.8375Q187.39664 34.9625 187.39664 36.259377Q187.39664 39.321877 185.88101 40.99375Q184.36539 42.665627 182.24039 42.665627Q180.13101 42.665627 178.92789 40.9L178.92789 42.4ZM178.91226 36.353127Q178.91226 38.49375 179.49039 39.446877Q180.44351 41.009377 182.08414 41.009377Q183.39664 41.009377 184.36539 39.86875Q185.33414 38.7125 185.33414 36.43125Q185.33414 34.0875 184.39664 32.978127Q183.47476 31.868752 182.16226 31.868752Q180.84976 31.868752 179.88101 33.025Q178.91226 34.165627 178.91226 36.353127ZM197.84976 40.93125Q196.72476 41.884377 195.67789 42.275Q194.64664 42.665627 193.45914 42.665627Q191.49039 42.665627 190.42789 41.7125Q189.38101 40.74375 189.38101 39.259377Q189.38101 38.384377 189.77164 37.665627Q190.17789 36.93125 190.81851 36.49375Q191.47476 36.05625 192.28726 35.8375Q192.88101 35.665627 194.08414 35.525Q196.52164 35.228127 197.67789 34.8375Q197.69351 34.415627 197.69351 34.30625Q197.69351 33.071877 197.11539 32.55625Q196.34976 31.884377 194.81851 31.884377Q193.39664 31.884377 192.70914 32.384377Q192.03726 32.86875 191.70914 34.15L189.72476 33.86875Q190.00601 32.603127 190.61539 31.821877Q191.24039 31.040627 192.39664 30.618752Q193.56851 30.196877 195.11539 30.196877Q196.64664 30.196877 197.59976 30.556252Q198.55289 30.915627 198.99039 31.462502Q199.44351 32.009377 199.63101 32.8375Q199.72476 33.353127 199.72476 34.7125L199.72476 37.4Q199.72476 40.228127 199.84976 40.978127Q199.99039 41.7125 200.36539 42.4L198.25601 42.4Q197.94351 41.775 197.84976 40.93125ZM197.67789 36.415627Q196.58414 36.86875 194.38101 37.18125Q193.13101 37.353127 192.61539 37.5875Q192.09976 37.80625 191.81851 38.24375Q191.53726 38.665627 191.53726 39.196877Q191.53726 40.009377 192.14664 40.55625Q192.77164 41.0875 193.94351 41.0875Q195.11539 41.0875 196.02164 40.571877Q196.92789 40.05625 197.36539 39.18125Q197.67789 38.49375 197.67789 37.15L197.67789 36.415627ZM202.25601 38.8375L204.25601 38.525Q204.42789 39.728127 205.19351 40.36875Q205.95914 41.009377 207.34976 41.009377Q208.74039 41.009377 209.41226 40.446877Q210.08414 39.86875 210.08414 39.103127Q210.08414 38.43125 209.49039 38.025Q209.08414 37.759377 207.42789 37.353127Q205.20914 36.790627 204.34976 36.384377Q203.49039 35.9625 203.03726 35.24375Q202.59976 34.509377 202.59976 33.634377Q202.59976 32.8375 202.95914 32.165627Q203.33414 31.478127 203.95914 31.040627Q204.42789 30.681252 205.24039 30.446877Q206.05289 30.196877 206.99039 30.196877Q208.39664 30.196877 209.45914 30.603127Q210.52164 31.009377 211.02164 31.712502Q211.52164 32.4 211.70914 33.55625L209.74039 33.821877Q209.59976 32.9 208.95914 32.384377Q208.31851 31.868752 207.13101 31.868752Q205.74039 31.868752 205.14664 32.3375Q204.55289 32.790627 204.55289 33.4Q204.55289 33.790627 204.80289 34.11875Q205.05289 34.43125 205.56851 34.65Q205.88101 34.759377 207.36539 35.165627Q209.50601 35.74375 210.34976 36.103127Q211.19351 36.4625 211.67789 37.165627Q212.16226 37.86875 212.16226 38.9Q212.16226 39.9 211.56851 40.80625Q210.99039 41.696877 209.86539 42.18125Q208.75601 42.665627 207.36539 42.665627Q205.03726 42.665627 203.81851 41.7125Q202.59976 40.74375 202.25601 38.8375ZM223.24039 38.55625L225.31851 38.821877Q224.83414 40.65 223.49039 41.665627Q222.16226 42.665627 220.08414 42.665627Q217.45914 42.665627 215.92789 41.05625Q214.39664 39.446877 214.39664 36.540627Q214.39664 33.525 215.94351 31.868752Q217.49039 30.196877 219.95914 30.196877Q222.36539 30.196877 223.88101 31.837502Q225.39664 33.4625 225.39664 36.415627Q225.39664 36.5875 225.38101 36.946877L216.49039 36.946877Q216.59976 38.915627 217.59976 39.9625Q218.59976 41.009377 220.08414 41.009377Q221.19351 41.009377 221.97476 40.43125Q222.77164 39.8375 223.24039 38.55625ZM216.59976 35.290627L223.25601 35.290627Q223.11539 33.790627 222.49039 33.040627Q221.52164 31.868752 219.99039 31.868752Q218.59976 31.868752 217.64664 32.80625Q216.69351 33.728127 216.59976 35.290627ZM228.59976 42.4L228.59976 40.103127L230.89664 40.103127L230.89664 42.4Q230.89664 43.665627 230.44351 44.446877Q230.00601 45.228127 229.02164 45.65L228.45914 44.790627Q229.09976 44.509377 229.39664 43.9625Q229.70914 43.415627 229.74039 42.4L228.59976 42.4ZM249.99039 29.962502L247.99039 30.118752Q247.72476 28.931252 247.22476 28.400002Q246.39664 27.525002 245.20914 27.525002Q244.24039 27.525002 243.50601 28.071877Q242.55289 28.759377 241.99039 30.103127Q241.44351 31.431252 241.42789 33.915627Q242.16226 32.790627 243.20914 32.259377Q244.27164 31.712502 245.42789 31.712502Q247.44351 31.712502 248.86539 33.2125Q250.28726 34.696877 250.28726 37.05625Q250.28726 38.603127 249.61539 39.93125Q248.95914 41.259377 247.78726 41.978127Q246.61539 42.68125 245.13101 42.68125Q242.59976 42.68125 241.00601 40.821877Q239.41226 38.9625 239.41226 34.696877Q239.41226 29.915627 241.17789 27.759377Q242.72476 25.868752 245.31851 25.868752Q247.27164 25.868752 248.50601 26.962502Q249.75601 28.040627 249.99039 29.962502ZM241.74039 37.071877Q241.74039 38.103127 242.17789 39.071877Q242.63101 40.025 243.42789 40.525Q244.22476 41.025 245.09976 41.025Q246.38101 41.025 247.30289 39.99375Q248.22476 38.946877 248.22476 37.18125Q248.22476 35.478127 247.30289 34.49375Q246.39664 33.509377 245.02164 33.509377Q243.64664 33.509377 242.69351 34.49375Q241.74039 35.478127 241.74039 37.071877ZM260.9279 42.4L259.0529 42.4L259.0529 25.931252L261.08414 25.931252L261.08414 31.806252Q262.3654 30.196877 264.34976 30.196877Q265.4435 30.196877 266.4279 30.650002Q267.41226 31.087502 268.03726 31.900002Q268.6779 32.696877 269.03726 33.8375Q269.39664 34.9625 269.39664 36.259377Q269.39664 39.321877 267.881 40.99375Q266.3654 42.665627 264.2404 42.665627Q262.131 42.665627 260.9279 40.9L260.9279 42.4ZM260.91226 36.353127Q260.91226 38.49375 261.4904 39.446877Q262.4435 41.009377 264.08414 41.009377Q265.39664 41.009377 266.3654 39.86875Q267.33414 38.7125 267.33414 36.43125Q267.33414 34.0875 266.39664 32.978127Q265.47476 31.868752 264.16226 31.868752Q262.84976 31.868752 261.881 33.025Q260.91226 34.165627 260.91226 36.353127ZM280.2404 38.55625L282.3185 38.821877Q281.83414 40.65 280.4904 41.665627Q279.16226 42.665627 277.08414 42.665627Q274.45914 42.665627 272.9279 41.05625Q271.39664 39.446877 271.39664 36.540627Q271.39664 33.525 272.9435 31.868752Q274.4904 30.196877 276.95914 30.196877Q279.3654 30.196877 280.881 31.837502Q282.39664 33.4625 282.39664 36.415627Q282.39664 36.5875 282.381 36.946877L273.4904 36.946877Q273.59976 38.915627 274.59976 39.9625Q275.59976 41.009377 277.08414 41.009377Q278.1935 41.009377 278.97476 40.43125Q279.77164 39.8375 280.2404 38.55625ZM273.59976 35.290627L280.256 35.290627Q280.1154 33.790627 279.4904 33.040627Q278.52164 31.868752 276.9904 31.868752Q275.59976 31.868752 274.64664 32.80625Q273.6935 33.728127 273.59976 35.290627ZM292.84976 40.93125Q291.72476 41.884377 290.6779 42.275Q289.64664 42.665627 288.45914 42.665627Q286.4904 42.665627 285.4279 41.7125Q284.381 40.74375 284.381 39.259377Q284.381 38.384377 284.77164 37.665627Q285.1779 36.93125 285.8185 36.49375Q286.47476 36.05625 287.28726 35.8375Q287.881 35.665627 289.08414 35.525Q291.52164 35.228127 292.6779 34.8375Q292.6935 34.415627 292.6935 34.30625Q292.6935 33.071877 292.1154 32.55625Q291.34976 31.884377 289.8185 31.884377Q288.39664 31.884377 287.70914 32.384377Q287.03726 32.86875 286.70914 34.15L284.72476 33.86875Q285.006 32.603127 285.6154 31.821877Q286.2404 31.040627 287.39664 30.618752Q288.5685 30.196877 290.1154 30.196877Q291.64664 30.196877 292.59976 30.556252Q293.5529 30.915627 293.9904 31.462502Q294.4435 32.009377 294.631 32.8375Q294.72476 33.353127 294.72476 34.7125L294.72476 37.4Q294.72476 40.228127 294.84976 40.978127Q294.9904 41.7125 295.3654 42.4L293.256 42.4Q292.9435 41.775 292.84976 40.93125ZM292.6779 36.415627Q291.58414 36.86875 289.381 37.18125Q288.131 37.353127 287.6154 37.5875Q287.09976 37.80625 286.8185 38.24375Q286.53726 38.665627 286.53726 39.196877Q286.53726 40.009377 287.14664 40.55625Q287.77164 41.0875 288.9435 41.0875Q290.1154 41.0875 291.02164 40.571877Q291.9279 40.05625 292.3654 39.18125Q292.6779 38.49375 292.6779 37.15L292.6779 36.415627ZM298.0685 42.4L298.0685 30.478127L299.881 30.478127L299.881 32.15Q300.4435 31.275002 301.3654 30.743752Q302.3029 30.196877 303.4904 30.196877Q304.8185 30.196877 305.66226 30.759377Q306.52164 31.306252 306.8654 32.290627Q308.27164 30.196877 310.5529 30.196877Q312.3185 30.196877 313.27164 31.181252Q314.22476 32.165627 314.22476 34.2125L314.22476 42.4L312.22476 42.4L312.22476 34.884377Q312.22476 33.68125 312.02164 33.15Q311.83414 32.603127 311.3029 32.290627Q310.78726 31.962502 310.09976 31.962502Q308.83414 31.962502 308.006 32.80625Q307.1779 33.634377 307.1779 35.478127L307.1779 42.4L305.16226 42.4L305.16226 34.65Q305.16226 33.30625 304.66226 32.634377Q304.16226 31.962502 303.03726 31.962502Q302.1935 31.962502 301.45914 32.415627Q300.7404 32.853127 300.41226 33.728127Q300.08414 34.5875 300.08414 36.2125L300.08414 42.4L298.0685 42.4ZM316.256 38.8375L318.256 38.525Q318.4279 39.728127 319.1935 40.36875Q319.95914 41.009377 321.34976 41.009377Q322.7404 41.009377 323.41226 40.446877Q324.08414 39.86875 324.08414 39.103127Q324.08414 38.43125 323.4904 38.025Q323.08414 37.759377 321.4279 37.353127Q319.20914 36.790627 318.34976 36.384377Q317.4904 35.9625 317.03726 35.24375Q316.59976 34.509377 316.59976 33.634377Q316.59976 32.8375 316.95914 32.165627Q317.33414 31.478127 317.95914 31.040627Q318.4279 30.681252 319.2404 30.446877Q320.0529 30.196877 320.9904 30.196877Q322.39664 30.196877 323.45914 30.603127Q324.52164 31.009377 325.02164 31.712502Q325.52164 32.4 325.70914 33.55625L323.7404 33.821877Q323.59976 32.9 322.95914 32.384377Q322.3185 31.868752 321.131 31.868752Q319.7404 31.868752 319.14664 32.3375Q318.5529 32.790627 318.5529 33.4Q318.5529 33.790627 318.8029 34.11875Q319.0529 34.43125 319.5685 34.65Q319.881 34.759377 321.3654 35.165627Q323.506 35.74375 324.34976 36.103127Q325.1935 36.4625 325.6779 37.165627Q326.16226 37.86875 326.16226 38.9Q326.16226 39.9 325.5685 40.80625Q324.9904 41.696877 323.8654 42.18125Q322.756 42.665627 321.3654 42.665627Q319.03726 42.665627 317.8185 41.7125Q316.59976 40.74375 316.256 38.8375Z" fill-rule="nonzero"/></svg>